<svg xmlns="http://www.w3.org/2000/svg" viewBox="0 0 320.84 222.29"><defs><style>.cls-1{fill:#ff9c01;}.cls-2{fill:#e6e6e6;}</style></defs><title>aboutMeDark</title><g id="Camada_2" data-name="Camada 2"><g id="Camada_1-2" data-name="Camada 1"><path class="cls-1" d="M143.14,124a1.49,1.49,0,0,1-.59-.12,15.27,15.27,0,0,1-5.09-3.4,17.13,17.13,0,0,1-10.63-2.36c-1.68.68-5.49,1.8-8.72-.18l-6.33,4.14a1.5,1.5,0,1,1-1.64-2.51l7.19-4.7,1.79.11c2.77,2.34,7.14.11,7.19.09l1.61.14c4.13,3.16,9.84,2.21,9.89,2.2l1.42.53a11.66,11.66,0,0,0,4.51,3.18,1.5,1.5,0,0,1-.6,2.88Z"/><path class="cls-1" d="M144.53,151a4,4,0,0,1-1.12-.16c-2.22-.65-4.16-3.17-5.78-7.49a26.53,26.53,0,0,1-1.75-7.05c-1.87-3.57-3.6-7.81-2.93-10.3-6-5.21-6.66-7.34-5.76-8.89a2.3,2.3,0,0,1,.95-.89,1.5,1.5,0,0,1,1.86,2.28c.31.61,1.47,2.33,5.86,6l-.17,2.42a.42.42,0,0,0,.16-.16c-.37.88,1,4.89,2.86,8.42l.18.7a22.13,22.13,0,0,0,1.55,6.36c1.69,4.51,3.19,5.47,3.75,5.67a1.08,1.08,0,0,0,.35.07,14.07,14.07,0,0,0,.23-6l.08-.83c.58-1.46-.74-5.16-1.87-7.32l-.14-1a14.5,14.5,0,0,0,0-6.49,14.28,14.28,0,0,0-1.22-3.28,1.5,1.5,0,0,1,2.66-1.38,17.29,17.29,0,0,1,1.63,11.26c.81,1.65,2.72,6,1.9,8.91.18,1.24.59,5.07-.73,8l-.46.58A3.49,3.49,0,0,1,144.53,151Zm1.14-1.82h0Zm-16.14-30.3Z"/><path class="cls-1" d="M139.9,150.09a3.89,3.89,0,0,1-2.12-.64l-.18-.15a23.16,23.16,0,0,1-7-12.33,20.46,20.46,0,0,1-4.43-9.23c-6.84-5.12-7.78-9.76-7.82-10a1.5,1.5,0,0,1,2.95-.57c0,.1,1,4,7.15,8.48l.62,1.12a16.85,16.85,0,0,0,4.08,8.54l.32.68a20.12,20.12,0,0,0,1.38,4.41,20.32,20.32,0,0,0,4.68,6.56.72.72,0,0,0,.53.07.62.62,0,0,0,.29-.24,1.5,1.5,0,1,1,2.48,1.69,3.58,3.58,0,0,1-1.76,1.38A3.44,3.44,0,0,1,139.9,150.09Z"/><path class="cls-1" d="M126.05,133.58l-.21,0a1.5,1.5,0,0,1-1.27-1.69c.38-2.68.28-5-.05-5.46a1.47,1.47,0,0,1-.08-2.1,1.52,1.52,0,0,1,2.14-.08c1.55,1.41,1.38,5.15,1,8A1.51,1.51,0,0,1,126.05,133.58Z"/><path class="cls-1" d="M119.38,149.5a2.46,2.46,0,0,1-1-.22l-.26-.16c-4-3-3.37-6.84-3.34-7l.43-3.74a1.5,1.5,0,0,1,3,.34l-.44,3.84a4.41,4.41,0,0,0,1.72,3.79c.24-.34.72-1.3.9-3.8a1.5,1.5,0,1,1,3,.22c-.25,3.41-1.08,5.48-2.53,6.33A2.79,2.79,0,0,1,119.38,149.5Z"/><path class="cls-1" d="M117.92,129a1.5,1.5,0,0,1-1.25-.66l-4-6H111a1.5,1.5,0,1,1,0-3h2.49l1.25.66,4.47,6.65a1.5,1.5,0,0,1-1.24,2.34Z"/><path class="cls-1" d="M158.28,130.88a12.12,12.12,0,0,1-10-5.36,25.33,25.33,0,0,1-5.7-1.66,1.5,1.5,0,0,1,1.19-2.75,21.94,21.94,0,0,0,5.55,1.53l1.1.68a9,9,0,0,0,9.68,4.34,3.24,3.24,0,0,0,.51-.2c-1.58-1.63-4.19-4.86-4.77-5.58L149.58,117l-.55-.89a5.85,5.85,0,0,0-1.29-1.93,2.82,2.82,0,0,0-1.49-.94,7.42,7.42,0,0,1-2.06-.84c-.79-.47-7.08-2.69-12.7-4.57l-.48-.27-4.7-3.87-.39-.49-.12-.24c-1.93-3.65-4.6-3.9-4.71-3.9L98.42,97.7,98,97.63l-9.33-3c-18.5-4.09-28,2.47-28,2.53l-.17.11a86.19,86.19,0,0,1-16.09,6.49h-.76C40.88,103,16.56,96.29,14.32,88a5.5,5.5,0,0,1,1.75-5.52C24.88,73.62,29.34,60.11,29.38,60l.28-.5a6.19,6.19,0,0,1,4.76-2c3.08.1,6.25,2.32,9.42,6.6.55.74.83,1.12-3.8,13.53a7.82,7.82,0,0,0,.77.68c3.42-4.71,6.94-9.83,7.27-10.78a1,1,0,0,0,0,.3l1.57-1.5c.26,0,6.4.4,21.82,10.68,2.07-.74,8.64-3.92,7.56-14L68,55.86c-1.39-.76-19-10.8-29.55-36.69a46.49,46.49,0,0,1-4.19,14.25l-1.35.85c-.36,0-1.19,0-8-3.7l-.53-.49L24.27,30l-.07,0-3.61,3.61c-2.54,3-3.33,4.56-3.58,5.22l.83.83c1.41,1.41,5.4,7.13,5.85,7.78l.19,1.33c-.85,2.55-10.41,9-16,12.69l-2.22-.73C-6.38,29,32.49,11.34,36.23,9.73a1.5,1.5,0,0,1,2.48,1c0,.16,0,.32,0,.49,9.81,30.46,30.51,41.88,30.72,42l.11.06L81.2,60.89l.67,1.05c2.05,15-10.21,18.14-10.33,18.17l-1.19-.21C58.76,72.12,52.6,70.05,50.4,69.52A125.47,125.47,0,0,1,42.62,80.9l-.15.17a1.88,1.88,0,0,1-1.39.51c-1.09,0-2.33-.85-3.9-2.6l-.29-1.53c1.83-4.87,3.76-10.36,4.18-12-3-3.93-5.3-4.85-6.69-4.92a3.26,3.26,0,0,0-2.26.76c-.79,2.29-5.3,14.67-13.92,23.29-1.19,1.19-1.13,2.07-1,2.63,1.33,5,17,10.9,26.81,13.56a85.36,85.36,0,0,0,15-6.09c1.16-.79,11.26-7.21,30.42-2.95l.14,0,9.22,3,22.49,1.37c.16,0,4.41.27,7.18,5.5h0l4.25,3.5c2.46.82,11.64,3.91,13,4.75a4.43,4.43,0,0,0,1.23.5,5.8,5.8,0,0,1,3.07,1.92,10.25,10.25,0,0,1,1.75,2.68l6.24,4.94s3.29,4.1,4.87,5.68a2.64,2.64,0,0,1,.86,2.61c-.42,1.59-2.33,2.23-2.91,2.38A9.73,9.73,0,0,1,158.28,130.88ZM35.79,13.22A72.37,72.37,0,0,0,18.45,24.71C7.54,34.75,4,45.92,7.82,58c5.49-3.64,11.2-7.8,12.83-9.58-1.72-2.44-4.11-5.72-4.93-6.54l-1.35-1.35L14,40c-.58-1.46.87-4.25,4.31-8.29l.08-.09,3.65-3.65a3.27,3.27,0,0,1,2.52-1,2.9,2.9,0,0,1,2,1.12c2,1.06,4.21,2.21,5.51,2.8A43.41,43.41,0,0,0,35.45,18.8,43.34,43.34,0,0,0,35.79,13.22Z"/><path class="cls-1" d="M22.46,49.85a1.5,1.5,0,0,1-1.21-2.39c4.94-6.71,10.43-14.88,10.69-16.38a1.51,1.51,0,0,1,1.72-1.24,1.49,1.49,0,0,1,1.25,1.69c-.43,2.85-8.71,14.28-11.24,17.71A1.5,1.5,0,0,1,22.46,49.85Z"/><path class="cls-1" d="M65.91,76.77a1.5,1.5,0,0,1-.64-2.86c.35-.17,8.57-4.19,8.57-15a1.5,1.5,0,0,1,3,0c0,12.81-9.87,17.56-10.29,17.76A1.49,1.49,0,0,1,65.91,76.77Z"/><path class="cls-1" d="M281.77,80.39a1.5,1.5,0,0,1-1.5-1.5V61.57h-.56A3.56,3.56,0,1,1,283.27,58v.56h8.18V58A3.56,3.56,0,1,1,295,61.57H283.27V78.89A1.5,1.5,0,0,1,281.77,80.39Zm12.68-21.82H295a.56.56,0,1,0-.56-.56Zm-14.74-1.12a.56.56,0,1,0,0,1.12h.56V58A.56.56,0,0,0,279.71,57.45Z"/><path class="cls-1" d="M204.12,158.71a11.32,11.32,0,0,1-6.65-2.16l-.15-.13a5.39,5.39,0,0,1-.47-7.51l.08-.08a20.35,20.35,0,0,1,5.61-3.69,34.74,34.74,0,0,1,5-4.3c-1.54-.91-3.73-2.34-4.74-3-5.6,1.28-9.34-.31-11-1.33-3.23,2-7.92,1.75-9.24,1.63-6.29,2-11,2.2-13.85.6a4.67,4.67,0,0,1-2.41-2.73,4.09,4.09,0,0,1,.71-3.48,3.67,3.67,0,0,1,2.94-1.16,15.59,15.59,0,0,1,10.2-3.51c1.37-1,5.51-3.86,9.8-3.88,2.29-.17,9.14-.63,12-.1a9.72,9.72,0,0,1,4.1-1.08,28.57,28.57,0,0,0,9.9-2.2c1.93-1,16.41-8.61,23-7.57,14.25-.69,17.28-3.67,17.81-5.38a5.5,5.5,0,0,0-.3-3.06,7.41,7.41,0,0,1,0-5.31c1.53-3.39,6.06-5.09,13.85-5.18l7.4,0,1.14.51c3.25,3.72,6.43,5.6,9.45,5.6h0c2.86,0,5.81-1.72,8.77-5.1l1-1.75H275.3l-1.5-1.5V85.37l1.5-1.5h23.8V80.39H275.88l-1.06-2.56a1.14,1.14,0,0,0-.31.49c0-.09.44-2.2-2.89-12.76-2.06-2.18-14.25-16.24-2.21-31.71,1.16-1.49,7.48-8.95,18-9.24C299.68,24.28,306.92,34,307.66,35a21,21,0,0,1,4.43,12.64A21.41,21.41,0,0,1,308.23,61a1.5,1.5,0,1,1-2.34-1.88,18.37,18.37,0,0,0,3.2-11.36,18,18,0,0,0-3.74-10.82l-.12-.15c-.27-.39-6.6-9.5-17.72-9.19-9.2.26-14.72,6.78-15.74,8.09-11.39,14.65,1.65,27.46,2.21,28l.39.63c2.3,7.22,3,11,3.16,13.07h23.06l1.5,1.5v6.47l-1.5,1.5H276.8v3.47h23.8l1.3,2.24-2.52,4.36c-3.58,4.13-7.32,6.23-11.12,6.24h0c-3.76,0-7.54-2.06-11.25-6.11l-6.71,0c-8,.09-10.46,1.91-11.14,3.41-.43.95-.21,1.86.18,3.28a8,8,0,0,1,.27,4.75c-1.4,4.52-8,6.9-20.7,7.5l-.35,0c-4.72-.88-17,4.95-21.28,7.27l-.12.06A31.12,31.12,0,0,1,206,125.81a7.37,7.37,0,0,0-3.13,1l-1.33.11c-1-.4-6.73-.26-11.44.1H190c-4.1,0-8.37,3.52-8.42,3.56l-1.05.34a12.46,12.46,0,0,0-9,3.08l-1.23.43c-.71-.08-1,.05-1.05.11a1.28,1.28,0,0,0-.06.77c.36.94,3.39,2.94,12.73-.09l.65-.06c1.56.19,6.07.28,8.2-1.59h2c.13.11,3.48,2.93,9.94,1.23l1.21.2c1.28.85,4.88,3.21,6.09,3.81l.75.87a2.73,2.73,0,0,1-1,3.31,32,32,0,0,0-5.09,4.35l-.6.45a18.1,18.1,0,0,0-4.93,3.14,2.38,2.38,0,0,0,.26,3.32c.71.5,5.92,3.83,11.24-1.48.14-.15,4.56-4.91,13.33-8.9a1.5,1.5,0,1,1,1.24,2.73,41.55,41.55,0,0,0-12.41,8.24A12.05,12.05,0,0,1,204.12,158.71Zm4.14-18.36-.08,0Z"/><path class="cls-1" d="M205.38,177h-.28c-1.66-.13-3.6-1.54-3.72-3.34a10.57,10.57,0,0,1,.26-2.26l.05-.33a1.19,1.19,0,0,0,0-.42,37.44,37.44,0,0,1-.31-5,4.27,4.27,0,0,1,.11-1l1-4.48a1.23,1.23,0,0,0,0-.26v-2.73a1.5,1.5,0,1,1,3,0v2.73a4.27,4.27,0,0,1-.1.92l-1,4.5a1.23,1.23,0,0,0,0,.28,34.44,34.44,0,0,0,.26,4.44,4.15,4.15,0,0,1,0,1.44l0,.21,0,.15a15.08,15.08,0,0,0-.22,1.55,1.72,1.72,0,0,0,1,.56c.6.05,1.51-1.21,2.19-2.13a12.65,12.65,0,0,0,2.45-7.14,4.27,4.27,0,0,1,0-1.47l0-.15c0-.12.05-.25.07-.39l0-.12c0-.1,0-.18,0-.26a2.34,2.34,0,0,1,.16-.46,42.12,42.12,0,0,0,1.66-4,5.86,5.86,0,0,0,.26-1.32,14.52,14.52,0,0,1,.54-2.67,14.92,14.92,0,0,1,.48-1.5,11.59,11.59,0,0,1,2.58-3.91l2.13,2.11h0a8.59,8.59,0,0,0-1.91,2.89,11.82,11.82,0,0,0-.37,1.17,12,12,0,0,0-.46,2.24,8.76,8.76,0,0,1-.38,1.88,43.77,43.77,0,0,1-1.78,4.33v.11c0,.17-.06.35-.1.51l0,.14a1.56,1.56,0,0,0,0,.46,15.32,15.32,0,0,1-3,9.35C208.83,175.14,207.46,177,205.38,177Zm7.67-13.86v0Z"/><path class="cls-1" d="M223.79,177.49a3.17,3.17,0,0,1-1.83-.61,3.75,3.75,0,0,1-1.54-3.68,13.52,13.52,0,0,0-.16-3.38,4.68,4.68,0,0,1,.21-2.18,5.93,5.93,0,0,0,.48-2.75c0-.13-.07-.27-.09-.41l-.15.23c-1.76,9.82-8,12.43-8.29,12.54l-.56.11a4,4,0,0,1-3.49-1.57c-1.28-1.81-.44-4.33-.34-4.61a1.5,1.5,0,0,1,2.83,1,2.68,2.68,0,0,0,0,1.88,1,1,0,0,0,.73.28c1-.55,5-3.09,6.25-10.45l.24-.6c2-2.89,3.55-6.29,3.3-7.13a.42.42,0,0,0,.13.17l-.12-2.23c2.39-2.39,2.91-2.39,3.4-2.39a1.87,1.87,0,0,1,1.89,1.89l-.12.58-3,7.13a14.81,14.81,0,0,0,.34,2.86,8.17,8.17,0,0,1-.55,4.46,1.65,1.65,0,0,0-.08.77,16.5,16.5,0,0,1,.16,4.24.79.79,0,0,0,.27.77l.13.07a3.13,3.13,0,0,0,.47-.59l.08-.12c1.33-1.73,3-4.89,2.23-6.16l.13-1.68c.64-.81,2.29-3.46,1.43-5l.71-2.12a5.23,5.23,0,0,0,2.66-2.94l2.5-.65a1.06,1.06,0,0,0-.46-.29c.07,0,1.88.37,9.66-2.73l.71-.44a1.5,1.5,0,0,1,1.58,2.55l-1.06.63c-5.85,2.34-8.9,3-10.55,3a8.17,8.17,0,0,1-2.62,2.89c.51,2.43-.87,5-1.7,6.19.91,3.28-2,7.46-2.81,8.46a3.86,3.86,0,0,1-2.41,1.88A2.84,2.84,0,0,1,223.79,177.49Z"/><path class="cls-1" d="M244.72,222.29h-13l-1.5-1.5V205.5L225.69,201h-2.86l-6,6v3.29l-1.5,1.5H213v9l-1.5,1.5h-9l-1.5-1.5V186.36h-8.33V207.9l-1.5,1.5h-6.64l-1.5-1.5V196.12H169.61v6.31l-1.5,1.5H163l.36,16.83-1.5,1.53h-3.12l-1.5-1.5V211h-9.89v9.83l-1.5,1.5H140l-1.5-1.5V181.18l-4-4-4,4v39.61l-1.5,1.5h-2.73l-1.5-1.5V203.54H116.1v11.39l-1.5,1.5h-3.91l-1.5-1.5V203.54h-7.55v17.25l-1.5,1.5H90.64l-1.5-1.52.3-21.33H75.34L73.84,198c0-.31-.16-31.44-.16-47.44,0-17.19,21.54-22,21.76-22l.36,0c10.31.29,21.14,8.25,21.6,8.59l.47.59.06.11a16,16,0,0,0,4.67,3.64l.45.26.35.27c2,2.09,3.8,3.16,5,3a1.74,1.74,0,0,0,1.15-.88c1.67-3.62.2-7.22-4.36-10.72a37.44,37.44,0,0,0-7.81-4.42c-.82-.35-1.32-.53-1.34-.54-2.85-1-5.77-5.79-6.33-6.75a1.5,1.5,0,0,1,2.6-1.5c1.15,2,3.37,5,4.71,5.41,0,0,.61.21,1.54.61a40.54,40.54,0,0,1,8.46,4.8c7.26,5.56,6.87,10.87,5.27,14.34a4.71,4.71,0,0,1-3.37,2.59c-2.22.38-4.74-.85-7.5-3.69l-.31-.18c-1.66-1-4.61-2.88-5.69-4.63l-.05-.08c-1.69-1.19-11-7.48-19.43-7.8-1.9.46-19.22,5-19.22,19.06s.12,39.51.15,45.93H91l1.5,1.52-.3,21.33h6.48V202l1.5-1.5h10.55l1.5,1.5v11.39h.91V202l1.5-1.5h11.72l1.23,1.23V180.56l.44-1.06,5.47-5.47h2.12L141,179.5l.44,1.06v38.74h2.86v-9.83l1.5-1.5h12.89l1.38,1.38-.15-6.88,1.5-1.53h5.14v-6.31l1.5-1.5h16.41l1.5,1.5V206.4h3.64V184.86l1.5-1.5h11.33l1.5,1.5v34.44h6v-9l1.5-1.5h2.41v-2.41l.44-1.06,6.84-6.84,1.06-.44h4.1l1.06.44,5.37,5.37.44,1.06v14.42h10V199.7l.44-1.06c11.13-11.14-.24-44.72-.36-45.05a1.5,1.5,0,1,1,2.84-1c.49,1.43,11.82,34.88.08,47.69v20.49Zm-84.48-3h.09l-.09-4.36Z"/><path class="cls-1" d="M292.94,80.39a1.5,1.5,0,0,1-1.5-1.5V59.48a1.5,1.5,0,0,1,3,0V78.89A1.5,1.5,0,0,1,292.94,80.39Z"/><path class="cls-1" d="M287.06,20.39a1.5,1.5,0,0,1-1.5-1.5V5.95a1.5,1.5,0,0,1,3,0V18.89A1.5,1.5,0,0,1,287.06,20.39Z"/><path class="cls-1" d="M275.27,24a1.5,1.5,0,0,1-1.3-.75L267.5,12.06a1.5,1.5,0,0,1,2.6-1.5l6.47,11.21a1.5,1.5,0,0,1-1.3,2.25Z"/><path class="cls-1" d="M266.87,33.07a1.49,1.49,0,0,1-.75-.2l-11.21-6.47a1.5,1.5,0,0,1,1.5-2.6l11.21,6.47a1.5,1.5,0,0,1-.75,2.8Z"/><path class="cls-1" d="M308.14,31.54a1.5,1.5,0,0,1-.75-2.8l11.21-6.47a1.5,1.5,0,0,1,1.5,2.6l-11.21,6.47A1.49,1.49,0,0,1,308.14,31.54Z"/><path class="cls-1" d="M299.09,23.14a1.5,1.5,0,0,1-1.3-2.25l6.47-11.21a1.5,1.5,0,1,1,2.6,1.5l-6.47,11.21A1.5,1.5,0,0,1,299.09,23.14Z"/><circle class="cls-1" cx="163.05" cy="127.06" r="2.85"/><rect class="cls-1" x="162.32" y="113.16" width="2" height="6.67"/><rect class="cls-1" x="150.42" y="131.1" width="6.67" height="2" transform="translate(-45.45 94.56) rotate(-29.99)"/><rect class="cls-1" x="154.19" y="135.07" width="6.67" height="2" transform="translate(-39.07 204.47) rotate(-60.01)"/><rect class="cls-1" x="161.77" y="134.29" width="2" height="6.67"/><rect class="cls-1" x="169" y="121.02" width="6.67" height="2" transform="translate(-37.92 102.49) rotate(-29.99)"/><rect class="cls-1" x="165.23" y="117.05" width="6.67" height="2" transform="translate(-17.94 205.03) rotate(-60.01)"/><circle class="cls-2" cx="161.93" cy="125.95" r="2.85"/><path class="cls-2" d="M139.8,119.54a1.5,1.5,0,0,1-.59-.12,15.27,15.27,0,0,1-5.09-3.4,17.13,17.13,0,0,1-10.63-2.36c-1.68.68-5.49,1.8-8.72-.18l-6.33,4.14a1.5,1.5,0,1,1-1.64-2.51l7.19-4.7,1.79.11c2.77,2.34,7.14.12,7.19.09l1.61.14c4.13,3.16,9.84,2.21,9.89,2.2l1.42.53a11.64,11.64,0,0,0,4.51,3.18,1.5,1.5,0,0,1-.6,2.88Z"/><path class="cls-2" d="M141.19,146.54a4,4,0,0,1-1.12-.16c-2.22-.65-4.16-3.17-5.78-7.49a26.53,26.53,0,0,1-1.75-7.05c-1.87-3.57-3.6-7.81-2.93-10.3-6-5.21-6.66-7.34-5.76-8.89a2.3,2.3,0,0,1,.95-.89,1.5,1.5,0,0,1,1.86,2.28c.31.61,1.47,2.33,5.86,6l-.17,2.42a.43.43,0,0,0,.16-.16c-.37.88,1,4.89,2.86,8.42l.18.7a22.13,22.13,0,0,0,1.55,6.36c1.69,4.51,3.19,5.47,3.75,5.67a1.09,1.09,0,0,0,.35.07,14.41,14.41,0,0,0,.23-6l.08-.83c.58-1.46-.74-5.16-1.87-7.32l-.14-1a14.49,14.49,0,0,0,0-6.49,14.23,14.23,0,0,0-1.22-3.28,1.5,1.5,0,0,1,2.66-1.38,17.3,17.3,0,0,1,1.63,11.26c.81,1.65,2.72,6,1.9,8.91.18,1.24.59,5.07-.73,8l-.46.58A3.49,3.49,0,0,1,141.19,146.54Zm1.14-1.82h0Zm-16.14-30.3Z"/><path class="cls-2" d="M136.56,145.64a3.86,3.86,0,0,1-2.12-.65l-.18-.14a23.16,23.16,0,0,1-7-12.33,20.44,20.44,0,0,1-4.43-9.23c-6.84-5.12-7.78-9.76-7.82-10a1.5,1.5,0,0,1,2.95-.57c0,.1,1,4,7.15,8.48l.62,1.12a16.85,16.85,0,0,0,4.08,8.54l.32.68A20.08,20.08,0,0,0,131.5,136a20.33,20.33,0,0,0,4.69,6.56.73.73,0,0,0,.53.07.61.61,0,0,0,.29-.24,1.5,1.5,0,0,1,2.48,1.69,3.59,3.59,0,0,1-1.76,1.37A3.43,3.43,0,0,1,136.56,145.64Z"/><path class="cls-2" d="M122.72,129.14l-.22,0a1.5,1.5,0,0,1-1.26-1.7c.35-2.36.32-4.9-.05-5.45a1.47,1.47,0,0,1-.08-2.1,1.52,1.52,0,0,1,2.14-.08c1.65,1.51,1.31,5.7,1,8.06A1.5,1.5,0,0,1,122.72,129.14Z"/><path class="cls-2" d="M116,145.05a2.47,2.47,0,0,1-1-.22l-.26-.16c-4-3-3.37-6.84-3.34-7l.43-3.74a1.5,1.5,0,0,1,3,.34l-.44,3.84a4.41,4.41,0,0,0,1.72,3.79c.24-.34.72-1.3.9-3.79a1.5,1.5,0,0,1,3,.22c-.25,3.41-1.08,5.48-2.53,6.33A2.79,2.79,0,0,1,116,145.05Z"/><path class="cls-2" d="M114.58,124.53a1.5,1.5,0,0,1-1.25-.66l-4-6h-1.69a1.5,1.5,0,0,1,0-3h2.49l1.25.66,4.47,6.65a1.5,1.5,0,0,1-1.24,2.34Z"/><path class="cls-2" d="M154.95,126.44a12.12,12.12,0,0,1-10-5.36,25.35,25.35,0,0,1-5.7-1.66,1.5,1.5,0,0,1,1.19-2.75A22.19,22.19,0,0,0,146,118.2l1.1.68a9,9,0,0,0,9.68,4.34,3.24,3.24,0,0,0,.51-.2c-1.58-1.63-4.19-4.86-4.77-5.58l-6.22-4.87-.55-.89a5.89,5.89,0,0,0-1.29-1.93,2.82,2.82,0,0,0-1.49-.94,7.41,7.41,0,0,1-2.06-.84c-.78-.47-7.07-2.69-12.7-4.56l-.48-.27L123,99.28l-.39-.49-.12-.24c-1.93-3.65-4.6-3.9-4.71-3.9L95.08,93.25l-.37-.07-9.33-3c-18.5-4.09-28,2.47-28,2.53l-.17.11a86.19,86.19,0,0,1-16.09,6.49h-.76C37.54,98.55,13.22,91.84,11,83.5A5.5,5.5,0,0,1,12.74,78C21.54,69.17,26,55.67,26,55.53l.28-.5a6.16,6.16,0,0,1,4.76-2c3.08.1,6.25,2.32,9.42,6.6.55.74.83,1.12-3.8,13.53a7.82,7.82,0,0,0,.77.68c3.42-4.71,6.94-9.83,7.27-10.78a1,1,0,0,0,0,.3l1.57-1.5c.26,0,6.4.4,21.82,10.68,2.07-.74,8.64-3.92,7.56-14l-11-7.16c-1.39-.76-19-10.8-29.55-36.69A46.49,46.49,0,0,1,30.9,29l-1.35.85c-.36,0-1.19,0-8-3.7L21,25.65l-.06-.09-.07,0-3.61,3.61c-2.54,3-3.33,4.56-3.58,5.22l.83.83c1.41,1.41,5.4,7.13,5.85,7.78l.19,1.33c-.85,2.55-10.41,9-16,12.69L2.3,56.34C-9.72,24.57,29.16,6.89,32.9,5.28a1.5,1.5,0,0,1,2.48,1c0,.16,0,.32,0,.49,9.81,30.46,30.51,41.88,30.72,42l.11.06,11.64,7.58.67,1.05c2.05,15-10.21,18.14-10.33,18.17L67,75.46c-11.58-7.79-17.74-9.85-19.95-10.39a125.35,125.35,0,0,1-7.78,11.38l-.15.17a1.9,1.9,0,0,1-1.39.51c-1.09,0-2.33-.85-3.9-2.6L33.56,73c1.83-4.87,3.76-10.36,4.18-12-3-3.93-5.3-4.85-6.69-4.92a3.22,3.22,0,0,0-2.26.76C28,59.1,23.48,71.48,14.86,80.1c-1.19,1.19-1.13,2.07-1,2.63,1.33,5,17,10.9,26.81,13.56a85.36,85.36,0,0,0,15-6.09c1.16-.8,11.26-7.21,30.42-2.95l.14,0,9.22,3,22.49,1.37c.16,0,4.41.27,7.18,5.5h0l4.25,3.5c2.46.82,11.64,3.91,13,4.75a4.43,4.43,0,0,0,1.23.5,5.8,5.8,0,0,1,3.07,1.92,10,10,0,0,1,1.76,2.68l6.24,4.93s3.29,4.1,4.87,5.68a2.64,2.64,0,0,1,.86,2.61c-.42,1.59-2.33,2.23-2.91,2.38A9.74,9.74,0,0,1,154.95,126.44ZM32.45,8.77A72.37,72.37,0,0,0,15.11,20.26C4.2,30.3.63,41.47,4.48,53.5c5.49-3.64,11.2-7.8,12.83-9.58-1.72-2.44-4.11-5.72-4.93-6.54L11,36l-.33-.5c-.58-1.46.87-4.25,4.31-8.29l.08-.09,3.65-3.65a3.26,3.26,0,0,1,2.52-1,2.9,2.9,0,0,1,2,1.12c2,1.07,4.21,2.21,5.52,2.8a43.41,43.41,0,0,0,3.36-12.11A43.33,43.33,0,0,0,32.45,8.77Z"/><path class="cls-2" d="M19.13,45.4A1.5,1.5,0,0,1,17.92,43C22.86,36.3,28.35,28.13,28.6,26.63a1.51,1.51,0,0,1,1.72-1.24,1.49,1.49,0,0,1,1.25,1.69c-.43,2.85-8.71,14.28-11.24,17.71A1.5,1.5,0,0,1,19.13,45.4Z"/><path class="cls-2" d="M62.57,72.32a1.5,1.5,0,0,1-.64-2.86c.35-.17,8.57-4.19,8.57-15a1.5,1.5,0,0,1,3,0C73.5,67.23,63.62,72,63.2,72.18A1.49,1.49,0,0,1,62.57,72.32Z"/><path class="cls-2" d="M278.43,75.95a1.5,1.5,0,0,1-1.5-1.5V57.12h-.56a3.56,3.56,0,1,1,3.56-3.56v.56h8.18v-.56a3.56,3.56,0,1,1,3.56,3.56H279.93V74.45A1.5,1.5,0,0,1,278.43,75.95Zm12.68-21.82h.56a.56.56,0,1,0-.56-.56ZM276.37,53a.56.56,0,1,0,0,1.12h.56v-.56A.56.56,0,0,0,276.37,53Z"/><path class="cls-2" d="M200.78,154.27a11.31,11.31,0,0,1-6.65-2.16L194,152a5.39,5.39,0,0,1-.47-7.51l.08-.08a20.35,20.35,0,0,1,5.61-3.69,34.76,34.76,0,0,1,5-4.3c-1.54-.91-3.73-2.34-4.74-3-5.6,1.28-9.34-.31-11-1.33-3.23,2-7.92,1.75-9.24,1.64-6.29,2-10.95,2.2-13.85.6a4.67,4.67,0,0,1-2.41-2.73,4.09,4.09,0,0,1,.71-3.48,3.67,3.67,0,0,1,2.91-1.16h0a15.63,15.63,0,0,1,10.2-3.51c1.37-1,5.51-3.86,9.8-3.88,2.29-.17,9.14-.63,12-.1a9.72,9.72,0,0,1,4.1-1.08,28.57,28.57,0,0,0,9.9-2.2c1.93-1,16.43-8.61,23-7.57,14.25-.69,17.28-3.67,17.81-5.38a5.5,5.5,0,0,0-.3-3.06,7.41,7.41,0,0,1,0-5.31c1.53-3.39,6.06-5.09,13.85-5.18l7.4,0,1.14.51c3.25,3.72,6.43,5.6,9.45,5.6h0c2.86,0,5.81-1.72,8.77-5.1l1-1.75H272l-1.5-1.5V80.92l1.5-1.5h23.8V75.95H272.55l-1.06-2.56a1.14,1.14,0,0,0-.31.49c0-.09.44-2.2-2.89-12.76-2.06-2.18-14.25-16.24-2.21-31.71,1.16-1.49,7.48-8.95,18-9.24h.64c11.9,0,18.86,9.39,19.59,10.43a21,21,0,0,1,4.43,12.64,21.43,21.43,0,0,1-3.86,13.35,1.5,1.5,0,0,1-2.34-1.88,18.37,18.37,0,0,0,3.2-11.36A18,18,0,0,0,302,32.5l-.12-.15c-.26-.39-6.59-9.52-17.72-9.19-9.2.26-14.73,6.78-15.74,8.09-11.39,14.65,1.65,27.46,2.21,28l.39.63c2.3,7.22,3,11,3.16,13.07h23.06l1.5,1.5v6.47l-1.5,1.5h-23.8v3.47h23.8l1.3,2.24L296,92.49c-3.58,4.13-7.32,6.23-11.12,6.24h0c-3.76,0-7.54-2.06-11.24-6.11l-6.71,0c-8,.1-10.46,1.91-11.14,3.42-.43.95-.21,1.86.18,3.28a8,8,0,0,1,.27,4.75c-1.4,4.52-8,6.9-20.7,7.5l-.35,0c-4.71-.88-17,4.95-21.28,7.27l-.12.06a31.12,31.12,0,0,1-11.14,2.46,7.37,7.37,0,0,0-3.13,1l-1.33.11c-1-.4-6.73-.26-11.44.1h-.12c-4.1,0-8.37,3.52-8.42,3.56l-1.05.34a12.44,12.44,0,0,0-9,3.08l-1.23.43c-.71-.08-1,.05-1,.11a1.28,1.28,0,0,0-.06.77c.36.94,3.39,2.94,12.73-.09l.65-.06c1.56.19,6.07.28,8.2-1.59h2c.13.11,3.48,2.93,9.94,1.23l1.21.2c1.28.85,4.88,3.21,6.09,3.81l.75.87a2.73,2.73,0,0,1-1,3.31,32,32,0,0,0-5.09,4.35l-.6.45a18.1,18.1,0,0,0-4.93,3.14,2.38,2.38,0,0,0,.26,3.32c.71.49,5.92,3.83,11.24-1.49.14-.15,4.56-4.91,13.33-8.9a1.5,1.5,0,1,1,1.24,2.73,41.55,41.55,0,0,0-12.41,8.24A12.06,12.06,0,0,1,200.78,154.27Zm4.14-18.36-.08,0Z"/><path class="cls-2" d="M202,172.54h-.28c-1.66-.13-3.6-1.54-3.72-3.34a10.57,10.57,0,0,1,.26-2.26l.05-.33a1.19,1.19,0,0,0,0-.42,37.44,37.44,0,0,1-.31-5,4.27,4.27,0,0,1,.11-1l1-4.48a1.23,1.23,0,0,0,0-.26v-2.73a1.5,1.5,0,0,1,3,0v2.73a4.27,4.27,0,0,1-.1.92l-1,4.5a1.23,1.23,0,0,0,0,.28,34.44,34.44,0,0,0,.26,4.44,4.15,4.15,0,0,1,0,1.44l0,.21,0,.15A15.08,15.08,0,0,0,201,169a1.72,1.72,0,0,0,1,.56c.57,0,1.51-1.21,2.19-2.13a12.65,12.65,0,0,0,2.45-7.14,4.27,4.27,0,0,1,0-1.47l0-.15c0-.12.05-.25.07-.39l0-.12c0-.1,0-.18,0-.26a2.34,2.34,0,0,1,.16-.46,42.12,42.12,0,0,0,1.66-4,5.86,5.86,0,0,0,.26-1.32,14.53,14.53,0,0,1,.54-2.67,14.92,14.92,0,0,1,.48-1.5,11.59,11.59,0,0,1,2.58-3.91l2.13,2.11h0a8.59,8.59,0,0,0-1.91,2.89,16.51,16.51,0,0,0-.83,3.41,8.77,8.77,0,0,1-.38,1.88,43.77,43.77,0,0,1-1.78,4.33v.11c0,.17-.06.35-.1.51l0,.14a1.56,1.56,0,0,0,0,.46,15.32,15.32,0,0,1-3,9.35C205.5,170.69,204.13,172.54,202,172.54Zm7.67-13.86v0Z"/><path class="cls-2" d="M220.45,173a3.17,3.17,0,0,1-1.83-.61,3.75,3.75,0,0,1-1.54-3.68,13.52,13.52,0,0,0-.16-3.38,4.68,4.68,0,0,1,.21-2.18,5.93,5.93,0,0,0,.48-2.75c0-.13-.07-.27-.09-.41l-.15.23c-1.76,9.82-8,12.43-8.29,12.54l-.56.11a4,4,0,0,1-3.49-1.57c-1.28-1.81-.44-4.33-.34-4.61a1.5,1.5,0,0,1,2.83,1,2.68,2.68,0,0,0,0,1.88,1,1,0,0,0,.73.28c1-.55,5-3.09,6.25-10.45l.24-.6c2-2.89,3.55-6.29,3.3-7.14a.42.42,0,0,0,.13.17l-.12-2.23c2.39-2.39,2.91-2.39,3.4-2.39a1.87,1.87,0,0,1,1.89,1.89l-.12.58-3,7.13a14.81,14.81,0,0,0,.34,2.86,8.17,8.17,0,0,1-.55,4.46,1.65,1.65,0,0,0-.08.77,16.5,16.5,0,0,1,.16,4.24.79.79,0,0,0,.27.77l.13.07a3.13,3.13,0,0,0,.47-.59l.08-.12c1.33-1.73,3-4.89,2.23-6.16l.13-1.68c.64-.81,2.29-3.46,1.43-5l.71-2.12a5.23,5.23,0,0,0,2.66-2.94l2.5-.65a1.06,1.06,0,0,0-.46-.29c.07,0,1.88.37,9.66-2.73l.71-.44a1.5,1.5,0,0,1,1.58,2.55l-1.06.63c-5.85,2.34-8.91,3-10.56,3a8.17,8.17,0,0,1-2.62,2.89c.51,2.43-.87,5-1.7,6.19.91,3.28-2,7.46-2.81,8.46A3.86,3.86,0,0,1,221,173,2.84,2.84,0,0,1,220.45,173Zm1.51-22.9Z"/><path class="cls-2" d="M241.38,217.85h-13l-1.5-1.5V201l-4.49-4.49H219.5l-6,6v3.29l-1.5,1.5h-2.41v9l-1.5,1.5h-9l-1.5-1.5V181.91h-8.33v21.55l-1.5,1.5h-6.64l-1.5-1.5V191.67H166.28V198l-1.5,1.5h-5.11l.36,16.83-1.5,1.53H155.4l-1.5-1.5v-9.83H144v9.83l-1.5,1.5h-5.86l-1.5-1.5V176.73l-4-4-4,4v39.61l-1.5,1.5H123l-1.5-1.5V199.1h-8.72v11.39l-1.5,1.5h-3.91l-1.5-1.5V199.1H98.31v17.25l-1.5,1.5H87.3l-1.5-1.52.3-21.33H72l-1.5-1.49c0-.31-.16-31.44-.16-47.44,0-17.19,21.54-22,21.76-22l.36,0c10.31.29,21.14,8.25,21.6,8.59l.48.6,0,.09a16,16,0,0,0,4.67,3.65l.45.26.35.27c2,2.09,3.8,3.16,5,3a1.74,1.74,0,0,0,1.15-.88c1.67-3.62.2-7.22-4.36-10.72a37.5,37.5,0,0,0-7.81-4.42c-.82-.35-1.32-.53-1.34-.54-2.85-1-5.77-5.79-6.33-6.75a1.5,1.5,0,0,1,2.6-1.5c1.15,2,3.37,5,4.71,5.41,0,0,.6.21,1.54.61a40.58,40.58,0,0,1,8.46,4.8c7.26,5.56,6.87,10.87,5.27,14.34a4.71,4.71,0,0,1-3.37,2.59c-2.22.38-4.74-.85-7.5-3.69l-.3-.18c-1.66-1-4.62-2.88-5.69-4.63l-.05-.08c-1.7-1.2-11-7.48-19.43-7.8-1.9.46-19.22,5-19.22,19.06s.12,39.51.15,45.93H87.63l1.5,1.52-.3,21.33h6.48V197.6l1.5-1.5h10.55l1.5,1.5V209h.91V197.6l1.5-1.5H123l1.23,1.23V176.11l.44-1.06,5.47-5.47h2.12l5.47,5.47.44,1.06v38.73H141V205l1.5-1.5H155.4l1.38,1.38-.15-6.88,1.5-1.53h5.14v-6.31l1.5-1.5h16.41l1.5,1.5V202h3.64V180.41l1.5-1.5h11.33l1.5,1.5v34.44h6v-9l1.5-1.5h2.41v-2.41l.44-1.06,6.84-6.84,1.06-.44H223L224,194l5.37,5.37.44,1.06v14.42h10V195.25l.44-1.06c11.13-11.13-.24-44.71-.36-45.05a1.5,1.5,0,1,1,2.84-1c.49,1.43,11.82,34.88.08,47.69v20.49Zm-84.48-3H157l-.09-4.41Z"/><path class="cls-2" d="M289.61,75.95a1.5,1.5,0,0,1-1.5-1.5V55a1.5,1.5,0,0,1,3,0V74.45A1.5,1.5,0,0,1,289.61,75.95Z"/><path class="cls-2" d="M283.73,15.94a1.5,1.5,0,0,1-1.5-1.5V1.5a1.5,1.5,0,0,1,3,0V14.44A1.5,1.5,0,0,1,283.73,15.94Z"/><path class="cls-2" d="M271.93,19.58a1.5,1.5,0,0,1-1.3-.75L264.16,7.62a1.5,1.5,0,0,1,2.6-1.5l6.47,11.21a1.5,1.5,0,0,1-1.3,2.25Z"/><path class="cls-2" d="M263.53,28.62a1.49,1.49,0,0,1-.75-.2l-11.21-6.47a1.5,1.5,0,0,1,1.5-2.6l11.21,6.47a1.5,1.5,0,0,1-.75,2.8Z"/><path class="cls-2" d="M304.8,27.09a1.5,1.5,0,0,1-.75-2.8l11.21-6.47a1.5,1.5,0,0,1,1.5,2.6l-11.21,6.47A1.49,1.49,0,0,1,304.8,27.09Z"/><path class="cls-2" d="M295.76,18.69a1.5,1.5,0,0,1-1.3-2.25l6.47-11.21a1.5,1.5,0,1,1,2.6,1.5l-6.47,11.21A1.5,1.5,0,0,1,295.76,18.69Z"/><rect class="cls-2" x="161.21" y="112.05" width="2" height="6.67"/><rect class="cls-2" x="149.31" y="129.99" width="6.67" height="2" transform="translate(-45.04 93.85) rotate(-29.99)"/><rect class="cls-2" x="153.08" y="133.96" width="6.67" height="2" transform="translate(-38.67 202.95) rotate(-60.01)"/><rect class="cls-2" x="160.66" y="133.18" width="2" height="6.67"/><rect class="cls-2" x="167.89" y="119.91" width="6.67" height="2" transform="translate(-37.51 101.79) rotate(-29.99)"/><rect class="cls-2" x="164.12" y="115.94" width="6.67" height="2" transform="translate(-17.54 203.51) rotate(-60.01)"/></g></g></svg>