<svg xmlns="http://www.w3.org/2000/svg" viewBox="0 0 167.5 167.5"><defs><style>.cls-1{fill:#009245;}.cls-2{fill:#f4ba92;}.cls-14,.cls-19,.cls-3{fill:#e4595c;}.cls-3{opacity:0.09;}.cls-4{fill:#a1d2e3;}.cls-5{fill:#292f41;}.cls-6{fill:#373c56;}.cls-7{fill:#dbc16d;}.cls-8{fill:#bedac3;}.cls-9{fill:#7f5336;}.cls-10{fill:#f1c39e;}.cls-11{fill:#663024;opacity:0.31;}.cls-12,.cls-15{fill:#4c2b0f;}.cls-12{opacity:0.54;}.cls-13,.cls-24,.cls-25,.cls-26{fill:none;}.cls-13{stroke:#663024;stroke-width:1.42px;opacity:0.27;}.cls-13,.cls-24,.cls-25{stroke-miterlimit:10;}.cls-14{opacity:0.35;}.cls-16{fill:#3a1906;}.cls-17{fill:#4c321e;}.cls-18{fill:#001c29;}.cls-20{fill:#fff;}.cls-21{fill:#e43061;}.cls-22{fill:#303030;}.cls-23{fill:#296d2e;opacity:0.71;}.cls-24,.cls-25{stroke:#303030;}.cls-24{stroke-width:1.44px;}.cls-25{stroke-width:1.49px;}</style></defs><title>animation</title><g id="Camada_2" data-name="Camada 2"><g id="Camada_1-2" data-name="Camada 1"><path class="cls-1" d="M167.5,83.75A83.58,83.58,0,0,1,138.6,147l-.38.32A81.76,81.76,0,0,1,127,155.49c-2,1.22-4.1,2.36-6.22,3.4l-.34.17c-.78.38-1.56.75-2.36,1.1a83.6,83.6,0,0,1-25.76,6.91c-1,.1-2.1.19-3.16.25-1.78.12-3.58.18-5.39.18a84.48,84.48,0,0,1-13.59-1.1q-2.74-.45-5.41-1.08c-.57-.12-1.14-.26-1.71-.41l-.91-.24q-3.37-.88-6.63-2.06a81,81,0,0,1-10.4-4.55l-1-.53A83.76,83.76,0,1,1,167.5,83.75Z"/><g id="PESCOÇO"><rect class="cls-2" x="76.27" y="74.08" width="27.29" height="42.2" rx="13.64" ry="13.64"/><rect class="cls-3" x="76.27" y="74.08" width="27.29" height="42.2" rx="13.64" ry="13.64"/></g><path class="cls-4" d="M76.54,105.31a13.59,13.59,0,0,0,2.61,5.7h-9v-5.7Z"/><path class="cls-4" d="M111.85,105.31V111H100.69a13.59,13.59,0,0,0,2.61-5.7Z"/><path class="cls-5" d="M127,130.3v25.19c-2,1.22-4.1,2.36-6.22,3.4l-.34.17c-.78.38-1.56.75-2.36,1.1a83.6,83.6,0,0,1-25.76,6.91c-1,.1-2.1.19-3.16.25-1.78.12-3.58.18-5.39.18a84.48,84.48,0,0,1-13.59-1.1q-2.74-.45-5.41-1.08c-.57-.12-1.14-.26-1.71-.41l-.91-.24q-3.37-.88-6.63-2.06V130.3c0-.32,0-.64,0-1A24.54,24.54,0,0,1,59.69,116c2.22-3.13,5.18-5.21,8.44-5.63a.84.84,0,0,1,.22,0l.19,0a8.12,8.12,0,0,1,.86,0H87.25l2.13,3.06.32.47,1,1.47.09-.12.07-.11L91,115l.77-1.11,2.45-3.54h18.89l.54,0h.06a.33.33,0,0,1,.14,0c3.62.28,6.88,2.57,9.25,6.11a24.49,24.49,0,0,1,3.86,12.41C127,129.34,127,129.82,127,130.3Z"/><path class="cls-6" d="M92.3,115.05v52c-1,.1-2.1.19-3.16.25V115.05a1.58,1.58,0,0,1,.56-1.2l.08-.07a1.6,1.6,0,0,1,.94-.31,1.56,1.56,0,0,1,1,.39,1.13,1.13,0,0,1,.19.19A1.59,1.59,0,0,1,92.3,115.05Z"/><rect class="cls-5" x="46.51" y="110.19" width="40.71" height="15.77" rx="6.9" ry="6.9" transform="translate(-28.87 21.92) rotate(-15.35)"/><path class="cls-5" d="M62.46,122.55v.07l0,4.85-.15,19.35-.14,17.85q-3.37-.88-6.63-2.06a81,81,0,0,1-10.4-4.55l-1-.53.28-35.06a9.07,9.07,0,0,1,9.12-9h.22a9.05,9.05,0,0,1,8.75,9Z"/><path class="cls-5" d="M63.35,151,63,164.91l-.91-.24q-3.37-.88-6.63-2.06a81,81,0,0,1-10.4-4.55l.16-7.45a8.07,8.07,0,0,1,8.22-7.86l2,0h0a8.06,8.06,0,0,1,6.77,4A8,8,0,0,1,63.35,151Z"/><path class="cls-5" d="M138.79,122.55v.07L138.6,147l-.38.32A81.76,81.76,0,0,1,127,155.49c-2,1.22-4.1,2.36-6.22,3.4l-.34.17.25-31.92,0-4.67a9.08,9.08,0,0,1,9.11-9c.3,0,.6,0,.9.05h0A9.07,9.07,0,0,1,138.79,122.55Z"/><rect class="cls-7" x="78.63" y="104.01" width="5.26" height="37.84" rx="2.63" ry="2.63" transform="translate(-58.73 76.89) rotate(-38.33)"/><path class="cls-5" d="M138.22,147.36A81.76,81.76,0,0,1,127,155.49c-2,1.22-4.1,2.36-6.22,3.4l.18-8.28a8,8,0,0,1,6-7.6,7.49,7.49,0,0,1,2.18-.26l2,0A8.06,8.06,0,0,1,138.22,147.36Z"/><rect class="cls-5" x="97.06" y="110.19" width="40.71" height="15.77" rx="6.9" ry="6.9" transform="translate(199.38 263.02) rotate(-164.65)"/><rect class="cls-7" x="90.65" y="133.86" width="5.26" height="22.59" rx="2.04" ry="2.04" transform="translate(207.75 274.25) rotate(171.16)"/><rect class="cls-7" x="86.34" y="133.54" width="5.26" height="22.59" rx="2.04" ry="2.04" transform="translate(127.85 310.31) rotate(-161.66)"/><path class="cls-6" d="M73.07,110.32a13.57,13.57,0,0,0,4,10.06l4.46,4.46,9.66-9.66L89.8,113.8l-3.47-3.48-9.26-9.26A13.58,13.58,0,0,0,73.07,110.32Z"/><path class="cls-6" d="M108.92,110.32a13.57,13.57,0,0,1-4,10.06l-4.46,4.46-9.66-9.66,1.39-1.38,3.47-3.48,9.26-9.26A13.58,13.58,0,0,1,108.92,110.32Z"/><rect class="cls-8" x="73.43" y="105.82" width="5.26" height="21.07" rx="2.12" ry="2.12" transform="translate(-55.77 72.25) rotate(-38.33)"/><rect class="cls-7" x="98.99" y="103.51" width="5.26" height="37.84" rx="2.63" ry="2.63" transform="translate(91.82 -36.38) rotate(36.16)"/><rect class="cls-8" x="103.61" y="105.02" width="5.26" height="22.18" rx="2.13" ry="2.13" transform="translate(88.98 -40.32) rotate(36.16)"/><rect class="cls-4" x="69.73" y="105.19" width="5.26" height="12.69" rx="1.74" ry="1.74" transform="translate(-53.57 68.92) rotate(-38.33)"/><rect class="cls-4" x="107.46" y="104.33" width="5.26" height="13.37" rx="1.75" ry="1.75" transform="translate(86.72 -43.57) rotate(36.16)"/><rect class="cls-9" x="87.04" y="131.34" width="9.46" height="7.36" rx="3.68" ry="3.68"/><g id="LEFTORELHA"><path class="cls-10" d="M62.4,66.87a6.09,6.09,0,1,1-9.94-4.71l.41-.31a6.09,6.09,0,0,1,9.53,5Z"/><circle class="cls-11" cx="56.31" cy="66.87" r="3.65"/></g><g id="CABEÇA"><path class="cls-10" d="M114.56,60.69,114,64l-1,5.51-.6,3.48-.85,4.93c-.11,1.09-5.19,10.42-5.46,11-.59,1.28-2.25,5.19-2.73,5.83-1.34,1.78-10.14,8.09-14.13,10a8,8,0,0,1-1.21.49,30.43,30.43,0,0,1-7.66,1.14h0a30.43,30.43,0,0,1-7.66-1.14A11.16,11.16,0,0,1,69,102.65a73.49,73.49,0,0,1-7-7.94,67.31,67.31,0,0,1-3.48-5.83c-.27-.57-3-9.91-3.08-11V60.69A30.67,30.67,0,0,1,58,48.31a29.82,29.82,0,0,1,4.65-7.42q.56-.65,1.15-1.27a29.65,29.65,0,0,1,4.62-3.91h0a27.34,27.34,0,0,1,3.05-1.79,26.89,26.89,0,0,1,13.44-2.86h.1A27.37,27.37,0,0,1,106,39.43l.46.48a29.88,29.88,0,0,1,5.52,8.4A30.67,30.67,0,0,1,114.56,60.69Z"/><path class="cls-12" d="M114.56,60.69,114,64a12.39,12.39,0,0,1-8-11.58v-13l.46.48a29.88,29.88,0,0,1,5.52,8.4A30.67,30.67,0,0,1,114.56,60.69Z"/><path class="cls-13" d="M78.79,103.91a3.5,3.5,0,0,1-.71-1.65A3.55,3.55,0,0,1,78.5,100"/></g><path id="NARIZ" class="cls-14" d="M80.48,80.42H77.75a2.6,2.6,0,0,1-.7-.09,2.55,2.55,0,0,1-1.72-3.22l.39-1.28a2.57,2.57,0,0,0,.11-.93l-.71-10.21c0-.07,0-.15,0-.22a4,4,0,0,1,4-3.88h0a4,4,0,0,1,4,3.88c0,.07,0,.15,0,.22L82.39,75a2.57,2.57,0,0,0,.12,1l.36,1.13a2.55,2.55,0,0,1-2.27,3.35Z"/><g id="RIGHTOLHO"><circle class="cls-10" cx="114.56" cy="66.87" r="6.09"/><circle class="cls-11" cx="114.56" cy="66.87" r="3.65"/></g><path id="LEFTBROWN" class="cls-15" d="M65,51.79h8.95a0,0,0,0,1,0,0v3.58a0,0,0,0,1,0,0H61.4a0,0,0,0,1,0,0v0A3.58,3.58,0,0,1,65,51.79Z"/><g id="CABELO"><path id="righttilt" class="cls-16" d="M65.64,31c1,.6,1,2.35,0,3.91l-5.8,9.35c-3.39,5.47-8.7,8.43-12.42,7.15L57.61,35c1.89-3,4.77-4.79,7-4.41A3,3,0,0,1,65.64,31Z"/><path id="_6" data-name="6" class="cls-17" d="M96.72,29.12a1.56,1.56,0,0,1-.78,1,4.13,4.13,0,0,1-1.89.42H63a12,12,0,0,1-6.76-1.35c-3.91-2.25-5.62-7.06-4-11.94a17.71,17.71,0,0,0,7.32,6.65c4.46,2.14,9.22,1.63,16.81,2,2.94.13,6.86.22,11.52.09a15.21,15.21,0,0,1,7,1.45C95.93,27.93,96.8,28.54,96.72,29.12Z"/><path id="_7" data-name="7" class="cls-16" d="M99.87,30.42a2.43,2.43,0,0,1-.71,1.46,2.66,2.66,0,0,1-1.72.6H69.27a7.54,7.54,0,0,1-6.13-2C59.59,27.27,58,20.3,59.48,13.24c2.24,5.61,4.89,8.28,6.64,9.62,4,3.1,8.36,2.36,15.25,2.83a93.59,93.59,0,0,0,10.45.14,9.65,9.65,0,0,1,6.33,2.1C99.16,28.7,99.95,29.59,99.87,30.42Z"/><path id="_5" data-name="5" class="cls-15" d="M101.74,31.46c1.22,1.88,1.48,4.4.82,4.74-.28.15-.62-.16-2.24-1.19-1.05-.67-1.92-1.18-2.46-1.49H60.36a17.37,17.37,0,0,1-9.79-2c-5.67-3.26-8.14-10.22-5.84-17.28a25.63,25.63,0,0,0,10.6,9.62c6.45,3.1,13.34,2.36,24.33,2.83a108.29,108.29,0,0,0,11.46.14c3.53-.09,4.79.61,7.87,2.1A6.65,6.65,0,0,1,101.74,31.46Z"/><path id="_4" data-name="4" class="cls-17" d="M102.41,35.76a2,2,0,0,1-.32,1.34,2.5,2.5,0,0,1-2.76.6H59.21a23.3,23.3,0,0,1-9.87-2A19.48,19.48,0,0,1,38.36,22a74.2,74.2,0,0,0,15.77,6.11c7.93,2.08,14.32,2.39,24.54,2.83a111,111,0,0,0,11.6.14c6.42-.17,8.86,1.19,10.19,2.1C102.24,34.35,102.39,35.48,102.41,35.76Z"/><path id="_3" data-name="3" class="cls-16" d="M102.93,38.84c0,1.14-1.8,2.06-4,2.06H52.28c-7.78,0-14.21-3-15.26-6.79H93.71c4.33,0,8,1.53,9,3.58A2.59,2.59,0,0,1,102.93,38.84Z"/><path id="_2" data-name="2" class="cls-17" d="M106.22,41.6c0,1.14-1.68,2.06-3.75,2.06H59c-7.25,0-13.24-3-14.22-6.79H97.62c4,0,7.42,1.53,8.35,3.58A2.75,2.75,0,0,1,106.22,41.6Z"/><path id="_1" data-name="1" class="cls-15" d="M104.73,45c0,1.14-1.49,2.06-3.33,2.06H62.81c-6.43,0-11.75-3-12.62-6.79H97.09c3.58,0,6.58,1.53,7.41,3.58A3,3,0,0,1,104.73,45Z"/><path id="L5" class="cls-16" d="M100.71,28.77c-.94.64-.85,2.39.19,3.91l6.23,9.06c3.65,5.3,9.09,8,12.74,6.56L108.92,32.38c-2-2.95-5-4.56-7.15-4.07A3,3,0,0,0,100.71,28.77Z"/><path id="L4" class="cls-17" d="M102.5,33.08c-.93.65-.84,2.4.22,3.91l6.3,9c3.68,5.27,9.15,7.95,12.79,6.47L110.74,36.64c-2-2.93-5-4.52-7.18-4A3,3,0,0,0,102.5,33.08Z"/><path id="L3" class="cls-15" d="M102.75,33.89c-1,.49-1.21,2.24-.41,3.89l4.77,9.91c2.79,5.8,7.76,9.31,11.59,8.43l-8.38-17.41c-1.55-3.23-4.23-5.27-6.44-5.12A3,3,0,0,0,102.75,33.89Z"/><path id="L2" class="cls-16" d="M104.28,39.13c-.94.64-.85,2.39.19,3.91l6.23,9.06c3.65,5.3,9.09,8,12.74,6.56L112.5,42.74c-2-2.95-5-4.56-7.15-4.07A3,3,0,0,0,104.28,39.13Z"/><path id="L1" class="cls-17" d="M104.5,43.18c-1,.62-.91,2.38.1,3.91l6,9.2c3.53,5.38,8.92,8.21,12.6,6.83L112.64,47c-2-3-4.89-4.67-7.06-4.23A3,3,0,0,0,104.5,43.18Z"/></g><path id="RIGHTBROWN" class="cls-15" d="M85.49,51.79h8.95A3.58,3.58,0,0,1,98,55.37v0a0,0,0,0,1,0,0H85.49a0,0,0,0,1,0,0V51.79A0,0,0,0,1,85.49,51.79Z"/><path class="cls-6" d="M80.74,145.15V166.4H70.16q-2.74-.45-5.41-1.08V145.15Z"/><path class="cls-6" d="M118.06,145.15v15a82.36,82.36,0,0,1-16,5.32V145.15Z"/><g id="A"><path class="cls-18" d="M86.91,90.76q0,.28,0,.56c0,.15,0,.29,0,.43a6.94,6.94,0,0,1-.23,1.06l-.05.16A7.06,7.06,0,0,1,78,97.55l-.55-.18a6.81,6.81,0,0,1-.88-.4l-.09,0a7.06,7.06,0,1,1,10.46-6.18Z"/><path class="cls-19" d="M86.6,92.81l-.05.16A7.06,7.06,0,0,1,78,97.55l-.55-.18a6.81,6.81,0,0,1-.88-.4l-.09,0a7.47,7.47,0,0,1,5.44-4.34A9.81,9.81,0,0,1,86.6,92.81Z"/><rect class="cls-18" x="72.8" y="83.7" width="7.05" height="7.05"/><path class="cls-20" d="M86,87.23H72.8V83.7h7.05A7.05,7.05,0,0,1,86,87.23Z"/><path class="cls-21" d="M86.55,93A7.06,7.06,0,0,1,78,97.55l-.55-.18a6.81,6.81,0,0,1-.88-.4c1.21-2.46,4.31-4.21,7.93-4.21A10.87,10.87,0,0,1,86.55,93Z"/></g><path id="LEFTOLHO" class="cls-20" d="M73.63,62.53a6.47,6.47,0,1,1-.43-2.32A6.48,6.48,0,0,1,73.63,62.53Z"/><g id="LEFT_PUPIL" data-name="LEFT PUPIL"><circle class="cls-22" cx="67.14" cy="62.53" r="2.31"/><circle class="cls-23" cx="67.14" cy="62.53" r="2.31"/></g><path id="RIGHTOLHO-2" data-name="RIGHTOLHO" class="cls-20" d="M97.91,62.53a6.47,6.47,0,1,1-.43-2.32A6.48,6.48,0,0,1,97.91,62.53Z"/><g id="RIGHTPUPIL"><circle class="cls-22" cx="91.42" cy="62.53" r="2.31"/><circle class="cls-23" cx="91.42" cy="62.53" r="2.31"/></g><rect class="cls-22" x="99.8" y="61.85" width="11.18" height="1.64" rx="0.82" ry="0.82"/><path class="cls-22" d="M59.47,62.67a.82.82,0,0,1-.82.82H51.25a6.13,6.13,0,0,1,1.21-1.33l.41-.31h5.77A.82.82,0,0,1,59.47,62.67Z"/><circle class="cls-24" cx="67.14" cy="62.53" r="8.43"/><circle class="cls-25" cx="91.53" cy="62.53" r="8.72"/><rect class="cls-22" x="75.57" y="61.85" width="7.53" height="1.64" rx="0.82" ry="0.82"/><path class="cls-26" d="M167.5,83.75A83.58,83.58,0,0,1,138.6,147l-.38.32A81.76,81.76,0,0,1,127,155.49c-2,1.22-4.1,2.36-6.22,3.4l-.34.17c-.78.38-1.56.75-2.36,1.1a83.6,83.6,0,0,1-25.76,6.91c-1,.1-2.1.19-3.16.25-1.78.12-3.58.18-5.39.18a84.48,84.48,0,0,1-13.59-1.1q-2.74-.45-5.41-1.08c-.57-.12-1.14-.26-1.71-.41l-.91-.24q-3.37-.88-6.63-2.06a81,81,0,0,1-10.4-4.55l-1-.53A83.76,83.76,0,1,1,167.5,83.75Z"/></g></g></svg>