<svg xmlns="http://www.w3.org/2000/svg" viewBox="0 0 668.5 668.5"><defs><style>.cls-1{isolation:isolate;}.cls-2{fill:#fff;}.cls-3,.cls-5{fill:none;stroke-miterlimit:10;}.cls-3{stroke:#fff;}.cls-4{fill:#deff00;}.cls-5{stroke:#deff00;}</style></defs><title>card</title><g id="Layer_2" data-name="Layer 2"><g id="Camada_1" data-name="Camada 1"><path d="M642.61,205.07a334.73,334.73,0,0,1-32.8,318.41l-2.74,3.92a335.11,335.11,0,0,1-36,42.69l-2.59,2.58A334.28,334.28,0,0,1,135.76,603.2l-1-.74c-5.77-4.3-11.77-9.06-17.89-14.31C109.7,582,103.23,576,97.4,570.09A334.3,334.3,0,0,1,61.49,141l2.09-2.89C124.31,54.43,222.92,0,334.25,0s210,54.43,270.68,138.13L607,141a332.55,332.55,0,0,1,34.39,61.18Z"/><g class="cls-1"><g class="cls-1"><path class="cls-2" d="M232.06,354.76a2,2,0,0,1-1.48-.6,2.05,2.05,0,0,1-.63-1.51V306.42a2.05,2.05,0,0,1,.63-1.51,2,2,0,0,1,1.48-.63h11.7a25.17,25.17,0,0,1,0,50.34l-11.67.14Zm2.11-4.25,9.56-.14a20.92,20.92,0,1,0,0-41.84h-9.59Z"/><path class="cls-2" d="M283.38,354.76a2.17,2.17,0,0,1-2.11-2.11V306.39a2,2,0,0,1,.64-1.48,1.81,1.81,0,0,1,1.47-.63l27.92.07a1.94,1.94,0,0,1,1.47.63,2,2,0,0,1,.64,1.48,2,2,0,0,1-.64,1.51,2,2,0,0,1-1.47.59l-25.81-.07v18.92h19.3a2.15,2.15,0,0,1,2.11,2.11,2.17,2.17,0,0,1-2.11,2.11h-19.3v18.91H311.3a2.11,2.11,0,0,1,0,4.22Z"/><path class="cls-2" d="M346.17,354.76a25.26,25.26,0,0,1,0-50.52,24.53,24.53,0,0,1,15.4,5.24,2,2,0,0,1,.81,1.41,2,2,0,0,1-.42,1.54,2,2,0,0,1-1.41.81,1.86,1.86,0,0,1-1.54-.42,20.65,20.65,0,0,0-12.84-4.33,21,21,0,0,0,0,42,20.42,20.42,0,0,0,14.17-5.45,2.07,2.07,0,0,1,3,.14,2,2,0,0,1,.56,1.51,2,2,0,0,1-.7,1.48A24.44,24.44,0,0,1,346.17,354.76Z"/></g><g class="cls-1"><path class="cls-3" d="M232.06,354.76a2,2,0,0,1-1.48-.6,2.05,2.05,0,0,1-.63-1.51V306.42a2.05,2.05,0,0,1,.63-1.51,2,2,0,0,1,1.48-.63h11.7a25.17,25.17,0,0,1,0,50.34l-11.67.14Zm2.11-4.25,9.56-.14a20.92,20.92,0,1,0,0-41.84h-9.59Z"/><path class="cls-3" d="M283.38,354.76a2.17,2.17,0,0,1-2.11-2.11V306.39a2,2,0,0,1,.64-1.48,1.81,1.81,0,0,1,1.47-.63l27.92.07a1.94,1.94,0,0,1,1.47.63,2,2,0,0,1,.64,1.48,2,2,0,0,1-.64,1.51,2,2,0,0,1-1.47.59l-25.81-.07v18.92h19.3a2.15,2.15,0,0,1,2.11,2.11,2.17,2.17,0,0,1-2.11,2.11h-19.3v18.91H311.3a2.11,2.11,0,0,1,0,4.22Z"/><path class="cls-3" d="M346.17,354.76a25.26,25.26,0,0,1,0-50.52,24.53,24.53,0,0,1,15.4,5.24,2,2,0,0,1,.81,1.41,2,2,0,0,1-.42,1.54,2,2,0,0,1-1.41.81,1.86,1.86,0,0,1-1.54-.42,20.65,20.65,0,0,0-12.84-4.33,21,21,0,0,0,0,42,20.42,20.42,0,0,0,14.17-5.45,2.07,2.07,0,0,1,3,.14,2,2,0,0,1,.56,1.51,2,2,0,0,1-.7,1.48A24.44,24.44,0,0,1,346.17,354.76Z"/></g><g class="cls-1"><path class="cls-4" d="M387.87,304.17a13.69,13.69,0,0,1,13.68,13.71v23.17a13.7,13.7,0,1,1-27.39,0V317.88a13.69,13.69,0,0,1,13.71-13.71Zm9.49,13.71a9.49,9.49,0,0,0-19,0v23.17a9.49,9.49,0,1,0,19,0Z"/></g><g class="cls-1"><path class="cls-5" d="M387.87,304.17a13.69,13.69,0,0,1,13.68,13.71v23.17a13.7,13.7,0,1,1-27.39,0V317.88a13.69,13.69,0,0,1,13.71-13.71Zm9.49,13.71a9.49,9.49,0,0,0-19,0v23.17a9.49,9.49,0,1,0,19,0Z"/></g><g class="cls-1"><path class="cls-2" d="M415.08,354.76a2,2,0,0,1-1.47-.6,2,2,0,0,1-.64-1.51V306.42a2,2,0,0,1,.64-1.51,1.94,1.94,0,0,1,1.47-.63h11.71a25.17,25.17,0,0,1,0,50.34l-11.67.14Zm2.11-4.25,9.56-.14a20.92,20.92,0,1,0,0-41.84h-9.6Z"/></g><g class="cls-1"><path class="cls-3" d="M415.08,354.76a2,2,0,0,1-1.47-.6,2,2,0,0,1-.64-1.51V306.42a2,2,0,0,1,.64-1.51,1.94,1.94,0,0,1,1.47-.63h11.71a25.17,25.17,0,0,1,0,50.34l-11.67.14Zm2.11-4.25,9.56-.14a20.92,20.92,0,1,0,0-41.84h-9.6Z"/></g></g><ellipse class="cls-4" cx="24.6" cy="250.93" rx="2.55" ry="2.82"/><ellipse class="cls-4" cx="24.6" cy="267.03" rx="2.55" ry="2.82"/><ellipse class="cls-4" cx="24.6" cy="283.13" rx="2.55" ry="2.82"/><ellipse class="cls-4" cx="24.6" cy="299.23" rx="2.55" ry="2.82"/><ellipse class="cls-4" cx="24.6" cy="379.73" rx="2.55" ry="2.82"/><ellipse class="cls-4" cx="24.6" cy="395.83" rx="2.55" ry="2.82"/><ellipse class="cls-4" cx="24.6" cy="411.92" rx="2.55" ry="2.82"/><ellipse class="cls-4" cx="24.6" cy="428.02" rx="2.55" ry="2.82"/><ellipse class="cls-4" cx="61.03" cy="234.84" rx="2.55" ry="2.82"/><ellipse class="cls-4" cx="61.03" cy="347.53" rx="2.55" ry="2.82"/><ellipse class="cls-4" cx="61.03" cy="363.63" rx="2.55" ry="2.82"/><ellipse class="cls-4" cx="61.03" cy="379.73" rx="2.55" ry="2.82"/><ellipse class="cls-4" cx="61.03" cy="395.83" rx="2.55" ry="2.82"/><ellipse class="cls-4" cx="61.03" cy="411.92" rx="2.55" ry="2.82"/><ellipse class="cls-4" cx="61.03" cy="492.42" rx="2.55" ry="2.82"/><ellipse class="cls-2" cx="61.03" cy="508.52" rx="2.55" ry="2.82"/><ellipse class="cls-4" cx="97.46" cy="122.14" rx="2.55" ry="2.82"/><ellipse class="cls-4" cx="97.46" cy="138.24" rx="2.55" ry="2.82"/><ellipse class="cls-2" cx="97.46" cy="154.34" rx="2.55" ry="2.82"/><ellipse class="cls-4" cx="97.46" cy="170.44" rx="2.55" ry="2.82"/><ellipse class="cls-4" cx="97.46" cy="186.54" rx="2.55" ry="2.82"/><ellipse class="cls-4" cx="97.46" cy="202.64" rx="2.55" ry="2.82"/><ellipse class="cls-4" cx="97.46" cy="218.74" rx="2.55" ry="2.82"/><ellipse class="cls-4" cx="97.46" cy="234.84" rx="2.55" ry="2.82"/><ellipse class="cls-4" cx="97.46" cy="250.93" rx="2.55" ry="2.82"/><ellipse class="cls-4" cx="97.46" cy="267.03" rx="2.55" ry="2.82"/><ellipse class="cls-4" cx="97.46" cy="283.13" rx="2.55" ry="2.82"/><ellipse class="cls-4" cx="97.46" cy="299.23" rx="2.55" ry="2.82"/><ellipse class="cls-4" cx="97.46" cy="315.33" rx="2.55" ry="2.82"/><ellipse class="cls-2" cx="97.46" cy="331.43" rx="2.55" ry="2.82"/><ellipse class="cls-4" cx="97.46" cy="347.53" rx="2.55" ry="2.82"/><ellipse class="cls-4" cx="97.46" cy="363.63" rx="2.55" ry="2.82"/><ellipse class="cls-4" cx="97.46" cy="428.02" rx="2.55" ry="2.82"/><ellipse class="cls-4" cx="97.46" cy="444.12" rx="2.55" ry="2.82"/><ellipse class="cls-4" cx="97.46" cy="460.22" rx="2.55" ry="2.82"/><ellipse class="cls-4" cx="97.46" cy="476.32" rx="2.55" ry="2.82"/><ellipse class="cls-4" cx="97.46" cy="540.72" rx="2.55" ry="2.82"/><ellipse class="cls-4" cx="97.46" cy="556.82" rx="2.55" ry="2.82"/><ellipse class="cls-4" cx="133.89" cy="73.85" rx="2.55" ry="2.82"/><ellipse class="cls-4" cx="133.89" cy="89.94" rx="2.55" ry="2.82"/><ellipse class="cls-4" cx="133.89" cy="106.04" rx="2.55" ry="2.82"/><ellipse class="cls-4" cx="133.89" cy="122.14" rx="2.55" ry="2.82"/><ellipse class="cls-4" cx="133.89" cy="138.24" rx="2.55" ry="2.82"/><ellipse class="cls-4" cx="133.89" cy="154.34" rx="2.55" ry="2.82"/><ellipse class="cls-4" cx="133.89" cy="170.44" rx="2.55" ry="2.82"/><ellipse class="cls-4" cx="133.89" cy="186.54" rx="2.55" ry="2.82"/><ellipse class="cls-4" cx="133.89" cy="250.93" rx="2.55" ry="2.82"/><ellipse class="cls-4" cx="133.89" cy="267.03" rx="2.55" ry="2.82"/><ellipse class="cls-4" cx="133.89" cy="283.13" rx="2.55" ry="2.82"/><ellipse class="cls-4" cx="133.89" cy="299.23" rx="2.55" ry="2.82"/><ellipse class="cls-4" cx="133.89" cy="363.63" rx="2.55" ry="2.82"/><ellipse class="cls-4" cx="133.89" cy="428.02" rx="2.55" ry="2.82"/><ellipse class="cls-4" cx="133.89" cy="444.12" rx="2.55" ry="2.82"/><ellipse class="cls-4" cx="133.89" cy="460.22" rx="2.55" ry="2.82"/><ellipse class="cls-4" cx="133.89" cy="476.32" rx="2.55" ry="2.82"/><ellipse class="cls-4" cx="133.89" cy="492.42" rx="2.55" ry="2.82"/><ellipse class="cls-4" cx="133.89" cy="572.91" rx="2.55" ry="2.82"/><ellipse class="cls-4" cx="133.89" cy="589.01" rx="2.55" ry="2.82"/><ellipse class="cls-4" cx="170.32" cy="57.75" rx="2.55" ry="2.82"/><ellipse class="cls-4" cx="170.32" cy="73.85" rx="2.55" ry="2.82"/><ellipse class="cls-4" cx="170.32" cy="89.94" rx="2.55" ry="2.82"/><ellipse class="cls-4" cx="170.32" cy="106.04" rx="2.55" ry="2.82"/><ellipse class="cls-4" cx="170.32" cy="122.14" rx="2.55" ry="2.82"/><ellipse class="cls-4" cx="170.32" cy="138.24" rx="2.55" ry="2.82"/><ellipse class="cls-4" cx="170.32" cy="154.34" rx="2.55" ry="2.82"/><ellipse class="cls-4" cx="170.32" cy="170.44" rx="2.55" ry="2.82"/><ellipse class="cls-4" cx="170.32" cy="186.54" rx="2.55" ry="2.82"/><ellipse class="cls-4" cx="170.32" cy="250.93" rx="2.55" ry="2.82"/><ellipse class="cls-4" cx="170.32" cy="283.13" rx="2.55" ry="2.82"/><ellipse class="cls-4" cx="170.32" cy="299.23" rx="2.55" ry="2.82"/><ellipse class="cls-4" cx="170.32" cy="347.53" rx="2.55" ry="2.82"/><ellipse class="cls-4" cx="170.32" cy="363.63" rx="2.55" ry="2.82"/><ellipse class="cls-4" cx="170.32" cy="379.73" rx="2.55" ry="2.82"/><ellipse class="cls-4" cx="170.32" cy="395.83" rx="2.55" ry="2.82"/><ellipse class="cls-4" cx="170.32" cy="411.92" rx="2.55" ry="2.82"/><ellipse class="cls-4" cx="170.32" cy="428.02" rx="2.55" ry="2.82"/><ellipse class="cls-4" cx="170.32" cy="444.12" rx="2.55" ry="2.82"/><ellipse class="cls-4" cx="170.32" cy="460.22" rx="2.55" ry="2.82"/><ellipse class="cls-4" cx="170.32" cy="476.32" rx="2.55" ry="2.82"/><ellipse class="cls-4" cx="170.32" cy="524.62" rx="2.55" ry="2.82"/><ellipse class="cls-4" cx="170.32" cy="540.72" rx="2.55" ry="2.82"/><ellipse class="cls-4" cx="170.32" cy="556.82" rx="2.55" ry="2.82"/><ellipse class="cls-4" cx="170.32" cy="589.01" rx="2.55" ry="2.82"/><ellipse class="cls-4" cx="206.75" cy="73.85" rx="2.55" ry="2.82"/><ellipse class="cls-4" cx="206.75" cy="89.94" rx="2.55" ry="2.82"/><ellipse class="cls-4" cx="206.75" cy="106.04" rx="2.55" ry="2.82"/><ellipse class="cls-4" cx="206.75" cy="122.14" rx="2.55" ry="2.82"/><ellipse class="cls-4" cx="206.75" cy="138.24" rx="2.55" ry="2.82"/><ellipse class="cls-4" cx="206.75" cy="170.44" rx="2.55" ry="2.82"/><ellipse class="cls-4" cx="206.75" cy="186.54" rx="2.55" ry="2.82"/><ellipse class="cls-4" cx="206.75" cy="202.64" rx="2.55" ry="2.82"/><ellipse class="cls-4" cx="206.75" cy="218.74" rx="2.55" ry="2.82"/><ellipse class="cls-4" cx="206.75" cy="234.84" rx="2.55" ry="2.82"/><ellipse class="cls-4" cx="206.75" cy="250.93" rx="2.55" ry="2.82"/><ellipse class="cls-4" cx="206.75" cy="315.33" rx="2.55" ry="2.82"/><ellipse class="cls-4" cx="206.75" cy="331.43" rx="2.55" ry="2.82"/><ellipse class="cls-4" cx="206.75" cy="347.53" rx="2.55" ry="2.82"/><ellipse class="cls-4" cx="206.75" cy="411.92" rx="2.55" ry="2.82"/><ellipse class="cls-4" cx="206.75" cy="428.02" rx="2.55" ry="2.82"/><ellipse class="cls-4" cx="206.75" cy="444.12" rx="2.55" ry="2.82"/><ellipse class="cls-4" cx="206.75" cy="460.22" rx="2.55" ry="2.82"/><ellipse class="cls-4" cx="206.75" cy="476.32" rx="2.55" ry="2.82"/><ellipse class="cls-2" cx="206.75" cy="492.42" rx="2.55" ry="2.82"/><ellipse class="cls-4" cx="206.75" cy="508.52" rx="2.55" ry="2.82"/><ellipse class="cls-4" cx="206.75" cy="605.11" rx="2.55" ry="2.82"/><ellipse class="cls-4" cx="243.18" cy="57.75" rx="2.55" ry="2.82"/><ellipse class="cls-4" cx="243.18" cy="73.85" rx="2.55" ry="2.82"/><ellipse class="cls-4" cx="243.18" cy="89.94" rx="2.55" ry="2.82"/><ellipse class="cls-4" cx="243.18" cy="122.14" rx="2.55" ry="2.82"/><ellipse class="cls-4" cx="243.18" cy="138.24" rx="2.55" ry="2.82"/><ellipse class="cls-4" cx="243.18" cy="186.54" rx="2.55" ry="2.82"/><ellipse class="cls-4" cx="243.18" cy="202.64" rx="2.55" ry="2.82"/><ellipse class="cls-4" cx="243.18" cy="218.74" rx="2.55" ry="2.82"/><ellipse class="cls-4" cx="243.18" cy="234.84" rx="2.55" ry="2.82"/><ellipse class="cls-4" cx="243.18" cy="250.93" rx="2.55" ry="2.82"/><ellipse class="cls-4" cx="243.18" cy="283.13" rx="2.55" ry="2.82"/><ellipse class="cls-4" cx="243.18" cy="379.73" rx="2.55" ry="2.82"/><ellipse class="cls-4" cx="243.18" cy="395.83" rx="2.55" ry="2.82"/><ellipse class="cls-4" cx="243.18" cy="411.92" rx="2.55" ry="2.82"/><ellipse class="cls-4" cx="243.18" cy="428.02" rx="2.55" ry="2.82"/><ellipse class="cls-4" cx="243.18" cy="444.12" rx="2.55" ry="2.82"/><ellipse class="cls-4" cx="243.18" cy="460.22" rx="2.55" ry="2.82"/><ellipse class="cls-4" cx="243.18" cy="476.32" rx="2.55" ry="2.82"/><ellipse class="cls-4" cx="243.18" cy="492.42" rx="2.55" ry="2.82"/><ellipse class="cls-4" cx="243.18" cy="540.72" rx="2.55" ry="2.82"/><ellipse class="cls-4" cx="243.18" cy="556.82" rx="2.55" ry="2.82"/><ellipse class="cls-4" cx="243.18" cy="572.91" rx="2.55" ry="2.82"/><ellipse class="cls-4" cx="243.18" cy="589.01" rx="2.55" ry="2.82"/><ellipse class="cls-4" cx="279.61" cy="73.85" rx="2.55" ry="2.82"/><ellipse class="cls-4" cx="279.61" cy="89.94" rx="2.55" ry="2.82"/><ellipse class="cls-4" cx="279.61" cy="122.14" rx="2.55" ry="2.82"/><ellipse class="cls-2" cx="279.61" cy="138.24" rx="2.55" ry="2.82"/><ellipse class="cls-2" cx="279.61" cy="154.34" rx="2.55" ry="2.82"/><ellipse class="cls-4" cx="279.61" cy="170.44" rx="2.55" ry="2.82"/><ellipse class="cls-4" cx="279.61" cy="186.54" rx="2.55" ry="2.82"/><ellipse class="cls-4" cx="279.61" cy="202.64" rx="2.55" ry="2.82"/><ellipse class="cls-4" cx="279.61" cy="283.13" rx="2.55" ry="2.82"/><ellipse class="cls-4" cx="279.61" cy="379.73" rx="2.55" ry="2.82"/><ellipse class="cls-4" cx="279.61" cy="395.83" rx="2.55" ry="2.82"/><ellipse class="cls-4" cx="279.61" cy="411.92" rx="2.55" ry="2.82"/><ellipse class="cls-4" cx="279.61" cy="428.02" rx="2.55" ry="2.82"/><ellipse class="cls-4" cx="279.61" cy="492.42" rx="2.55" ry="2.82"/><ellipse class="cls-4" cx="279.61" cy="508.52" rx="2.55" ry="2.82"/><ellipse class="cls-4" cx="279.61" cy="524.62" rx="2.55" ry="2.82"/><ellipse class="cls-4" cx="279.61" cy="540.72" rx="2.55" ry="2.82"/><ellipse class="cls-4" cx="279.61" cy="589.01" rx="2.55" ry="2.82"/><ellipse class="cls-4" cx="279.61" cy="605.11" rx="2.55" ry="2.82"/><ellipse class="cls-4" cx="316.04" cy="57.75" rx="2.55" ry="2.82"/><ellipse class="cls-4" cx="316.04" cy="89.94" rx="2.55" ry="2.82"/><ellipse class="cls-4" cx="316.04" cy="106.04" rx="2.55" ry="2.82"/><ellipse class="cls-4" cx="316.04" cy="170.44" rx="2.55" ry="2.82"/><ellipse class="cls-4" cx="316.04" cy="186.54" rx="2.55" ry="2.82"/><ellipse class="cls-2" cx="316.04" cy="202.64" rx="2.55" ry="2.82"/><ellipse class="cls-4" cx="316.04" cy="218.74" rx="2.55" ry="2.82"/><ellipse class="cls-4" cx="316.04" cy="267.03" rx="2.55" ry="2.82"/><ellipse class="cls-4" cx="316.04" cy="395.83" rx="2.55" ry="2.82"/><ellipse class="cls-4" cx="316.04" cy="444.12" rx="2.55" ry="2.82"/><ellipse class="cls-4" cx="316.04" cy="460.22" rx="2.55" ry="2.82"/><ellipse class="cls-4" cx="316.04" cy="476.32" rx="2.55" ry="2.82"/><ellipse class="cls-4" cx="316.04" cy="492.42" rx="2.55" ry="2.82"/><ellipse class="cls-4" cx="316.04" cy="508.52" rx="2.55" ry="2.82"/><ellipse class="cls-4" cx="316.04" cy="524.62" rx="2.55" ry="2.82"/><ellipse class="cls-4" cx="316.04" cy="589.01" rx="2.55" ry="2.82"/><ellipse class="cls-4" cx="352.47" cy="73.85" rx="2.55" ry="2.82"/><ellipse class="cls-4" cx="352.47" cy="138.24" rx="2.55" ry="2.82"/><ellipse class="cls-4" cx="352.47" cy="154.34" rx="2.55" ry="2.82"/><ellipse class="cls-4" cx="352.47" cy="250.93" rx="2.55" ry="2.82"/><ellipse class="cls-4" cx="352.47" cy="267.03" rx="2.55" ry="2.82"/><ellipse class="cls-4" cx="352.47" cy="411.92" rx="2.55" ry="2.82"/><ellipse class="cls-4" cx="352.47" cy="428.02" rx="2.55" ry="2.82"/><ellipse class="cls-4" cx="352.47" cy="444.12" rx="2.55" ry="2.82"/><ellipse class="cls-4" cx="352.47" cy="589.01" rx="2.55" ry="2.82"/><ellipse class="cls-4" cx="352.47" cy="605.11" rx="2.55" ry="2.82"/><ellipse class="cls-4" cx="388.9" cy="57.75" rx="2.55" ry="2.82"/><ellipse class="cls-4" cx="388.9" cy="73.85" rx="2.55" ry="2.82"/><ellipse class="cls-4" cx="388.9" cy="89.94" rx="2.55" ry="2.82"/><ellipse class="cls-4" cx="388.9" cy="106.04" rx="2.55" ry="2.82"/><ellipse class="cls-4" cx="388.9" cy="122.14" rx="2.55" ry="2.82"/><ellipse class="cls-4" cx="388.9" cy="234.84" rx="2.55" ry="2.82"/><ellipse class="cls-4" cx="388.9" cy="250.93" rx="2.55" ry="2.82"/><ellipse class="cls-4" cx="388.9" cy="267.03" rx="2.55" ry="2.82"/><ellipse class="cls-4" cx="388.9" cy="476.32" rx="2.55" ry="2.82"/><ellipse class="cls-4" cx="388.9" cy="492.42" rx="2.55" ry="2.82"/><ellipse class="cls-2" cx="388.9" cy="508.52" rx="2.55" ry="2.82"/><ellipse class="cls-4" cx="388.9" cy="524.62" rx="2.55" ry="2.82"/><ellipse class="cls-4" cx="388.9" cy="540.72" rx="2.55" ry="2.82"/><ellipse class="cls-4" cx="388.9" cy="556.82" rx="2.55" ry="2.82"/><ellipse class="cls-4" cx="388.9" cy="589.01" rx="2.55" ry="2.82"/><ellipse class="cls-4" cx="425.33" cy="73.85" rx="2.55" ry="2.82"/><ellipse class="cls-4" cx="425.33" cy="89.94" rx="2.55" ry="2.82"/><ellipse class="cls-4" cx="425.33" cy="106.04" rx="2.55" ry="2.82"/><ellipse class="cls-4" cx="425.33" cy="138.24" rx="2.55" ry="2.82"/><ellipse class="cls-4" cx="425.33" cy="154.34" rx="2.55" ry="2.82"/><ellipse class="cls-4" cx="425.33" cy="170.44" rx="2.55" ry="2.82"/><ellipse class="cls-4" cx="425.33" cy="234.84" rx="2.55" ry="2.82"/><ellipse class="cls-4" cx="425.33" cy="250.93" rx="2.55" ry="2.82"/><ellipse class="cls-4" cx="425.33" cy="395.83" rx="2.55" ry="2.82"/><ellipse class="cls-4" cx="425.33" cy="411.92" rx="2.55" ry="2.82"/><ellipse class="cls-4" cx="425.33" cy="428.02" rx="2.55" ry="2.82"/><ellipse class="cls-4" cx="425.33" cy="444.12" rx="2.55" ry="2.82"/><ellipse class="cls-4" cx="425.33" cy="476.32" rx="2.55" ry="2.82"/><ellipse class="cls-4" cx="425.33" cy="508.52" rx="2.55" ry="2.82"/><ellipse class="cls-4" cx="425.33" cy="524.62" rx="2.55" ry="2.82"/><ellipse class="cls-4" cx="425.33" cy="589.01" rx="2.55" ry="2.82"/><ellipse class="cls-4" cx="425.33" cy="605.11" rx="2.55" ry="2.82"/><ellipse class="cls-4" cx="461.76" cy="57.75" rx="2.55" ry="2.82"/><ellipse class="cls-4" cx="461.76" cy="73.85" rx="2.55" ry="2.82"/><ellipse class="cls-4" cx="461.76" cy="89.94" rx="2.55" ry="2.82"/><ellipse class="cls-2" cx="461.76" cy="106.04" rx="2.55" ry="2.82"/><ellipse class="cls-2" cx="461.76" cy="122.14" rx="2.55" ry="2.82"/><ellipse class="cls-4" cx="461.76" cy="138.24" rx="2.55" ry="2.82"/><ellipse class="cls-4" cx="461.76" cy="154.34" rx="2.55" ry="2.82"/><ellipse class="cls-2" cx="461.76" cy="202.64" rx="2.55" ry="2.82"/><ellipse class="cls-2" cx="461.76" cy="218.74" rx="2.55" ry="2.82"/><ellipse class="cls-4" cx="461.76" cy="234.84" rx="2.55" ry="2.82"/><ellipse class="cls-4" cx="461.76" cy="250.93" rx="2.55" ry="2.82"/><ellipse class="cls-4" cx="461.76" cy="267.03" rx="2.55" ry="2.82"/><ellipse class="cls-4" cx="461.76" cy="283.13" rx="2.55" ry="2.82"/><ellipse class="cls-4" cx="461.76" cy="315.33" rx="2.55" ry="2.82"/><ellipse class="cls-4" cx="461.76" cy="331.43" rx="2.55" ry="2.82"/><ellipse class="cls-4" cx="461.76" cy="347.53" rx="2.55" ry="2.82"/><ellipse class="cls-4" cx="461.76" cy="395.83" rx="2.55" ry="2.82"/><ellipse class="cls-4" cx="461.76" cy="411.92" rx="2.55" ry="2.82"/><ellipse class="cls-4" cx="461.76" cy="428.02" rx="2.55" ry="2.82"/><ellipse class="cls-4" cx="461.76" cy="444.12" rx="2.55" ry="2.82"/><ellipse class="cls-4" cx="461.76" cy="476.32" rx="2.55" ry="2.82"/><ellipse class="cls-4" cx="461.76" cy="492.42" rx="2.55" ry="2.82"/><ellipse class="cls-4" cx="461.76" cy="508.52" rx="2.55" ry="2.82"/><ellipse class="cls-2" cx="461.76" cy="572.91" rx="2.55" ry="2.82"/><ellipse class="cls-4" cx="461.76" cy="589.01" rx="2.55" ry="2.82"/><ellipse class="cls-4" cx="498.19" cy="73.85" rx="2.55" ry="2.82"/><ellipse class="cls-4" cx="498.19" cy="89.94" rx="2.55" ry="2.82"/><ellipse class="cls-4" cx="498.19" cy="122.14" rx="2.55" ry="2.82"/><ellipse class="cls-4" cx="498.19" cy="154.34" rx="2.55" ry="2.82"/><ellipse class="cls-4" cx="498.19" cy="170.44" rx="2.55" ry="2.82"/><ellipse class="cls-4" cx="498.19" cy="186.54" rx="2.55" ry="2.82"/><ellipse class="cls-4" cx="498.19" cy="218.74" rx="2.55" ry="2.82"/><ellipse class="cls-4" cx="498.19" cy="250.93" rx="2.55" ry="2.82"/><ellipse class="cls-4" cx="498.19" cy="267.03" rx="2.55" ry="2.82"/><ellipse class="cls-4" cx="498.19" cy="283.13" rx="2.55" ry="2.82"/><ellipse class="cls-4" cx="498.19" cy="331.43" rx="2.55" ry="2.82"/><ellipse class="cls-4" cx="498.19" cy="347.53" rx="2.55" ry="2.82"/><ellipse class="cls-4" cx="498.19" cy="363.63" rx="2.55" ry="2.82"/><ellipse class="cls-4" cx="498.19" cy="379.73" rx="2.55" ry="2.82"/><ellipse class="cls-4" cx="498.19" cy="395.83" rx="2.55" ry="2.82"/><ellipse class="cls-4" cx="498.19" cy="411.92" rx="2.55" ry="2.82"/><ellipse class="cls-4" cx="498.19" cy="428.02" rx="2.55" ry="2.82"/><ellipse class="cls-4" cx="498.19" cy="444.12" rx="2.55" ry="2.82"/><ellipse class="cls-4" cx="498.19" cy="524.62" rx="2.55" ry="2.82"/><ellipse class="cls-4" cx="498.19" cy="540.72" rx="2.55" ry="2.82"/><ellipse class="cls-4" cx="498.19" cy="556.82" rx="2.55" ry="2.82"/><ellipse class="cls-4" cx="498.19" cy="589.01" rx="2.55" ry="2.82"/><ellipse class="cls-4" cx="498.19" cy="605.11" rx="2.55" ry="2.82"/><ellipse class="cls-4" cx="534.62" cy="73.85" rx="2.55" ry="2.82"/><ellipse class="cls-4" cx="534.62" cy="89.94" rx="2.55" ry="2.82"/><ellipse class="cls-4" cx="534.62" cy="106.04" rx="2.55" ry="2.82"/><ellipse class="cls-4" cx="534.62" cy="170.44" rx="2.55" ry="2.82"/><ellipse class="cls-4" cx="534.62" cy="186.54" rx="2.55" ry="2.82"/><ellipse class="cls-4" cx="534.62" cy="202.64" rx="2.55" ry="2.82"/><ellipse class="cls-4" cx="534.62" cy="218.74" rx="2.55" ry="2.82"/><ellipse class="cls-4" cx="534.62" cy="234.84" rx="2.55" ry="2.82"/><ellipse class="cls-4" cx="534.62" cy="250.93" rx="2.55" ry="2.82"/><ellipse class="cls-4" cx="534.62" cy="267.03" rx="2.55" ry="2.82"/><ellipse class="cls-4" cx="534.62" cy="283.13" rx="2.55" ry="2.82"/><ellipse class="cls-4" cx="534.62" cy="363.63" rx="2.55" ry="2.82"/><ellipse class="cls-4" cx="534.62" cy="379.73" rx="2.55" ry="2.82"/><ellipse class="cls-4" cx="534.62" cy="395.83" rx="2.55" ry="2.82"/><ellipse class="cls-4" cx="534.62" cy="411.92" rx="2.55" ry="2.82"/><ellipse class="cls-4" cx="534.62" cy="492.42" rx="2.55" ry="2.82"/><ellipse class="cls-4" cx="534.62" cy="508.52" rx="2.55" ry="2.82"/><ellipse class="cls-4" cx="534.62" cy="524.62" rx="2.55" ry="2.82"/><ellipse class="cls-4" cx="534.62" cy="540.72" rx="2.55" ry="2.82"/><ellipse class="cls-4" cx="534.62" cy="556.82" rx="2.55" ry="2.82"/><ellipse class="cls-4" cx="534.62" cy="572.91" rx="2.55" ry="2.82"/><ellipse class="cls-4" cx="534.62" cy="589.01" rx="2.55" ry="2.82"/><ellipse class="cls-4" cx="571.05" cy="106.04" rx="2.55" ry="2.82"/><ellipse class="cls-4" cx="571.05" cy="122.14" rx="2.55" ry="2.82"/><ellipse class="cls-4" cx="571.05" cy="138.24" rx="2.55" ry="2.82"/><ellipse class="cls-4" cx="571.05" cy="154.34" rx="2.55" ry="2.82"/><ellipse class="cls-4" cx="571.05" cy="218.74" rx="2.55" ry="2.82"/><ellipse class="cls-4" cx="571.05" cy="234.84" rx="2.55" ry="2.82"/><ellipse class="cls-4" cx="571.05" cy="250.93" rx="2.55" ry="2.82"/><ellipse class="cls-4" cx="571.05" cy="267.03" rx="2.55" ry="2.82"/><ellipse class="cls-4" cx="571.05" cy="283.13" rx="2.55" ry="2.82"/><ellipse class="cls-2" cx="571.05" cy="299.23" rx="2.55" ry="2.82"/><ellipse class="cls-4" cx="571.05" cy="315.33" rx="2.55" ry="2.82"/><ellipse class="cls-4" cx="571.05" cy="492.42" rx="2.55" ry="2.82"/><ellipse class="cls-4" cx="571.05" cy="508.52" rx="2.55" ry="2.82"/><ellipse class="cls-2" cx="571.05" cy="524.62" rx="2.55" ry="2.82"/><ellipse class="cls-2" cx="571.05" cy="540.72" rx="2.55" ry="2.82"/><ellipse class="cls-4" cx="571.05" cy="556.82" rx="2.55" ry="2.82"/><ellipse class="cls-4" cx="607.48" cy="154.34" rx="2.55" ry="2.82"/><ellipse class="cls-4" cx="607.48" cy="170.44" rx="2.55" ry="2.82"/><ellipse class="cls-4" cx="607.48" cy="186.54" rx="2.55" ry="2.82"/><ellipse class="cls-4" cx="607.48" cy="299.23" rx="2.55" ry="2.82"/><ellipse class="cls-4" cx="607.48" cy="315.33" rx="2.55" ry="2.82"/><ellipse class="cls-4" cx="607.48" cy="331.43" rx="2.55" ry="2.82"/><ellipse class="cls-4" cx="607.48" cy="347.53" rx="2.55" ry="2.82"/><ellipse class="cls-4" cx="607.48" cy="395.83" rx="2.55" ry="2.82"/><ellipse class="cls-4" cx="607.48" cy="411.92" rx="2.55" ry="2.82"/><ellipse class="cls-2" cx="607.48" cy="428.02" rx="2.55" ry="2.82"/><ellipse class="cls-2" cx="607.48" cy="444.12" rx="2.55" ry="2.82"/><ellipse class="cls-2" cx="607.48" cy="460.22" rx="2.55" ry="2.82"/><ellipse class="cls-4" cx="607.48" cy="492.42" rx="2.55" ry="2.82"/><ellipse class="cls-4" cx="607.48" cy="508.52" rx="2.55" ry="2.82"/><ellipse class="cls-4" cx="643.91" cy="267.03" rx="2.55" ry="2.82"/><ellipse class="cls-4" cx="643.91" cy="283.13" rx="2.55" ry="2.82"/><ellipse class="cls-4" cx="643.91" cy="299.23" rx="2.55" ry="2.82"/><ellipse class="cls-4" cx="643.91" cy="315.33" rx="2.55" ry="2.82"/><ellipse class="cls-4" cx="643.91" cy="379.73" rx="2.55" ry="2.82"/><ellipse class="cls-4" cx="643.91" cy="395.83" rx="2.55" ry="2.82"/><ellipse class="cls-4" cx="643.91" cy="411.92" rx="2.55" ry="2.82"/><ellipse class="cls-4" cx="643.91" cy="428.02" rx="2.55" ry="2.82"/></g></g></svg>