<svg id="Camada_1" data-name="Camada 1" xmlns="http://www.w3.org/2000/svg" xmlns:xlink="http://www.w3.org/1999/xlink" viewBox="0 0 695 700"><defs><style>.cls-1,.cls-3,.cls-6{fill:#fff;}.cls-1{stroke:#000;}.cls-1,.cls-3{stroke-miterlimit:10;}.cls-2{mask:url(#mask);}.cls-3{font-size:72px;stroke:#fff;font-family:Moon-Light, Moon;}.cls-4,.cls-5{fill:#deff00;}.cls-4{stroke:#deff00;}</style><mask id="mask" x="-250.93" y="-0.24" width="1200" height="700.24" maskUnits="userSpaceOnUse"><circle class="cls-1" cx="346.5" cy="350.5" r="349"/></mask></defs><title>card</title><g class="cls-2"><polyline points="949.07 -0.24 949.07 699.76 -250.93 699.76 -250.93 -0.24"/><text class="cls-3" transform="translate(241.04 373.09)">Dec<tspan class="cls-4" x="141.93" y="0">0</tspan><tspan x="180.46" y="0">d</tspan></text><ellipse class="cls-5" cx="2.99" cy="140.47" rx="2.55" ry="2.82"/><ellipse class="cls-5" cx="2.99" cy="156.57" rx="2.55" ry="2.82"/><ellipse class="cls-5" cx="2.99" cy="237.07" rx="2.55" ry="2.82"/><ellipse class="cls-5" cx="2.99" cy="253.17" rx="2.55" ry="2.82"/><ellipse class="cls-5" cx="2.99" cy="269.26" rx="2.55" ry="2.82"/><ellipse class="cls-5" cx="2.99" cy="285.36" rx="2.55" ry="2.82"/><ellipse class="cls-5" cx="2.99" cy="462.45" rx="2.55" ry="2.82"/><ellipse class="cls-5" cx="2.99" cy="478.55" rx="2.55" ry="2.82"/><ellipse class="cls-5" cx="2.99" cy="494.65" rx="2.55" ry="2.82"/><ellipse class="cls-5" cx="2.99" cy="510.75" rx="2.55" ry="2.82"/><ellipse class="cls-5" cx="2.99" cy="526.85" rx="2.55" ry="2.82"/><ellipse class="cls-6" cx="2.99" cy="575.15" rx="2.55" ry="2.82"/><ellipse class="cls-6" cx="2.99" cy="591.24" rx="2.55" ry="2.82"/><ellipse class="cls-6" cx="2.99" cy="607.34" rx="2.55" ry="2.82"/><ellipse class="cls-5" cx="2.99" cy="623.44" rx="2.55" ry="2.82"/><ellipse class="cls-5" cx="39.42" cy="140.47" rx="2.55" ry="2.82"/><ellipse class="cls-5" cx="39.42" cy="156.57" rx="2.55" ry="2.82"/><ellipse class="cls-5" cx="39.42" cy="172.67" rx="2.55" ry="2.82"/><ellipse class="cls-5" cx="39.42" cy="269.26" rx="2.55" ry="2.82"/><ellipse class="cls-5" cx="39.42" cy="285.36" rx="2.55" ry="2.82"/><ellipse class="cls-5" cx="39.42" cy="301.46" rx="2.55" ry="2.82"/><ellipse class="cls-5" cx="39.42" cy="317.56" rx="2.55" ry="2.82"/><ellipse class="cls-5" cx="39.42" cy="398.06" rx="2.55" ry="2.82"/><ellipse class="cls-5" cx="39.42" cy="414.16" rx="2.55" ry="2.82"/><ellipse class="cls-5" cx="39.42" cy="430.25" rx="2.55" ry="2.82"/><ellipse class="cls-5" cx="39.42" cy="446.35" rx="2.55" ry="2.82"/><ellipse class="cls-5" cx="39.42" cy="510.75" rx="2.55" ry="2.82"/><ellipse class="cls-5" cx="39.42" cy="542.95" rx="2.55" ry="2.82"/><ellipse class="cls-5" cx="39.42" cy="559.05" rx="2.55" ry="2.82"/><ellipse class="cls-5" cx="39.42" cy="575.15" rx="2.55" ry="2.82"/><ellipse class="cls-5" cx="39.42" cy="591.24" rx="2.55" ry="2.82"/><ellipse class="cls-5" cx="39.42" cy="607.34" rx="2.55" ry="2.82"/><ellipse class="cls-5" cx="75.85" cy="92.18" rx="2.55" ry="2.82"/><ellipse class="cls-5" cx="75.85" cy="108.27" rx="2.55" ry="2.82"/><ellipse class="cls-5" cx="75.85" cy="124.37" rx="2.55" ry="2.82"/><ellipse class="cls-5" cx="75.85" cy="140.47" rx="2.55" ry="2.82"/><ellipse class="cls-5" cx="75.85" cy="156.57" rx="2.55" ry="2.82"/><ellipse class="cls-5" cx="75.85" cy="253.17" rx="2.55" ry="2.82"/><ellipse class="cls-5" cx="75.85" cy="365.86" rx="2.55" ry="2.82"/><ellipse class="cls-5" cx="75.85" cy="381.96" rx="2.55" ry="2.82"/><ellipse class="cls-5" cx="75.85" cy="398.06" rx="2.55" ry="2.82"/><ellipse class="cls-5" cx="75.85" cy="414.16" rx="2.55" ry="2.82"/><ellipse class="cls-5" cx="75.85" cy="430.25" rx="2.55" ry="2.82"/><ellipse class="cls-5" cx="75.85" cy="510.75" rx="2.55" ry="2.82"/><ellipse class="cls-6" cx="75.85" cy="526.85" rx="2.55" ry="2.82"/><ellipse class="cls-6" cx="75.85" cy="542.95" rx="2.55" ry="2.82"/><ellipse class="cls-5" cx="75.85" cy="559.05" rx="2.55" ry="2.82"/><ellipse class="cls-5" cx="75.85" cy="623.44" rx="2.55" ry="2.82"/><ellipse class="cls-5" cx="112.28" cy="76.08" rx="2.55" ry="2.82"/><ellipse class="cls-5" cx="112.28" cy="140.47" rx="2.55" ry="2.82"/><ellipse class="cls-5" cx="112.28" cy="156.57" rx="2.55" ry="2.82"/><ellipse class="cls-6" cx="112.28" cy="172.67" rx="2.55" ry="2.82"/><ellipse class="cls-5" cx="112.28" cy="188.77" rx="2.55" ry="2.82"/><ellipse class="cls-5" cx="112.28" cy="204.87" rx="2.55" ry="2.82"/><ellipse class="cls-5" cx="112.28" cy="220.97" rx="2.55" ry="2.82"/><ellipse class="cls-5" cx="112.28" cy="237.07" rx="2.55" ry="2.82"/><ellipse class="cls-5" cx="112.28" cy="253.17" rx="2.55" ry="2.82"/><ellipse class="cls-5" cx="112.28" cy="269.26" rx="2.55" ry="2.82"/><ellipse class="cls-5" cx="112.28" cy="285.36" rx="2.55" ry="2.82"/><ellipse class="cls-5" cx="112.28" cy="301.46" rx="2.55" ry="2.82"/><ellipse class="cls-5" cx="112.28" cy="317.56" rx="2.55" ry="2.82"/><ellipse class="cls-5" cx="112.28" cy="333.66" rx="2.55" ry="2.82"/><ellipse class="cls-6" cx="112.28" cy="349.76" rx="2.55" ry="2.82"/><ellipse class="cls-5" cx="112.28" cy="365.86" rx="2.55" ry="2.82"/><ellipse class="cls-5" cx="112.28" cy="381.96" rx="2.55" ry="2.82"/><ellipse class="cls-5" cx="112.28" cy="446.35" rx="2.55" ry="2.82"/><ellipse class="cls-5" cx="112.28" cy="462.45" rx="2.55" ry="2.82"/><ellipse class="cls-5" cx="112.28" cy="478.55" rx="2.55" ry="2.82"/><ellipse class="cls-5" cx="112.28" cy="494.65" rx="2.55" ry="2.82"/><ellipse class="cls-5" cx="112.28" cy="559.05" rx="2.55" ry="2.82"/><ellipse class="cls-5" cx="112.28" cy="575.15" rx="2.55" ry="2.82"/><ellipse class="cls-5" cx="112.28" cy="591.24" rx="2.55" ry="2.82"/><ellipse class="cls-5" cx="112.28" cy="607.34" rx="2.55" ry="2.82"/><ellipse class="cls-5" cx="148.71" cy="92.18" rx="2.55" ry="2.82"/><ellipse class="cls-5" cx="148.71" cy="108.27" rx="2.55" ry="2.82"/><ellipse class="cls-5" cx="148.71" cy="124.37" rx="2.55" ry="2.82"/><ellipse class="cls-5" cx="148.71" cy="140.47" rx="2.55" ry="2.82"/><ellipse class="cls-5" cx="148.71" cy="156.57" rx="2.55" ry="2.82"/><ellipse class="cls-5" cx="148.71" cy="172.67" rx="2.55" ry="2.82"/><ellipse class="cls-5" cx="148.71" cy="188.77" rx="2.55" ry="2.82"/><ellipse class="cls-5" cx="148.71" cy="204.87" rx="2.55" ry="2.82"/><ellipse class="cls-5" cx="148.71" cy="269.26" rx="2.55" ry="2.82"/><ellipse class="cls-5" cx="148.71" cy="285.36" rx="2.55" ry="2.82"/><ellipse class="cls-5" cx="148.71" cy="301.46" rx="2.55" ry="2.82"/><ellipse class="cls-5" cx="148.71" cy="317.56" rx="2.55" ry="2.82"/><ellipse class="cls-5" cx="148.71" cy="381.96" rx="2.55" ry="2.82"/><ellipse class="cls-5" cx="148.71" cy="446.35" rx="2.55" ry="2.82"/><ellipse class="cls-5" cx="148.71" cy="462.45" rx="2.55" ry="2.82"/><ellipse class="cls-5" cx="148.71" cy="478.55" rx="2.55" ry="2.82"/><ellipse class="cls-5" cx="148.71" cy="494.65" rx="2.55" ry="2.82"/><ellipse class="cls-5" cx="148.71" cy="510.75" rx="2.55" ry="2.82"/><ellipse class="cls-5" cx="148.71" cy="591.24" rx="2.55" ry="2.82"/><ellipse class="cls-5" cx="148.71" cy="607.34" rx="2.55" ry="2.82"/><ellipse class="cls-5" cx="148.71" cy="623.44" rx="2.55" ry="2.82"/><ellipse class="cls-5" cx="185.14" cy="76.08" rx="2.55" ry="2.82"/><ellipse class="cls-5" cx="185.14" cy="92.18" rx="2.55" ry="2.82"/><ellipse class="cls-5" cx="185.14" cy="108.27" rx="2.55" ry="2.82"/><ellipse class="cls-5" cx="185.14" cy="124.37" rx="2.55" ry="2.82"/><ellipse class="cls-5" cx="185.14" cy="140.47" rx="2.55" ry="2.82"/><ellipse class="cls-5" cx="185.14" cy="156.57" rx="2.55" ry="2.82"/><ellipse class="cls-5" cx="185.14" cy="172.67" rx="2.55" ry="2.82"/><ellipse class="cls-5" cx="185.14" cy="188.77" rx="2.55" ry="2.82"/><ellipse class="cls-5" cx="185.14" cy="204.87" rx="2.55" ry="2.82"/><ellipse class="cls-5" cx="185.14" cy="269.26" rx="2.55" ry="2.82"/><ellipse class="cls-5" cx="185.14" cy="301.46" rx="2.55" ry="2.82"/><ellipse class="cls-5" cx="185.14" cy="317.56" rx="2.55" ry="2.82"/><ellipse class="cls-5" cx="185.14" cy="365.86" rx="2.55" ry="2.82"/><ellipse class="cls-5" cx="185.14" cy="381.96" rx="2.55" ry="2.82"/><ellipse class="cls-5" cx="185.14" cy="398.06" rx="2.55" ry="2.82"/><ellipse class="cls-5" cx="185.14" cy="414.16" rx="2.55" ry="2.82"/><ellipse class="cls-5" cx="185.14" cy="430.25" rx="2.55" ry="2.82"/><ellipse class="cls-5" cx="185.14" cy="446.35" rx="2.55" ry="2.82"/><ellipse class="cls-5" cx="185.14" cy="462.45" rx="2.55" ry="2.82"/><ellipse class="cls-5" cx="185.14" cy="478.55" rx="2.55" ry="2.82"/><ellipse class="cls-5" cx="185.14" cy="494.65" rx="2.55" ry="2.82"/><ellipse class="cls-5" cx="185.14" cy="542.95" rx="2.55" ry="2.82"/><ellipse class="cls-5" cx="185.14" cy="559.05" rx="2.55" ry="2.82"/><ellipse class="cls-5" cx="185.14" cy="575.15" rx="2.55" ry="2.82"/><ellipse class="cls-5" cx="185.14" cy="607.34" rx="2.55" ry="2.82"/><ellipse class="cls-5" cx="221.57" cy="92.18" rx="2.55" ry="2.82"/><ellipse class="cls-5" cx="221.57" cy="108.27" rx="2.55" ry="2.82"/><ellipse class="cls-5" cx="221.57" cy="124.37" rx="2.55" ry="2.82"/><ellipse class="cls-5" cx="221.57" cy="140.47" rx="2.55" ry="2.82"/><ellipse class="cls-5" cx="221.57" cy="156.57" rx="2.55" ry="2.82"/><ellipse class="cls-5" cx="221.57" cy="188.77" rx="2.55" ry="2.82"/><ellipse class="cls-5" cx="221.57" cy="204.87" rx="2.55" ry="2.82"/><ellipse class="cls-5" cx="221.57" cy="220.97" rx="2.55" ry="2.82"/><ellipse class="cls-5" cx="221.57" cy="237.07" rx="2.55" ry="2.82"/><ellipse class="cls-5" cx="221.57" cy="253.17" rx="2.55" ry="2.82"/><ellipse class="cls-5" cx="221.57" cy="269.26" rx="2.55" ry="2.82"/><ellipse class="cls-5" cx="221.57" cy="333.66" rx="2.55" ry="2.82"/><ellipse class="cls-5" cx="221.57" cy="349.76" rx="2.55" ry="2.82"/><ellipse class="cls-5" cx="221.57" cy="365.86" rx="2.55" ry="2.82"/><ellipse class="cls-5" cx="221.57" cy="430.25" rx="2.55" ry="2.82"/><ellipse class="cls-5" cx="221.57" cy="446.35" rx="2.55" ry="2.82"/><ellipse class="cls-5" cx="221.57" cy="462.45" rx="2.55" ry="2.82"/><ellipse class="cls-5" cx="221.57" cy="478.55" rx="2.55" ry="2.82"/><ellipse class="cls-5" cx="221.57" cy="494.65" rx="2.55" ry="2.82"/><ellipse class="cls-6" cx="221.57" cy="510.75" rx="2.55" ry="2.82"/><ellipse class="cls-5" cx="221.57" cy="526.85" rx="2.55" ry="2.82"/><ellipse class="cls-5" cx="221.57" cy="623.44" rx="2.55" ry="2.82"/><ellipse class="cls-5" cx="258" cy="76.08" rx="2.55" ry="2.82"/><ellipse class="cls-5" cx="258" cy="92.18" rx="2.55" ry="2.82"/><ellipse class="cls-5" cx="258" cy="108.27" rx="2.55" ry="2.82"/><ellipse class="cls-5" cx="258" cy="140.47" rx="2.55" ry="2.82"/><ellipse class="cls-5" cx="258" cy="156.57" rx="2.55" ry="2.82"/><ellipse class="cls-5" cx="258" cy="204.87" rx="2.55" ry="2.82"/><ellipse class="cls-5" cx="258" cy="220.97" rx="2.55" ry="2.82"/><ellipse class="cls-5" cx="258" cy="237.07" rx="2.55" ry="2.82"/><ellipse class="cls-5" cx="258" cy="253.17" rx="2.55" ry="2.82"/><ellipse class="cls-5" cx="258" cy="269.26" rx="2.55" ry="2.82"/><ellipse class="cls-5" cx="258" cy="301.46" rx="2.55" ry="2.82"/><ellipse class="cls-5" cx="258" cy="398.06" rx="2.55" ry="2.82"/><ellipse class="cls-5" cx="258" cy="414.16" rx="2.55" ry="2.82"/><ellipse class="cls-5" cx="258" cy="430.25" rx="2.55" ry="2.82"/><ellipse class="cls-5" cx="258" cy="446.35" rx="2.55" ry="2.82"/><ellipse class="cls-5" cx="258" cy="462.45" rx="2.55" ry="2.82"/><ellipse class="cls-5" cx="258" cy="478.55" rx="2.55" ry="2.82"/><ellipse class="cls-5" cx="258" cy="494.65" rx="2.55" ry="2.82"/><ellipse class="cls-5" cx="258" cy="510.75" rx="2.55" ry="2.82"/><ellipse class="cls-5" cx="258" cy="559.05" rx="2.55" ry="2.82"/><ellipse class="cls-5" cx="258" cy="575.15" rx="2.55" ry="2.82"/><ellipse class="cls-5" cx="258" cy="591.24" rx="2.55" ry="2.82"/><ellipse class="cls-5" cx="258" cy="607.34" rx="2.55" ry="2.82"/><ellipse class="cls-5" cx="294.43" cy="92.18" rx="2.55" ry="2.82"/><ellipse class="cls-5" cx="294.43" cy="108.27" rx="2.55" ry="2.82"/><ellipse class="cls-5" cx="294.43" cy="140.47" rx="2.55" ry="2.82"/><ellipse class="cls-6" cx="294.43" cy="156.57" rx="2.55" ry="2.82"/><ellipse class="cls-6" cx="294.43" cy="172.67" rx="2.55" ry="2.82"/><ellipse class="cls-5" cx="294.43" cy="188.77" rx="2.55" ry="2.82"/><ellipse class="cls-5" cx="294.43" cy="204.87" rx="2.55" ry="2.82"/><ellipse class="cls-5" cx="294.43" cy="220.97" rx="2.55" ry="2.82"/><ellipse class="cls-5" cx="294.43" cy="301.46" rx="2.55" ry="2.82"/><ellipse class="cls-5" cx="294.43" cy="398.06" rx="2.55" ry="2.82"/><ellipse class="cls-5" cx="294.43" cy="414.16" rx="2.55" ry="2.82"/><ellipse class="cls-5" cx="294.43" cy="430.25" rx="2.55" ry="2.82"/><ellipse class="cls-5" cx="294.43" cy="446.35" rx="2.55" ry="2.82"/><ellipse class="cls-5" cx="294.43" cy="510.75" rx="2.55" ry="2.82"/><ellipse class="cls-5" cx="294.43" cy="526.85" rx="2.55" ry="2.82"/><ellipse class="cls-5" cx="294.43" cy="542.95" rx="2.55" ry="2.82"/><ellipse class="cls-5" cx="294.43" cy="559.05" rx="2.55" ry="2.82"/><ellipse class="cls-5" cx="294.43" cy="607.34" rx="2.55" ry="2.82"/><ellipse class="cls-5" cx="294.43" cy="623.44" rx="2.55" ry="2.82"/><ellipse class="cls-5" cx="330.86" cy="76.08" rx="2.55" ry="2.82"/><ellipse class="cls-5" cx="330.86" cy="108.27" rx="2.55" ry="2.82"/><ellipse class="cls-5" cx="330.86" cy="124.37" rx="2.55" ry="2.82"/><ellipse class="cls-5" cx="330.86" cy="188.77" rx="2.55" ry="2.82"/><ellipse class="cls-5" cx="330.86" cy="204.87" rx="2.55" ry="2.82"/><ellipse class="cls-6" cx="330.86" cy="220.97" rx="2.55" ry="2.82"/><ellipse class="cls-5" cx="330.86" cy="237.07" rx="2.55" ry="2.82"/><ellipse class="cls-5" cx="330.86" cy="285.36" rx="2.55" ry="2.82"/><ellipse class="cls-5" cx="330.86" cy="414.16" rx="2.55" ry="2.82"/><ellipse class="cls-5" cx="330.86" cy="462.45" rx="2.55" ry="2.82"/><ellipse class="cls-5" cx="330.86" cy="478.55" rx="2.55" ry="2.82"/><ellipse class="cls-5" cx="330.86" cy="494.65" rx="2.55" ry="2.82"/><ellipse class="cls-5" cx="330.86" cy="510.75" rx="2.55" ry="2.82"/><ellipse class="cls-5" cx="330.86" cy="526.85" rx="2.55" ry="2.82"/><ellipse class="cls-5" cx="330.86" cy="542.95" rx="2.55" ry="2.82"/><ellipse class="cls-5" cx="330.86" cy="607.34" rx="2.55" ry="2.82"/><ellipse class="cls-5" cx="367.29" cy="92.18" rx="2.55" ry="2.82"/><ellipse class="cls-5" cx="367.29" cy="156.57" rx="2.55" ry="2.82"/><ellipse class="cls-5" cx="367.29" cy="172.67" rx="2.55" ry="2.82"/><ellipse class="cls-5" cx="367.29" cy="269.26" rx="2.55" ry="2.82"/><ellipse class="cls-5" cx="367.29" cy="285.36" rx="2.55" ry="2.82"/><ellipse class="cls-5" cx="367.29" cy="430.25" rx="2.55" ry="2.82"/><ellipse class="cls-5" cx="367.29" cy="446.35" rx="2.55" ry="2.82"/><ellipse class="cls-5" cx="367.29" cy="462.45" rx="2.55" ry="2.82"/><ellipse class="cls-5" cx="367.29" cy="607.34" rx="2.55" ry="2.82"/><ellipse class="cls-5" cx="367.29" cy="623.44" rx="2.55" ry="2.82"/><ellipse class="cls-5" cx="403.72" cy="76.08" rx="2.55" ry="2.82"/><ellipse class="cls-5" cx="403.72" cy="92.18" rx="2.55" ry="2.82"/><ellipse class="cls-5" cx="403.72" cy="108.27" rx="2.55" ry="2.82"/><ellipse class="cls-5" cx="403.72" cy="124.37" rx="2.55" ry="2.82"/><ellipse class="cls-5" cx="403.72" cy="140.47" rx="2.55" ry="2.82"/><ellipse class="cls-5" cx="403.72" cy="253.17" rx="2.55" ry="2.82"/><ellipse class="cls-5" cx="403.72" cy="269.26" rx="2.55" ry="2.82"/><ellipse class="cls-5" cx="403.72" cy="285.36" rx="2.55" ry="2.82"/><ellipse class="cls-5" cx="403.72" cy="494.65" rx="2.55" ry="2.82"/><ellipse class="cls-5" cx="403.72" cy="510.75" rx="2.55" ry="2.82"/><ellipse class="cls-6" cx="403.72" cy="526.85" rx="2.55" ry="2.82"/><ellipse class="cls-5" cx="403.72" cy="542.95" rx="2.55" ry="2.82"/><ellipse class="cls-5" cx="403.72" cy="559.05" rx="2.55" ry="2.82"/><ellipse class="cls-5" cx="403.72" cy="575.15" rx="2.55" ry="2.82"/><ellipse class="cls-5" cx="403.72" cy="607.34" rx="2.55" ry="2.82"/><ellipse class="cls-5" cx="440.15" cy="92.18" rx="2.55" ry="2.82"/><ellipse class="cls-5" cx="440.15" cy="108.27" rx="2.55" ry="2.82"/><ellipse class="cls-5" cx="440.15" cy="124.37" rx="2.55" ry="2.82"/><ellipse class="cls-5" cx="440.15" cy="156.57" rx="2.55" ry="2.82"/><ellipse class="cls-5" cx="440.15" cy="172.67" rx="2.55" ry="2.82"/><ellipse class="cls-5" cx="440.15" cy="188.77" rx="2.55" ry="2.82"/><ellipse class="cls-5" cx="440.15" cy="253.17" rx="2.55" ry="2.82"/><ellipse class="cls-5" cx="440.15" cy="269.26" rx="2.55" ry="2.82"/><ellipse class="cls-5" cx="440.15" cy="414.16" rx="2.55" ry="2.82"/><ellipse class="cls-5" cx="440.15" cy="430.25" rx="2.55" ry="2.82"/><ellipse class="cls-5" cx="440.15" cy="446.35" rx="2.55" ry="2.82"/><ellipse class="cls-5" cx="440.15" cy="462.45" rx="2.55" ry="2.82"/><ellipse class="cls-5" cx="440.15" cy="494.65" rx="2.55" ry="2.82"/><ellipse class="cls-5" cx="440.15" cy="526.85" rx="2.55" ry="2.82"/><ellipse class="cls-5" cx="440.15" cy="542.95" rx="2.55" ry="2.82"/><ellipse class="cls-5" cx="440.15" cy="607.34" rx="2.55" ry="2.82"/><ellipse class="cls-5" cx="440.15" cy="623.44" rx="2.55" ry="2.82"/><ellipse class="cls-5" cx="476.58" cy="76.08" rx="2.55" ry="2.82"/><ellipse class="cls-5" cx="476.58" cy="92.18" rx="2.55" ry="2.82"/><ellipse class="cls-5" cx="476.58" cy="108.27" rx="2.55" ry="2.82"/><ellipse class="cls-6" cx="476.58" cy="124.37" rx="2.55" ry="2.82"/><ellipse class="cls-6" cx="476.58" cy="140.47" rx="2.55" ry="2.82"/><ellipse class="cls-5" cx="476.58" cy="156.57" rx="2.55" ry="2.82"/><ellipse class="cls-5" cx="476.58" cy="172.67" rx="2.55" ry="2.82"/><ellipse class="cls-6" cx="476.58" cy="220.97" rx="2.55" ry="2.82"/><ellipse class="cls-6" cx="476.58" cy="237.07" rx="2.55" ry="2.82"/><ellipse class="cls-5" cx="476.58" cy="253.17" rx="2.55" ry="2.82"/><ellipse class="cls-5" cx="476.58" cy="269.26" rx="2.55" ry="2.82"/><ellipse class="cls-5" cx="476.58" cy="285.36" rx="2.55" ry="2.82"/><ellipse class="cls-5" cx="476.58" cy="301.46" rx="2.55" ry="2.82"/><ellipse class="cls-5" cx="476.58" cy="333.66" rx="2.55" ry="2.82"/><ellipse class="cls-5" cx="476.58" cy="349.76" rx="2.55" ry="2.82"/><ellipse class="cls-5" cx="476.58" cy="365.86" rx="2.55" ry="2.82"/><ellipse class="cls-5" cx="476.58" cy="414.16" rx="2.55" ry="2.82"/><ellipse class="cls-5" cx="476.58" cy="430.25" rx="2.55" ry="2.82"/><ellipse class="cls-5" cx="476.58" cy="446.35" rx="2.55" ry="2.82"/><ellipse class="cls-5" cx="476.58" cy="462.45" rx="2.55" ry="2.82"/><ellipse class="cls-5" cx="476.58" cy="494.65" rx="2.55" ry="2.82"/><ellipse class="cls-5" cx="476.58" cy="510.75" rx="2.55" ry="2.82"/><ellipse class="cls-5" cx="476.58" cy="526.85" rx="2.55" ry="2.82"/><ellipse class="cls-6" cx="476.58" cy="591.24" rx="2.55" ry="2.82"/><ellipse class="cls-5" cx="476.58" cy="607.34" rx="2.55" ry="2.82"/><ellipse class="cls-5" cx="513.01" cy="92.18" rx="2.55" ry="2.82"/><ellipse class="cls-5" cx="513.01" cy="108.27" rx="2.55" ry="2.82"/><ellipse class="cls-5" cx="513.01" cy="140.47" rx="2.55" ry="2.82"/><ellipse class="cls-5" cx="513.01" cy="172.67" rx="2.55" ry="2.82"/><ellipse class="cls-5" cx="513.01" cy="188.77" rx="2.55" ry="2.82"/><ellipse class="cls-5" cx="513.01" cy="204.87" rx="2.55" ry="2.82"/><ellipse class="cls-5" cx="513.01" cy="237.07" rx="2.55" ry="2.82"/><ellipse class="cls-5" cx="513.01" cy="269.26" rx="2.55" ry="2.82"/><ellipse class="cls-5" cx="513.01" cy="285.36" rx="2.55" ry="2.82"/><ellipse class="cls-5" cx="513.01" cy="301.46" rx="2.55" ry="2.82"/><ellipse class="cls-5" cx="513.01" cy="349.76" rx="2.55" ry="2.82"/><ellipse class="cls-5" cx="513.01" cy="365.86" rx="2.55" ry="2.82"/><ellipse class="cls-5" cx="513.01" cy="381.96" rx="2.55" ry="2.82"/><ellipse class="cls-5" cx="513.01" cy="398.06" rx="2.55" ry="2.82"/><ellipse class="cls-5" cx="513.01" cy="414.16" rx="2.55" ry="2.82"/><ellipse class="cls-5" cx="513.01" cy="430.25" rx="2.55" ry="2.82"/><ellipse class="cls-5" cx="513.01" cy="446.35" rx="2.55" ry="2.82"/><ellipse class="cls-5" cx="513.01" cy="462.45" rx="2.55" ry="2.82"/><ellipse class="cls-5" cx="513.01" cy="542.95" rx="2.55" ry="2.82"/><ellipse class="cls-5" cx="513.01" cy="559.05" rx="2.55" ry="2.82"/><ellipse class="cls-5" cx="513.01" cy="575.15" rx="2.55" ry="2.82"/><ellipse class="cls-5" cx="513.01" cy="607.34" rx="2.55" ry="2.82"/><ellipse class="cls-5" cx="513.01" cy="623.44" rx="2.55" ry="2.82"/><ellipse class="cls-5" cx="549.44" cy="76.08" rx="2.55" ry="2.82"/><ellipse class="cls-5" cx="549.44" cy="92.18" rx="2.55" ry="2.82"/><ellipse class="cls-5" cx="549.44" cy="108.27" rx="2.55" ry="2.82"/><ellipse class="cls-5" cx="549.44" cy="124.37" rx="2.55" ry="2.82"/><ellipse class="cls-5" cx="549.44" cy="188.77" rx="2.55" ry="2.82"/><ellipse class="cls-5" cx="549.44" cy="204.87" rx="2.55" ry="2.82"/><ellipse class="cls-5" cx="549.44" cy="220.97" rx="2.55" ry="2.82"/><ellipse class="cls-5" cx="549.44" cy="237.07" rx="2.55" ry="2.82"/><ellipse class="cls-5" cx="549.44" cy="253.17" rx="2.55" ry="2.82"/><ellipse class="cls-5" cx="549.44" cy="269.26" rx="2.55" ry="2.82"/><ellipse class="cls-5" cx="549.44" cy="285.36" rx="2.55" ry="2.82"/><ellipse class="cls-5" cx="549.44" cy="301.46" rx="2.55" ry="2.82"/><ellipse class="cls-5" cx="549.44" cy="381.96" rx="2.55" ry="2.82"/><ellipse class="cls-5" cx="549.44" cy="398.06" rx="2.55" ry="2.82"/><ellipse class="cls-5" cx="549.44" cy="414.16" rx="2.55" ry="2.82"/><ellipse class="cls-5" cx="549.44" cy="430.25" rx="2.55" ry="2.82"/><ellipse class="cls-5" cx="549.44" cy="510.75" rx="2.55" ry="2.82"/><ellipse class="cls-5" cx="549.44" cy="526.85" rx="2.55" ry="2.82"/><ellipse class="cls-5" cx="549.44" cy="542.95" rx="2.55" ry="2.82"/><ellipse class="cls-5" cx="549.44" cy="559.05" rx="2.55" ry="2.82"/><ellipse class="cls-5" cx="549.44" cy="575.15" rx="2.55" ry="2.82"/><ellipse class="cls-5" cx="549.44" cy="591.24" rx="2.55" ry="2.82"/><ellipse class="cls-5" cx="549.44" cy="607.34" rx="2.55" ry="2.82"/><ellipse class="cls-5" cx="585.87" cy="92.18" rx="2.55" ry="2.82"/><ellipse class="cls-5" cx="585.87" cy="108.27" rx="2.55" ry="2.82"/><ellipse class="cls-5" cx="585.87" cy="124.37" rx="2.55" ry="2.82"/><ellipse class="cls-5" cx="585.87" cy="140.47" rx="2.55" ry="2.82"/><ellipse class="cls-5" cx="585.87" cy="156.57" rx="2.55" ry="2.82"/><ellipse class="cls-5" cx="585.87" cy="172.67" rx="2.55" ry="2.82"/><ellipse class="cls-5" cx="585.87" cy="237.07" rx="2.55" ry="2.82"/><ellipse class="cls-5" cx="585.87" cy="253.17" rx="2.55" ry="2.82"/><ellipse class="cls-5" cx="585.87" cy="269.26" rx="2.55" ry="2.82"/><ellipse class="cls-5" cx="585.87" cy="285.36" rx="2.55" ry="2.82"/><ellipse class="cls-5" cx="585.87" cy="301.46" rx="2.55" ry="2.82"/><ellipse class="cls-6" cx="585.87" cy="317.56" rx="2.55" ry="2.82"/><ellipse class="cls-5" cx="585.87" cy="333.66" rx="2.55" ry="2.82"/><ellipse class="cls-5" cx="585.87" cy="510.75" rx="2.55" ry="2.82"/><ellipse class="cls-5" cx="585.87" cy="526.85" rx="2.55" ry="2.82"/><ellipse class="cls-6" cx="585.87" cy="542.95" rx="2.55" ry="2.82"/><ellipse class="cls-6" cx="585.87" cy="559.05" rx="2.55" ry="2.82"/><ellipse class="cls-5" cx="585.87" cy="575.15" rx="2.55" ry="2.82"/><ellipse class="cls-5" cx="585.87" cy="591.24" rx="2.55" ry="2.82"/><ellipse class="cls-5" cx="585.87" cy="607.34" rx="2.55" ry="2.82"/><ellipse class="cls-5" cx="585.87" cy="623.44" rx="2.55" ry="2.82"/><ellipse class="cls-5" cx="622.3" cy="76.08" rx="2.55" ry="2.82"/><ellipse class="cls-6" cx="622.3" cy="92.18" rx="2.55" ry="2.82"/><ellipse class="cls-6" cx="622.3" cy="108.27" rx="2.55" ry="2.82"/><ellipse class="cls-5" cx="622.3" cy="156.57" rx="2.55" ry="2.82"/><ellipse class="cls-5" cx="622.3" cy="172.67" rx="2.55" ry="2.82"/><ellipse class="cls-5" cx="622.3" cy="188.77" rx="2.55" ry="2.82"/><ellipse class="cls-5" cx="622.3" cy="204.87" rx="2.55" ry="2.82"/><ellipse class="cls-5" cx="622.3" cy="317.56" rx="2.55" ry="2.82"/><ellipse class="cls-5" cx="622.3" cy="333.66" rx="2.55" ry="2.82"/><ellipse class="cls-5" cx="622.3" cy="349.76" rx="2.55" ry="2.82"/><ellipse class="cls-5" cx="622.3" cy="365.86" rx="2.55" ry="2.82"/><ellipse class="cls-5" cx="622.3" cy="414.16" rx="2.55" ry="2.82"/><ellipse class="cls-5" cx="622.3" cy="430.25" rx="2.55" ry="2.82"/><ellipse class="cls-6" cx="622.3" cy="446.35" rx="2.55" ry="2.82"/><ellipse class="cls-6" cx="622.3" cy="462.45" rx="2.55" ry="2.82"/><ellipse class="cls-6" cx="622.3" cy="478.55" rx="2.55" ry="2.82"/><ellipse class="cls-5" cx="622.3" cy="510.75" rx="2.55" ry="2.82"/><ellipse class="cls-5" cx="622.3" cy="526.85" rx="2.55" ry="2.82"/><ellipse class="cls-5" cx="622.3" cy="542.95" rx="2.55" ry="2.82"/><ellipse class="cls-5" cx="622.3" cy="575.15" rx="2.55" ry="2.82"/><ellipse class="cls-5" cx="622.3" cy="591.24" rx="2.55" ry="2.82"/><ellipse class="cls-5" cx="622.3" cy="607.34" rx="2.55" ry="2.82"/><ellipse class="cls-5" cx="658.73" cy="92.18" rx="2.55" ry="2.82"/><ellipse class="cls-5" cx="658.73" cy="108.27" rx="2.55" ry="2.82"/><ellipse class="cls-5" cx="658.73" cy="124.37" rx="2.55" ry="2.82"/><ellipse class="cls-5" cx="658.73" cy="140.47" rx="2.55" ry="2.82"/><ellipse class="cls-5" cx="658.73" cy="188.77" rx="2.55" ry="2.82"/><ellipse class="cls-5" cx="658.73" cy="204.87" rx="2.55" ry="2.82"/><ellipse class="cls-5" cx="658.73" cy="220.97" rx="2.55" ry="2.82"/><ellipse class="cls-5" cx="658.73" cy="285.36" rx="2.55" ry="2.82"/><ellipse class="cls-5" cx="658.73" cy="301.46" rx="2.55" ry="2.82"/><ellipse class="cls-5" cx="658.73" cy="317.56" rx="2.55" ry="2.82"/><ellipse class="cls-5" cx="658.73" cy="333.66" rx="2.55" ry="2.82"/><ellipse class="cls-5" cx="658.73" cy="398.06" rx="2.55" ry="2.82"/><ellipse class="cls-5" cx="658.73" cy="414.16" rx="2.55" ry="2.82"/><ellipse class="cls-5" cx="658.73" cy="430.25" rx="2.55" ry="2.82"/><ellipse class="cls-5" cx="658.73" cy="446.35" rx="2.55" ry="2.82"/><ellipse class="cls-5" cx="658.73" cy="494.65" rx="2.55" ry="2.82"/><ellipse class="cls-5" cx="658.73" cy="510.75" rx="2.55" ry="2.82"/><ellipse class="cls-5" cx="658.73" cy="526.85" rx="2.55" ry="2.82"/><ellipse class="cls-5" cx="658.73" cy="542.95" rx="2.55" ry="2.82"/><ellipse class="cls-5" cx="658.73" cy="559.05" rx="2.55" ry="2.82"/><ellipse class="cls-5" cx="658.73" cy="623.44" rx="2.55" ry="2.82"/><ellipse class="cls-5" cx="695.16" cy="76.08" rx="2.55" ry="2.82"/><ellipse class="cls-5" cx="695.16" cy="92.18" rx="2.55" ry="2.82"/><ellipse class="cls-5" cx="695.16" cy="108.27" rx="2.55" ry="2.82"/><ellipse class="cls-5" cx="695.16" cy="124.37" rx="2.55" ry="2.82"/><ellipse class="cls-5" cx="695.16" cy="140.47" rx="2.55" ry="2.82"/><ellipse class="cls-5" cx="695.16" cy="156.57" rx="2.55" ry="2.82"/><ellipse class="cls-5" cx="695.16" cy="172.67" rx="2.55" ry="2.82"/><ellipse class="cls-5" cx="695.16" cy="188.77" rx="2.55" ry="2.82"/><ellipse class="cls-5" cx="695.16" cy="204.87" rx="2.55" ry="2.82"/><ellipse class="cls-5" cx="695.16" cy="220.97" rx="2.55" ry="2.82"/><ellipse class="cls-5" cx="695.16" cy="237.07" rx="2.55" ry="2.82"/><ellipse class="cls-5" cx="695.16" cy="253.17" rx="2.55" ry="2.82"/><ellipse class="cls-5" cx="695.16" cy="269.26" rx="2.55" ry="2.82"/><ellipse class="cls-5" cx="695.16" cy="285.36" rx="2.55" ry="2.82"/><ellipse class="cls-5" cx="695.16" cy="301.46" rx="2.55" ry="2.82"/><ellipse class="cls-6" cx="695.16" cy="381.96" rx="2.55" ry="2.82"/><ellipse class="cls-6" cx="695.16" cy="398.06" rx="2.55" ry="2.82"/><ellipse class="cls-5" cx="695.16" cy="414.16" rx="2.55" ry="2.82"/><ellipse class="cls-6" cx="695.16" cy="430.25" rx="2.55" ry="2.82"/><ellipse class="cls-6" cx="695.16" cy="446.35" rx="2.55" ry="2.82"/><ellipse class="cls-6" cx="695.16" cy="462.45" rx="2.55" ry="2.82"/><ellipse class="cls-5" cx="695.16" cy="526.85" rx="2.55" ry="2.82"/><ellipse class="cls-5" cx="695.16" cy="542.95" rx="2.55" ry="2.82"/><ellipse class="cls-5" cx="695.16" cy="559.05" rx="2.55" ry="2.82"/><ellipse class="cls-5" cx="695.16" cy="575.15" rx="2.55" ry="2.82"/><ellipse class="cls-5" cx="695.16" cy="591.24" rx="2.55" ry="2.82"/><ellipse class="cls-5" cx="695.16" cy="607.34" rx="2.55" ry="2.82"/></g></svg>