<svg xmlns="http://www.w3.org/2000/svg" viewBox="0 0 129.07 129.02"><defs><style>.cls-1{fill:#fff;}.cls-2{opacity:0.15;}.cls-3{fill:#95b23a;}.cls-4{fill:#fcce44;}.cls-5{fill:#548dbf;}</style></defs><title>CircJovem</title><g id="Camada_2" data-name="Camada 2"><g id="Camada_2-2" data-name="Camada 2"><polyline class="cls-1" points="106.19 113.75 107.32 112.73 108.56 111.64 106.19 113.75"/><path class="cls-1" d="M1.78,49l-.08.42C1.23,51.71.63,54.82.31,57.17c.38-2.47.93-5.76,1.47-8.21Z"/><path class="cls-1" d="M99.54,10.23c-.23-.14-.44-.28-.68-.4s-.69-.44-1-.63c0,0,0,0-.06,0-.48-.29-1-.55-1.45-.81L96,8.22q-.56-.3-1.12-.56l-.68-.33c-.44-.22-.89-.42-1.35-.61-.21-.09-.42-.19-.64-.26-.7-.3-1.41-.58-2.13-.83l-.3-.11c-.82-.42-1.92-1-2.76-1.37,1.6.57,3.73,1.35,5.28,2A68.37,68.37,0,0,1,99.54,10.23Z"/><g class="cls-2"><path class="cls-3" d="M55.1.69C56,.58,57.13.41,58,.33,60.56.11,60.56.11,61.84.05c1,0,2.29-.05,3.27-.05l1.08.06a63.14,63.14,0,0,0-10.5,1.17A2.53,2.53,0,0,0,55.1.69Z"/><path class="cls-3" d="M39.24,6.08c1.77-1.56,1.88-1.65,3.4-2.24,1.06-.36,2.47-.85,3.54-1.17C49,1.89,49,1.89,50.37,1.58c.84-.18,2-.41,2.81-.58a1.43,1.43,0,0,0,0,.75A93,93,0,0,0,39.24,6.08Z"/><path class="cls-3" d="M23.85,14.58l2.29-1.9c1.28-.9,3-2.12,4.32-2.95a64.35,64.35,0,0,1,6-3.3c1.14-.52,2.67-1.21,3.83-1.7-2.54,1.31-2.64,1.35-3.84,2.53A67.87,67.87,0,0,0,23.85,14.58Z"/><path class="cls-4" d="M62.87,14.16a119.32,119.32,0,0,0-6.5-12C65.35.49,68.61.6,68.64.61,73.82,2.68,76.69,4.91,82,11A138.59,138.59,0,0,0,62.87,14.16Z"/><path class="cls-4" d="M37.94,7.88a109.06,109.06,0,0,1,15.57-5C54,4.12,54,4.17,58.13,14c.16.4.34.82.53,1.27a160,160,0,0,0-21.81,7.64c-.33-2.57-.54-4.62-.59-6.36A18,18,0,0,1,37.94,7.88Z"/><path class="cls-4" d="M70.6.57a33.86,33.86,0,0,1,4.85.35l.2,0A65.15,65.15,0,0,1,82,2.4l.33.09C88,4.43,91.58,5.8,98.53,11.3a55.93,55.93,0,0,0-13.19-.58C79.53,4.68,76.36,2.5,70.6.57Z"/><path class="cls-4" d="M100.4,11.75c-4.72-3.5-6.58-4.88-12.66-7.43l2.5,1A65.12,65.12,0,0,1,101,11.23l2.86,2.07A11.16,11.16,0,0,0,100.4,11.75Z"/><path class="cls-4" d="M1.87,52.09A47,47,0,0,1,5,39.66l.89-2a66.62,66.62,0,0,1,8.57-13.77,40.33,40.33,0,0,1,4.44-4.58c-4.92,6.65-6.43,10.66-7.35,19.5C8.84,41.51,4.32,46,1.87,52.09Z"/><path class="cls-4" d="M14.4,36.27c.77-8.72,2.15-12.6,6.75-18.85A72.51,72.51,0,0,1,34.84,9.24a19.4,19.4,0,0,0-2.33,6.89,41.59,41.59,0,0,0,0,8.72,96,96,0,0,0-18,11.33Z"/><path class="cls-5" d="M37.62,27a173.07,173.07,0,0,1,18.54-6.81q1.95-.58,4.07-1.16c1.46,3.64,2.64,6.67,3.63,9.32,2.34,6.25,3.69,10.38,5.34,15.53a183.58,183.58,0,0,0-23.69,8.6C41,40,39.4,34.51,37.62,27Z"/><path class="cls-5" d="M0,65.82a20.43,20.43,0,0,1,.75-5.9C1.44,70.38,3,75.62,8.39,85.37A19.28,19.28,0,0,0,9.49,98C8.39,96.19,7,93.75,6,91.86c-1-2.3-2.28-5.37-3-7.76C1.24,77.61,1.13,77.23.55,73,.35,70.89.08,68,0,65.82Z"/><path class="cls-5" d="M1.68,57.13a41.05,41.05,0,0,1,9.85-13.65,65.91,65.91,0,0,0,2.62,14.31,99.11,99.11,0,0,0,4.59,11.62c-2.34,2.4-6,6.18-8.5,11.08a24.16,24.16,0,0,0-1,2.24C3.91,72.73,2.35,67.47,1.68,57.13Z"/><path class="cls-5" d="M14.45,40.88A95.66,95.66,0,0,1,33.17,29c1.6,7.73,3.1,13.26,7.77,25.56-4.6,2.37-12.32,6.33-19.3,12.2a111.66,111.66,0,0,1-4.38-11.27,64.56,64.56,0,0,1-2.54-12.1C14.63,42.61,14.54,41.77,14.45,40.88Z"/><path class="cls-5" d="M64.61,17.89a152.12,152.12,0,0,1,20.08-3.43c5.9,8.87,8.14,14,11.47,24-2.54.33-6.42.82-11.41,1.76-3.17.6-6.8,1.38-10.82,2.41-1.7-5.31-3.15-9.82-5.76-16.28C67.18,23.84,66,21.09,64.61,17.89Z"/><path class="cls-5" d="M100.15,38C96.73,28,94.41,22.89,88.2,14.2c11.08-.46,14.06.54,14.08.55,7.3,8,10.26,12.87,14.36,23.64A72.44,72.44,0,0,0,100.15,38Z"/><path class="cls-5" d="M119.07,38.9c-3.93-10.08-6.75-15.18-14.78-23.69a12.19,12.19,0,0,1,4.22,2l1.25,1.19a64.92,64.92,0,0,1,7.24,8.4,63.87,63.87,0,0,1,5.66,9.47c.84,1.91,2,4.44,2.69,6.39C124.39,41.07,123.52,40.22,119.07,38.9Z"/><path class="cls-5" d="M120.79,44.72c2.05.62,5.87,1.78,6.39,4,2.48,11.91,2.5,18.36.09,30-.47-.94-1.28-2.51-5.9-3.78C123.41,63,123.29,56.75,120.79,44.72Z"/><path class="cls-5" d="M101.77,43.92c3.74-.23,10.7-.65,16.57.3,2.48,12.1,2.64,18.3.78,30.18a62.53,62.53,0,0,0-15-.55C104.84,62.06,104.35,55.9,101.77,43.92Z"/><path class="cls-5" d="M75.64,48.37c2.11-.51,4.85-1.17,8.08-1.83,4-.83,8.81-1.67,14-2.25,2.66,12.08,3.24,18.22,2.85,29.85a140.13,140.13,0,0,0-19,3.38,168.11,168.11,0,0,0-4-21.37C77.11,53.84,76.44,51.28,75.64,48.37Z"/><path class="cls-5" d="M41.34,124.18c-.81-.25-1.62-.51-2.41-.79s-1.43-.53-2.13-.83l-.64-.26c-.45-.19-.9-.39-1.35-.61l-.68-.33q-.56-.26-1.12-.56l-.26-.13c-.49-.26-1-.53-1.45-.81,0,0,0,0-.06,0-.35-.19-.7-.4-1-.63s-.45-.26-.68-.4l0,0h0c-.24-.15-.48-.3-.72-.47l-.58-.38a61.27,61.27,0,0,1-7.55-6c-1.53-1.52-3.57-3.58-5-5.19-.55-.72-1.33-1.66-1.84-2.43,6.78,7.28,11.1,10.31,21,14.77A21.18,21.18,0,0,0,41.34,124.18Z"/><path class="cls-5" d="M12.23,87.41c.4-.9.9-2,1.61-3.29a39,39,0,0,1,7.58-9.58c2.4,4.05,4.43,7.33,6.93,10.81A153.84,153.84,0,0,0,38.78,98.12c-1.85,2-4.94,5.27-6.23,9.47C23,100.37,18.8,96.22,12.23,87.41Z"/><path class="cls-5" d="M24.26,72A94.67,94.67,0,0,1,43.18,60.12C46.09,66.95,48,71.46,55.46,87a82.14,82.14,0,0,0-12.84,7.81c-.59.45-1.17.93-1.74,1.42-4.15-5.09-7-8.9-9.54-12.57S26.78,76.51,24.26,72Z"/><path class="cls-5" d="M11.42,90c6.27,8,10.34,12.19,20.71,19.44a12.16,12.16,0,0,0,1.65,8.22c-10.07-4.89-14.43-8.09-21.24-15.56C11.4,99.19,10,95.64,11.42,90Z"/><path class="cls-5" d="M47.66,58A177.1,177.1,0,0,1,71,49.62c1,3.6,1.89,6.66,2.61,9.4,1.92,7.27,2.94,12.34,4.18,19.53-1.31.39-2.92.86-4.74,1.45a127.59,127.59,0,0,0-14.06,5.32C50.79,65.91,50.79,65.91,47.66,58Z"/><path class="cls-3" d="M78.79,127.57c-2.59.54-2.59.54-3.88.75-1.06.16-2.47.35-3.53.47h0A39,39,0,0,0,79,127.22a18.89,18.89,0,0,0,2.43-.31c-.8.2-1.86.48-2.66.66Z"/><path class="cls-3" d="M72.41,123.85a29,29,0,0,0,6.88-11.4,61.72,61.72,0,0,1,9.4-2.29C85.27,114.41,81,119.72,72.41,123.85Z"/><path class="cls-3" d="M80.26,123.31c11.19-2.08,16.51-4.31,25.8-10.86.08.67.18,1.49-1.5,2.82L102,117.19c-4.6,3-9.8,6.35-19.47,7.29C82.34,124.18,82,123.62,80.26,123.31Z"/><path class="cls-3" d="M82.58,124.81c4.67-.58,8.37-1,14.77-4.62-1.46.84-3.23,1.82-4.64,2.5-3.24,1.49-3.31,1.52-5.14,2.22-1.14.41-2.68.95-3.83,1.33a27.63,27.63,0,0,1-3.64.56C81,126.39,82.48,125.68,82.58,124.81Z"/><path class="cls-3" d="M74.78,123.37c10.84-2.92,16.46-5.38,26.38-13.4,1.28.26,3.68.76,4.6,1.94-9.51,6.74-14.9,9.06-26.28,11.3A20.11,20.11,0,0,0,74.78,123.37Z"/><path class="cls-3" d="M72.41,123.85c-1.63-.92-3.77-2.2-5.34-3.2.23-.71.58-1.78,2.67-3.44C71,120.26,71.38,121.08,72.41,123.85Z"/><path class="cls-3" d="M73.8,123.53l-1.38.32a57.26,57.26,0,0,0,8.42-4.69,48.6,48.6,0,0,0,9.82-9.27,42.17,42.17,0,0,1,9-.13C90.57,117.43,85.24,120.26,73.8,123.53Z"/><path class="cls-3" d="M77.6,113.05c-1.75,5.67-2.33,6.88-5.19,10.8a61.6,61.6,0,0,0-1.69-7.37A34,34,0,0,1,77.6,113.05Z"/><path class="cls-3" d="M67,121.24c1.59.82,3.74,1.88,5.38,2.61l-3.41-.5C68.25,123,67.13,122.48,67,121.24Z"/><path class="cls-4" d="M46.43,125.41l.47.09-.45-.08Z"/><path class="cls-4" d="M69.73,123.58l2.68.27a10.21,10.21,0,0,1-2.68-.27Z"/><path class="cls-4" d="M71.3,124.17q-2.74.76-5.44,1.24C67.59,125.06,69.38,124.64,71.3,124.17Z"/><path class="cls-4" d="M46.43,125.41l.47.09-.45-.08Z"/><path class="cls-4" d="M37.1,112.46c10.47,5.66,16,7.76,27,10.24a8.15,8.15,0,0,0,4,1.39C56,124.11,50,123.21,39,119.7A10.65,10.65,0,0,1,37.1,112.46Z"/><path class="cls-4" d="M63.63,122.22c-10.72-3-16.11-5.35-26.22-11.37a20.3,20.3,0,0,1,5.35-8.59c8,7.8,12.41,11.38,20.36,16.65A3.2,3.2,0,0,0,63.63,122.22Z"/><path class="cls-4" d="M80.55,108.28c1.73-8.16,2.24-13.18,1.63-25.14a135.37,135.37,0,0,1,17.9-3.21c-1.83,11.5-3.58,16.83-8.53,25.93A74.8,74.8,0,0,0,80.55,108.28Z"/><path class="cls-4" d="M78.17,124.8c.24.34.61.86-.63,1.7a13.52,13.52,0,0,1-5.13-2.64C74.13,124.18,76.43,124.61,78.17,124.8Z"/><path class="cls-4" d="M71.41,128.46c.23-1.16.33-1.69,1-4.6a24.23,24.23,0,0,0,2.3,2,10.61,10.61,0,0,0,2.19,1A19,19,0,0,1,71.41,128.46Z"/><path class="cls-4" d="M110.33,108.83c8-8.11,11.14-13,15.36-23.62l-.16.71c-.66,1.68-1.52,3.94-2.26,5.58a65.24,65.24,0,0,1-9,14.25c-1.51,1.7-3.55,3.92-5.15,5.53C110,110.38,110.42,109.88,110.33,108.83Z"/><path class="cls-4" d="M105.36,105.9c7.69-8.84,10.69-14,14.55-25.23,5.35,1.71,5.72,3.21,5.7,3.63-4.31,10.82-7.5,15.74-15.52,23.9C109.62,107.64,108.72,106.59,105.36,105.9Z"/><path class="cls-4" d="M93.76,105.59c5.48-9.18,7.47-14.51,9.66-25.94a62.18,62.18,0,0,1,14.31.54c-3.69,11.35-6.56,16.58-14,25.45A43.76,43.76,0,0,0,93.76,105.59Z"/><path class="cls-4" d="M44.62,100.51c.59-.48,1.26-1,2-1.65A66.26,66.26,0,0,1,57.89,92c4,8.18,5.94,12.31,7.53,15.73,1,2,1.77,3.81,2.79,6-1.26.88-3.6,2.5-4.7,4.35A138.14,138.14,0,0,1,44.62,100.51Z"/><path class="cls-4" d="M61.07,90.46c2.5-1.09,6.23-2.71,11.29-4.43,1.87-.63,3.93-1.28,6.16-1.91,1.14,11.16,1.13,16.26,0,24.83a53.4,53.4,0,0,0-8.87,4c-.78-2.31-1.45-4.28-2.29-6.58C66,102.71,64.28,98.29,61.07,90.46Z"/><path class="cls-4" d="M72.41,123.85a46.54,46.54,0,0,1-7,3.52,25.37,25.37,0,0,1-6.64,1.38,49.73,49.73,0,0,1-10.42-2.14C57.16,127.51,62.34,126.91,72.41,123.85Z"/><path class="cls-4" d="M69.12,124.16a14,14,0,0,0,3.29-.31,72.67,72.67,0,0,1-11.91,2.26c1.77-.15,3.55-.38,5.35-.7a52.7,52.7,0,0,1-19.5.47c-.63-.27-1.48-.63-2.1-.93.72.17,1.45.33,2.18.45l0,0,.45.08-.47-.09A20.49,20.49,0,0,1,40,120.93C51.07,124,57.06,124.7,69.12,124.16Z"/><path class="cls-4" d="M60.8,128.92c3.85-.61,6-1.23,11.61-5.07a21,21,0,0,1-2.5,4.82A52,52,0,0,1,60.8,128.92Z"/><path class="cls-4" d="M77.83,124.54c-1.63-.17-3.81-.39-5.42-.69h0l2,0a8.38,8.38,0,0,1,3.4.72Z"/><path class="cls-4" d="M73.52,123.81l-1.11,0h0l1.11,0"/></g><path class="cls-3" d="M74,128.33c-.87.12-2,.28-2.91.37-2.54.22-2.54.22-3.83.27-1,0-2.29.05-3.27.05L62.88,129a63.14,63.14,0,0,0,10.5-1.17A2.53,2.53,0,0,0,74,128.33Z"/><path class="cls-3" d="M89.83,122.94c-1.77,1.56-1.88,1.65-3.4,2.24-1.06.36-2.47.85-3.54,1.17-2.79.78-2.79.78-4.19,1.09-.84.18-2,.41-2.81.58a1.43,1.43,0,0,0,0-.75A93,93,0,0,0,89.83,122.94Z"/><path class="cls-3" d="M105.22,114.43l-2.29,1.9c-1.28.9-3,2.12-4.32,2.95a64.35,64.35,0,0,1-6,3.3c-1.14.52-2.67,1.21-3.83,1.7,2.54-1.31,2.64-1.35,3.84-2.53A67.87,67.87,0,0,0,105.22,114.43Z"/><path class="cls-4" d="M66.19,114.85a119.32,119.32,0,0,0,6.5,12c-9,1.71-12.24,1.6-12.26,1.59-5.18-2.08-8.05-4.3-13.38-10.35A138.59,138.59,0,0,0,66.19,114.85Z"/><path class="cls-4" d="M91.12,121.13a108.72,108.72,0,0,1-15.57,5.05c-.48-1.28-.51-1.33-4.63-11.13,2.79,1.48,6,1.36,9.27.09a7.09,7.09,0,0,0,.92-.39,8.73,8.73,0,0,0,1.12-.58c.26-.14.49-.31.73-.46a25.8,25.8,0,0,0,2.52-2.31,1.4,1.4,0,0,1,.77-.12,6.24,6.24,0,0,1,1.12.09,19.84,19.84,0,0,0,2.76.7c.63.22,1.22.46,1.8.68a3,3,0,0,0-.31-.41c.36.07.77.12,1.17.17A18.1,18.1,0,0,1,91.12,121.13Z"/><path class="cls-4" d="M58.47,128.45a33.86,33.86,0,0,1-4.85-.35l-.2,0A65.15,65.15,0,0,1,47,126.61l-.33-.09c-5.66-1.94-9.19-3.3-16.15-8.81a55.93,55.93,0,0,0,13.19.58C49.54,124.34,52.7,126.52,58.47,128.45Z"/><path class="cls-4" d="M28.67,117.27c4.72,3.5,6.58,4.88,12.66,7.43l-2.5-1a65.12,65.12,0,0,1-10.73-5.91l-2.86-2.07A11.16,11.16,0,0,0,28.67,117.27Z"/><path class="cls-4" d="M127.19,76.92a47,47,0,0,1-3.12,12.43l-.89,2a66.62,66.62,0,0,1-8.57,13.77,40.33,40.33,0,0,1-4.44,4.58c4.92-6.65,6.43-10.66,7.35-19.5C120.22,87.51,124.74,83,127.19,76.92Z"/><path class="cls-4" d="M114.67,92.75c-.77,8.71-2.16,12.59-6.75,18.83a70.92,70.92,0,0,1-13.68,8.18,19.32,19.32,0,0,0,2.31-6.89c.68.07,1.12.09,1.14.09,1.28-2,2.54-4.07,3.86-5.82.07-.24.15-.49.41-1.23a22.3,22.3,0,0,1,2.3-5.14,1.75,1.75,0,0,1,.7-.71,16.79,16.79,0,0,0,2.91-.88c.26-.12.51-.26.75-.39a11.67,11.67,0,0,0,1.07-.71c.29-.2.58-.41.83-.63a16.26,16.26,0,0,0,4-4.61Z"/><path class="cls-5" d="M77.07,102.34a19.52,19.52,0,0,1-4.17,6.5c-1.29.39-2.64.78-4.07,1.16-1.46-3.64-2.64-6.67-3.62-9.31l.07-.05a2.16,2.16,0,0,0,1-1.29,5.71,5.71,0,0,1-1-1.12A6.07,6.07,0,0,1,64.61,97a5.47,5.47,0,0,1-.31-1.34,6.22,6.22,0,0,1,0-1.38,8.86,8.86,0,0,1,.19-1.34c.12-.44.24-.85.39-1.28a10,10,0,0,1,.51-1.14,6.65,6.65,0,0,1,2.59-2.64A6.88,6.88,0,0,1,70.4,87C76.59,86,79,97,77.07,102.34Z"/><path class="cls-5" d="M129.07,63.2a20.43,20.43,0,0,1-.75,5.9c-.69-10.46-2.26-15.7-7.64-25.45A19.28,19.28,0,0,0,119.58,31c1.1,1.81,2.51,4.25,3.47,6.15,1,2.3,2.28,5.37,3,7.76,1.77,6.49,1.87,6.88,2.45,11.05C128.72,58.13,129,61,129.07,63.2Z"/><path class="cls-5" d="M127.4,71.89a41.29,41.29,0,0,1-9.85,13.65,66.56,66.56,0,0,0-2.62-14.31,18.69,18.69,0,0,0,6-8.9,16.58,16.58,0,0,0,.43-7.78,16.07,16.07,0,0,0-2.55-6,22.36,22.36,0,0,0,1-2.25C125.15,56.29,126.72,61.54,127.4,71.89Z"/><path class="cls-5" d="M114.33,85.58c-3.18,1.14-6.72,1.75-9.75.71C100,84.72,94.7,75.41,99.26,70.14a8.41,8.41,0,0,1,2.11-1.77,5.22,5.22,0,0,1,3.28-.8c.34.07.68.14,1,.24a6.22,6.22,0,0,1,1,.46,6.12,6.12,0,0,1,1,.66,4.7,4.7,0,0,1,.83.9,5.34,5.34,0,0,1,.63,1.16,6.35,6.35,0,0,1,.41,1.7,4.39,4.39,0,0,0,.49,1.79c.32-.17.65-.34,1-.53s.53-.31.78-.46A64,64,0,0,1,114.33,85.58Z"/><path class="cls-5" d="M64.46,111.12a155.06,155.06,0,0,1-20.08,3.44c-5.9-8.88-8.15-14-11.47-24,2.53-.34,6.41-.82,11.4-1.77a17.17,17.17,0,0,0,.05,1.87,16.73,16.73,0,0,0,2.25,7.49,11.33,11.33,0,0,0,5.09,4.56,12.56,12.56,0,0,0,9.21-.05C61.89,105.17,63,107.92,64.46,111.12Z"/><path class="cls-5" d="M28.92,91c3.42,10,5.74,15.14,11.95,23.84-11.08.46-14.06-.54-14.08-.55-7.3-8-10.26-12.87-14.36-23.64A72.44,72.44,0,0,0,28.92,91Z"/><path class="cls-5" d="M10,90.12c3.93,10.08,6.75,15.18,14.78,23.69a12.19,12.19,0,0,1-4.22-2l-1.25-1.19a64.92,64.92,0,0,1-7.24-8.4,63.87,63.87,0,0,1-5.66-9.47c-.84-1.91-2-4.44-2.69-6.39C4.67,87.95,5.55,88.8,10,90.12Z"/><path class="cls-5" d="M8.27,84.3c-2.05-.62-5.87-1.78-6.39-4C-.6,68.41-.62,62,1.79,50.31c.47.94,1.28,2.51,5.9,3.78C5.66,66.06,5.78,72.27,8.27,84.3Z"/><path class="cls-5" d="M27.3,85.1c-3.74.23-10.7.65-16.57-.3C8.25,72.7,8.09,66.49,10,54.62a62.53,62.53,0,0,0,15,.55C24.23,67,24.72,73.11,27.3,85.1Z"/><path class="cls-5" d="M51.38,72.86a21.32,21.32,0,0,0-5,6.81,28.09,28.09,0,0,0-1.07,2.81c-4,.83-8.8,1.68-14,2.25-2.65-12.08-3.25-18.21-2.84-29.84a141.8,141.8,0,0,0,19-3.39A167.62,167.62,0,0,0,51.38,72.86Z"/><path class="cls-5" d="M87.72,4.84c.81.25,1.62.51,2.41.79s1.43.53,2.13.83l.64.26c.45.19.9.39,1.35.61l.68.33q.56.26,1.12.56l.26.13c.49.26,1,.53,1.45.81,0,0,0,0,.06,0,.35.19.7.4,1,.63s.45.26.68.4l0,0h0c.24.15.48.3.72.47l.58.38a61.27,61.27,0,0,1,7.55,6c1.53,1.52,3.57,3.58,5,5.19.55.72,1.33,1.66,1.84,2.43-6.78-7.28-11.1-10.31-21-14.77A21.18,21.18,0,0,0,87.72,4.84Z"/><path class="cls-5" d="M116.83,41.6c-.41.9-.9,2-1.62,3.3A14,14,0,0,0,110,42.57a14.81,14.81,0,0,0-8.9.94l-.37.15A157.12,157.12,0,0,0,90.29,30.9c1.85-2,4.93-5.27,6.23-9.48C106.09,28.65,110.26,32.79,116.83,41.6Z"/><path class="cls-5" d="M97.74,45.4a22.18,22.18,0,0,0-5.34,5.68c-.53.8-1.06,1.65-1.53,2.55.1-.53.19-1,.24-1.45a18.43,18.43,0,0,0,.14-2.09A31.58,31.58,0,0,0,91,46.3a32.63,32.63,0,0,0-.66-3.62,23.58,23.58,0,0,0-.94-3.06,22.51,22.51,0,0,0-1.43-3,20.89,20.89,0,0,0-1.55-2.42c.6-.44,1.17-.92,1.75-1.41C92.35,37.93,95.24,41.72,97.74,45.4Z"/><path class="cls-5" d="M117.65,39.06c-6.27-8-10.34-12.19-20.71-19.44a12.16,12.16,0,0,0-1.65-8.22c10.07,4.89,14.43,8.09,21.24,15.56C117.66,29.83,119.08,33.38,117.65,39.06Z"/><path class="cls-5" d="M65.48,68.43a21.9,21.9,0,0,0-2.57-.15A16.35,16.35,0,0,0,55.49,70c-1.92-7.27-2.94-12.34-4.19-19.53,1.33-.39,2.93-.87,4.75-1.45,0,.8.05,1.58.14,2.38a33.78,33.78,0,0,0,.54,3.49,29.86,29.86,0,0,0,1,3.23A21.76,21.76,0,0,0,59,61a30.14,30.14,0,0,0,1.84,2.94A21,21,0,0,0,63,66.55a12.66,12.66,0,0,0,1.38,1.21A11.36,11.36,0,0,0,65.48,68.43Z"/><path class="cls-3" d="M50.28,1.45C52.87.91,52.87.91,54.16.7,55.22.54,56.63.35,57.69.22h0A39,39,0,0,0,50,1.8a18.89,18.89,0,0,0-2.43.31c.8-.2,1.86-.48,2.66-.66Z"/><path class="cls-3" d="M56.66,5.17a29,29,0,0,0-6.88,11.4,61.72,61.72,0,0,1-9.4,2.29C43.8,14.6,48.06,9.3,56.66,5.17Z"/><path class="cls-3" d="M48.81,5.7C37.61,7.78,32.3,10,23,16.56c-.08-.67-.18-1.49,1.5-2.82l2.55-1.92c4.6-3,9.8-6.35,19.47-7.29C46.72,4.84,47.07,5.4,48.81,5.7Z"/><path class="cls-3" d="M46.49,4.2c-4.67.58-8.37,1-14.77,4.62C33.18,8,34.95,7,36.35,6.32,39.6,4.83,39.66,4.8,41.49,4.1c1.14-.41,2.68-.95,3.83-1.33A27.63,27.63,0,0,1,49,2.21C48.08,2.63,46.59,3.34,46.49,4.2Z"/><path class="cls-3" d="M54.29,5.65C43.45,8.57,37.83,11,27.91,19.05c-1.28-.26-3.68-.76-4.6-1.94C32.81,10.37,38.21,8,49.58,5.81A20.11,20.11,0,0,0,54.29,5.65Z"/><path class="cls-3" d="M56.66,5.17c1.63.92,3.77,2.2,5.34,3.2-.23.71-.58,1.78-2.67,3.44C58,8.75,57.69,7.94,56.66,5.17Z"/><path class="cls-3" d="M55.27,5.49l1.38-.32a57.26,57.26,0,0,0-8.42,4.69,48.6,48.6,0,0,0-9.82,9.27,42.17,42.17,0,0,1-9,.13C38.5,11.58,43.83,8.75,55.27,5.49Z"/><path class="cls-3" d="M51.47,16c1.75-5.67,2.33-6.88,5.19-10.8a61.6,61.6,0,0,0,1.69,7.37A34,34,0,0,1,51.47,16Z"/><path class="cls-3" d="M62,7.78C60.44,7,58.3,5.9,56.66,5.17l3.41.5C60.82,6,61.94,6.54,62,7.78Z"/><path class="cls-4" d="M82.64,3.61l-.47-.09.45.08Z"/><path class="cls-4" d="M59.34,5.43l-2.68-.27a10.21,10.21,0,0,1,2.68.27Z"/><path class="cls-4" d="M57.77,4.85q2.74-.76,5.44-1.24C61.48,4,59.69,4.38,57.77,4.85Z"/><path class="cls-4" d="M82.64,3.61l-.47-.09.45.08Z"/><path class="cls-4" d="M92,16.56c-10.47-5.66-16-7.76-27-10.24a8.15,8.15,0,0,0-4-1.39C73,4.9,79,5.81,90.07,9.32A10.65,10.65,0,0,1,92,16.56Z"/><path class="cls-4" d="M65.44,6.79c10.72,3,16.11,5.35,26.22,11.37a20.3,20.3,0,0,1-5.35,8.59C78.27,19,73.9,15.37,66,10.1A3.2,3.2,0,0,0,65.44,6.79Z"/><path class="cls-4" d="M48.52,20.74c-1.73,8.16-2.24,13.18-1.63,25.14A135.37,135.37,0,0,1,29,49.09c1.83-11.5,3.58-16.83,8.53-25.93A74.8,74.8,0,0,0,48.52,20.74Z"/><path class="cls-4" d="M50.89,4.22c-.24-.34-.61-.86.63-1.7a13.52,13.52,0,0,1,5.13,2.64C54.94,4.83,52.63,4.41,50.89,4.22Z"/><path class="cls-4" d="M57.65.56c-.23,1.16-.33,1.69-1,4.6a24.23,24.23,0,0,0-2.3-2,10.61,10.61,0,0,0-2.19-1A19,19,0,0,1,57.65.56Z"/><path class="cls-4" d="M18.73,20.19c-8,8.11-11.14,13-15.36,23.62l.16-.71c.66-1.68,1.52-3.94,2.26-5.58a65.24,65.24,0,0,1,9-14.25c1.51-1.7,3.55-3.92,5.15-5.53C19.1,18.64,18.65,19.14,18.73,20.19Z"/><path class="cls-4" d="M23.71,23.11C16,32,13,37.15,9.16,48.34c-5.35-1.71-5.72-3.21-5.7-3.63C7.77,33.89,11,29,19,20.81,19.45,21.38,20.35,22.43,23.71,23.11Z"/><path class="cls-4" d="M35.3,23.43c-5.48,9.18-7.47,14.51-9.66,25.94a62.18,62.18,0,0,1-14.31-.54c3.69-11.35,6.56-16.58,14-25.45A43.76,43.76,0,0,0,35.3,23.43Z"/><path class="cls-4" d="M84.44,28.5c-.58.49-1.26,1-2,1.65a9.13,9.13,0,0,0-.85-.56l-3.86-2.37c-1.36-.82-2.79-1.67-4.27-2.47-.51-.29-1-.56-1.57-.83.05-.15.1-.31.14-.44-.15-.07-.31-.12-.44-.19-.94-.36-1.87-.71-2.81-1l-1.29-.43a7.33,7.33,0,0,0-3.79-.56c-1-2-1.77-3.81-2.79-6.06,1.26-.87,3.61-2.5,4.7-4.34A138,138,0,0,1,84.44,28.5Z"/><path class="cls-4" d="M61.74,22.7c-.37,1-.75,2.08-1.07,3.13-.2.48-.39,1-.58,1.5-.41,1.09-.78,2.19-1.16,3.32-.05.19-.12.37-.17.56a3.25,3.25,0,0,1,.36.15c-.15.66-.31,1.33-.48,2-.44,1.92-.82,3.83-1.17,5.65-.27,1.36-.53,2.71-.77,4-1.87.63-3.93,1.28-6.16,1.91-1.14-11.16-1.12-16.27.05-24.84a54.18,54.18,0,0,0,8.86-3.95C60.24,18.43,60.91,20.4,61.74,22.7Z"/><path class="cls-4" d="M56.66,5.17a46.54,46.54,0,0,1,7-3.52A25.37,25.37,0,0,1,70.31.26,49.73,49.73,0,0,1,80.72,2.4C71.9,1.51,66.73,2.1,56.66,5.17Z"/><path class="cls-4" d="M59.95,4.86a14,14,0,0,0-3.29.31A72.67,72.67,0,0,1,68.56,2.9c-1.77.15-3.55.38-5.35.7a52.7,52.7,0,0,1,19.5-.47c.63.27,1.48.63,2.1.93-.72-.17-1.45-.33-2.18-.45l0,0-.45-.08.47.09a20.49,20.49,0,0,1,6.44,4.47C78,5,72,4.32,59.95,4.86Z"/><path class="cls-4" d="M68.27.1c-3.85.61-6,1.23-11.61,5.07A21,21,0,0,1,59.16.34,52,52,0,0,1,68.27.1Z"/><path class="cls-4" d="M51.23,4.48c1.63.17,3.81.39,5.42.69h0l-2,0a8.38,8.38,0,0,1-3.4-.72Z"/><path class="cls-4" d="M55.54,5.21l1.11,0h0l-1.11,0"/><polyline class="cls-1" points="60.52 128.9 61.26 128.94 61.69 128.96 60.52 128.9"/><path class="cls-1" d="M128.69,71.29a57.46,57.46,0,0,1-1.91,10.24c.49-2.19,1.05-5.12,1.35-7.34C128.3,73.33,128.54,72.24,128.69,71.29Z"/><polyline class="cls-1" points="118.89 29.61 118.28 28.68 117.97 28.23 118.89 29.61"/><path class="cls-1" d="M85.86,3.47c1.88.59,4.37,1.42,6.22,2.1-1-.33-2.31-.83-3.32-1.11a55.56,55.56,0,0,0-7.42-2.08c1.36.31,3.18.71,4.52,1.1Z"/></g></g></svg>