<svg xmlns="http://www.w3.org/2000/svg" viewBox="0 0 161.52 167.48"><defs><style>.cls-1{fill:#ff9c01;}</style></defs><title>cvENDark</title><g id="Camada_2" data-name="Camada 2"><g id="Camada_1-2" data-name="Camada 1"><path class="cls-1" d="M56.11,64.68H20.91V29.48h35.2Zm-30.9-4.3h26.6V33.78H25.21Z"/><path class="cls-1" d="M98.74,91.08H38.12a2.15,2.15,0,0,1,0-4.31H98.74a2.15,2.15,0,1,1,0,4.31Z"/><path class="cls-1" d="M98.74,106.73H38.12a2.15,2.15,0,0,1,0-4.31H98.74a2.15,2.15,0,0,1,0,4.31Z"/><path class="cls-1" d="M83.1,114.55H22.47a2.15,2.15,0,0,1,0-4.31H83.1a2.15,2.15,0,0,1,0,4.31Z"/><path class="cls-1" d="M102.85,122.57H42.23a2.15,2.15,0,0,1,0-4.31h60.62a2.15,2.15,0,1,1,0,4.31Z"/><path class="cls-1" d="M83,130.75H22.4a2.15,2.15,0,0,1,0-4.31H83a2.15,2.15,0,0,1,0,4.31Z"/><path class="cls-1" d="M94.83,98.9H34.21a2.15,2.15,0,0,1,0-4.31H94.83a2.15,2.15,0,0,1,0,4.31Z"/><path class="cls-1" d="M83.1,83.26H22.47a2.15,2.15,0,1,1,0-4.31H83.1a2.15,2.15,0,0,1,0,4.31Z"/><path class="cls-1" d="M121.6,82.23A2.22,2.22,0,0,1,119.38,80v-6.9a2.22,2.22,0,0,1,4.44,0V80A2.22,2.22,0,0,1,121.6,82.23Z"/><path class="cls-1" d="M99,155.49H24.84c-13.7,0-24.84-9.89-24.84-22V22C0,9.89,11.15,0,24.84,0H95.7l28.12,24.64V67.23a2.22,2.22,0,1,1-4.44,0V26.65L94,4.44H24.84C13.59,4.44,4.44,12.34,4.44,22v111.4c0,9.71,9.15,17.61,20.41,17.61H99a2.22,2.22,0,1,1,0,4.44Z"/><path class="cls-1" d="M119.87,31.31H102.64A9.29,9.29,0,0,1,93.37,22V2.22h4.74V22a4.54,4.54,0,0,0,4.54,4.54h17.23Z"/><path class="cls-1" d="M132.5,167.48a7.12,7.12,0,0,1-5.6-2.7L105,137.34a7.15,7.15,0,0,1,5.59-11.61,2.72,2.72,0,0,0,2.72-2.72V91a7.16,7.16,0,0,1,7.15-7.15h24A7.16,7.16,0,0,1,151.64,91v32a2.72,2.72,0,0,0,2.72,2.72A7.15,7.15,0,0,1,160,137.34L138.1,164.78A7.12,7.12,0,0,1,132.5,167.48Zm-12-79.22A2.72,2.72,0,0,0,117.8,91v32a7.16,7.16,0,0,1-7.15,7.15,2.72,2.72,0,0,0-2.12,4.41L130.38,162a2.72,2.72,0,0,0,4.25,0l21.86-27.44a2.72,2.72,0,0,0-2.12-4.41,7.16,7.16,0,0,1-7.15-7.15V91a2.72,2.72,0,0,0-2.72-2.72Z"/><path class="cls-1" d="M110.18,155.49H105a2.22,2.22,0,0,1,0-4.44h5.17a2.22,2.22,0,0,1,0,4.44Z"/><path class="cls-1" d="M73.35,38.52a4.36,4.36,0,0,0-3.47,1.38,5.76,5.76,0,0,0-1.2,3.91A5.43,5.43,0,0,0,70,47.75a4.77,4.77,0,0,0,3.6,1.38,5.68,5.68,0,0,0,2-.32,14.05,14.05,0,0,0,1.6-.73,2.93,2.93,0,0,1,.78,1,3,3,0,0,1,.28,1.34,2.41,2.41,0,0,1-1.34,2,7.81,7.81,0,0,1-4.07.84,12,12,0,0,1-3.7-.56,8.24,8.24,0,0,1-3-1.72,8.1,8.1,0,0,1-2-2.94,10.91,10.91,0,0,1-.75-4.25,10.54,10.54,0,0,1,.72-4,8.57,8.57,0,0,1,2-3A8.3,8.3,0,0,1,69,35a10.29,10.29,0,0,1,3.58-.62,8.25,8.25,0,0,1,4.19.88,2.59,2.59,0,0,1,1.48,2.26,2.28,2.28,0,0,1-.38,1.32,3.15,3.15,0,0,1-.88.88,9.53,9.53,0,0,0-1.63-.85A5.31,5.31,0,0,0,73.35,38.52Z"/><path class="cls-1" d="M91.83,52.16a3.59,3.59,0,0,1-1.28.62,6.45,6.45,0,0,1-1.89.26,5.5,5.5,0,0,1-2.12-.37,2.23,2.23,0,0,1-1.21-1Q85,51,84.54,49.91t-1-2.39Q83,46.19,82.5,44.71t-1-3q-.5-1.53-.94-3t-.76-2.76a3.85,3.85,0,0,1,1.19-.75,4.13,4.13,0,0,1,1.66-.34,3.18,3.18,0,0,1,1.78.46,2.77,2.77,0,0,1,1,1.69q.79,2.88,1.6,5.51L88.69,48h.18q.79-2.76,1.63-6t1.6-6.49A6.68,6.68,0,0,1,93.22,35a4.84,4.84,0,0,1,1.37-.18,3.39,3.39,0,0,1,1.85.48,1.75,1.75,0,0,1,.76,1.6,8.44,8.44,0,0,1-.31,1.88q-.31,1.23-.79,2.78T95,44.81q-.6,1.68-1.21,3.16t-1.13,2.62A10.45,10.45,0,0,1,91.83,52.16Z"/><path class="cls-1" d="M68.2,58.77A.76.76,0,0,1,69,58h2.9a1.09,1.09,0,0,1,.11.25,1.13,1.13,0,0,1,0,.33.64.64,0,0,1-.14.47.52.52,0,0,1-.38.14H69.69V60h2a1,1,0,0,1,.11.25,1.08,1.08,0,0,1,0,.33.65.65,0,0,1-.14.47.51.51,0,0,1-.38.14H69.69v.92h2.25a1.05,1.05,0,0,1,.11.25,1.13,1.13,0,0,1,0,.33.66.66,0,0,1-.14.48.52.52,0,0,1-.38.14H69a.76.76,0,0,1-.82-.82Z"/><path class="cls-1" d="M77.82,63.09a.79.79,0,0,1-.35.19,2.06,2.06,0,0,1-.56.07,1.93,1.93,0,0,1-.61-.1.85.85,0,0,1-.47-.46L74.95,61l-.24-.51-.23-.56h-.05q0,.47,0,1t0,1v1.36l-.29.05-.39,0-.34,0a.52.52,0,0,1-.25-.11.51.51,0,0,1-.15-.21,1,1,0,0,1-.05-.36V58.23a.73.73,0,0,1,.38-.26,1.68,1.68,0,0,1,.54-.09,1.88,1.88,0,0,1,.62.1.84.84,0,0,1,.47.46l.88,1.77.24.51c.07.16.15.35.23.56h0c0-.32,0-.63,0-.95s0-.63,0-.95V58l.29-.05.39,0a1.05,1.05,0,0,1,.59.14.65.65,0,0,1,.2.57Z"/><path class="cls-1" d="M78.82,61.64a1.16,1.16,0,0,1-.11-.25,1,1,0,0,1-.05-.33.63.63,0,0,1,.15-.47.53.53,0,0,1,.39-.14h1.88a1.86,1.86,0,0,1,.11.25,1,1,0,0,1,.06.33.64.64,0,0,1-.15.47.53.53,0,0,1-.39.14Z"/><path class="cls-1" d="M86.77,61.3a2.23,2.23,0,0,1-.16.86,1.82,1.82,0,0,1-.47.67,2.12,2.12,0,0,1-.75.43,3.36,3.36,0,0,1-2,0,2.11,2.11,0,0,1-.75-.43,1.82,1.82,0,0,1-.47-.67A2.23,2.23,0,0,1,82,61.3V58l.31,0,.4,0a1.82,1.82,0,0,1,.35,0,.63.63,0,0,1,.26.11.47.47,0,0,1,.16.22,1.07,1.07,0,0,1,.05.37v2.68a.9.9,0,0,0,.23.66.89.89,0,0,0,1.21,0,.91.91,0,0,0,.23-.66V58l.31,0,.4,0a1.83,1.83,0,0,1,.36,0,.63.63,0,0,1,.26.11.47.47,0,0,1,.16.22,1.07,1.07,0,0,1,.05.37Z"/><path class="cls-1" d="M89.4,61.16c-.26-.09-.49-.18-.7-.27a2.17,2.17,0,0,1-.54-.33,1.36,1.36,0,0,1-.35-.46,1.51,1.51,0,0,1-.13-.65,1.43,1.43,0,0,1,.58-1.19,2.56,2.56,0,0,1,1.61-.45,4.4,4.4,0,0,1,.7.05,2.1,2.1,0,0,1,.56.16,1,1,0,0,1,.36.28.64.64,0,0,1,.13.4.7.7,0,0,1-.11.39,1.09,1.09,0,0,1-.25.28,2,2,0,0,0-.52-.21,2.59,2.59,0,0,0-.71-.09,1.17,1.17,0,0,0-.58.11.32.32,0,0,0-.18.28.26.26,0,0,0,.11.21,1.18,1.18,0,0,0,.34.15l.46.15a3.35,3.35,0,0,1,1.27.67,1.43,1.43,0,0,1,.44,1.11,1.46,1.46,0,0,1-.59,1.21,2.76,2.76,0,0,1-1.73.46,4,4,0,0,1-.75-.07,2.36,2.36,0,0,1-.61-.19,1.11,1.11,0,0,1-.4-.32.69.69,0,0,1-.15-.43.66.66,0,0,1,.15-.43,1.15,1.15,0,0,1,.32-.28,2.36,2.36,0,0,0,.6.33,2.09,2.09,0,0,0,.78.14,1,1,0,0,0,.6-.13.38.38,0,0,0,.18-.31.3.3,0,0,0-.14-.27,1.79,1.79,0,0,0-.39-.18Z"/><path class="cls-1" d="M93.89,58.11a1.81,1.81,0,0,1,.45-.17,2.41,2.41,0,0,1,.61-.08,2.19,2.19,0,0,1,.78.13.68.68,0,0,1,.43.4q.16.46.34,1.06t.37,1.25L97.23,62l.31,1.11a.71.71,0,0,1-.32.2,1.5,1.5,0,0,1-.5.08,1.53,1.53,0,0,1-.36,0,.63.63,0,0,1-.24-.11A.52.52,0,0,1,96,63a1.56,1.56,0,0,1-.1-.26l-.16-.61H94.13l-.14.54-.14.54-.26.07a1.51,1.51,0,0,1-.33,0,1.15,1.15,0,0,1-.66-.15.49.49,0,0,1-.21-.43.89.89,0,0,1,0-.25l.08-.29c0-.16.1-.35.17-.59l.24-.76q.13-.41.28-.84l.28-.81.24-.68Zm1.05,1.13-.28.82q-.15.45-.28.92h1.09q-.12-.47-.25-.93L95,59.24Z"/></g></g></svg>