<svg xmlns="http://www.w3.org/2000/svg" viewBox="0 0 161.52 167.48"><defs><style>.cls-1,.cls-2{fill:#ff9c01;}.cls-2{font-size:29.38px;font-family:Baloo-Regular, Baloo;}.cls-3{letter-spacing:0em;}.cls-4{font-size:8.77px;}.cls-5{letter-spacing:0em;}.cls-6{letter-spacing:0em;}</style></defs><title>cvEN</title><g id="Camada_2" data-name="Camada 2"><g id="Camada_1-2" data-name="Camada 1"><path d="M38.2,42.77a3.36,3.36,0,0,1,0,6.72h0a3.36,3.36,0,0,1-.06-6.72h.08m.11,9.76c.75,0,1.5,0,2.25.07a3.25,3.25,0,0,1,3.17,3.3c.06,1.21,0,2.42,0,3.78H32.65c0-1.43-.1-2.81,0-4.16a3.18,3.18,0,0,1,3.07-2.9c.85-.06,1.71-.09,2.57-.09m-.11-13H38a6.65,6.65,0,0,0-6.43,6.56,6.53,6.53,0,0,0,1.32,4,6.31,6.31,0,0,0-3.48,5.15,28.56,28.56,0,0,0-.06,3.2c0,.41,0,.83,0,1.25v3.24H47V59.68c0-.42,0-.82,0-1.21,0-.92,0-1.8,0-2.72a6.55,6.55,0,0,0-3.53-5.67,6.51,6.51,0,0,0,1.33-4,6.62,6.62,0,0,0-6.58-6.51Z"/><path class="cls-1" d="M56.11,64.68H20.91V29.48h35.2Zm-30.9-4.3h26.6V33.78H25.21Z"/><path class="cls-1" d="M98.74,91.08H38.12a2.15,2.15,0,0,1,0-4.31H98.74a2.15,2.15,0,1,1,0,4.31Z"/><path class="cls-1" d="M98.74,106.73H38.12a2.15,2.15,0,0,1,0-4.31H98.74a2.15,2.15,0,0,1,0,4.31Z"/><path class="cls-1" d="M83.1,114.55H22.47a2.15,2.15,0,0,1,0-4.31H83.1a2.15,2.15,0,0,1,0,4.31Z"/><path class="cls-1" d="M102.85,122.57H42.23a2.15,2.15,0,0,1,0-4.31h60.62a2.15,2.15,0,1,1,0,4.31Z"/><path class="cls-1" d="M83,130.75H22.4a2.15,2.15,0,0,1,0-4.31H83a2.15,2.15,0,0,1,0,4.31Z"/><path class="cls-1" d="M94.83,98.9H34.21a2.15,2.15,0,0,1,0-4.31H94.83a2.15,2.15,0,0,1,0,4.31Z"/><path class="cls-1" d="M83.1,83.26H22.47a2.15,2.15,0,1,1,0-4.31H83.1a2.15,2.15,0,0,1,0,4.31Z"/><path class="cls-1" d="M121.6,82.23A2.22,2.22,0,0,1,119.38,80v-6.9a2.22,2.22,0,0,1,4.44,0V80A2.22,2.22,0,0,1,121.6,82.23Z"/><path class="cls-1" d="M99,155.49H24.84c-13.7,0-24.84-9.89-24.84-22V22C0,9.89,11.15,0,24.84,0H95.7l28.12,24.64V67.23a2.22,2.22,0,1,1-4.44,0V26.65L94,4.44H24.84C13.59,4.44,4.44,12.34,4.44,22v111.4c0,9.71,9.15,17.61,20.41,17.61H99a2.22,2.22,0,1,1,0,4.44Z"/><path class="cls-1" d="M119.87,31.31H102.64A9.29,9.29,0,0,1,93.37,22V2.22h4.74V22a4.54,4.54,0,0,0,4.54,4.54h17.23Z"/><path class="cls-1" d="M132.5,167.48a7.12,7.12,0,0,1-5.6-2.7L105,137.34a7.15,7.15,0,0,1,5.59-11.61,2.72,2.72,0,0,0,2.72-2.72V91a7.16,7.16,0,0,1,7.15-7.15h24A7.16,7.16,0,0,1,151.64,91v32a2.72,2.72,0,0,0,2.72,2.72A7.15,7.15,0,0,1,160,137.34L138.1,164.78A7.12,7.12,0,0,1,132.5,167.48Zm-12-79.22A2.72,2.72,0,0,0,117.8,91v32a7.16,7.16,0,0,1-7.15,7.15,2.72,2.72,0,0,0-2.12,4.41L130.38,162a2.72,2.72,0,0,0,4.25,0l21.86-27.44a2.72,2.72,0,0,0-2.12-4.41,7.16,7.16,0,0,1-7.15-7.15V91a2.72,2.72,0,0,0-2.72-2.72Z"/><path class="cls-1" d="M110.18,155.49H105a2.22,2.22,0,0,1,0-4.44h5.17a2.22,2.22,0,0,1,0,4.44Z"/><text class="cls-2" transform="translate(62.36 52.74)"><tspan class="cls-3">C</tspan><tspan x="16.89" y="0">V</tspan><tspan class="cls-4"><tspan x="0" y="10.53" xml:space="preserve">   EN-U</tspan><tspan class="cls-5" x="24.96" y="10.53">S</tspan><tspan class="cls-6" x="29.82" y="10.53">A</tspan></tspan></text></g></g></svg>