<svg xmlns="http://www.w3.org/2000/svg" viewBox="0 0 161.52 167.48"><defs><style>.cls-1{fill:#fff;}.cls-2{fill:#ff9c01;}</style></defs><title>cvPTDark</title><g id="Camada_2" data-name="Camada 2"><g id="Camada_1-2" data-name="Camada 1"><path class="cls-1" d="M38.2,42.77a3.36,3.36,0,0,1,0,6.72h0a3.36,3.36,0,0,1-.06-6.72h.08m.11,9.76c.75,0,1.5,0,2.25.07a3.25,3.25,0,0,1,3.17,3.3c.06,1.21,0,2.42,0,3.78H32.65c0-1.43-.1-2.81,0-4.16a3.18,3.18,0,0,1,3.07-2.9c.85-.06,1.71-.09,2.57-.09m-.11-13H38a6.65,6.65,0,0,0-6.43,6.56,6.53,6.53,0,0,0,1.32,4,6.31,6.31,0,0,0-3.48,5.15,28.56,28.56,0,0,0-.06,3.2c0,.41,0,.83,0,1.25v3.24H47V59.68c0-.42,0-.82,0-1.21,0-.92,0-1.8,0-2.72a6.55,6.55,0,0,0-3.53-5.67,6.51,6.51,0,0,0,1.33-4,6.62,6.62,0,0,0-6.58-6.51Z"/><path class="cls-2" d="M56.11,64.68H20.91V29.48h35.2Zm-30.9-4.3h26.6V33.78H25.21Z"/><path class="cls-2" d="M98.74,91.08H38.12a2.15,2.15,0,0,1,0-4.31H98.74a2.15,2.15,0,1,1,0,4.31Z"/><path class="cls-2" d="M98.74,106.73H38.12a2.15,2.15,0,0,1,0-4.31H98.74a2.15,2.15,0,0,1,0,4.31Z"/><path class="cls-2" d="M83.1,114.55H22.47a2.15,2.15,0,0,1,0-4.31H83.1a2.15,2.15,0,0,1,0,4.31Z"/><path class="cls-2" d="M102.85,122.57H42.23a2.15,2.15,0,0,1,0-4.31h60.62a2.15,2.15,0,1,1,0,4.31Z"/><path class="cls-2" d="M83,130.75H22.4a2.15,2.15,0,0,1,0-4.31H83a2.15,2.15,0,0,1,0,4.31Z"/><path class="cls-2" d="M94.83,98.9H34.21a2.15,2.15,0,0,1,0-4.31H94.83a2.15,2.15,0,0,1,0,4.31Z"/><path class="cls-2" d="M83.1,83.26H22.47a2.15,2.15,0,1,1,0-4.31H83.1a2.15,2.15,0,0,1,0,4.31Z"/><path class="cls-2" d="M121.6,82.23A2.22,2.22,0,0,1,119.38,80v-6.9a2.22,2.22,0,0,1,4.44,0V80A2.22,2.22,0,0,1,121.6,82.23Z"/><path class="cls-2" d="M99,155.49H24.84c-13.7,0-24.84-9.89-24.84-22V22C0,9.89,11.15,0,24.84,0H95.7l28.12,24.64V67.23a2.22,2.22,0,1,1-4.44,0V26.65L94,4.44H24.84C13.59,4.44,4.44,12.34,4.44,22v111.4c0,9.71,9.15,17.61,20.41,17.61H99a2.22,2.22,0,1,1,0,4.44Z"/><path class="cls-2" d="M119.87,31.31H102.64A9.29,9.29,0,0,1,93.37,22V2.22h4.74V22a4.54,4.54,0,0,0,4.54,4.54h17.23Z"/><path class="cls-2" d="M73.69,38.71a4.28,4.28,0,0,0-3.41,1.36A5.66,5.66,0,0,0,69.1,43.9a5.33,5.33,0,0,0,1.31,3.87,4.69,4.69,0,0,0,3.54,1.36,5.58,5.58,0,0,0,2-.32,13.75,13.75,0,0,0,1.57-.72,2.87,2.87,0,0,1,.76,1,3,3,0,0,1,.27,1.31,2.37,2.37,0,0,1-1.31,2,7.68,7.68,0,0,1-4,.82,11.81,11.81,0,0,1-3.64-.55,8.1,8.1,0,0,1-3-1.69,8,8,0,0,1-2-2.89,10.71,10.71,0,0,1-.74-4.17,10.36,10.36,0,0,1,.71-4A8.43,8.43,0,0,1,66.54,37a8.13,8.13,0,0,1,2.87-1.79,10.11,10.11,0,0,1,3.52-.61A8.1,8.1,0,0,1,77,35.5a2.55,2.55,0,0,1,1.46,2.22,2.25,2.25,0,0,1-.38,1.3,3.09,3.09,0,0,1-.87.87,9.42,9.42,0,0,0-1.6-.84A5.22,5.22,0,0,0,73.69,38.71Z"/><path class="cls-2" d="M91.84,52.1a3.55,3.55,0,0,1-1.26.61,6.37,6.37,0,0,1-1.86.26,5.4,5.4,0,0,1-2.08-.36,2.18,2.18,0,0,1-1.18-1q-.32-.66-.78-1.72t-1-2.35q-.51-1.3-1-2.76t-1-3q-.49-1.5-.92-2.94T80,36.17a3.76,3.76,0,0,1,1.17-.74,4.06,4.06,0,0,1,1.63-.33,3.12,3.12,0,0,1,1.75.45,2.72,2.72,0,0,1,1,1.66q.78,2.83,1.57,5.41L88.75,48h.17q.78-2.71,1.6-5.92t1.57-6.38a6.63,6.63,0,0,1,1.11-.43,4.77,4.77,0,0,1,1.34-.17,3.33,3.33,0,0,1,1.82.48,1.72,1.72,0,0,1,.75,1.57,8.31,8.31,0,0,1-.3,1.85q-.3,1.21-.78,2.73T95,44.89q-.59,1.65-1.18,3.1t-1.11,2.57A10.2,10.2,0,0,1,91.84,52.1Z"/><path class="cls-2" d="M70.13,63l-.3.05-.4,0a1.82,1.82,0,0,1-.35,0,.62.62,0,0,1-.25-.11.47.47,0,0,1-.16-.22,1.05,1.05,0,0,1-.05-.36V58.29a.38.38,0,0,1,.1-.28.71.71,0,0,1,.27-.16,3.22,3.22,0,0,1,.67-.15,6,6,0,0,1,.75,0,2.84,2.84,0,0,1,1.82.51,1.68,1.68,0,0,1,.63,1.38,2.08,2.08,0,0,1-.13.76,1.59,1.59,0,0,1-.4.59,1.78,1.78,0,0,1-.66.38,2.93,2.93,0,0,1-.93.13h-.61Zm.45-2.77a.82.82,0,0,0,.56-.17.64.64,0,0,0,.19-.51.63.63,0,0,0-.2-.5.87.87,0,0,0-.59-.18h-.23l-.19,0v1.34Z"/><path class="cls-2" d="M73.42,59a1.11,1.11,0,0,1-.11-.26,1.14,1.14,0,0,1-.05-.34.65.65,0,0,1,.15-.48.54.54,0,0,1,.39-.15h3.76a1.12,1.12,0,0,1,.11.26,1.14,1.14,0,0,1,.05.34.65.65,0,0,1-.15.48.54.54,0,0,1-.39.15h-1v4l-.3.05-.4,0a1.82,1.82,0,0,1-.35,0,.62.62,0,0,1-.25-.11.47.47,0,0,1-.16-.22,1.05,1.05,0,0,1-.05-.36V59Z"/><path class="cls-2" d="M78.06,61.42a1.14,1.14,0,0,1-.11-.25,1,1,0,0,1-.05-.33.62.62,0,0,1,.15-.46.52.52,0,0,1,.38-.14h1.84a1.84,1.84,0,0,1,.11.25,1,1,0,0,1,.06.33.62.62,0,0,1-.15.46.52.52,0,0,1-.38.14Z"/><path class="cls-2" d="M83.27,63.16h-.34l-.41,0-.42-.06a2.05,2.05,0,0,1-.38-.11.64.64,0,0,1-.47-.63v-4a.38.38,0,0,1,.1-.28.71.71,0,0,1,.27-.16,3.29,3.29,0,0,1,.73-.15,8.45,8.45,0,0,1,.91,0A3.22,3.22,0,0,1,85,58a1.26,1.26,0,0,1,.59,1.15,1,1,0,0,1-.22.67,1.28,1.28,0,0,1-.6.41,1.5,1.5,0,0,1,.72.44,1.15,1.15,0,0,1,.29.8,1.4,1.4,0,0,1-.63,1.26A3.37,3.37,0,0,1,83.27,63.16Zm-.56-3.32h.63a.85.85,0,0,0,.54-.14.49.49,0,0,0,.17-.4.43.43,0,0,0-.19-.37,1,1,0,0,0-.58-.14H83l-.26,0Zm0,2.1A1.54,1.54,0,0,0,83,62h.36a1.06,1.06,0,0,0,.57-.14.48.48,0,0,0,.23-.44A.44.44,0,0,0,84,61a1.1,1.1,0,0,0-.58-.12h-.71Z"/><path class="cls-2" d="M88.08,61.33V63l-.3.05-.4,0A1.82,1.82,0,0,1,87,63a.59.59,0,0,1-.25-.11.48.48,0,0,1-.15-.22,1.05,1.05,0,0,1-.05-.36V58.29a.38.38,0,0,1,.1-.28.71.71,0,0,1,.27-.16,3.22,3.22,0,0,1,.68-.15,6.83,6.83,0,0,1,.83,0,2.76,2.76,0,0,1,1.79.5,1.67,1.67,0,0,1,.6,1.35,1.51,1.51,0,0,1-.28.91,2,2,0,0,1-.66.59q.31.42.61.79a5.14,5.14,0,0,1,.47.67.81.81,0,0,1-.31.46.88.88,0,0,1-.51.16,1.09,1.09,0,0,1-.33,0,.79.79,0,0,1-.24-.12,1,1,0,0,1-.19-.19,2.5,2.5,0,0,1-.16-.24l-.72-1.16Zm.54-1.15a.75.75,0,0,0,.52-.17.63.63,0,0,0,.19-.5.59.59,0,0,0-.21-.5,1.07,1.07,0,0,0-.67-.17h-.21l-.17,0v1.29Z"/><path class="cls-2" d="M132.5,167.48a7.12,7.12,0,0,1-5.6-2.7L105,137.34a7.15,7.15,0,0,1,5.59-11.61,2.72,2.72,0,0,0,2.72-2.72V91a7.16,7.16,0,0,1,7.15-7.15h24A7.16,7.16,0,0,1,151.64,91v32a2.72,2.72,0,0,0,2.72,2.72A7.15,7.15,0,0,1,160,137.34L138.1,164.78A7.12,7.12,0,0,1,132.5,167.48Zm-12-79.22A2.72,2.72,0,0,0,117.8,91v32a7.16,7.16,0,0,1-7.15,7.15,2.72,2.72,0,0,0-2.12,4.41L130.38,162a2.72,2.72,0,0,0,4.25,0l21.86-27.44a2.72,2.72,0,0,0-2.12-4.41,7.16,7.16,0,0,1-7.15-7.15V91a2.72,2.72,0,0,0-2.72-2.72Z"/><path class="cls-2" d="M110.18,155.49H105a2.22,2.22,0,0,1,0-4.44h5.17a2.22,2.22,0,0,1,0,4.44Z"/></g></g></svg>