<svg xmlns="http://www.w3.org/2000/svg" viewBox="0 0 138.26 105"><defs><style>.cls-1{fill:#f7c600;}.cls-2{fill:#1e0540;}</style></defs><title>emailIcon2</title><g id="Camada_2" data-name="Camada 2"><g id="Camada_1-2" data-name="Camada 1"><path class="cls-1" d="M138.26,105H4V4H138.26ZM19.37,12.93l-.1.12a2.44,2.44,0,0,1,.36.25L67.25,60.92a7.23,7.23,0,0,0,2.14,1.49,3.86,3.86,0,0,0,2.05.38A5.81,5.81,0,0,0,74.93,61L98.08,37.84,122.62,13.3l.35-.37ZM19.4,96H122.83L87.65,60.86a2,2,0,0,1-.21.28c-2.05,2.06-4.09,4.12-6.17,6.15A16.5,16.5,0,0,1,79.19,69a13.33,13.33,0,0,1-10.08,2.54,14.44,14.44,0,0,1-7.77-3.94c-2.22-2.13-4.36-4.34-6.53-6.51a1.78,1.78,0,0,1-.21-.3ZM13,19.36V89.57L48.06,54.46ZM129.3,89.64V19.41L94.19,54.52Z"/><path class="cls-2" d="M134.26,101H0V0H134.26ZM15.37,8.93l-.1.12a2.44,2.44,0,0,1,.36.25L63.25,56.92a7.23,7.23,0,0,0,2.14,1.49,3.86,3.86,0,0,0,2.05.38A5.81,5.81,0,0,0,70.93,57L94.08,33.84,118.62,9.3l.35-.37ZM15.4,92H118.83L83.65,56.86a2,2,0,0,1-.21.28c-2.05,2.06-4.09,4.12-6.17,6.15A16.5,16.5,0,0,1,75.19,65a13.33,13.33,0,0,1-10.08,2.54,14.44,14.44,0,0,1-7.77-3.94c-2.22-2.13-4.36-4.34-6.53-6.51a1.78,1.78,0,0,1-.21-.3ZM9,15.36V85.57L44.06,50.46ZM125.3,85.64V15.41L90.19,50.52Z"/></g></g></svg>