<svg xmlns="http://www.w3.org/2000/svg" viewBox="0 0 42 42"><defs><style>.cls-1{fill:#1b1464;}.cls-2{fill:#fff;}.cls-3{fill:#b22234;}</style></defs><title>euaFlag</title><g id="Camada_2" data-name="Camada 2"><g id="Camada_1-2" data-name="Camada 1"><path class="cls-1" d="M42,21q0,.39,0,.79c0,.09,0,.17,0,.26a21.13,21.13,0,0,1-.47,3.53,20.66,20.66,0,0,1-1.24,3.79,21.2,21.2,0,0,1-2.14,3.8A20.91,20.91,0,0,1,34.64,37l-.11.09A21,21,0,0,1,7.46,37L7.36,37a20.91,20.91,0,0,1-3.48-3.79,21.2,21.2,0,0,1-2.14-3.8A20.66,20.66,0,0,1,.5,25.58,21.13,21.13,0,0,1,0,22.05c0-.09,0-.17,0-.26q0-.39,0-.79A21,21,0,0,1,21,0h.52A20.93,20.93,0,0,1,36.13,6.45a21.1,21.1,0,0,1,3,3.88,20.76,20.76,0,0,1,1.79,3.87l0,.09a20.66,20.66,0,0,1,.91,3.88A20.94,20.94,0,0,1,42,21Z"/><path class="cls-2" d="M41.5,25.58a20.66,20.66,0,0,1-1.24,3.79H1.74A20.66,20.66,0,0,1,.5,25.58Z"/><path class="cls-3" d="M40.26,29.37a21.2,21.2,0,0,1-2.14,3.8H3.88a21.2,21.2,0,0,1-2.14-3.8Z"/><path class="cls-2" d="M38.12,33.16A20.91,20.91,0,0,1,34.64,37H7.36a20.91,20.91,0,0,1-3.48-3.79Z"/><path class="cls-3" d="M34.54,37a20.88,20.88,0,0,1-6.63,3.79H14.09A20.88,20.88,0,0,1,7.46,37Z"/><path class="cls-2" d="M27.91,40.83a21.06,21.06,0,0,1-13.82,0Z"/><path class="cls-2" d="M36.13,6.45H21.53V2.57h9.54A20.8,20.8,0,0,1,36.13,6.45Z"/><path class="cls-3" d="M39.09,10.33H21.53V6.45H36.13A21.1,21.1,0,0,1,39.09,10.33Z"/><path class="cls-2" d="M40.87,14.2H21.53V10.33H39.09A20.76,20.76,0,0,1,40.87,14.2Z"/><path class="cls-3" d="M41.81,18.17H21.53V14.29H40.9A20.66,20.66,0,0,1,41.81,18.17Z"/><path class="cls-2" d="M42,21q0,.39,0,.79c0,.09,0,.17,0,.26H21.53V18.17H41.81A20.94,20.94,0,0,1,42,21Z"/><path class="cls-3" d="M42,21.79c0,.09,0,.17,0,.26a21.13,21.13,0,0,1-.47,3.53H.5A21.13,21.13,0,0,1,0,22.05c0-.09,0-.17,0-.26Z"/><path class="cls-1" d="M21.53,0v22H0c0-.09,0-.17,0-.26q0-.39,0-.79A21,21,0,0,1,21,0Z"/><path class="cls-3" d="M31.06,2.57H21.53V0A20.86,20.86,0,0,1,31.06,2.57Z"/></g></g></svg>