<svg xmlns="http://www.w3.org/2000/svg" viewBox="0 0 136.09 133.05"><defs><style>.cls-1{fill:#ff9c01;}.cls-2{fill:#e6e6e6;}</style></defs><title>gitIconDark</title><g id="Camada_2" data-name="Camada 2"><g id="Camada_2-2" data-name="Camada 2"><path class="cls-1" d="M51.35,133a7.47,7.47,0,0,1-2.28-.37,61.81,61.81,0,0,1-17.29-8.78A65.44,65.44,0,0,1,6.3,87.35a66.07,66.07,0,0,1,12.57-59,65.13,65.13,0,0,1,39-23.2A63,63,0,0,1,73.49,4.1a66.22,66.22,0,0,1,60.93,51.09,66.4,66.4,0,0,1-12.19,55.37,65.47,65.47,0,0,1-30.6,21.95,7,7,0,0,1-5.77-.19,5.87,5.87,0,0,1-2.9-3.76,7.8,7.8,0,0,1-.21-2.06c0-5.6,0-11.13,0-16.66,0-4.36-1-7.36-3.2-9.73l-3.76-4,5.38-1,2.34-.43c1.63-.29,3.17-.57,4.68-.93,6.07-1.44,10.38-3.88,13.54-7.68a23.15,23.15,0,0,0,4.88-11.16,34,34,0,0,0,.11-13.31,20.27,20.27,0,0,0-4.53-9,4.51,4.51,0,0,1-.94-4.53A19.54,19.54,0,0,0,101,36a15.63,15.63,0,0,0-5.94,1.77c-1.4.69-2.76,1.46-4.2,2.29-1,.55-1.92,1.1-2.89,1.62a5.27,5.27,0,0,1-3.66.54A57.64,57.64,0,0,0,63.17,40.9c-2.16.27-4.29.74-6.55,1.24l-.8.18a5,5,0,0,1-4-.75,34.93,34.93,0,0,0-10.49-5.09A13.58,13.58,0,0,0,39,36.15a19.43,19.43,0,0,0-.17,12.12,4.44,4.44,0,0,1-.81,4c-4.06,4.8-5.76,10.51-5.21,17.46.42,5.28,1.33,9.1,3,12.4,2.68,5.39,7.13,9,13.63,10.94,2,.62,4.12,1,6.34,1.5,1,.21,2.06.43,3.09.66l4.87,1.1-3.52,4.09c-.17.19-.37.42-.56.66a11.81,11.81,0,0,0-2.08,5,4.23,4.23,0,0,1-2.36,3.19c-5.64,2.32-10.55,2.32-15,0A15.23,15.23,0,0,1,35,104.8q.31.67.6,1.38c1.51,3.67,4.28,5.74,8.7,6.52a24.21,24.21,0,0,0,9.42-.45l3.61-.76v12.8c0,.31,0,.61,0,.91,0,.49,0,1,0,1.46a6.48,6.48,0,0,1-2.55,5.28A5.93,5.93,0,0,1,51.35,133Zm37.44-5.93ZM69.88,10A57.27,57.27,0,0,0,59,11,60.12,60.12,0,0,0,10.1,66.81a58.43,58.43,0,0,0,2,18.95A59.58,59.58,0,0,0,35.29,119,55.8,55.8,0,0,0,50.9,127a1.47,1.47,0,0,0,.43.08,1.47,1.47,0,0,0,.07-.47c0-.42,0-.85,0-1.27s0-.67,0-1v-5.57a27,27,0,0,1-8.08-.13c-6.46-1.15-10.9-4.56-13.2-10.14-1.56-3.77-3.39-6.13-6-7.66A8,8,0,0,1,22,98.92c-1.61-2-1.41-3.61-.95-4.57a4.78,4.78,0,0,1,4.18-2.56,16.94,16.94,0,0,1,5.11.66c3.5,1.17,6.35,3.65,8.73,7.57A10.2,10.2,0,0,0,43,104c2.61,1.37,5.38,1.44,8.86.2a19.5,19.5,0,0,1,1.35-4c-1.82-.38-3.68-.8-5.51-1.36-8-2.44-13.85-7.15-17.26-14a39.38,39.38,0,0,1-3.58-14.6c-.64-8.14,1.38-15.22,6-21.07a25.92,25.92,0,0,1,1-16.44,4.2,4.2,0,0,1,3.95-2.64l.35,0a24.24,24.24,0,0,1,4.58.57,39.85,39.85,0,0,1,12.08,5.73l.5-.11c2.29-.5,4.67-1,7.1-1.33a63.52,63.52,0,0,1,22.93,1.38c.86-.47,1.71-1,2.55-1.44,1.46-.84,3-1.7,4.55-2.47a20,20,0,0,1,10-2.37,4.36,4.36,0,0,1,3.77,2.59,26.3,26.3,0,0,1,1,16.54,26.17,26.17,0,0,1,5.41,11.12,39.68,39.68,0,0,1-.06,15.63,29,29,0,0,1-6.18,14c-4,4.79-9.47,8-16.77,9.69-.92.22-1.84.41-2.76.58a21.52,21.52,0,0,1,1.94,9.69q0,8.29,0,16.58c0,.23,0,.48,0,.59a2.51,2.51,0,0,0,.89-.17,59.57,59.57,0,0,0,27.84-20,59.93,59.93,0,0,0-7.74-81.83,59.32,59.32,0,0,0-36.61-15Q71.51,10,69.88,10ZM25.15,97.79h0ZM37.47,36.05h0Z"/><path class="cls-1" d="M52.48,110.72l-1.15-1.22c.47-.33.91-.84,1.42-.94.34-.07.79.45,1.2.7Z"/><path class="cls-1" d="M47.85,108.73l1.29,1.3c-.46.3-.92.81-1.39.82s-.85-.53-1.28-.83Z"/><path class="cls-1" d="M37.67,105.55c1,0,1.81.7,1.73,1.36a1.18,1.18,0,0,1-.68.83c-.56.16-1.6-.83-1.53-1.43C37.23,106,37.56,105.71,37.67,105.55Z"/><path class="cls-1" d="M42.89,110.54,41.4,109c.34-.24.65-.64,1-.68A1.26,1.26,0,0,1,44,109.38C44,109.65,43.41,110,42.89,110.54Z"/><path class="cls-1" d="M36.55,103.27a6.73,6.73,0,0,1-1,.77,7.2,7.2,0,0,1-1.23-1.36c0-.07.57-.73.62-.7A18.17,18.17,0,0,1,36.55,103.27Z"/><path class="cls-1" d="M33.91,99.8c-.5.39-.85.72-.9.68a8,8,0,0,1-1.15-1.14s.44-.57.5-.54A15.59,15.59,0,0,1,33.91,99.8Z"/><path class="cls-1" d="M30,96.41l.8.95c-.22.17-.54.52-.64.46a2.32,2.32,0,0,1-.94-.82c-.1-.17.19-.55.3-.84Z"/><path class="cls-2" d="M47.35,129a7.47,7.47,0,0,1-2.28-.37,61.81,61.81,0,0,1-17.29-8.78A65.44,65.44,0,0,1,2.3,83.35a66.07,66.07,0,0,1,12.57-59,65.13,65.13,0,0,1,39-23.2A63.13,63.13,0,0,1,69.49.1a66.22,66.22,0,0,1,60.93,51.09,65,65,0,0,1,1.43,20.32,64.86,64.86,0,0,1-13.62,35.05,65.47,65.47,0,0,1-30.6,21.95,7,7,0,0,1-5.77-.19,5.87,5.87,0,0,1-2.9-3.76,7.8,7.8,0,0,1-.21-2.06c0-5.6,0-11.13,0-16.66,0-4.36-1-7.36-3.2-9.73l-3.76-4,5.38-1,2.34-.43c1.63-.29,3.17-.57,4.68-.93,6.07-1.44,10.38-3.88,13.54-7.68a23.15,23.15,0,0,0,4.88-11.16,34,34,0,0,0,.11-13.31,20.27,20.27,0,0,0-4.53-9A4.51,4.51,0,0,1,97.27,44,19.54,19.54,0,0,0,97,32a15.63,15.63,0,0,0-5.94,1.77c-1.4.69-2.76,1.46-4.2,2.29-1,.55-1.92,1.1-2.89,1.62a5.27,5.27,0,0,1-3.66.54A57.62,57.62,0,0,0,59.17,36.9c-2.16.27-4.29.74-6.55,1.24l-.8.18a5,5,0,0,1-4-.75,34.93,34.93,0,0,0-10.49-5.09A13.58,13.58,0,0,0,35,32.15a19.43,19.43,0,0,0-.17,12.12,4.44,4.44,0,0,1-.81,4c-4.06,4.8-5.76,10.51-5.21,17.46.42,5.28,1.33,9.1,3,12.4,2.68,5.39,7.13,9,13.63,10.94,2,.62,4.12,1,6.34,1.5,1,.21,2.06.43,3.09.66l4.87,1.1-3.52,4.09c-.17.19-.37.42-.56.66a11.81,11.81,0,0,0-2.08,5,4.23,4.23,0,0,1-2.36,3.19c-5.64,2.32-10.55,2.32-15,0A15.23,15.23,0,0,1,31,100.8q.31.67.6,1.38c1.51,3.67,4.28,5.74,8.7,6.52a24.21,24.21,0,0,0,9.42-.45l3.61-.76v12.8c0,.31,0,.61,0,.91,0,.49,0,1,0,1.46a6.48,6.48,0,0,1-2.55,5.28A5.93,5.93,0,0,1,47.35,129Zm37.44-5.93ZM65.88,6A57.27,57.27,0,0,0,55,7,59.28,59.28,0,0,0,19.52,28.16,60.07,60.07,0,0,0,8.08,81.76,59.58,59.58,0,0,0,31.29,115,55.8,55.8,0,0,0,46.9,123a1.47,1.47,0,0,0,.43.08,1.47,1.47,0,0,0,.07-.47c0-.42,0-.85,0-1.27s0-.67,0-1v-5.57a26.94,26.94,0,0,1-8.08-.13c-6.46-1.15-10.9-4.56-13.2-10.14-1.56-3.77-3.39-6.13-6-7.66A8,8,0,0,1,18,94.92c-1.61-2-1.41-3.61-.95-4.57a4.76,4.76,0,0,1,4.18-2.56,16.94,16.94,0,0,1,5.11.66c3.5,1.17,6.35,3.65,8.73,7.57A10.2,10.2,0,0,0,39,100c2.61,1.37,5.37,1.44,8.86.2a19.5,19.5,0,0,1,1.35-4c-1.82-.38-3.68-.8-5.51-1.36-8-2.44-13.85-7.15-17.26-14a39.38,39.38,0,0,1-3.58-14.6c-.64-8.14,1.38-15.22,6-21.07a25.92,25.92,0,0,1,1-16.44,4.2,4.2,0,0,1,3.95-2.64l.35,0a24.24,24.24,0,0,1,4.58.57,39.85,39.85,0,0,1,12.08,5.73l.5-.11c2.29-.5,4.67-1,7.1-1.33a63.52,63.52,0,0,1,22.93,1.38c.86-.47,1.71-1,2.55-1.44,1.46-.84,3-1.7,4.55-2.47a19.92,19.92,0,0,1,10-2.37,4.36,4.36,0,0,1,3.77,2.59,26.3,26.3,0,0,1,1,16.54,26.17,26.17,0,0,1,5.41,11.12,39.68,39.68,0,0,1-.06,15.63,29,29,0,0,1-6.18,14c-4,4.79-9.47,8-16.77,9.69-.92.22-1.84.41-2.76.58a21.52,21.52,0,0,1,1.94,9.69q0,8.29,0,16.58c0,.23,0,.48,0,.59a2.66,2.66,0,0,0,.89-.17,59.57,59.57,0,0,0,27.84-20,59.93,59.93,0,0,0-7.74-81.83,59.32,59.32,0,0,0-36.61-15Q67.51,6,65.88,6ZM21.15,93.79h0ZM33.47,32.05h0Z"/><path class="cls-2" d="M48.48,106.72l-1.15-1.22c.47-.33.91-.84,1.42-.94.34-.07.79.45,1.2.7Z"/><path class="cls-2" d="M43.85,104.73l1.29,1.3c-.46.3-.92.81-1.39.82s-.85-.53-1.28-.83Z"/><path class="cls-2" d="M33.67,101.55c1,0,1.81.7,1.73,1.36a1.18,1.18,0,0,1-.68.83c-.56.16-1.6-.83-1.53-1.43C33.23,102,33.56,101.71,33.67,101.55Z"/><path class="cls-2" d="M38.89,106.54,37.4,105c.34-.24.65-.64,1-.68A1.26,1.26,0,0,1,40,105.38C40,105.65,39.41,106,38.89,106.54Z"/><path class="cls-2" d="M32.55,99.27a6.73,6.73,0,0,1-1,.77,7.2,7.2,0,0,1-1.23-1.36c0-.07.57-.73.62-.7A18.17,18.17,0,0,1,32.55,99.27Z"/><path class="cls-2" d="M29.91,95.8c-.5.39-.85.72-.9.68a8,8,0,0,1-1.15-1.14s.44-.57.5-.54A15.59,15.59,0,0,1,29.91,95.8Z"/><path class="cls-2" d="M26,92.41l.8.95c-.22.17-.54.52-.64.46a2.32,2.32,0,0,1-.94-.82c-.1-.17.19-.55.3-.84Z"/></g></g></svg>