<svg xmlns="http://www.w3.org/2000/svg" viewBox="0 0 136.09 133.05"><defs><style>.cls-1,.cls-3{fill:none;stroke-miterlimit:10;stroke-width:6px;}.cls-1{stroke:#f7c600;}.cls-2{fill:#f7c600;}.cls-3{stroke:#1e0540;}.cls-4{fill:#1e0540;}</style></defs><title>gitIcon</title><g id="Camada_2" data-name="Camada 2"><g id="Camada_2-2" data-name="Camada 2"><path class="cls-1" d="M54.38,115.19c0,3.13,0,6.12,0,9.11,0,.77,0,1.55,0,2.32,0,2.6-1.92,4-4.42,3.2a58.55,58.55,0,0,1-16.45-8.36A62.29,62.29,0,0,1,9.19,86.55,61.15,61.15,0,0,1,7.11,66.64,61.69,61.69,0,0,1,21.2,30.26,62,62,0,0,1,58.42,8.11a59.79,59.79,0,0,1,14.89-1A63.22,63.22,0,0,1,131.5,55.88a61.67,61.67,0,0,1,1.36,19.38,61.67,61.67,0,0,1-13,33.46,62.29,62.29,0,0,1-29.22,21c-2.41.84-4.26.09-4.79-1.89a5.37,5.37,0,0,1-.11-1.36q0-8.29,0-16.59c0-4.37-.85-8.44-4-11.8,2.44-.47,4.82-.83,7.15-1.38,5.9-1.4,11.18-3.91,15.16-8.69a26.25,26.25,0,0,0,5.53-12.56,37.12,37.12,0,0,0,.09-14.47,23.15,23.15,0,0,0-5.19-10.32,1.54,1.54,0,0,1-.34-1.69,23.09,23.09,0,0,0-.76-15.24,1.47,1.47,0,0,0-1.12-.65,17.23,17.23,0,0,0-8.49,2.07c-2.46,1.2-4.78,2.66-7.19,4a2.34,2.34,0,0,1-1.51.28A60.33,60.33,0,0,0,62.8,37.92c-2.56.32-5.09.91-7.62,1.46a2.06,2.06,0,0,1-1.74-.33A37.38,37.38,0,0,0,42,33.56a23.66,23.66,0,0,0-4.38-.5,1.27,1.27,0,0,0-1,.69A23,23,0,0,0,36,49.19a1.43,1.43,0,0,1-.25,1.16C30.95,56,29.27,62.64,29.85,70a36.17,36.17,0,0,0,3.28,13.5C36.36,90,41.78,93.9,48.57,96c3.14,1,6.41,1.49,9.64,2.22-.23.27-.6.66-.93,1.09a14.81,14.81,0,0,0-2.64,6.24c-.08.37-.28.9-.56,1-4.13,1.7-8.31,2.28-12.47.1a13.18,13.18,0,0,1-5.12-5c-1.72-2.84-3.91-5.21-7.12-6.28a14.49,14.49,0,0,0-4.23-.5,1.83,1.83,0,0,0-1.41.86c-.15.31.28,1,.6,1.42a5,5,0,0,0,1.35,1.16c3.56,2.12,5.66,5.39,7.19,9.09,2,4.93,5.9,7.44,11,8.33A27.44,27.44,0,0,0,54.38,115.19Z"/><path class="cls-2" d="M52.48,110.72l-1.15-1.22c.47-.33.91-.84,1.42-.94.34-.07.79.45,1.2.7Z"/><path class="cls-2" d="M47.85,108.73l1.29,1.3c-.46.3-.92.81-1.39.82s-.85-.53-1.28-.83Z"/><path class="cls-2" d="M37.67,105.55c1,0,1.81.7,1.73,1.36a1.18,1.18,0,0,1-.68.83c-.56.16-1.6-.83-1.53-1.43C37.23,106,37.56,105.71,37.67,105.55Z"/><path class="cls-2" d="M42.89,110.54,41.4,109c.34-.24.65-.64,1-.68A1.26,1.26,0,0,1,44,109.38C44,109.65,43.41,110,42.89,110.54Z"/><path class="cls-2" d="M36.55,103.27a6.73,6.73,0,0,1-1,.77,7.2,7.2,0,0,1-1.23-1.36c0-.07.57-.73.62-.7A18.17,18.17,0,0,1,36.55,103.27Z"/><path class="cls-2" d="M33.91,99.8c-.5.39-.85.72-.9.68a8,8,0,0,1-1.15-1.14s.44-.57.5-.54A15.59,15.59,0,0,1,33.91,99.8Z"/><path class="cls-2" d="M30,96.41l.8.95c-.22.17-.54.52-.64.46a2.32,2.32,0,0,1-.94-.82c-.1-.17.19-.55.3-.84Z"/><path class="cls-3" d="M50.38,111.19c0,3.13,0,6.12,0,9.11,0,.77,0,1.55,0,2.32,0,2.6-1.92,4-4.42,3.2a58.55,58.55,0,0,1-16.45-8.36A62.29,62.29,0,0,1,5.19,82.55,61.15,61.15,0,0,1,3.11,62.64,61.69,61.69,0,0,1,17.2,26.26,62,62,0,0,1,54.42,4.11a59.79,59.79,0,0,1,14.89-1A63.22,63.22,0,0,1,127.5,51.88a61.67,61.67,0,0,1,1.36,19.38,61.67,61.67,0,0,1-13,33.46,62.29,62.29,0,0,1-29.22,21c-2.41.84-4.26.09-4.79-1.89a5.37,5.37,0,0,1-.11-1.36q0-8.29,0-16.59c0-4.37-.85-8.44-4-11.8,2.44-.47,4.82-.83,7.15-1.38,5.9-1.4,11.18-3.91,15.16-8.69a26.25,26.25,0,0,0,5.53-12.56,37.12,37.12,0,0,0,.09-14.47,23.15,23.15,0,0,0-5.19-10.32,1.54,1.54,0,0,1-.34-1.69,23.09,23.09,0,0,0-.76-15.24A1.47,1.47,0,0,0,98.27,29a17.23,17.23,0,0,0-8.49,2.07c-2.46,1.2-4.78,2.66-7.19,4a2.34,2.34,0,0,1-1.51.28A60.33,60.33,0,0,0,58.8,33.92c-2.56.32-5.09.91-7.62,1.46a2.06,2.06,0,0,1-1.74-.33A37.38,37.38,0,0,0,38,29.56a23.66,23.66,0,0,0-4.38-.5,1.27,1.27,0,0,0-1,.69A23,23,0,0,0,32,45.19a1.43,1.43,0,0,1-.25,1.16C26.95,52,25.27,58.64,25.85,66a36.17,36.17,0,0,0,3.28,13.5C32.36,86,37.78,89.9,44.57,92c3.14,1,6.41,1.49,9.64,2.22-.23.27-.6.66-.93,1.09a14.81,14.81,0,0,0-2.64,6.24c-.08.37-.28.9-.56,1-4.13,1.7-8.31,2.28-12.47.1a13.18,13.18,0,0,1-5.12-5c-1.72-2.84-3.91-5.21-7.12-6.28a14.49,14.49,0,0,0-4.23-.5,1.83,1.83,0,0,0-1.41.86c-.15.31.28,1,.6,1.42a5,5,0,0,0,1.35,1.16c3.56,2.12,5.66,5.39,7.19,9.09,2,4.93,5.9,7.44,11,8.33A27.44,27.44,0,0,0,50.38,111.19Z"/><path class="cls-4" d="M48.48,106.72l-1.15-1.22c.47-.33.91-.84,1.42-.94.34-.07.79.45,1.2.7Z"/><path class="cls-4" d="M43.85,104.73l1.29,1.3c-.46.3-.92.81-1.39.82s-.85-.53-1.28-.83Z"/><path class="cls-4" d="M33.67,101.55c1,0,1.81.7,1.73,1.36a1.18,1.18,0,0,1-.68.83c-.56.16-1.6-.83-1.53-1.43C33.23,102,33.56,101.71,33.67,101.55Z"/><path class="cls-4" d="M38.89,106.54,37.4,105c.34-.24.65-.64,1-.68A1.26,1.26,0,0,1,40,105.38C40,105.65,39.41,106,38.89,106.54Z"/><path class="cls-4" d="M32.55,99.27a6.73,6.73,0,0,1-1,.77,7.2,7.2,0,0,1-1.23-1.36c0-.07.57-.73.62-.7A18.17,18.17,0,0,1,32.55,99.27Z"/><path class="cls-4" d="M29.91,95.8c-.5.39-.85.72-.9.68a8,8,0,0,1-1.15-1.14s.44-.57.5-.54A15.59,15.59,0,0,1,29.91,95.8Z"/><path class="cls-4" d="M26,92.41l.8.95c-.22.17-.54.52-.64.46a2.32,2.32,0,0,1-.94-.82c-.1-.17.19-.55.3-.84Z"/></g></g></svg>