<svg xmlns="http://www.w3.org/2000/svg" viewBox="0 0 161.52 167.48"><defs><style>.cls-1{fill:#ff9c01;}</style></defs><title>grEN</title><g id="Camada_2" data-name="Camada 2"><g id="Camada_1-2" data-name="Camada 1"><path d="M34.83,63.83a2.18,2.18,0,0,1-2.08-1.24,2.57,2.57,0,0,1-.23-1c0-.71,0-1.41,0-2.12v-.23a2.2,2.2,0,0,1,2.28-2.3l7.31,0h0a2.2,2.2,0,0,1,2.3,2.28v1c0,.43,0,.86,0,1.29a2.59,2.59,0,0,1-.36,1.32l-.14.19-.44.42a2.92,2.92,0,0,1-1.68.4l-6.95,0Zm7.27-5.18h0l-7.31,0c-.37,0-.53.16-.53.53v.23c0,.69,0,1.38,0,2.07a.83.83,0,0,0,.06.3c.05.1.11.24.48.24h0l7,0a1.64,1.64,0,0,0,.66-.08l.12-.12a.74.74,0,0,0,.09-.34c0-.44,0-.87,0-1.31v-1C42.63,58.81,42.47,58.64,42.11,58.64Z"/><path d="M35.16,57.79a1.32,1.32,0,0,1-1.42-1.08,11.53,11.53,0,0,0-1.09-2.77c-.09-.15-.2-.33-.34-.52a3.8,3.8,0,0,1-.3-3.88c3.5-7.12,4.31-8.78,4.38-8.93a1.65,1.65,0,0,1,.25-.4A1.33,1.33,0,0,1,38,39.81a1.34,1.34,0,0,1,.35.14,1.33,1.33,0,0,1,1.85.47l.56,1,4.16,7.38a3.84,3.84,0,0,1,0,3.74,14.69,14.69,0,0,0-1.47,3,4,4,0,0,1-.23.89c0,.1-.07.2-.1.3a1.49,1.49,0,0,1-1.88,1,17,17,0,0,0-5.34,0A4.45,4.45,0,0,1,35.16,57.79Zm2-14.7L33.6,50.32a2,2,0,0,0,.16,2.07c.17.24.32.47.43.67A13.08,13.08,0,0,1,35.38,56l.21,0a18.83,18.83,0,0,1,5.89,0l0-.13a2.65,2.65,0,0,0,.14-.51c0-.39.28-1.13,1.69-3.65a2.06,2.06,0,0,0,0-2l-3.82-6.78v.22q.09,2.71.18,5.41a.32.32,0,0,0,.13.29,2.14,2.14,0,0,1,.74,1.5A2.19,2.19,0,0,1,40,51.9a2.22,2.22,0,0,1-1.56.73,2.12,2.12,0,0,1-1.58-.58,2.19,2.19,0,0,1-.7-1.63,2.31,2.31,0,0,1,.81-1.7.47.47,0,0,0,0-.12Zm1,7a.55.55,0,0,0-.21.39.42.42,0,0,0,.13.31.45.45,0,0,0,.3.11.48.48,0,0,0,.33-.15.42.42,0,0,0,.1-.31.37.37,0,0,0-.12-.26,2.22,2.22,0,0,1-.31-.32A1.5,1.5,0,0,1,38.18,50.06Zm1.3-8.94h0Z"/><path class="cls-1" d="M56.11,64.68H20.9V29.48h35.2Zm-30.9-4.3H51.8V33.78H25.21Z"/><path class="cls-1" d="M98.74,91.08H38.12a2.15,2.15,0,0,1,0-4.31H98.74a2.15,2.15,0,1,1,0,4.31Z"/><path class="cls-1" d="M98.74,106.73H38.12a2.15,2.15,0,0,1,0-4.31H98.74a2.15,2.15,0,0,1,0,4.31Z"/><path class="cls-1" d="M83.1,114.55H22.47a2.15,2.15,0,0,1,0-4.31H83.1a2.15,2.15,0,0,1,0,4.31Z"/><path class="cls-1" d="M102.85,122.57H42.23a2.15,2.15,0,0,1,0-4.31h60.62a2.15,2.15,0,1,1,0,4.31Z"/><path class="cls-1" d="M83,130.75H22.4a2.15,2.15,0,0,1,0-4.31H83a2.15,2.15,0,0,1,0,4.31Z"/><path class="cls-1" d="M94.83,98.9H34.21a2.15,2.15,0,0,1,0-4.31H94.83a2.15,2.15,0,0,1,0,4.31Z"/><path class="cls-1" d="M83.1,83.26H22.47a2.15,2.15,0,1,1,0-4.31H83.1a2.15,2.15,0,0,1,0,4.31Z"/><path class="cls-1" d="M121.6,82.23A2.22,2.22,0,0,1,119.38,80v-6.9a2.22,2.22,0,0,1,4.44,0V80A2.22,2.22,0,0,1,121.6,82.23Z"/><path class="cls-1" d="M99,155.49H24.84c-13.7,0-24.84-9.89-24.84-22V22C0,9.89,11.15,0,24.84,0H95.7l28.12,24.64V67.23a2.22,2.22,0,1,1-4.44,0V26.65L94,4.44H24.84C13.59,4.44,4.44,12.34,4.44,22v111.4c0,9.71,9.15,17.61,20.41,17.61H99a2.22,2.22,0,1,1,0,4.44Z"/><path class="cls-1" d="M119.87,31.31H102.64A9.29,9.29,0,0,1,93.37,22V2.22h4.74V22a4.54,4.54,0,0,0,4.54,4.54h17.23Z"/><path class="cls-1" d="M132.5,167.48a7.12,7.12,0,0,1-5.6-2.7L105,137.34a7.15,7.15,0,0,1,5.59-11.61,2.72,2.72,0,0,0,2.72-2.72V91a7.16,7.16,0,0,1,7.15-7.15h24A7.16,7.16,0,0,1,151.64,91v32a2.72,2.72,0,0,0,2.72,2.72A7.15,7.15,0,0,1,160,137.34L138.1,164.78A7.12,7.12,0,0,1,132.5,167.48Zm-12-79.22A2.72,2.72,0,0,0,117.8,91v32a7.16,7.16,0,0,1-7.15,7.15,2.72,2.72,0,0,0-2.12,4.41L130.38,162a2.72,2.72,0,0,0,4.25,0l21.86-27.44a2.72,2.72,0,0,0-2.12-4.41,7.16,7.16,0,0,1-7.15-7.15V91a2.72,2.72,0,0,0-2.72-2.72Z"/><path class="cls-1" d="M110.18,155.49H105a2.22,2.22,0,0,1,0-4.44h5.17a2.22,2.22,0,0,1,0,4.44Z"/><path class="cls-1" d="M80.07,50.35a2.29,2.29,0,0,1-.32,1.35,3.35,3.35,0,0,1-1,.85,6.48,6.48,0,0,1-1,.46,11,11,0,0,1-1.35.38,14.55,14.55,0,0,1-1.54.25,14.79,14.79,0,0,1-1.6.09,13.34,13.34,0,0,1-4-.57A9,9,0,0,1,66,51.42a8.24,8.24,0,0,1-2.16-2.89,10.62,10.62,0,0,1,.07-8.23,8.83,8.83,0,0,1,2.29-3,9.58,9.58,0,0,1,3.26-1.78A12.31,12.31,0,0,1,73.25,35a9.23,9.23,0,0,1,4.42.9,2.65,2.65,0,0,1,1.63,2.34,2.28,2.28,0,0,1-.38,1.32,3.15,3.15,0,0,1-.88.88,12.21,12.21,0,0,0-1.84-.87,6.83,6.83,0,0,0-2.48-.43,5.39,5.39,0,0,0-3.92,1.41,5.19,5.19,0,0,0-1.45,3.91,6.22,6.22,0,0,0,.4,2.33,4.44,4.44,0,0,0,1.07,1.62,4.36,4.36,0,0,0,1.56.94,5.66,5.66,0,0,0,1.88.31,5,5,0,0,0,1.15-.12,3.08,3.08,0,0,0,.76-.26V46.47H72a4.68,4.68,0,0,1-.34-.85,3.81,3.81,0,0,1-.16-1.12A2.06,2.06,0,0,1,72,43a1.72,1.72,0,0,1,1.25-.47h5a1.69,1.69,0,0,1,1.85,1.85Z"/><path class="cls-1" d="M88.56,47.5v5.64a8.21,8.21,0,0,1-1,.18,10.81,10.81,0,0,1-1.37.09A6.13,6.13,0,0,1,85,53.3a2,2,0,0,1-.85-.37,1.63,1.63,0,0,1-.51-.73A3.59,3.59,0,0,1,83.45,51V37.13a1.3,1.3,0,0,1,.34-1,2.42,2.42,0,0,1,.93-.54A11,11,0,0,1,87,35.12,23.34,23.34,0,0,1,89.85,35q4.05,0,6.11,1.7A5.67,5.67,0,0,1,98,41.27a5.15,5.15,0,0,1-.94,3.11,6.75,6.75,0,0,1-2.23,2q1.06,1.44,2.09,2.7a17.42,17.42,0,0,1,1.62,2.29,2.76,2.76,0,0,1-1.07,1.57,3,3,0,0,1-1.75.54,3.77,3.77,0,0,1-1.12-.15,2.68,2.68,0,0,1-.82-.41,3.32,3.32,0,0,1-.65-.65,8.53,8.53,0,0,1-.56-.82l-2.47-4Zm1.85-3.91A2.56,2.56,0,0,0,92.17,43a2.14,2.14,0,0,0,.65-1.69,2,2,0,0,0-.72-1.69,3.65,3.65,0,0,0-2.28-.57,6.7,6.7,0,0,0-.71,0l-.59.09v4.41Z"/><path class="cls-1" d="M68,59.62a.76.76,0,0,1,.82-.82h2.9a1.09,1.09,0,0,1,.11.25,1.13,1.13,0,0,1,0,.33.64.64,0,0,1-.14.47.52.52,0,0,1-.38.14H69.52v.82h2a1,1,0,0,1,.11.25,1.08,1.08,0,0,1,0,.33.65.65,0,0,1-.14.47.51.51,0,0,1-.38.14H69.52v.92h2.25a1.05,1.05,0,0,1,.11.25,1.13,1.13,0,0,1,0,.33.66.66,0,0,1-.14.48.52.52,0,0,1-.38.14H68.85a.76.76,0,0,1-.82-.82Z"/><path class="cls-1" d="M77.65,63.93a.79.79,0,0,1-.35.19,2.06,2.06,0,0,1-.56.07,1.93,1.93,0,0,1-.61-.1.85.85,0,0,1-.47-.46l-.87-1.77-.24-.51-.23-.56h-.05q0,.47,0,1t0,1v1.36l-.29.05-.39,0-.34,0A.52.52,0,0,1,73,64a.51.51,0,0,1-.15-.21,1,1,0,0,1-.05-.36V59.07a.73.73,0,0,1,.38-.26,1.68,1.68,0,0,1,.54-.09,1.88,1.88,0,0,1,.62.1.84.84,0,0,1,.47.46l.88,1.77.24.51c.07.16.15.35.23.56h0c0-.32,0-.63,0-.95s0-.63,0-.95V58.8l.29-.05.39,0a1.05,1.05,0,0,1,.59.14.65.65,0,0,1,.2.57Z"/><path class="cls-1" d="M78.65,62.48a1.16,1.16,0,0,1-.11-.25,1,1,0,0,1-.05-.33.63.63,0,0,1,.15-.47.53.53,0,0,1,.39-.14H80.9a1.86,1.86,0,0,1,.11.25,1,1,0,0,1,.06.33.64.64,0,0,1-.15.47.53.53,0,0,1-.39.14Z"/><path class="cls-1" d="M86.61,62.15a2.23,2.23,0,0,1-.16.86,1.82,1.82,0,0,1-.47.67,2.12,2.12,0,0,1-.75.43,3.36,3.36,0,0,1-2,0,2.11,2.11,0,0,1-.75-.43A1.82,1.82,0,0,1,82,63a2.23,2.23,0,0,1-.16-.86V58.8l.31,0,.4,0a1.82,1.82,0,0,1,.35,0,.63.63,0,0,1,.26.11.47.47,0,0,1,.16.22,1.07,1.07,0,0,1,.05.37v2.68a.9.9,0,0,0,.23.66.89.89,0,0,0,1.21,0,.91.91,0,0,0,.23-.66V58.8l.31,0,.4,0a1.83,1.83,0,0,1,.36,0,.63.63,0,0,1,.26.11.47.47,0,0,1,.16.22,1.07,1.07,0,0,1,.05.37Z"/><path class="cls-1" d="M89.23,62c-.26-.09-.49-.18-.7-.27a2.17,2.17,0,0,1-.54-.33,1.36,1.36,0,0,1-.35-.46,1.51,1.51,0,0,1-.13-.65,1.43,1.43,0,0,1,.58-1.19,2.56,2.56,0,0,1,1.61-.45,4.4,4.4,0,0,1,.7.05,2.1,2.1,0,0,1,.56.16,1,1,0,0,1,.36.28.64.64,0,0,1,.13.4.7.7,0,0,1-.11.39,1.09,1.09,0,0,1-.25.28,2,2,0,0,0-.52-.21,2.59,2.59,0,0,0-.71-.09,1.17,1.17,0,0,0-.58.11.32.32,0,0,0-.18.28.26.26,0,0,0,.11.21,1.18,1.18,0,0,0,.34.15l.46.15a3.35,3.35,0,0,1,1.27.67,1.43,1.43,0,0,1,.44,1.11,1.46,1.46,0,0,1-.59,1.21,2.76,2.76,0,0,1-1.73.46,4,4,0,0,1-.75-.07,2.36,2.36,0,0,1-.61-.19,1.11,1.11,0,0,1-.4-.32.69.69,0,0,1-.15-.43.66.66,0,0,1,.15-.43,1.15,1.15,0,0,1,.32-.28,2.36,2.36,0,0,0,.6.33,2.09,2.09,0,0,0,.78.14,1,1,0,0,0,.6-.13.38.38,0,0,0,.18-.31A.3.3,0,0,0,90,62.3a1.79,1.79,0,0,0-.39-.18Z"/><path class="cls-1" d="M93.72,59a1.81,1.81,0,0,1,.45-.17,2.41,2.41,0,0,1,.61-.08,2.19,2.19,0,0,1,.78.13.68.68,0,0,1,.43.4q.16.46.34,1.06t.37,1.25l.36,1.27.31,1.11a.71.71,0,0,1-.32.2,1.5,1.5,0,0,1-.5.08,1.53,1.53,0,0,1-.36,0,.63.63,0,0,1-.24-.11.52.52,0,0,1-.15-.18,1.56,1.56,0,0,1-.1-.26L95.56,63H94l-.14.54-.14.54-.26.07a1.51,1.51,0,0,1-.33,0,1.15,1.15,0,0,1-.66-.15.49.49,0,0,1-.21-.43.89.89,0,0,1,0-.25l.08-.29c0-.16.1-.35.17-.59l.24-.76q.13-.41.28-.84l.28-.81.24-.68Zm1.05,1.13-.28.82q-.15.45-.28.92h1.09q-.12-.47-.25-.93l-.23-.81Z"/></g></g></svg>