<svg xmlns="http://www.w3.org/2000/svg" viewBox="0 0 134.33 131.26"><defs><style>.cls-1{fill:#f7c600;stroke:#f7c600;}.cls-1,.cls-2{stroke-miterlimit:10;}.cls-2{fill:#1e0540;stroke:#1e0540;}</style></defs><title>linkedinIcon</title><g id="Camada_2" data-name="Camada 2"><g id="Camada_1-2" data-name="Camada 1"><path class="cls-1" d="M133.76,71.81A27.79,27.79,0,0,0,127.1,54a27.28,27.28,0,0,0-16.55-9.26,68.92,68.92,0,0,0-10.43-.54c-1.32,0-2.68,0-4,0-5.37-.13-11.43.14-16.45,4.58-.17-3.65-1.16-4.41-5.17-4.41H50.43c-3.4,0-4.55,1.16-4.55,4.57q0,38.6,0,77.2c0,3.53,1.14,4.66,4.68,4.66H74.8c3.83,0,4.88-1,4.88-4.84s0-7.64,0-11.46c0-11.58,0-23.56.09-35.34a11.25,11.25,0,0,1,1.74-5.57,9.87,9.87,0,0,1,11.41-3.87,10.08,10.08,0,0,1,7,9.66c0,10.32,0,20.81,0,31q0,8,0,16c0,3.1,1.25,4.42,4.16,4.43h12.72l12.83,0c2.8,0,4.1-1.31,4.11-4.1q0-7.24,0-14.49C133.83,98.93,133.86,85.26,133.76,71.81Zm-6.84,10c0,1.4,0,2.8,0,4.2q0,12.91,0,25.82v11.9h-20v-1.34q0-6.28,0-12.55c0-9.76,0-19.85,0-29.77,0-8.48-5.15-15.25-13.07-17.23a16.94,16.94,0,0,0-21,16.3q0,15.14,0,30.28v14.32h-20V51.18h20q0,.45,0,.9c0,1.38,0,2.82,0,4.22,0,1.11-.05,3.43,2.28,4.29s3.6-.76,4.48-1.82,2.09-2.38,3.35-3.65c2.51-2.54,5.22-3.85,8.06-3.91l2.89-.07a111.75,111.75,0,0,1,15.59.33c9.29,1.08,16.91,9.48,17.36,19.12C127,74.31,126.94,78.12,126.92,81.81Z"/><path class="cls-1" d="M34.34,44.32H9.56C6.1,44.32,5,45.39,5,48.89q0,38.67,0,77.34c0,3.42,1.12,4.52,4.6,4.52H34.06c3.64,0,4.7-1.08,4.7-4.8q0-16.45,0-32.9V77.37q0-14.28,0-28.56C38.75,45.5,37.6,44.32,34.34,44.32Zm-2.47,79.36H12V51.19h19.9Z"/><path class="cls-1" d="M21.94,4.5h-.08A17.43,17.43,0,0,0,4.5,21.7,17.19,17.19,0,0,0,9.47,34a17.37,17.37,0,0,0,12.27,5.22h.2A17.29,17.29,0,0,0,39.23,22,17.37,17.37,0,0,0,21.94,4.5Zm7.41,24.84a10.52,10.52,0,0,1-7.48,3.08h0a10.51,10.51,0,1,1,0-21h0a10.51,10.51,0,0,1,7.46,17.94Z"/><path class="cls-2" d="M129.76,67.81A27.79,27.79,0,0,0,123.1,50a27.28,27.28,0,0,0-16.55-9.26,69,69,0,0,0-10.43-.54c-1.32,0-2.68,0-4,0-5.37-.13-11.43.14-16.45,4.58-.17-3.65-1.16-4.41-5.17-4.41H46.43c-3.4,0-4.55,1.15-4.55,4.57q0,38.6,0,77.2c0,3.53,1.14,4.66,4.68,4.66H70.8c3.83,0,4.88-1,4.88-4.84s0-7.64,0-11.46c0-11.58,0-23.56.09-35.34a11.25,11.25,0,0,1,1.74-5.57,9.87,9.87,0,0,1,11.41-3.87,10.08,10.08,0,0,1,7,9.66c0,10.32,0,20.81,0,31q0,8,0,16c0,3.1,1.25,4.42,4.16,4.43h12.72l12.83,0c2.8,0,4.1-1.31,4.11-4.1q0-7.24,0-14.49C129.83,94.93,129.86,81.26,129.76,67.81Zm-6.85,40v11.9h-20v-1.34q0-6.28,0-12.56c0-9.76,0-19.85,0-29.77,0-8.48-5.15-15.25-13.07-17.23a16.94,16.94,0,0,0-21,16.3q0,15.14,0,30.28v14.32h-20V47.18h20q0,.45,0,.9c0,1.38,0,2.82,0,4.22,0,1.11-.05,3.43,2.28,4.29s3.6-.76,4.48-1.82,2.09-2.38,3.35-3.65c2.51-2.54,5.22-3.85,8.06-3.91l2.89-.07a111.78,111.78,0,0,1,15.59.33c9.29,1.08,16.91,9.48,17.36,19.12.17,3.73.15,7.54.12,11.23,0,1.4,0,2.8,0,4.2Q122.91,94.92,122.91,107.83Z"/><path class="cls-2" d="M30.34,40.32H5.56C2.1,40.32,1,41.39,1,44.89q0,38.67,0,77.34c0,3.42,1.12,4.52,4.6,4.52H30.06c3.64,0,4.7-1.08,4.7-4.8q0-16.45,0-32.9V73.37q0-14.28,0-28.56C34.75,41.5,33.6,40.32,30.34,40.32ZM8,119.68V47.19h19.9v72.49Z"/><path class="cls-2" d="M17.94.5h-.08A17.43,17.43,0,0,0,.5,17.7,17.19,17.19,0,0,0,5.47,30a17.37,17.37,0,0,0,12.27,5.22h.2A17.29,17.29,0,0,0,35.23,18,17.37,17.37,0,0,0,17.94.5Zm-.07,27.92h0A10.4,10.4,0,0,1,7.4,18,10.38,10.38,0,0,1,17.87,7.41h0a10.51,10.51,0,1,1,0,21Z"/><polygon class="cls-2" points="35.23 17.99 35.23 17.99 35.23 17.99 35.23 17.99"/></g></g></svg>