<svg xmlns="http://www.w3.org/2000/svg" viewBox="0 0 134.33 131.26"><defs><style>.cls-1{fill:#ff9c01;}.cls-2{fill:#e6e6e6;}</style></defs><title>linkedinIconDark</title><g id="Camada_2" data-name="Camada 2"><g id="Camada_1-2" data-name="Camada 1"><path class="cls-1" d="M133.76,71.81A27.79,27.79,0,0,0,127.1,54a27.28,27.28,0,0,0-16.55-9.26,68.92,68.92,0,0,0-10.43-.54c-1.32,0-2.68,0-4,0-5.37-.13-11.43.14-16.45,4.58-.17-3.65-1.16-4.41-5.17-4.41H50.43c-3.4,0-4.55,1.16-4.55,4.57q0,38.6,0,77.2c0,3.53,1.14,4.66,4.68,4.66H74.8c3.83,0,4.88-1,4.88-4.84s0-7.64,0-11.46c0-11.58,0-23.56.09-35.34a11.25,11.25,0,0,1,1.74-5.57,9.87,9.87,0,0,1,11.41-3.87,10.08,10.08,0,0,1,7,9.66c0,10.32,0,20.81,0,31q0,8,0,16c0,3.1,1.25,4.42,4.16,4.43h12.72l12.83,0c2.8,0,4.1-1.31,4.11-4.1q0-7.24,0-14.49C133.83,98.93,133.86,85.26,133.76,71.81Zm-6.84,10c0,1.4,0,2.8,0,4.2q0,12.91,0,25.82v11.9h-20v-1.34q0-6.28,0-12.55c0-9.76,0-19.85,0-29.77,0-8.48-5.15-15.25-13.07-17.23a16.94,16.94,0,0,0-21,16.3q0,15.14,0,30.28v14.32h-20V51.17h20q0,.45,0,.9c0,1.38,0,2.82,0,4.22,0,1.11-.05,3.43,2.28,4.29s3.6-.76,4.48-1.82,2.09-2.38,3.35-3.65c2.51-2.54,5.22-3.85,8.06-3.91l2.89-.07a111.75,111.75,0,0,1,15.59.33c9.29,1.08,16.91,9.48,17.36,19.12C127,74.31,126.94,78.12,126.92,81.81Z"/><path class="cls-1" d="M116.85,131.26H104.13c-3.18,0-4.66-1.57-4.66-4.93v-16c0-10.15,0-20.64,0-31a9.58,9.58,0,0,0-6.69-9.18,9.37,9.37,0,0,0-10.83,3.66,10.72,10.72,0,0,0-1.67,5.31c-.12,11.81-.1,23.77-.09,35.33q0,5.73,0,11.46c0,4.09-1.26,5.34-5.38,5.34H50.56c-3.82,0-5.18-1.35-5.18-5.16q0-38.6,0-77.2c0-3.7,1.37-5.07,5-5.07H74.49c3.94,0,5.26.83,5.6,3.9,5-4,10.89-4.2,16-4.07,1.32,0,2.68,0,4,0a69.31,69.31,0,0,1,10.51.54,27.78,27.78,0,0,1,16.85,9.43,28.29,28.29,0,0,1,6.78,18.15c.1,13.48.07,27.14.05,40.34q0,7.25,0,14.49c0,3-1.55,4.6-4.6,4.6ZM89.7,68.67a11.19,11.19,0,0,1,3.36.52,10.57,10.57,0,0,1,7.39,10.13c0,10.32,0,20.81,0,31v16c0,2.82,1,3.92,3.66,3.93,8.6,0,17.2,0,25.55,0,2.53,0,3.61-1.08,3.61-3.6q0-7.25,0-14.49c0-13.21,0-26.86-.05-40.33a27.29,27.29,0,0,0-6.54-17.51,26.78,26.78,0,0,0-16.24-9.1,68.55,68.55,0,0,0-10.36-.53c-1.32,0-2.69,0-4,0-5.22-.12-11.19.11-16.11,4.46l-.78.69,0-1c-.15-3.34-.85-3.93-4.68-3.93H50.43c-3.14,0-4,.91-4,4.07q0,38.6,0,77.2c0,3.27.9,4.16,4.18,4.16H74.8c3.56,0,4.38-.81,4.38-4.34q0-5.73,0-11.46c0-11.57,0-23.53.09-35.34a11.77,11.77,0,0,1,1.82-5.83A10.08,10.08,0,0,1,89.7,68.67ZM73.3,124.24h-21V50.67h21v1.4c0,1.39,0,2.82,0,4.22,0,1.08,0,3.07,2,3.81,1.78.65,2.83-.37,3.93-1.67s2.1-2.4,3.37-3.68c2.6-2.63,5.43-4,8.4-4.06l2.88-.07a112.11,112.11,0,0,1,15.66.33c9.52,1.11,17.34,9.71,17.8,19.59.17,3.75.15,7.56.13,11.25V82c0,1.34,0,2.68,0,4q0,12.3,0,24.59v13.63h-21V109.84c0-9.76,0-19.85,0-29.77,0-8.25-5-14.82-12.69-16.75A16.44,16.44,0,0,0,73.3,79.14q0,15.14,0,30.28Zm-20-1h19V109.42q0-15.14,0-30.28A17.44,17.44,0,0,1,93.91,62.35c8.15,2,13.43,9,13.45,17.72,0,9.92,0,20,0,29.77v13.39h19V110.6q0-12.29,0-24.59c0-1.34,0-2.68,0-4V81.8c0-3.68,0-7.48-.12-11.2C125.86,61.2,118.43,53,109.37,52a111,111,0,0,0-15.52-.33h-.49L91,51.7c-2.7.06-5.3,1.32-7.71,3.76-1.25,1.27-2.34,2.45-3.32,3.62s-2.45,2.93-5,2-2.63-3.63-2.61-4.77c0-1.4,0-2.82,0-4.21v-.4h-19Z"/><path class="cls-1" d="M34.34,44.32H9.56C6.1,44.32,5,45.39,5,48.89q0,38.67,0,77.34c0,3.42,1.12,4.52,4.6,4.52H34.06c3.64,0,4.7-1.08,4.7-4.8q0-16.45,0-32.9V77.37q0-14.28,0-28.56C38.75,45.49,37.6,44.32,34.34,44.32Zm-2.47,79.36H12V51.19h19.9Z"/><path class="cls-1" d="M21.39,131.25H9.64c-3.77,0-5.1-1.32-5.1-5q0-38.67,0-77.34c0-3.79,1.27-5.07,5-5.07H34.34c3.54,0,4.91,1.4,4.91,5V126c0,4-1.26,5.3-5.2,5.3Zm1.24-86.44H9.56c-3.19,0-4,.84-4,4.07q0,38.67,0,77.34c0,3.16.88,4,4.1,4H34.06c3.37,0,4.2-.85,4.2-4.3V48.8c0-3.05-.92-4-3.92-4Zm9.74,79.37H11.47V50.69h20.9Zm-19.9-1h18.9V51.69H12.47Z"/><path class="cls-1" d="M21.94,4.5h-.08A17.43,17.43,0,0,0,4.5,21.7,17.19,17.19,0,0,0,9.47,34a17.37,17.37,0,0,0,12.27,5.22h.2A17.29,17.29,0,0,0,39.23,22,17.37,17.37,0,0,0,21.94,4.5Zm7.41,24.84a10.52,10.52,0,0,1-7.48,3.08h0a10.51,10.51,0,1,1,0-21h0a10.51,10.51,0,0,1,7.46,17.94Z"/><path class="cls-1" d="M21.94,39.75h-.2A17.87,17.87,0,0,1,21.87,4h.08A17.87,17.87,0,0,1,39.73,22,17.79,17.79,0,0,1,21.94,39.75ZM21.87,5A16.94,16.94,0,0,0,5,21.71a16.7,16.7,0,0,0,4.83,12,16.87,16.87,0,0,0,11.92,5.07h.19A16.79,16.79,0,0,0,38.73,22,16.87,16.87,0,0,0,21.94,5Zm0,27.92a11,11,0,1,1,0-22A11,11,0,0,1,29.71,29.7h0A11,11,0,0,1,21.87,32.92Zm0-21A10,10,0,1,0,29,29h0a10,10,0,0,0-7.11-17.08Z"/><path class="cls-2" d="M129.76,67.81A27.79,27.79,0,0,0,123.1,50a27.28,27.28,0,0,0-16.55-9.26,69,69,0,0,0-10.43-.54c-1.32,0-2.68,0-4,0-5.37-.13-11.43.14-16.45,4.58-.17-3.65-1.16-4.41-5.17-4.41H46.43c-3.4,0-4.55,1.15-4.55,4.57q0,38.6,0,77.2c0,3.53,1.14,4.66,4.68,4.66H70.8c3.83,0,4.88-1,4.88-4.84s0-7.64,0-11.46c0-11.58,0-23.56.09-35.34a11.25,11.25,0,0,1,1.74-5.57,9.87,9.87,0,0,1,11.41-3.87,10.08,10.08,0,0,1,7,9.66c0,10.32,0,20.81,0,31q0,8,0,16c0,3.1,1.25,4.42,4.16,4.43h12.72l12.83,0c2.8,0,4.1-1.31,4.11-4.1q0-7.24,0-14.49C129.83,94.93,129.86,81.26,129.76,67.81Zm-6.85,40v11.9h-20v-1.34q0-6.28,0-12.56c0-9.76,0-19.85,0-29.77,0-8.48-5.15-15.25-13.07-17.23a16.94,16.94,0,0,0-21,16.3q0,15.14,0,30.28v14.32h-20V47.17h20q0,.45,0,.9c0,1.38,0,2.82,0,4.22,0,1.11-.05,3.43,2.28,4.29s3.6-.76,4.48-1.82,2.09-2.38,3.35-3.65c2.51-2.54,5.22-3.85,8.06-3.91l2.89-.07a111.78,111.78,0,0,1,15.59.33c9.29,1.08,16.91,9.48,17.36,19.12.17,3.73.15,7.54.12,11.23,0,1.4,0,2.8,0,4.2Q122.91,94.92,122.91,107.83Z"/><path class="cls-2" d="M112.85,127.26H100.13c-3.18,0-4.66-1.57-4.66-4.93v-16c0-10.15,0-20.64,0-31a9.58,9.58,0,0,0-6.69-9.18,9.37,9.37,0,0,0-10.83,3.66,10.72,10.72,0,0,0-1.67,5.31c-.11,11.76-.1,23.73-.09,35.3,0,3.85,0,7.67,0,11.49,0,4.09-1.26,5.34-5.38,5.34H46.56c-3.82,0-5.18-1.35-5.18-5.16q0-38.6,0-77.2c0-3.7,1.37-5.07,5-5.07H70.49c3.94,0,5.26.83,5.6,3.9,5-4,10.89-4.19,16-4.07,1.32,0,2.68,0,4,0a69.31,69.31,0,0,1,10.51.54,27.78,27.78,0,0,1,16.85,9.43,28.29,28.29,0,0,1,6.78,18.15h0c.1,13.48.07,27.14.05,40.34q0,7.25,0,14.49c0,3.09-1.51,4.6-4.6,4.6ZM85.7,64.67a11.19,11.19,0,0,1,3.36.52,10.57,10.57,0,0,1,7.39,10.13c0,10.32,0,20.81,0,31v16c0,2.82,1,3.92,3.66,3.93,8.6,0,17.2,0,25.55,0,2.53,0,3.61-1.08,3.61-3.6q0-7.24,0-14.49c0-13.21,0-26.86-.05-40.34a27.29,27.29,0,0,0-6.54-17.51,26.78,26.78,0,0,0-16.24-9.1,68.55,68.55,0,0,0-10.36-.53c-1.32,0-2.69,0-4,0-5.21-.13-11.19.11-16.11,4.46l-.78.69,0-1c-.15-3.34-.85-3.93-4.68-3.93H46.43c-3.14,0-4,.91-4,4.07q0,38.6,0,77.2c0,3.27.9,4.16,4.18,4.16H70.8c3.56,0,4.38-.81,4.38-4.34q0-5.73,0-11.46c0-11.6,0-23.57.09-35.34a11.77,11.77,0,0,1,1.82-5.83A10.08,10.08,0,0,1,85.7,64.67ZM69.3,120.24h-21V46.67h21v1.39c0,1.39,0,2.83,0,4.23,0,1.08,0,3.07,2,3.81,1.78.65,2.83-.37,3.93-1.67s2.11-2.41,3.37-3.68c2.6-2.63,5.43-4,8.4-4.06l2.87-.07a112.39,112.39,0,0,1,15.67.33c9.52,1.11,17.34,9.71,17.8,19.59.17,3.76.15,7.57.13,11.25v.35c0,1.28,0,2.56,0,3.85q0,12.3,0,24.59v13.63h-21V105.84c0-9.76,0-19.85,0-29.77,0-8.25-5-14.82-12.69-16.75A16.44,16.44,0,0,0,69.3,75.14q0,15.14,0,30.28Zm-20-1h19V105.42q0-15.14,0-30.28A17.44,17.44,0,0,1,89.91,58.35c8.15,2,13.43,9,13.45,17.72,0,9.92,0,20,0,29.77v13.39h19V106.6q0-12.29,0-24.59c0-1.28,0-2.57,0-3.85V77.8c0-3.67,0-7.47-.12-11.2C121.86,57.2,114.43,49,105.37,48a111.3,111.3,0,0,0-15.52-.33L87,47.7c-2.7.06-5.3,1.32-7.71,3.76-1.24,1.26-2.33,2.44-3.32,3.62s-2.45,2.92-5,2-2.63-3.63-2.61-4.77c0-1.4,0-2.82,0-4.21v-.4h-19Z"/><path class="cls-2" d="M30.34,40.32H5.56C2.1,40.32,1,41.39,1,44.89q0,38.67,0,77.34c0,3.42,1.12,4.52,4.6,4.52H30.06c3.64,0,4.7-1.08,4.7-4.8q0-16.45,0-32.9V73.37q0-14.28,0-28.56C34.75,41.49,33.6,40.32,30.34,40.32ZM8,119.68V47.19h19.9v72.49Z"/><path class="cls-2" d="M17.39,127.25H5.64c-3.77,0-5.1-1.32-5.1-5q0-38.67,0-77.34c0-3.79,1.27-5.07,5-5.07H30.34c3.54,0,4.91,1.4,4.91,5V122c0,4-1.26,5.3-5.2,5.3Zm1.24-86.44H5.56c-3.19,0-4,.84-4,4.07q0,38.67,0,77.34c0,3.16.88,4,4.1,4H30.06c3.37,0,4.2-.85,4.2-4.3V44.8c0-3.05-.92-4-3.92-4Zm9.74,79.37H7.47V46.69h20.9Zm-19.9-1h18.9V47.69H8.47Z"/><path class="cls-2" d="M17.94.5h-.08A17.43,17.43,0,0,0,.5,17.7,17.19,17.19,0,0,0,5.47,30a17.37,17.37,0,0,0,12.27,5.22h.2A17.29,17.29,0,0,0,35.23,18,17.37,17.37,0,0,0,17.94.5Zm-.07,27.92h0A10.4,10.4,0,0,1,7.4,18,10.38,10.38,0,0,1,17.87,7.41h0a10.51,10.51,0,1,1,0,21Z"/><path class="cls-2" d="M17.94,35.75h-.2A17.86,17.86,0,0,1,5.12,30.38,17.69,17.69,0,0,1,0,17.69,17.94,17.94,0,0,1,17.87,0h.08A17.87,17.87,0,0,1,35.73,18,17.79,17.79,0,0,1,17.94,35.75ZM17.87,1A16.94,16.94,0,0,0,1,17.71a16.7,16.7,0,0,0,4.83,12,16.87,16.87,0,0,0,11.92,5.07h.19A16.79,16.79,0,0,0,34.73,18,16.87,16.87,0,0,0,17.94,1Zm0,27.92h0A10.9,10.9,0,0,1,6.9,18a11,11,0,1,1,11,10.94Zm0-21a10,10,0,0,0,0,20l0,.5v-.5a10,10,0,1,0,0-20Z"/><polygon class="cls-2" points="35.23 17.99 35.23 17.99 35.23 17.99 35.23 17.99"/></g></g></svg>