<svg xmlns="http://www.w3.org/2000/svg" viewBox="0 0 111.63 112.05"><defs><style>.cls-1{fill:none;stroke:#fff;stroke-miterlimit:10;stroke-width:3px;}.cls-2{fill:#1e0540;}.cls-3{fill:#f2f2f2;}.cls-4{opacity:0.17;}.cls-5{fill:#ff9c01;}.cls-6{opacity:0.04;}.cls-7{fill:#f7c600;}.cls-8{opacity:0.5;}.cls-9{fill:#1a1a1a;}</style></defs><title>logoIcon</title><g id="Camada_2" data-name="Camada 2"><g id="Camada_2-2" data-name="Camada 2"><ellipse class="cls-1" cx="55.81" cy="56.02" rx="54.31" ry="54.52"/><path class="cls-2" d="M93.38,40.3c0-.32-.1-.63-.16-.94s-.12-.61-.19-.92-.15-.61-.23-.91-.17-.6-.26-.9-.19-.59-.29-.88L92,35a.77.77,0,0,0-.07-.16l-.28-.69a0,0,0,0,0,0,0c-.14-.35-.3-.69-.47-1l0-.07c-.12-.24-.25-.47-.37-.7a24.27,24.27,0,0,0-2.59-3.88c-.21-.26-.43-.52-.65-.77s-.41-.46-.63-.69c-.38-.4-.77-.79-1.18-1.16l-.55-.49a.53.53,0,0,0-.12-.1c-.26-.23-.52-.45-.8-.66a.25.25,0,0,0-.1-.08L83.53,24l-.76-.54-.85-.55c-.25-.16-.51-.31-.77-.46-.53-.3-1.08-.59-1.64-.86l-.84-.38-.88-.36-.89-.33L76,20.26,75.16,20a1.57,1.57,0,0,0-.29-.08l-.74-.17c-.38-.09-.78-.17-1.17-.24H72.9l-.59-.09-.9-.11h-.7s0,0,0,0H38.13V57.47l-.26.2-.12.09-.5.38-.11.08-1.21.92L31.4,62.59l-1,.75L28.63,64.7l-1,.78-.78.59-1.28,1-.32.24-1.9,1.45h0l-.49.37-.8.6-.16.12-1.6,1.22-.49.37-1.25,1-2.21,1.69-.47.36-1,.78,2.11,4.7L19,79.31l.6-.17,3.61-1,1.52-.43,1.8-.51,1.12-.32.17,0,.34-.09,3.64-1,.41-.12L34.11,75h0l1.47-.41,1.48-.42.32-.09h0l.16.05L38,74h0l.17,0,.05.19,0,.13a0,0,0,0,1,0,0,.66.66,0,0,1,0,.14,7.37,7.37,0,0,0,.17.86,4.78,4.78,0,0,0,.31.85h0v.05L39.21,78,40,80.89l.21.81L40.51,83l.34,1.32.54,2.07.53,2,.33,1.27.42,1.6.5,1.9.3,1.16.66,2.51h5l.52-3.55.16-1.11.15-1L50.12,90,50.28,89l.34-2.3L51,83.87l.16-1.12.24-1.62.14-1,.16-1.08.48-3.3L53,70.22l.1-.67H93.39V40.35S93.38,40.32,93.38,40.3ZM69.84,54.55H53.13V34.29H69.19l.59.1.3.07.32.08a4.44,4.44,0,0,1,.62.19l.31.11c0-.11,0-.22,0-.33l.12,0a4.44,4.44,0,0,1,.62.19l.31.11.23.09.45.2a4.66,4.66,0,0,1,.63.32,4,4,0,0,1,.44.27q.41.25.78.54l.26.2a10.28,10.28,0,0,1,.77.71,1.94,1.94,0,0,1,.24.26,8.64,8.64,0,0,1,.72.88,1.88,1.88,0,0,1,.12.18,10,10,0,0,1,1,1.85c.08.21.16.43.22.65s.14.46.2.7v2a3.6,3.6,0,0,1,.39.2.79.79,0,0,1,0-.46v8.28l-.22.17-.22.17v2.18l-.08.29H69.84Z"/><path class="cls-3" d="M94.1,33.61l.05.13a3.37,3.37,0,0,1,.15.36l.3.79c.13.38.24.7.34,1s.19.65.28,1,.17.66.25,1l0,.12c.07.33.14.65.2,1s.1.5.14.79l.06.17V72.05H55.29l-4,27.24H42.2L36.36,77,15.55,82.9l-3.81-8.49,23.9-18.18V16.79l25.54,0H69l0-.05,1.63.06h2.5V17l.51.09,1,.21.72.16a4,4,0,0,1,.47.13l.81.23,1,.31,1,.37,1,.39.92.41c.66.32,1.26.63,1.84,1,.32.18.61.35.89.53l.22.14.68.44L85,22l.55.42a2.77,2.77,0,0,1,.31.24c.24.19.47.38.7.58a2.9,2.9,0,0,1,.26.22l.58.52c.38.34.81.77,1.28,1.26.25.26.5.53.74.81s.44.51.67.8a26.78,26.78,0,0,1,2.85,4.27l.14.27.11.21M46.06,94.29H47l4-27.24H90.89V40.49c0-.22-.07-.43-.12-.65s-.1-.52-.15-.74l0-.1c-.06-.25-.13-.54-.21-.81s-.16-.55-.24-.82-.17-.52-.26-.77l0-.08L89.27,35c-.11-.28-.24-.54-.37-.81L88.8,34l-.13-.25-.16-.3A21.77,21.77,0,0,0,86.2,30c-.2-.24-.39-.48-.59-.7s-.38-.43-.56-.61c-.34-.36-.69-.71-1-1l-.38-.34h0l-.25-.22c-.19-.17-.38-.33-.58-.49l-.05,0h0l-.31-.24L82,26l-.74-.52-.5-.32L80.57,25l-.66-.39c-.48-.27-1-.54-1.49-.78l-.74-.33-.82-.34L76,22.9l-.75-.24-.74-.21-.29-.08-.64-.15L72.73,22l-.45,0-.07.17-1.72-.35-1.6,0H60.17l-19.54,0V58.7L17.93,76l.41.92,18.59-5.26.31-.19h.36l2.29-.67.57,2.16.25.25v1c0,.17.05.3.07.38l0,.08A2.27,2.27,0,0,0,41,75l.25.51v.27ZM80.21,57.05H50.63V31.87l5.1-.08H68.24l-.11-.62,3.77.92a7.8,7.8,0,0,1,.93.27l.43.15.29.11.48.21a7.16,7.16,0,0,1,.85.43,6.53,6.53,0,0,1,.59.36q.44.28.86.6l.29.22.09.07a12.41,12.41,0,0,1,.92.84,4.52,4.52,0,0,1,.41.44,11,11,0,0,1,.86,1.07l0,0,2.41-5.59V44l.89,5-.89-.55V53l-.44.33V54.6Zm-24.58-5H75.89V50.93l.44-.38v-5l-.44-.2V42l-.06-.2-.05-.17a4.25,4.25,0,0,0-.14-.41,7.47,7.47,0,0,0-.72-1.32l-.14-.21a6.4,6.4,0,0,0-.47-.57L74.16,39c-.23-.22-.42-.41-.62-.57l0,0-3.41-1.31L69.82,37l-.47-.12L69,36.79H55.63ZM74.86,39.83v0Z"/><rect class="cls-3" x="75.83" y="41.96" width="3.5" height="12"/><path class="cls-2" d="M86.34,45.52c-.71.59-1.66,1.43-3.06,2.61l-.84.7a17.3,17.3,0,0,0-1.74-3,2,2,0,0,1-.75-.28c-.26,2.46-.54,4.39-.75,5.93l-.81.62V43.72a3.6,3.6,0,0,1,.39.2.79.79,0,0,1,0-.46,1.89,1.89,0,0,1,1.4-.82c1.72-.38,4.36,0,4.6.82.16.54-.67,1.27-1.48,1.74C84.29,45.32,85.28,45.42,86.34,45.52Z"/><path class="cls-3" d="M63,34.22l-.06.07h.14A.27.27,0,0,0,63,34.22Zm-10,3h0l.1.08v-.13Zm10-3-.06.07h.14A.27.27,0,0,0,63,34.22Zm-10,3h0l.1.08v-.13Zm10-3-.06.07h.14A.27.27,0,0,0,63,34.22Zm-10,3h0l.1.08v-.13Zm10-3-.06.07h.14A.27.27,0,0,0,63,34.22Zm-10,3h0l.1.08v-.13Zm10-3-.06.07h.14A.27.27,0,0,0,63,34.22Zm-10,3h0l.1.08v-.13Zm10-3-.06.07h.14A.27.27,0,0,0,63,34.22Zm-10,3h0l.1.08v-.13Zm10-3-.06.07h.14A.27.27,0,0,0,63,34.22Zm-10,3h0l.1.08v-.13ZM55.55,34l-.34-.57-.56.73-.06.07,0,.06h1.19Zm0,0-.34-.57-.56.73-.06.07,0,.06h1.19Zm0,0-.34-.57-.56.73-.06.07,0,.06h1.19Zm0,0-.34-.57-.56.73-.06.07,0,.06h1.19Zm0,0-.34-.57-.56.73-.06.07,0,.06h1.19ZM79.24,51.16c0,.1,0,.2,0,.3s.08,0,.11-.14A30.48,30.48,0,0,0,80,45.53C79.71,47.83,79.45,49.67,79.24,51.16Zm0,0c0,.1,0,.2,0,.3s.08,0,.11-.14A30.48,30.48,0,0,0,80,45.53C79.71,47.83,79.45,49.67,79.24,51.16ZM55.55,34l-.34-.57-.56.73-.06.07,0,.06h1.19Zm37.83,6.3c0-.32-.1-.63-.16-.94s-.12-.61-.19-.92-.15-.61-.23-.91-.17-.6-.26-.9-.19-.59-.29-.88L92,35a.77.77,0,0,0-.07-.16l-.28-.69a0,0,0,0,0,0,0c-.14-.35-.3-.69-.47-1l0-.07c-.12-.24-.25-.47-.37-.7a24.27,24.27,0,0,0-2.59-3.88c-.21-.26-.43-.52-.65-.77s-.41-.46-.63-.69c-.38-.4-.77-.79-1.18-1.16l-.55-.49a.53.53,0,0,0-.12-.1c-.26-.23-.52-.45-.8-.66a.25.25,0,0,0-.1-.08L83.53,24l-.76-.54-.85-.55c-.25-.16-.51-.31-.77-.46-.53-.3-1.08-.59-1.64-.86l-.84-.38-.88-.36-.89-.33L76,20.26,75.16,20a1.57,1.57,0,0,0-.29-.08l-.74-.17c-.38-.09-.78-.17-1.17-.24H72.9l-.59-.09-.9-.11H38.13V57.47l-.26.2-.12.09-.5.38-.11.08-1.21.92L31.4,62.59l-1,.75-1.74,1.33,0,0-1,.78-.78.59-1.28,1-.32.24-1.9,1.45h0l-.49.37-.8.6-.16.12-1.6,1.22-.49.37-1.25,1-2.21,1.69-.47.36-1,.78,2.11,4.7L19,79.31l.6-.17,3.61-1,1.52-.43,1.8-.51,1.12-.32.17,0,.34-.09,3.64-1,.41-.12L34.11,75h0l1.2-.34.27-.07,1.48-.42.32-.09h0L38,74h0l.17,0,0,.15v0l0,.13a0,0,0,0,1,0,0l0,.14.45,1.71h0v.05l.21.78L39.21,78,40,80.89l.21.81L40.51,83l.34,1.32.54,2.07.24.89.29,1.11.33,1.27.42,1.6.5,1.9.3,1.16.66,2.51h5l.52-3.55.16-1.11.15-1L50.12,90,50.28,89l.2-1.36.14-.94L51,83.87l.16-1.12.24-1.62.14-1,.16-1.08.34-2.36.14-.94L53,70.22l.1-.67H93.39V40.35S93.38,40.32,93.38,40.3Zm-10.1,7.83-.5.42-.34.28-.29-.6a16,16,0,0,0-1.45-2.42,2,2,0,0,1-.75-.28c-.24,2.3-.5,4.14-.71,5.63,0,.1,0,.2,0,.3l-.37.28-.22.17-.22.17v2.47H53.13V34.29H70.19l.59.1.3.07.2,0,.12,0a4.44,4.44,0,0,1,.62.19l.31.11.23.09.45.2a4.66,4.66,0,0,1,.63.32,4,4,0,0,1,.44.27q.41.25.78.54l.26.2a10.28,10.28,0,0,1,.77.71,1.94,1.94,0,0,1,.24.26,8.64,8.64,0,0,1,.72.88,1.88,1.88,0,0,1,.12.18,10,10,0,0,1,1,1.85c.08.21.16.43.22.65s.14.46.2.7v2a3.6,3.6,0,0,1,.39.2.79.79,0,0,1,0-.46,1.89,1.89,0,0,1,1.4-.82c1.72-.38,4.36,0,4.6.82.16.54-.67,1.27-1.48,1.74.94.12,1.93.22,3,.32C85.63,46.11,84.68,47,83.28,48.13Zm-6.44,6.42c-.08.83-.16,1.68-.22,2.53,0-.13.07-.25.1-.38l.19-.69.24-.88.15-.55v0Zm2.4-3.39c0,.1,0,.2,0,.3s.08,0,.11-.14A30.48,30.48,0,0,0,80,45.53C79.71,47.83,79.45,49.67,79.24,51.16Zm0,0c0,.1,0,.2,0,.3s.08,0,.11-.14A30.48,30.48,0,0,0,80,45.53C79.71,47.83,79.45,49.67,79.24,51.16Zm0,0c0,.1,0,.2,0,.3s.08,0,.11-.14A30.48,30.48,0,0,0,80,45.53C79.71,47.83,79.45,49.67,79.24,51.16ZM55.55,34l-.34-.57-.56.73-.06.07,0,.06h1.19Zm0,0-.34-.57-.56.73-.06.07,0,.06h1.19Zm0,0-.34-.57-.56.73-.06.07,0,.06h1.19Zm0,0-.34-.57-.56.73-.06.07,0,.06h1.19Zm0,0-.34-.57-.56.73-.06.07,0,.06h1.19ZM53,37.19h0l.1.08v-.13Zm10-3-.06.07h.14A.27.27,0,0,0,63,34.22Zm-10,3h0l.1.08v-.13Zm10-3-.06.07h.14A.27.27,0,0,0,63,34.22Zm-10,3h0l.1.08v-.13Zm10-3-.06.07h.14A.27.27,0,0,0,63,34.22Zm-10,3h0l.1.08v-.13Zm10-3-.06.07h.14A.27.27,0,0,0,63,34.22Zm-10,3h0l.1.08v-.13Zm10-3-.06.07h.14A.27.27,0,0,0,63,34.22Zm-10,3h0l.1.08v-.13Zm10-3-.06.07h.14A.27.27,0,0,0,63,34.22Z"/><path class="cls-2" d="M23.23,78.12l-3.61,1-.6.17-2.08.59-2.11-4.7,1-.78.47-.36,2.21-1.69c.59.78,1.2,1.58,1.85,2.38C21.34,75.93,22.29,77.06,23.23,78.12Z"/><g class="cls-4"><path d="M27.67,76.86l-1.12.32-1.8.51-1.52.43-3.61,1-.6.17a6.59,6.59,0,0,1-1.76-1.62,7.12,7.12,0,0,1-1.4-3.27l.47-.36,2.21-1.69,1.25-1,.49-.37,1.6-1.22c.27.36.55.74.85,1.11l.62.8c.28.37.59.74.89,1.11,1.09,1.35,2.18,2.61,3.25,3.81Z"/></g><path class="cls-5" d="M27.84,76.81l-.17,0-1.12.32-1.8.51-1.52.43-3.61,1a6.56,6.56,0,0,1-1.92-1.71,7,7,0,0,1-1.37-3.37l2.21-1.69,1.25-1,.49-.37,1.6-1.22.16-.12.9,1.19.6.77c.27.36.56.72.85,1.08,1,1.3,2.09,2.52,3.11,3.68a2.92,2.92,0,0,1,.24.27Z"/><path class="cls-5" d="M50,91.11l-.15,1-.16,1.11-.52,3.55h-5l-.66-2.51-.3-1.16-.5-1.9C44.47,90.42,47.56,90.5,50,91.11Z"/><g class="cls-6"><path class="cls-2" d="M50.48,87.6,50.28,89,50.12,90,50,91.11l-.15,1-.16,1.11c-1.77,1.25-4.12,2-6.18,1l-.3-1.16-.5-1.9-.42-1.6-.33-1.27-.29-1.11C43.84,86.24,48,86.57,50.48,87.6Z"/></g><path class="cls-7" d="M50.62,86.66l-.14.94L50.28,89,50.12,90,50,91.11l-.15,1c-1.81,1.33-4.27,2.16-6.41,1.12l-.23-.13-.5-1.9-.42-1.6-.33-1.27-.29-1.11-.24-.89C43.56,85.19,48.1,85.54,50.62,86.66Z"/><g class="cls-8"><path class="cls-5" d="M51.43,81.13l-.24,1.62L51,83.87l-.41,2.79L50.28,89,50.12,90a7.54,7.54,0,0,1-6.64.36,6.09,6.09,0,0,1-1.23-.78l-.33-1.27-.53-2-.54-2.07L40.51,83l-.34-1.26a5.75,5.75,0,0,1,2.1-1,18.14,18.14,0,0,1,7.89.07C50.6,80.9,51,81,51.43,81.13Z"/></g><path class="cls-2" d="M51.57,80.17l-.14,1-.24,1.62L51,83.87l-.41,2.79L50.28,89a7.6,7.6,0,0,1-6.8.44,7,7,0,0,1-1.56-1l-.53-2-.54-2.07L40.51,83l-.34-1.26L40,80.89a5.23,5.23,0,0,1,2.31-1.15,18.14,18.14,0,0,1,7.89.07A14.54,14.54,0,0,1,51.57,80.17Z"/><g class="cls-4"><path d="M52.07,76.73l-.34,2.36-.16,1.08-.38,2.58L51,83.87c-2.4,1.78-5.69,2.92-8.55,1.53a6.86,6.86,0,0,1-1.63-1.12L40.51,83,40,80.89,39.21,78l-.28-1.07C41.21,74.63,48.34,75,52.07,76.73Z"/></g><g class="cls-6"><path class="cls-2" d="M31.9,75.43l-.58.26-3.35,1-.23.06-.06,0-.34.09-.93.27-.36.1-1.5.43-.3.08a6.86,6.86,0,0,1-4.46-6.27l.49-.37L22,69.71l.8-.6.49-.37h0l1.9-1.45q1.23,1.7,2.66,3.47C29.24,72.43,30.59,74,31.9,75.43Z"/></g><path class="cls-5" d="M52.21,75.79l-.14.94-.34,2.36-.16,1.08-.38,2.58c-2.41,1.85-5.79,3.07-8.71,1.65a7.23,7.23,0,0,1-2-1.44L40,80.89,39.21,78l-.28-1.07-.21-.78h0C40.81,73.58,48.41,74,52.21,75.79Z"/><path class="cls-7" d="M54,69.55h-.85l-.1.67-.82,5.57-.48,3.3a13.09,13.09,0,0,1-1.57.72,9.7,9.7,0,0,1-6.7.47,7.46,7.46,0,0,1-1.19-.54,7.89,7.89,0,0,1-3.54-3.59.05.05,0,0,1,0,0h0a4.78,4.78,0,0,1-.31-.85,7.37,7.37,0,0,1-.17-.86.66.66,0,0,0,0-.14,0,0,0,0,0,0,0,.61.61,0,0,1,0-.14,1.5,1.5,0,0,1,0-.22v0c0-.16,0-.34,0-.52a4.66,4.66,0,0,1,.67-2.5,5.05,5.05,0,0,1,2.65-1.89,11.29,11.29,0,0,1,2.08-.52A21.68,21.68,0,0,1,52,68.9l1,.28.57.19C53.65,69.42,53.82,69.49,54,69.55Z"/><g class="cls-6"><path class="cls-2" d="M53,70.22l-.82,5.57-.48,3.3-.16,1.08a12.71,12.71,0,0,1-1.41.64,9.7,9.7,0,0,1-6.7.47,7.46,7.46,0,0,1-1.19-.54,8.58,8.58,0,0,1-1-.65,7.44,7.44,0,0,1-2-2.08l-.49-1.85v-.05h0a4.78,4.78,0,0,1-.31-.85,7.37,7.37,0,0,1-.17-.86.66.66,0,0,0,0-.14,0,0,0,0,0,0,0l0-.13v0a1.27,1.27,0,0,1,0-.19v0a4.41,4.41,0,0,1,.65-2,5.05,5.05,0,0,1,2.65-1.89,11.29,11.29,0,0,1,2.08-.52A21.68,21.68,0,0,1,52,69.9l1,.28Z"/></g><path class="cls-7" d="M32.4,75.43l-.58.26-3.64,1-.34.09-1.29.37-1.8.51-.2-.08a6.89,6.89,0,0,1-4.27-6.56L22,69.71l.8-.6.49-.37h0l1.9-1.45.32-.24c.88,1.21,1.82,2.45,2.84,3.71C29.74,72.43,31.09,74,32.4,75.43Z"/><g class="cls-8"><path class="cls-5" d="M35.32,74.69l-1.2.34h0l-1.88.54-.41.12-3.64,1-.34.09-1.29.37-.14-.1A7.72,7.72,0,0,1,24.3,74.8a9.69,9.69,0,0,1-1.22-3.07c-.06-.29-.11-.56-.14-.83a9.72,9.72,0,0,1-.1-1.79l.49-.37h0l1.9-1.45.32-.24,1.28-1,.78-.59,1-.78,0,0,.3.49c.72,1.19,1.47,2.4,2.27,3.63.54.83,1.08,1.65,1.62,2.43.37.54.75,1.08,1.12,1.6l0,0C34.44,73.49,34.89,74.1,35.32,74.69Z"/></g><path class="cls-2" d="M36.4,74.26l-.81.36-.27.07-1.2.34h0l-1.88.54-.41.12-3.64,1L28,76.64l-.47-.21a7.28,7.28,0,0,1-2.69-2.17,7.48,7.48,0,0,1-1.27-2.59,8.06,8.06,0,0,1-.21-2.93h0l1.9-1.45.32-.24,1.28-1,.78-.59,1-.78c.11.15.22.31.34.46,1,1.31,2,2.66,3.09,4,.56.7,1.13,1.39,1.69,2q.58.69,1.17,1.35l0,0C35.43,73.19,35.92,73.73,36.4,74.26Z"/><g class="cls-4"><path d="M36.4,74.26l-.81.36L34.12,75h0l-1.88.54a9.71,9.71,0,0,1-3.87-4.36,16.63,16.63,0,0,1-1.53-5.14l.78-.59,1-.78q1.59,2.19,3.43,4.49c.56.7,1.13,1.39,1.69,2q.58.69,1.17,1.35l0,0C35.43,73.19,35.92,73.73,36.4,74.26Z"/></g><path class="cls-5" d="M42.4,70.41l-.28.3a16.3,16.3,0,0,1-3.41,2.8h0a5.49,5.49,0,0,1-.52.31L38,74h0l-.39.21-.16-.05h0l-.32.09-1.48.42L34.12,75h0a9,9,0,0,1-5-4.62,15.32,15.32,0,0,1-1.55-4.93l1-.78,1.78-1.36,1-.75,4.53-3.45c.32.6.64,1.2,1,1.8.17.33.35.66.53,1s.31.56.47.84c1.19,2.14,2.39,4.18,3.58,6.14C41.79,69.42,42.09,69.92,42.4,70.41Z"/><g class="cls-6"><path class="cls-2" d="M43.4,69.83l-1.28.88c-1.31.9-2.63,1.79-3.94,2.7l-1,.65,0,0h0V74l0-.13L37,74h0l-.39.21-.16-.05h0l-.18-.06-.27-.11a6.78,6.78,0,0,1-2-1.31l0,0a7.68,7.68,0,0,1-1.17-1.35,10.29,10.29,0,0,1-.83-1.41,14.14,14.14,0,0,1-.69-1.68,17.23,17.23,0,0,1-.82-4.81l1-.75,4.53-3.45,1.21-.92a2.4,2.4,0,0,0,.11.23l.06.12c.14.28.27.55.42.83.44.89.9,1.79,1.37,2.69,1.16,2.24,2.32,4.33,3.46,6.3Q43,69.13,43.4,69.83Z"/></g><path class="cls-7" d="M44.4,69.83c-1.73,1.2-3.48,2.38-5.22,3.58l-1,.67h0l-.05-.19L38,74h0l-.39.21-.16-.05h0l-.16,0-.06,0L37,74h0a6.78,6.78,0,0,1-2-1.31l0,0a7.68,7.68,0,0,1-1.17-1.35,10.29,10.29,0,0,1-.83-1.41,16.47,16.47,0,0,1-1.52-7.24l4.53-3.45,1.21-.92.11-.08.5-.38.12-.09c0,.1.09.2.15.3s.15.32.23.48l.06.12c.14.28.27.55.42.83.44.89.9,1.79,1.37,2.69,1.16,2.24,2.32,4.33,3.46,6.3Q44,69.13,44.4,69.83Z"/><path class="cls-2" d="M52.27,69.82"/><polygon class="cls-5" points="38.13 26.74 38.83 27.46 38.83 29.46 38.13 28.36 38.13 26.74"/><g class="cls-6"><path class="cls-2" d="M53.13,42.37V53a20.37,20.37,0,0,1-7.9,2.65,12.18,12.18,0,0,1-2.07,0,9.46,9.46,0,0,1-2.24-.36s0,0-.06,0a8.64,8.64,0,0,1-2.73-1.25V43.26l1.54,0c2.88-.09,5.91-.24,9.1-.49C50.24,42.63,51.7,42.51,53.13,42.37Z"/></g><path class="cls-5" d="M54.42,54.55l-.37,3.89c-.29.18-.62.38-1,.58A22.31,22.31,0,0,1,50,60.48a18.24,18.24,0,0,1-4.76,1.16,12.18,12.18,0,0,1-2.07,0,9.46,9.46,0,0,1-2.24-.36s0,0-.06,0c.35-1.22.2-1.68,0-1.87-.45-.36-1.19.36-2,0a.53.53,0,0,1-.1-.06c-.06-.11-.12-.23-.17-.34s-.17-.32-.25-.49-.3-.6-.44-.9l.26-.2V49.26l1.54,0c2.88-.09,5.91-.24,9.1-.49,1.47-.1,2.93-.22,4.36-.36v6.18Z"/><g class="cls-6"><path class="cls-2" d="M53.13,42.37V53a20.37,20.37,0,0,1-7.9,2.65,12.18,12.18,0,0,1-2.07,0,9.46,9.46,0,0,1-2.24-.36s0,0-.06,0a8.64,8.64,0,0,1-2.73-1.25V43.26l1.54,0c2.88-.09,5.91-.24,9.1-.49C50.24,42.63,51.7,42.51,53.13,42.37Z"/></g><path class="cls-7" d="M53.13,41.37V52a20.37,20.37,0,0,1-7.9,2.65,12.18,12.18,0,0,1-2.07,0,9.46,9.46,0,0,1-2.24-.36s0,0-.06,0a8.64,8.64,0,0,1-2.73-1.25V42.26l1.54,0c2.88-.09,5.91-.24,9.1-.49C50.24,41.63,51.7,41.51,53.13,41.37Z"/><g class="cls-8"><path class="cls-5" d="M53.13,35.37V46a20.37,20.37,0,0,1-7.9,2.65,12.18,12.18,0,0,1-2.07,0,9.46,9.46,0,0,1-2.24-.36s0,0-.06,0a8.64,8.64,0,0,1-2.73-1.25V36.26l1.54,0c2.88-.09,5.91-.24,9.1-.49C50.24,35.63,51.7,35.51,53.13,35.37Z"/></g><path class="cls-2" d="M53.13,34.37V45a20.37,20.37,0,0,1-7.9,2.65,12.18,12.18,0,0,1-2.07,0,9.46,9.46,0,0,1-2.24-.36s0,0-.06,0a8.64,8.64,0,0,1-2.73-1.25V35.26l1.54,0c2.88-.09,5.91-.24,9.1-.49C50.24,34.63,51.7,34.51,53.13,34.37Z"/><path class="cls-2" d="M55,34.18v.11H54l.62-.06h.09Z"/><g class="cls-4"><path d="M56.26,33.09l-.61.78-.1.13-.24.29H53.13v2.79l-.09.11v0l-3.14,4a20.85,20.85,0,0,1-9.14-2.07A14,14,0,0,1,39,38.05a10.28,10.28,0,0,1-.84-.67V28.59l.15-.22.31-.44L41,24.57l1.8,1.1L45,27l.88.51.29.17c1.45.83,3,1.68,4.52,2.52.84.46,1.68.9,2.51,1.34h0l.65.34a.11.11,0,0,0,.07,0l.62.33h0l.56.28.57.29Z"/></g><path class="cls-5" d="M56.26,32.09l-.56.72,0,.06-.44.55h0l-.56.73-.06.07,0,.06H53.13v1.79L49.89,40.2a20.85,20.85,0,0,1-9.14-2.07A14,14,0,0,1,39,37.05a10.28,10.28,0,0,1-.84-.67V27.59l.15-.22,2.7-3.8,1.8,1.1,2,1.16,1.13.66c1.54.89,3.15,1.79,4.81,2.69l2,1.07.52.27.66.35a.11.11,0,0,0,.07,0l1.18.62C55.51,31.72,55.88,31.91,56.26,32.09Z"/><g class="cls-6"><path class="cls-2" d="M54.08,32.27l-1,.27-2,.55-2.66.73-.86.24L44.15,35a21.24,21.24,0,0,1-5.87-6.63,1.6,1.6,0,0,1-.15-.29V20.29H48.52q1.3,3.06,2.83,6.32c.71,1.54,1.44,3.05,2.17,4.52l.36.73C54,32,54,32.14,54.08,32.27Z"/></g><path class="cls-7" d="M54.08,31.27l-1,.27-2,.55-2.66.73-.86.24L44.15,34a21.24,21.24,0,0,1-5.87-6.63,1.6,1.6,0,0,1-.15-.29V19.29H48.52q1.3,3.06,2.83,6.32c.71,1.54,1.44,3.05,2.17,4.52l.36.73C54,31,54,31.14,54.08,31.27Z"/><g class="cls-8"><path class="cls-5" d="M54.08,31.27l-1,.27-2,.55-2.66.73-.86.24c0-.08-.09-.16-.14-.24a20.1,20.1,0,0,1-2.56-6.33c-.08-.33-.14-.67-.19-1a12.7,12.7,0,0,1-.14-2.07,9.43,9.43,0,0,1,.25-2.25V21.1a9.24,9.24,0,0,1,.6-1.8h3.11q1.3,3.06,2.83,6.32c.71,1.54,1.44,3.05,2.17,4.52l.36.73C54,31,54,31.14,54.08,31.27Z"/></g><path class="cls-2" d="M59.54,34.29H53.13v0l-3.83-.19c-.1-.15-.21-.3-.31-.47s-.36-.54-.54-.85a20.46,20.46,0,0,1-2.27-5.16c-.11-.38-.21-.77-.29-1.17s-.14-.67-.19-1a12.7,12.7,0,0,1-.14-2.07,9.43,9.43,0,0,1,.25-2.25V21.1c.06-.28.14-.55.22-.8a7.2,7.2,0,0,1,.38-1H57.86v.05c.07.9.14,1.82.23,2.75q.27,3,.67,6.32c.16,1.44.35,2.87.55,4.27,0,.23.07.46.1.69S59.49,34,59.54,34.29Z"/><g class="cls-4"><path d="M65.4,34.29H54.73l0-.07,0-.06c-.14-.23-.29-.47-.44-.73h0c-.19-.32-.38-.67-.56-1s-.29-.56-.42-.86a0,0,0,0,1,0,0L53,30.9c-.09-.21-.17-.43-.25-.65A19.17,19.17,0,0,1,52,28c-.11-.48-.21-1-.28-1.48a.88.88,0,0,1,0-.16,11.72,11.72,0,0,1-.12-1.91,9.43,9.43,0,0,1,.25-2.25V22.1A8.75,8.75,0,0,1,53,19.31H63.78c0,.34,0,.69.08,1,.22,2.88.5,5.89.9,9.07C65,31.08,65.16,32.7,65.4,34.29Z"/></g><path class="cls-5" d="M66.4,34.29H55.73L55.55,34l-.34-.57h0c-.21-.37-.43-.76-.64-1.18h0c-.22-.42-.42-.87-.62-1.33a18.37,18.37,0,0,1-1.25-4.42,12.7,12.7,0,0,1-.14-2.07,9.43,9.43,0,0,1,.25-2.25V22.1A8.75,8.75,0,0,1,54,19.31H64.78c0,.34,0,.69.08,1,.21,2.74.47,5.61.85,8.62,0,.15,0,.3,0,.45C66,31.08,66.16,32.7,66.4,34.29Z"/><g class="cls-6"><path class="cls-2" d="M71.33,34.84,71,34.73a4.44,4.44,0,0,0-.62-.19l-.32-.08-.3-.07-.59-.1h-9c-.28-.49-.56-1-.83-1.59a18.68,18.68,0,0,1-1.61-5.22,12.7,12.7,0,0,1-.14-2.07,9.43,9.43,0,0,1,.25-2.25V23.1a7.8,7.8,0,0,1,.28-1A7.9,7.9,0,0,1,59.3,19.8h0a.7.7,0,0,1,.13-.16,4.81,4.81,0,0,1,.56-.06h0l.21-.07-.06-.17H69.7s0,0,0,0c0,.66.09,1.35.15,2,.22,2.88.5,5.89.9,9.07.16,1.38.33,2.75.52,4.08C71.3,34.62,71.31,34.73,71.33,34.84Z"/></g><path class="cls-7" d="M72.33,34.84,72,34.73a4.44,4.44,0,0,0-.62-.19l-.12,0-.2,0-.3-.07-.59-.1h-9a19.36,19.36,0,0,1-2.44-6.81,12.7,12.7,0,0,1-.14-2.07,9.43,9.43,0,0,1,.25-2.25V23.1a8.44,8.44,0,0,1,1.49-3.3h0a.7.7,0,0,1,.13-.16,4.81,4.81,0,0,1,.56-.06h0l.21-.07-.06-.17H70.7s0,0,0,0c0,.66.09,1.35.15,2,.22,2.88.5,5.89.9,9.07C71.93,31.92,72.12,33.4,72.33,34.84Z"/><path class="cls-2" d="M62.84,54.55c-.13,1.29-.24,2.61-.33,3.92-.25,3.19-.4,6.22-.49,9.1,0,.67,0,1.33,0,2H53.13l-1.55-.06-.75,0c-.2-.24.27-.41,0-.81a8.7,8.7,0,0,1-1-2.27v-.06a9.46,9.46,0,0,1-.36-2.24,14.45,14.45,0,0,1,0-2.07A6,6,0,0,1,50,60.48a21.82,21.82,0,0,1,1.92-3.58c.28-.45.59-.93.92-1.44.1,0,.2-.91.3-.91Z"/><g class="cls-8"><path class="cls-5" d="M52.36,56.3,52,68.9l0,1.12v.13a.81.81,0,0,1-.59.76L38.26,74.39h0a.66.66,0,0,0,0-.14,0,0,0,0,0,0,0l0-.13-.05-.19L38,74h0l-.39.21-.16-.05h0l-.32.09a.64.64,0,0,1-.13-.26.67.67,0,0,1,0-.24V59.4a.8.8,0,0,1,.63-.79l.37-.08.35-.08,13.13-3A.81.81,0,0,1,52.36,56.3Z"/></g><path class="cls-9" d="M37.9,58.4V72.7a.81.81,0,0,0,1,.78l13.4-3.57a.81.81,0,0,0,.6-.75l.45-13.86a.81.81,0,0,0-1-.81L38.53,57.61A.81.81,0,0,0,37.9,58.4Z"/><g class="cls-4"><path d="M69.84,54.55c-.13,1.29-.24,2.61-.33,3.92-.25,3.19-.4,6.22-.49,9.1,0,.67,0,1.33,0,2H58.5a8.42,8.42,0,0,1-1.59-3.17v-.06a9.46,9.46,0,0,1-.36-2.24,12.2,12.2,0,0,1,0-2.07A19.92,19.92,0,0,1,59,54.55Z"/></g><path class="cls-5" d="M70.84,54.55c-.13,1.29-.24,2.61-.33,3.92-.25,3.19-.4,6.22-.49,9.1,0,.67,0,1.33,0,2H59.5a8.42,8.42,0,0,1-1.59-3.17v-.06a9.46,9.46,0,0,1-.36-2.24,12.2,12.2,0,0,1,0-2.07A19.92,19.92,0,0,1,60,54.55Z"/><g class="cls-6"><path class="cls-2" d="M75.84,54.55c-.08.83-.16,1.68-.22,2.53,0,0,0,0,0,0,0,.46-.07.91-.1,1.37-.14,1.84-.26,3.63-.33,5.37h0c-.07,1.27-.12,2.51-.16,3.72,0,.57,0,1.12,0,1.67,0,.11,0,.21,0,.31H64.5a8.42,8.42,0,0,1-1.59-3.17v-.06a9.46,9.46,0,0,1-.36-2.24,12.2,12.2,0,0,1,0-2.07A19.92,19.92,0,0,1,65,54.55Z"/></g><path class="cls-7" d="M76.84,54.55c-.08.83-.16,1.68-.22,2.53,0,0,0,0,0,0,0,.46-.07.91-.1,1.37-.14,1.84-.26,3.63-.33,5.37h0c-.07,1.27-.12,2.51-.16,3.72,0,.67,0,1.33,0,2H65.5a8.42,8.42,0,0,1-1.59-3.17v-.06a9.46,9.46,0,0,1-.36-2.24,12.2,12.2,0,0,1,0-2.07A19.92,19.92,0,0,1,66,54.55Z"/><g class="cls-8"><path class="cls-5" d="M86.67,66.27c-1.53,1.1-3.06,2.19-4.61,3.28H74.27a10.19,10.19,0,0,1-1.07-1.28,13.38,13.38,0,0,1-1.08-1.77,19.67,19.67,0,0,1-2-7,3.87,3.87,0,0,1,1.46-3.42l2-1.56h4.71l.08-.29V52.08l.22-.17a2,2,0,0,1,.11.2c0,.07.07.13.1.2a.91.91,0,0,1,.07.14c0,.08.09.16.13.24l.34.65a2.37,2.37,0,0,0,.12.22c.19.39.39.77.6,1.16,0,0,0,.07,0,.1l.59,1.09.29.54.05.09q.45.84.9,1.65,1.52,2.75,3,5.26c.16.28.33.55.49.82l.11.19.23.38C86.09,65.32,86.39,65.8,86.67,66.27Z"/></g><path class="cls-2" d="M87.67,66.27q-2.3,1.65-4.62,3.28H75.27a4.24,4.24,0,0,1-.29-.31,8.69,8.69,0,0,1-.78-1,13.38,13.38,0,0,1-1.08-1.77,19.67,19.67,0,0,1-2-7,3.87,3.87,0,0,1,1.46-3.42l2-1.56h3.71l.08-.29V52.08l.22-.17.22-.17.37-.28c0-.1,0-.2,0-.3l.07.16.41.79c0,.07.07.13.1.2l.2.38.34.65a2.37,2.37,0,0,0,.12.22c.19.39.39.77.6,1.16.3.57.62,1.15.93,1.73l.05.09q.45.84.9,1.65c1.18,2.13,2.35,4.15,3.51,6.08l.11.19.23.38C87.09,65.32,87.39,65.8,87.67,66.27Z"/><g class="cls-4"><path d="M92.39,64v5.54H81.06c-.5-.19-1-.39-1.44-.59a11.09,11.09,0,0,1-2.79-3.5,10.44,10.44,0,0,1-.65-1.61h0a10.78,10.78,0,0,1-.51-3.32c.32-1.13.63-2.29.94-3.42,0,0,0,0,0,0s.07-.25.1-.38l.19-.69.24-.88.15-.55v0h1l.08-.29V52.37c.15.08.3.16.46.23l.17.09.06,0h0l.53.26.72.35.16.08c1,.49,2,1,3.1,1.47l1.57.72h0q2.28,1.06,4.45,2l.14.06.6.25Z"/></g><path class="cls-5" d="M93.39,64v5.54H82.05c-.5-.19-1-.39-1.43-.59a11.09,11.09,0,0,1-2.79-3.5,10.44,10.44,0,0,1-.65-1.61h0a10.78,10.78,0,0,1-.51-3.32c.32-1.13.63-2.29.94-3.42,0,0,0,0,0,0s.07-.25.1-.38l.19-.69.24-.88.15-.55v0l.08-.29.32-1.15.14-.51,0-.15.08-.29,1,.53.06,0h0l.52.26h0l.72.35c1.07.52,2.16,1,3.26,1.55l1.57.72h0q2.28,1.06,4.45,2l.74.31Z"/><g class="cls-6"><path class="cls-2" d="M93.39,54.49V66.31a9.33,9.33,0,0,1-2.93.17l-.06,0A10.31,10.31,0,0,1,88.11,66l-.46-.16a11.7,11.7,0,0,1-1.51-.63,20.83,20.83,0,0,1-6.81-5.51l-.49-.62.15-.54,1.47-5.23.34-1.19.59-2,.27-1,.17.08.65.32.35.17c1.5.73,3.06,1.46,4.64,2.17C89.49,52.83,91.47,53.69,93.39,54.49Z"/></g><path class="cls-7" d="M93.39,53.49V65.31a8.81,8.81,0,0,1-2.85.17l-.06,0A9.77,9.77,0,0,1,88.26,65l-.45-.16a11.2,11.2,0,0,1-1.47-.63,20.38,20.38,0,0,1-6.62-5.51l-.48-.62.15-.54,1.43-5.23.33-1.19.57-2,.26-1,.17.08.63.32.34.17c1.46.73,3,1.46,4.51,2.17C89.6,51.83,91.52,52.69,93.39,53.49Z"/><path class="cls-2" d="M93.39,40.35V57.13a18.92,18.92,0,0,1-2.74.47c-.28,0-.56,0-.86.06A19.06,19.06,0,0,1,82,56.45q-.69-.25-1.29-.54c-.28-.12-.54-.25-.78-.38a15.74,15.74,0,0,1-1.64-1l0,0h.14V41.69c-.06-.24-.12-.47-.2-.7s-.14-.44-.22-.65a10,10,0,0,0-1-1.85,1.88,1.88,0,0,0-.12-.18,8.64,8.64,0,0,0-.72-.88,1.94,1.94,0,0,0-.24-.26,10.28,10.28,0,0,0-.77-.71l-.26-.2a5.72,5.72,0,0,0-.78-.54,4,4,0,0,0-.44-.27,4.66,4.66,0,0,0-.63-.32l-.45-.2-.23-.09L72,34.73a4.44,4.44,0,0,0-.62-.19l-.12,0-.2,0-.3-.07-.59-.1H69.05a19.51,19.51,0,0,1-4.79-15h7.15l.9.11.59.09H73c.39.07.79.15,1.17.24l.74.17a1.57,1.57,0,0,1,.29.08l.83.23.91.29.89.33.88.36.84.38c.56.26,1.11.55,1.64.86.26.15.52.3.77.46l.85.55.76.54.57.44a.25.25,0,0,1,.1.08c.28.21.54.43.8.66a.53.53,0,0,1,.12.1l.55.49c.41.37.8.76,1.18,1.16.22.23.43.45.63.69s.44.51.65.77a24.27,24.27,0,0,1,2.59,3.88c.12.23.25.46.37.7l0,.07c.17.33.33.67.47,1a0,0,0,0,1,0,0l.28.69A.77.77,0,0,1,92,35l.3.8c.1.29.2.58.29.88s.18.6.26.9.16.61.23.91.14.61.19.92.12.62.16.94C93.38,40.32,93.39,40.33,93.39,40.35Z"/></g></g></svg>