<svg xmlns="http://www.w3.org/2000/svg" viewBox="0 0 84.16 82.54"><defs><style>.cls-1{fill:#1e0540;}.cls-2{fill:#f2f2f2;}.cls-3{opacity:0.17;}.cls-4{fill:#ff9c01;}.cls-5{opacity:0.04;}.cls-6{fill:#f7c600;}.cls-7{opacity:0.5;}.cls-8{fill:#1a1a1a;}</style></defs><title>logoPedro</title><g id="Camada_2" data-name="Camada 2"><g id="Camada_2-2" data-name="Camada 2"><path class="cls-1" d="M81.65,23.55c0-.32-.1-.63-.16-.94s-.12-.61-.19-.92-.15-.61-.23-.91-.17-.6-.26-.9-.19-.59-.29-.88l-.3-.8a.77.77,0,0,0-.07-.16l-.28-.69a0,0,0,0,0,0,0c-.14-.35-.3-.69-.47-1l0-.07c-.12-.24-.25-.47-.37-.7a24.27,24.27,0,0,0-2.59-3.88c-.21-.26-.43-.52-.65-.77s-.41-.46-.63-.69c-.38-.4-.77-.79-1.18-1.16l-.55-.49a.53.53,0,0,0-.12-.1c-.26-.23-.52-.45-.8-.66a.25.25,0,0,0-.1-.08l-.57-.44L71,6.74l-.85-.55c-.25-.16-.51-.31-.77-.46-.53-.3-1.08-.59-1.64-.86l-.84-.38-.88-.36-.89-.33-.91-.29-.83-.23a1.57,1.57,0,0,0-.29-.08L62.4,3c-.38-.09-.78-.17-1.17-.24h-.06l-.59-.09-.9-.11H59s0,0,0,0H26.4V40.72l-.26.2L26,41l-.5.38-.11.08-1.21.92-4.53,3.45-1,.75L16.9,47.95l-1,.78-.78.59-1.28,1-.32.24L11.6,52h0l-.49.37-.8.6-.16.12L8.55,54.3l-.49.37-1.25,1L4.6,57.31l-.47.36-1,.78,2.11,4.7,2.08-.59.6-.17,3.61-1L13,60.94l1.8-.51,1.12-.32.17,0,.34-.09,3.64-1,.41-.12,1.88-.54h0l1.47-.41,1.48-.42.32-.09h0l.16.05.39-.21h0l.17,0,.05.19,0,.13a0,0,0,0,1,0,0,.66.66,0,0,1,0,.14,7.37,7.37,0,0,0,.17.86,4.78,4.78,0,0,0,.31.85h0v.05l.49,1.85.75,2.88.21.81.34,1.26.34,1.32.54,2.07.53,2,.33,1.27.42,1.6.5,1.9.3,1.16L32.4,80h5l.52-3.55.16-1.11.15-1,.16-1.07.16-1.08.34-2.3.41-2.79L39.46,66l.24-1.62.14-1L40,62.34l.48-3.3.82-5.57.1-.67H81.66V23.6S81.65,23.57,81.65,23.55ZM58.11,37.8H41.4V17.54H57.46l.59.1.3.07.32.08a4.44,4.44,0,0,1,.62.19l.31.11c0-.11,0-.22,0-.33l.12,0a4.44,4.44,0,0,1,.62.19l.31.11.23.09.45.2a4.66,4.66,0,0,1,.63.32,4,4,0,0,1,.44.27q.41.25.78.54l.26.2a10.28,10.28,0,0,1,.77.71,1.94,1.94,0,0,1,.24.26,8.64,8.64,0,0,1,.72.88,1.88,1.88,0,0,1,.12.18,10,10,0,0,1,1,1.85c.08.21.16.43.22.65s.14.46.2.7v2a3.6,3.6,0,0,1,.39.2.79.79,0,0,1,0-.46V35l-.22.17-.22.17v2.18l-.08.29H58.11Z"/><path class="cls-2" d="M82.36,16.85l.05.13a3.37,3.37,0,0,1,.15.36l.3.79c.13.38.24.7.34,1s.19.65.28,1,.17.66.25,1l0,.12c.07.33.14.65.2,1s.1.5.14.79l.06.17V55.3H43.55l-4,27.24H30.47L24.62,60.25,3.81,66.14,0,57.66,23.9,39.48V0l25.54,0h7.88l0-.05L59,.06h2.5V.29L62,.38l1,.21.72.16a4,4,0,0,1,.47.13l.81.23,1,.31,1,.37,1,.39.92.41c.66.32,1.26.63,1.84,1,.32.18.61.35.89.53l.22.14.68.44.82.58.55.42a2.77,2.77,0,0,1,.31.24c.24.19.47.38.7.58a2.9,2.9,0,0,1,.26.22l.58.52c.38.34.81.77,1.28,1.26.25.26.5.53.74.81s.44.51.67.8a26.78,26.78,0,0,1,2.85,4.27l.14.27.11.21M34.32,77.54h.91l4-27.24H79.16V23.73c0-.22-.07-.43-.12-.65s-.1-.52-.15-.74l0-.1c-.06-.25-.13-.54-.21-.81s-.16-.55-.24-.82-.17-.52-.26-.77l0-.08-.59-1.48c-.11-.28-.24-.54-.37-.81l-.1-.21L76.93,17l-.16-.3a21.77,21.77,0,0,0-2.31-3.46c-.2-.24-.39-.48-.59-.7s-.38-.43-.56-.61c-.34-.36-.69-.71-1-1l-.38-.34h0l-.25-.22c-.19-.17-.38-.33-.58-.49L71,9.8h0l-.31-.24-.34-.26-.74-.52-.5-.32-.24-.15-.66-.39c-.48-.27-1-.54-1.49-.78l-.74-.33-.82-.34-.82-.3-.75-.24-.74-.21-.29-.08-.64-.15L61,5.29l-.45,0-.07.17-1.72-.35-1.6,0H48.44L28.9,5V41.95L6.19,59.24l.41.92,18.59-5.26.31-.19h.36L28.16,54l.57,2.16.25.25v1c0,.17.05.3.07.38l0,.08a2.27,2.27,0,0,0,.15.41l.25.51V59ZM68.48,40.3H38.9V15.12L44,15H56.51l-.11-.62,3.77.92a7.8,7.8,0,0,1,.93.27l.43.15.29.11.48.21a7.16,7.16,0,0,1,.85.43,6.53,6.53,0,0,1,.59.36q.44.28.86.6l.29.22.09.07a12.41,12.41,0,0,1,.92.84,4.52,4.52,0,0,1,.41.44,11,11,0,0,1,.86,1.07l0,0,2.41-5.59V27.23l.89,5-.89-.55v4.56l-.44.33v1.28Zm-24.58-5H64.16V34.17l.44-.38v-5l-.44-.2V25.26l-.06-.2L64,24.89a4.25,4.25,0,0,0-.14-.41,7.47,7.47,0,0,0-.72-1.32L63,22.94a6.4,6.4,0,0,0-.47-.57l-.14-.16c-.23-.22-.42-.41-.62-.57l0,0L58.35,20.3l-.27-.08-.47-.12L57.27,20H43.9ZM63.13,23.07v0Z"/><rect class="cls-2" x="64.1" y="25.21" width="3.5" height="12"/><path class="cls-1" d="M74.61,28.77c-.71.59-1.66,1.43-3.06,2.61l-.84.7a17.3,17.3,0,0,0-1.74-3,2,2,0,0,1-.75-.28c-.26,2.46-.54,4.39-.75,5.93l-.81.62V27a3.6,3.6,0,0,1,.39.2.79.79,0,0,1,0-.46,1.89,1.89,0,0,1,1.4-.82c1.72-.38,4.36,0,4.6.82.16.54-.67,1.27-1.48,1.74C72.56,28.57,73.55,28.67,74.61,28.77Z"/><path class="cls-2" d="M51.29,17.47l-.06.07h.14A.27.27,0,0,0,51.29,17.47Zm-10,3h0l.1.08v-.13Zm10-3-.06.07h.14A.27.27,0,0,0,51.29,17.47Zm-10,3h0l.1.08v-.13Zm10-3-.06.07h.14A.27.27,0,0,0,51.29,17.47Zm-10,3h0l.1.08v-.13Zm10-3-.06.07h.14A.27.27,0,0,0,51.29,17.47Zm-10,3h0l.1.08v-.13Zm10-3-.06.07h.14A.27.27,0,0,0,51.29,17.47Zm-10,3h0l.1.08v-.13Zm10-3-.06.07h.14A.27.27,0,0,0,51.29,17.47Zm-10,3h0l.1.08v-.13Zm10-3-.06.07h.14A.27.27,0,0,0,51.29,17.47Zm-10,3h0l.1.08v-.13Zm2.51-3.19-.34-.57-.56.73-.06.07,0,.06H44Zm0,0-.34-.57-.56.73-.06.07,0,.06H44Zm0,0-.34-.57-.56.73-.06.07,0,.06H44Zm0,0-.34-.57-.56.73-.06.07,0,.06H44Zm0,0-.34-.57-.56.73-.06.07,0,.06H44ZM67.51,34.41c0,.1,0,.2,0,.3s.08,0,.11-.14a30.48,30.48,0,0,0,.64-5.79C68,31.08,67.72,32.92,67.51,34.41Zm0,0c0,.1,0,.2,0,.3s.08,0,.11-.14a30.48,30.48,0,0,0,.64-5.79C68,31.08,67.72,32.92,67.51,34.41ZM43.82,17.25l-.34-.57-.56.73-.06.07,0,.06H44Zm37.83,6.3c0-.32-.1-.63-.16-.94s-.12-.61-.19-.92-.15-.61-.23-.91-.17-.6-.26-.9-.19-.59-.29-.88l-.3-.8a.77.77,0,0,0-.07-.16l-.28-.69a0,0,0,0,0,0,0c-.14-.35-.3-.69-.47-1l0-.07c-.12-.24-.25-.47-.37-.7a24.27,24.27,0,0,0-2.59-3.88c-.21-.26-.43-.52-.65-.77s-.41-.46-.63-.69c-.38-.4-.77-.79-1.18-1.16l-.55-.49a.53.53,0,0,0-.12-.1c-.26-.23-.52-.45-.8-.66a.25.25,0,0,0-.1-.08l-.57-.44L71,6.74l-.85-.55c-.25-.16-.51-.31-.77-.46-.53-.3-1.08-.59-1.64-.86l-.84-.38-.88-.36-.89-.33-.91-.29-.83-.23a1.57,1.57,0,0,0-.29-.08L62.4,3c-.38-.09-.78-.17-1.17-.24h-.06l-.59-.09-.9-.11H26.4V40.72l-.26.2L26,41l-.5.38-.11.08-1.21.92-4.53,3.45-1,.75-1.74,1.33,0,0-1,.78-.78.59-1.28,1-.32.24L11.6,52h0l-.49.37-.8.6-.16.12L8.55,54.3l-.49.37-1.25,1L4.6,57.31l-.47.36-1,.78,2.11,4.7,2.08-.59.6-.17,3.61-1L13,60.94l1.8-.51,1.12-.32.17,0,.34-.09,3.64-1,.41-.12,1.88-.54h0l1.2-.34.27-.07,1.48-.42.32-.09h0l.55-.16h0l.17,0,0,.15v0l0,.13a0,0,0,0,1,0,0l0,.14L27,59.35h0v.05l.21.78.28,1.07.75,2.88.21.81.34,1.26.34,1.32.54,2.07.24.89.29,1.11.33,1.27.42,1.6.5,1.9.3,1.16L32.4,80h5l.52-3.55.16-1.11.15-1,.16-1.07.16-1.08.2-1.36.14-.94.41-2.79L39.46,66l.24-1.62.14-1L40,62.34,40.34,60l.14-.94.82-5.57.1-.67H81.66V23.6S81.65,23.57,81.65,23.55Zm-10.1,7.83-.5.42-.34.28-.29-.6A16,16,0,0,0,69,29.06a2,2,0,0,1-.75-.28c-.24,2.3-.5,4.14-.71,5.63,0,.1,0,.2,0,.3L67.1,35l-.22.17-.22.17V37.8H41.4V17.54H58.46l.59.1.3.07.2,0,.12,0a4.44,4.44,0,0,1,.62.19l.31.11.23.09.45.2a4.66,4.66,0,0,1,.63.32,4,4,0,0,1,.44.27q.41.25.78.54l.26.2a10.28,10.28,0,0,1,.77.71,1.94,1.94,0,0,1,.24.26,8.64,8.64,0,0,1,.72.88,1.88,1.88,0,0,1,.12.18,10,10,0,0,1,1,1.85c.08.21.16.43.22.65s.14.46.2.7v2a3.6,3.6,0,0,1,.39.2.79.79,0,0,1,0-.46,1.89,1.89,0,0,1,1.4-.82c1.72-.38,4.36,0,4.6.82.16.54-.67,1.27-1.48,1.74.94.12,1.93.22,3,.32C73.9,29.36,72.95,30.2,71.55,31.38ZM65.11,37.8c-.08.83-.16,1.68-.22,2.53,0-.13.07-.25.1-.38l.19-.69.24-.88.15-.55v0Zm2.4-3.39c0,.1,0,.2,0,.3s.08,0,.11-.14a30.48,30.48,0,0,0,.64-5.79C68,31.08,67.72,32.92,67.51,34.41Zm0,0c0,.1,0,.2,0,.3s.08,0,.11-.14a30.48,30.48,0,0,0,.64-5.79C68,31.08,67.72,32.92,67.51,34.41Zm0,0c0,.1,0,.2,0,.3s.08,0,.11-.14a30.48,30.48,0,0,0,.64-5.79C68,31.08,67.72,32.92,67.51,34.41ZM43.82,17.25l-.34-.57-.56.73-.06.07,0,.06H44Zm0,0-.34-.57-.56.73-.06.07,0,.06H44Zm0,0-.34-.57-.56.73-.06.07,0,.06H44Zm0,0-.34-.57-.56.73-.06.07,0,.06H44Zm0,0-.34-.57-.56.73-.06.07,0,.06H44Zm-2.51,3.19h0l.1.08v-.13Zm10-3-.06.07h.14A.27.27,0,0,0,51.29,17.47Zm-10,3h0l.1.08v-.13Zm10-3-.06.07h.14A.27.27,0,0,0,51.29,17.47Zm-10,3h0l.1.08v-.13Zm10-3-.06.07h.14A.27.27,0,0,0,51.29,17.47Zm-10,3h0l.1.08v-.13Zm10-3-.06.07h.14A.27.27,0,0,0,51.29,17.47Zm-10,3h0l.1.08v-.13Zm10-3-.06.07h.14A.27.27,0,0,0,51.29,17.47Zm-10,3h0l.1.08v-.13Zm10-3-.06.07h.14A.27.27,0,0,0,51.29,17.47Z"/><path class="cls-1" d="M11.5,61.37l-3.61,1-.6.17-2.08.59L3.1,58.45l1-.78.47-.36,2.21-1.69C7.4,56.4,8,57.2,8.66,58,9.61,59.18,10.56,60.31,11.5,61.37Z"/><g class="cls-3"><path d="M15.94,60.11l-1.12.32-1.8.51-1.52.43-3.61,1-.6.17a6.59,6.59,0,0,1-1.76-1.62,7.12,7.12,0,0,1-1.4-3.27l.47-.36,2.21-1.69,1.25-1,.49-.37,1.6-1.22c.27.36.55.74.85,1.11l.62.8c.28.37.59.74.89,1.11,1.09,1.35,2.18,2.61,3.25,3.81Z"/></g><path class="cls-4" d="M16.11,60.06l-.17,0-1.12.32-1.8.51-1.52.43-3.61,1A6.56,6.56,0,0,1,6,60.68,7,7,0,0,1,4.6,57.31l2.21-1.69,1.25-1,.49-.37,1.6-1.22.16-.12.9,1.19.6.77c.27.36.56.72.85,1.08,1,1.3,2.09,2.52,3.11,3.68a2.92,2.92,0,0,1,.24.27Z"/><path class="cls-4" d="M38.23,74.36l-.15,1-.16,1.11L37.4,80h-5l-.66-2.51-.3-1.16-.5-1.9C32.74,73.67,35.83,73.75,38.23,74.36Z"/><g class="cls-5"><path class="cls-1" d="M38.75,70.85l-.2,1.36-.16,1.08-.16,1.07-.15,1-.16,1.11c-1.77,1.25-4.12,2-6.18,1l-.3-1.16-.5-1.9-.42-1.6-.33-1.27-.29-1.11C32.11,69.49,36.3,69.82,38.75,70.85Z"/></g><path class="cls-6" d="M38.89,69.91l-.14.94-.2,1.36-.16,1.08-.16,1.07-.15,1c-1.81,1.33-4.27,2.16-6.41,1.12l-.23-.13-.5-1.9-.42-1.6-.33-1.27-.29-1.11-.24-.89C31.83,68.44,36.37,68.79,38.89,69.91Z"/><g class="cls-7"><path class="cls-4" d="M39.7,64.38,39.46,66l-.16,1.12-.41,2.79-.34,2.3-.16,1.08a7.54,7.54,0,0,1-6.64.36,6.09,6.09,0,0,1-1.23-.78l-.33-1.27-.53-2-.54-2.07-.34-1.32-.34-1.26a5.75,5.75,0,0,1,2.1-1,18.14,18.14,0,0,1,7.89.07C38.87,64.15,39.29,64.26,39.7,64.38Z"/></g><path class="cls-1" d="M39.84,63.42l-.14,1L39.46,66l-.16,1.12-.41,2.79-.34,2.3a7.6,7.6,0,0,1-6.8.44,7,7,0,0,1-1.56-1l-.53-2-.54-2.07-.34-1.32-.34-1.26-.21-.81A5.23,5.23,0,0,1,30.54,63a18.14,18.14,0,0,1,7.89.07A14.54,14.54,0,0,1,39.84,63.42Z"/><g class="cls-3"><path d="M40.34,60,40,62.34l-.16,1.08L39.46,66l-.16,1.12c-2.4,1.78-5.69,2.92-8.55,1.53a6.86,6.86,0,0,1-1.63-1.12l-.34-1.32-.55-2.07-.75-2.88-.28-1.07C29.48,57.88,36.61,58.29,40.34,60Z"/></g><g class="cls-5"><path class="cls-1" d="M20.17,58.68l-.58.26-3.35,1-.23.06-.06,0-.34.09-.93.27-.36.1-1.5.43-.3.08a6.86,6.86,0,0,1-4.46-6.27l.49-.37L10.31,53l.8-.6L11.6,52h0l1.9-1.45q1.23,1.7,2.66,3.47C17.51,55.68,18.86,57.24,20.17,58.68Z"/></g><path class="cls-4" d="M40.48,59l-.14.94L40,62.34l-.16,1.08L39.46,66c-2.41,1.85-5.79,3.07-8.71,1.65a7.23,7.23,0,0,1-2-1.44l-.55-2.07-.75-2.88-.28-1.07L27,59.41h0C29.08,56.83,36.68,57.25,40.48,59Z"/><path class="cls-6" d="M42.25,52.8H41.4l-.1.67L40.48,59,40,62.34a13.09,13.09,0,0,1-1.57.72,9.7,9.7,0,0,1-6.7.47A7.46,7.46,0,0,1,30.54,63,7.89,7.89,0,0,1,27,59.4a.05.05,0,0,1,0,0h0a4.78,4.78,0,0,1-.31-.85,7.37,7.37,0,0,1-.17-.86.66.66,0,0,0,0-.14,0,0,0,0,0,0,0,.61.61,0,0,1,0-.14,1.5,1.5,0,0,1,0-.22v0c0-.16,0-.34,0-.52A4.66,4.66,0,0,1,27.1,54a5.05,5.05,0,0,1,2.65-1.89,11.29,11.29,0,0,1,2.08-.52,21.68,21.68,0,0,1,8.39.51l1,.28.57.19C41.92,52.67,42.09,52.74,42.25,52.8Z"/><g class="cls-5"><path class="cls-1" d="M41.3,53.47,40.48,59,40,62.34l-.16,1.08a12.71,12.71,0,0,1-1.41.64,9.7,9.7,0,0,1-6.7.47A7.46,7.46,0,0,1,30.54,64a8.58,8.58,0,0,1-1-.65,7.44,7.44,0,0,1-2-2.08L27,59.41v-.05h0a4.78,4.78,0,0,1-.31-.85,7.37,7.37,0,0,1-.17-.86.66.66,0,0,0,0-.14,0,0,0,0,0,0,0l0-.13v0a1.27,1.27,0,0,1,0-.19v0a4.41,4.41,0,0,1,.65-2,5.05,5.05,0,0,1,2.65-1.89,11.29,11.29,0,0,1,2.08-.52,21.68,21.68,0,0,1,8.39.51l1,.28Z"/></g><path class="cls-6" d="M20.67,58.68l-.58.26-3.64,1-.34.09-1.29.37-1.8.51-.2-.08A6.89,6.89,0,0,1,8.55,54.3L10.31,53l.8-.6L11.6,52h0l1.9-1.45.32-.24c.88,1.21,1.82,2.45,2.84,3.71C18,55.68,19.36,57.24,20.67,58.68Z"/><g class="cls-7"><path class="cls-4" d="M23.59,57.94l-1.2.34h0l-1.88.54-.41.12-3.64,1-.34.09-1.29.37-.14-.1A7.72,7.72,0,0,1,12.57,58,9.69,9.69,0,0,1,11.35,55c-.06-.29-.11-.56-.14-.83a9.72,9.72,0,0,1-.1-1.79L11.6,52h0l1.9-1.45.32-.24,1.28-1,.78-.59,1-.78,0,0,.3.49c.72,1.19,1.47,2.4,2.27,3.63.54.83,1.08,1.65,1.62,2.43.37.54.75,1.08,1.12,1.6l0,0C22.71,56.74,23.16,57.35,23.59,57.94Z"/></g><path class="cls-1" d="M24.67,57.51l-.81.36-.27.07-1.2.34h0l-1.88.54-.41.12-3.64,1-.21-.08-.47-.21a7.28,7.28,0,0,1-2.69-2.17,7.48,7.48,0,0,1-1.27-2.59A8.06,8.06,0,0,1,11.6,52h0l1.9-1.45.32-.24,1.28-1,.78-.59,1-.78c.11.15.22.31.34.46,1,1.31,2,2.66,3.09,4,.56.7,1.13,1.39,1.69,2q.58.69,1.17,1.35l0,0C23.7,56.44,24.19,57,24.67,57.51Z"/><g class="cls-3"><path d="M24.67,57.51l-.81.36-1.47.41h0l-1.88.54a9.71,9.71,0,0,1-3.87-4.36,16.63,16.63,0,0,1-1.53-5.14l.78-.59,1-.78q1.59,2.19,3.43,4.49c.56.7,1.13,1.39,1.69,2q.58.69,1.17,1.35l0,0C23.7,56.44,24.19,57,24.67,57.51Z"/></g><path class="cls-4" d="M30.67,53.66l-.28.3A16.3,16.3,0,0,1,27,56.76h0a5.49,5.49,0,0,1-.52.31l-.22.13h0l-.39.21-.16-.05h0l-.32.09-1.48.42-1.47.41h0a9,9,0,0,1-5-4.62,15.32,15.32,0,0,1-1.55-4.93l1-.78,1.78-1.36,1-.75,4.53-3.45c.32.6.64,1.2,1,1.8.17.33.35.66.53,1s.31.56.47.84c1.19,2.14,2.39,4.18,3.58,6.14C30.06,52.67,30.36,53.17,30.67,53.66Z"/><g class="cls-5"><path class="cls-1" d="M31.67,53.08,30.39,54c-1.31.9-2.63,1.79-3.94,2.7l-1,.65,0,0h0v-.06l0-.13-.17,0h0l-.39.21-.16-.05h0l-.18-.06-.27-.11a6.78,6.78,0,0,1-2-1.31l0,0A7.68,7.68,0,0,1,21,54.49a10.29,10.29,0,0,1-.83-1.41,14.14,14.14,0,0,1-.69-1.68,17.23,17.23,0,0,1-.82-4.81l1-.75,4.53-3.45,1.21-.92a2.4,2.4,0,0,0,.11.23l.06.12c.14.28.27.55.42.83.44.89.9,1.79,1.37,2.69,1.16,2.24,2.32,4.33,3.46,6.3Q31.25,52.37,31.67,53.08Z"/></g><path class="cls-6" d="M32.67,53.08c-1.73,1.2-3.48,2.38-5.22,3.58l-1,.67h0l-.05-.19-.17,0h0l-.39.21-.16-.05h0l-.16,0-.06,0-.21-.08h0a6.78,6.78,0,0,1-2-1.31l0,0A7.68,7.68,0,0,1,22,54.49a10.29,10.29,0,0,1-.83-1.41,16.47,16.47,0,0,1-1.52-7.24l4.53-3.45,1.21-.92.11-.08L26,41l.12-.09c0,.1.09.2.15.3s.15.32.23.48l.06.12c.14.28.27.55.42.83.44.89.9,1.79,1.37,2.69,1.16,2.24,2.32,4.33,3.46,6.3Q32.25,52.37,32.67,53.08Z"/><path class="cls-1" d="M40.54,53.07Z"/><polygon class="cls-4" points="26.4 9.98 27.1 10.71 27.1 12.71 26.4 11.61 26.4 9.98"/><g class="cls-5"><path class="cls-1" d="M41.4,25.62V36.24a20.37,20.37,0,0,1-7.9,2.65,12.18,12.18,0,0,1-2.07,0,9.46,9.46,0,0,1-2.24-.36s0,0-.06,0a8.64,8.64,0,0,1-2.73-1.25V26.51l1.54,0c2.88-.09,5.91-.24,9.1-.49C38.51,25.88,40,25.76,41.4,25.62Z"/></g><path class="cls-4" d="M42.69,37.8l-.37,3.89c-.29.18-.62.38-1,.58a22.31,22.31,0,0,1-3.08,1.46,18.24,18.24,0,0,1-4.76,1.16,12.18,12.18,0,0,1-2.07,0,9.46,9.46,0,0,1-2.24-.36s0,0-.06,0c.35-1.22.2-1.68,0-1.87-.45-.36-1.19.36-2,0a.53.53,0,0,1-.1-.06c-.06-.11-.12-.23-.17-.34s-.17-.32-.25-.49-.3-.6-.44-.9l.26-.2V32.51l1.54,0c2.88-.09,5.91-.24,9.1-.49,1.47-.1,2.93-.22,4.36-.36V37.8Z"/><g class="cls-5"><path class="cls-1" d="M41.4,25.62V36.24a20.37,20.37,0,0,1-7.9,2.65,12.18,12.18,0,0,1-2.07,0,9.46,9.46,0,0,1-2.24-.36s0,0-.06,0a8.64,8.64,0,0,1-2.73-1.25V26.51l1.54,0c2.88-.09,5.91-.24,9.1-.49C38.51,25.88,40,25.76,41.4,25.62Z"/></g><path class="cls-6" d="M41.4,24.62V35.24a20.37,20.37,0,0,1-7.9,2.65,12.18,12.18,0,0,1-2.07,0,9.46,9.46,0,0,1-2.24-.36s0,0-.06,0a8.64,8.64,0,0,1-2.73-1.25V25.51l1.54,0c2.88-.09,5.91-.24,9.1-.49C38.51,24.88,40,24.76,41.4,24.62Z"/><g class="cls-7"><path class="cls-4" d="M41.4,18.62V29.24a20.37,20.37,0,0,1-7.9,2.65,12.18,12.18,0,0,1-2.07,0,9.46,9.46,0,0,1-2.24-.36s0,0-.06,0a8.64,8.64,0,0,1-2.73-1.25V19.51l1.54,0c2.88-.09,5.91-.24,9.1-.49C38.51,18.88,40,18.76,41.4,18.62Z"/></g><path class="cls-1" d="M41.4,17.62V28.24a20.37,20.37,0,0,1-7.9,2.65,12.18,12.18,0,0,1-2.07,0,9.46,9.46,0,0,1-2.24-.36s0,0-.06,0a8.64,8.64,0,0,1-2.73-1.25V18.51l1.54,0c2.88-.09,5.91-.24,9.1-.49C38.51,17.88,40,17.76,41.4,17.62Z"/><path class="cls-1" d="M43.29,17.43v.11h-1l.62-.06h.09Z"/><g class="cls-3"><path d="M44.53,16.34l-.61.78-.1.13-.24.29H41.4v2.79l-.09.11v0l-3.14,4A20.85,20.85,0,0,1,29,22.38a14,14,0,0,1-1.78-1.08,10.28,10.28,0,0,1-.84-.67V11.84l.15-.22.31-.44,2.39-3.36L31,8.92l2.23,1.31.88.51.29.17c1.45.83,3,1.68,4.52,2.52.84.46,1.68.9,2.51,1.34h0l.65.34a.11.11,0,0,0,.07,0l.62.33h0l.56.28.57.29Z"/></g><path class="cls-4" d="M44.53,15.34l-.56.72,0,.06-.44.55h0l-.56.73-.06.07,0,.06H41.4v1.79l-3.24,4.12A20.85,20.85,0,0,1,29,21.38a14,14,0,0,1-1.78-1.08,10.28,10.28,0,0,1-.84-.67V10.84l.15-.22,2.7-3.8L31,7.92l2,1.16,1.13.66c1.54.89,3.15,1.79,4.81,2.69l2,1.07.52.27.66.35a.11.11,0,0,0,.07,0l1.18.62C43.78,15,44.15,15.16,44.53,15.34Z"/><g class="cls-5"><path class="cls-1" d="M42.35,15.52l-1,.27-2,.55-2.66.73-.86.24-3.44.94a21.24,21.24,0,0,1-5.87-6.63,1.6,1.6,0,0,1-.15-.29V3.54H36.79q1.3,3.06,2.83,6.32c.71,1.54,1.44,3.05,2.17,4.52l.36.73C42.22,15.26,42.28,15.39,42.35,15.52Z"/></g><path class="cls-6" d="M42.35,14.52l-1,.27-2,.55-2.66.73-.86.24-3.44.94a21.24,21.24,0,0,1-5.87-6.63,1.6,1.6,0,0,1-.15-.29V2.54H36.79q1.3,3.06,2.83,6.32c.71,1.54,1.44,3.05,2.17,4.52l.36.73C42.22,14.26,42.28,14.39,42.35,14.52Z"/><g class="cls-7"><path class="cls-4" d="M42.35,14.52l-1,.27-2,.55-2.66.73-.86.24c0-.08-.09-.16-.14-.24a20.1,20.1,0,0,1-2.56-6.33c-.08-.33-.14-.67-.19-1a12.7,12.7,0,0,1-.14-2.07,9.43,9.43,0,0,1,.25-2.25V4.35a9.24,9.24,0,0,1,.6-1.8h3.11q1.3,3.06,2.83,6.32c.71,1.54,1.44,3.05,2.17,4.52l.36.73C42.22,14.26,42.28,14.39,42.35,14.52Z"/></g><path class="cls-1" d="M47.81,17.54H41.4v0l-3.83-.19c-.1-.15-.21-.3-.31-.47s-.36-.54-.54-.85a20.46,20.46,0,0,1-2.27-5.16c-.11-.38-.21-.77-.29-1.17s-.14-.67-.19-1a12.7,12.7,0,0,1-.14-2.07,9.43,9.43,0,0,1,.25-2.25V4.35c.06-.28.14-.55.22-.8a7.2,7.2,0,0,1,.38-1H46.13v.05c.07.9.14,1.82.23,2.75q.27,3,.67,6.32c.16,1.44.35,2.87.55,4.27,0,.23.07.46.1.69S47.76,17.25,47.81,17.54Z"/><g class="cls-3"><path d="M53.67,17.54H43l0-.07,0-.06c-.14-.23-.29-.47-.44-.73h0c-.19-.32-.38-.67-.56-1s-.29-.56-.42-.86a0,0,0,0,1,0,0l-.27-.61c-.09-.21-.17-.43-.25-.65a19.17,19.17,0,0,1-.72-2.29c-.11-.48-.21-1-.28-1.48a.88.88,0,0,1,0-.16,11.72,11.72,0,0,1-.12-1.91,9.43,9.43,0,0,1,.25-2.25V5.35a8.75,8.75,0,0,1,1.14-2.79H52c0,.34,0,.69.08,1,.22,2.88.5,5.89.9,9.07C53.22,14.33,53.43,15.95,53.67,17.54Z"/></g><path class="cls-4" d="M54.67,17.54H44l-.18-.29-.34-.57h0c-.21-.37-.43-.76-.64-1.18h0c-.22-.42-.42-.87-.62-1.33A18.37,18.37,0,0,1,41,9.73a12.7,12.7,0,0,1-.14-2.07,9.43,9.43,0,0,1,.25-2.25V5.35a8.75,8.75,0,0,1,1.14-2.79H53c0,.34,0,.69.08,1,.21,2.74.47,5.61.85,8.62,0,.15,0,.3,0,.45C54.22,14.33,54.43,15.95,54.67,17.54Z"/><g class="cls-5"><path class="cls-1" d="M59.6,18.09,59.29,18a4.44,4.44,0,0,0-.62-.19l-.32-.08-.3-.07-.59-.1h-9c-.28-.49-.56-1-.83-1.59A18.68,18.68,0,0,1,46,10.73a12.7,12.7,0,0,1-.14-2.07,9.43,9.43,0,0,1,.25-2.25V6.35a7.8,7.8,0,0,1,.28-1A7.9,7.9,0,0,1,47.57,3h0a.7.7,0,0,1,.13-.16,4.81,4.81,0,0,1,.56-.06h0l.21-.07-.06-.17H58s0,0,0,0c0,.66.09,1.35.15,2,.22,2.88.5,5.89.9,9.07.16,1.38.33,2.75.52,4.08C59.57,17.87,59.58,18,59.6,18.09Z"/></g><path class="cls-6" d="M60.6,18.09,60.29,18a4.44,4.44,0,0,0-.62-.19l-.12,0-.2,0-.3-.07-.59-.1h-9A19.36,19.36,0,0,1,47,10.73a12.7,12.7,0,0,1-.14-2.07,9.43,9.43,0,0,1,.25-2.25V6.35A8.44,8.44,0,0,1,48.57,3h0a.7.7,0,0,1,.13-.16,4.81,4.81,0,0,1,.56-.06h0l.21-.07-.06-.17H59s0,0,0,0c0,.66.09,1.35.15,2,.22,2.88.5,5.89.9,9.07C60.2,15.17,60.39,16.65,60.6,18.09Z"/><path class="cls-1" d="M51.11,37.8c-.13,1.29-.24,2.61-.33,3.92-.25,3.19-.4,6.22-.49,9.1,0,.67,0,1.33,0,2H41.4l-1.55-.06-.75,0c-.2-.24.27-.41,0-.81a8.7,8.7,0,0,1-1-2.27v-.06a9.46,9.46,0,0,1-.36-2.24,14.45,14.45,0,0,1,0-2.07,6,6,0,0,1,.39-1.53,21.82,21.82,0,0,1,1.92-3.58c.28-.45.59-.93.92-1.44.1,0,.2-.91.3-.91Z"/><g class="cls-7"><path class="cls-4" d="M40.63,39.55l-.41,12.6,0,1.12v.13a.81.81,0,0,1-.59.76L26.53,57.64h0a.66.66,0,0,0,0-.14,0,0,0,0,0,0,0l0-.13-.05-.19-.17,0h0l-.39.21-.16-.05h0l-.32.09a.64.64,0,0,1-.13-.26.67.67,0,0,1,0-.24V42.65a.8.8,0,0,1,.63-.79l.37-.08.35-.08,13.13-3A.81.81,0,0,1,40.63,39.55Z"/></g><path class="cls-8" d="M26.16,41.65v14.3a.81.81,0,0,0,1,.78l13.4-3.57a.81.81,0,0,0,.6-.75l.45-13.86a.81.81,0,0,0-1-.81L26.79,40.86A.81.81,0,0,0,26.16,41.65Z"/><g class="cls-3"><path d="M58.11,37.8c-.13,1.29-.24,2.61-.33,3.92-.25,3.19-.4,6.22-.49,9.1,0,.67,0,1.33,0,2H46.77a8.42,8.42,0,0,1-1.59-3.17v-.06a9.46,9.46,0,0,1-.36-2.24,12.2,12.2,0,0,1,0-2.07,19.92,19.92,0,0,1,2.41-7.46Z"/></g><path class="cls-4" d="M59.11,37.8c-.13,1.29-.24,2.61-.33,3.92-.25,3.19-.4,6.22-.49,9.1,0,.67,0,1.33,0,2H47.77a8.42,8.42,0,0,1-1.59-3.17v-.06a9.46,9.46,0,0,1-.36-2.24,12.2,12.2,0,0,1,0-2.07,19.92,19.92,0,0,1,2.41-7.46Z"/><g class="cls-5"><path class="cls-1" d="M64.11,37.8c-.08.83-.16,1.68-.22,2.53,0,0,0,0,0,0,0,.46-.07.91-.1,1.37-.14,1.84-.26,3.63-.33,5.37h0c-.07,1.27-.12,2.51-.16,3.72,0,.57,0,1.12,0,1.67,0,.11,0,.21,0,.31H52.77a8.42,8.42,0,0,1-1.59-3.17v-.06a9.46,9.46,0,0,1-.36-2.24,12.2,12.2,0,0,1,0-2.07,19.92,19.92,0,0,1,2.41-7.46Z"/></g><path class="cls-6" d="M65.11,37.8c-.08.83-.16,1.68-.22,2.53,0,0,0,0,0,0,0,.46-.07.91-.1,1.37-.14,1.84-.26,3.63-.33,5.37h0c-.07,1.27-.12,2.51-.16,3.72,0,.67,0,1.33,0,2H53.77a8.42,8.42,0,0,1-1.59-3.17v-.06a9.46,9.46,0,0,1-.36-2.24,12.2,12.2,0,0,1,0-2.07,19.92,19.92,0,0,1,2.41-7.46Z"/><g class="cls-7"><path class="cls-4" d="M74.94,49.52c-1.53,1.1-3.06,2.19-4.61,3.28H62.54a10.19,10.19,0,0,1-1.07-1.28,13.38,13.38,0,0,1-1.08-1.77,19.67,19.67,0,0,1-2-7,3.87,3.87,0,0,1,1.46-3.42l2-1.56h4.71l.08-.29V35.33l.22-.17a2,2,0,0,1,.11.2c0,.07.07.13.1.2a.91.91,0,0,1,.07.14c0,.08.09.16.13.24l.34.65a2.37,2.37,0,0,0,.12.22c.19.39.39.77.6,1.16,0,0,0,.07,0,.1L69,39.16l.29.54.05.09q.45.84.9,1.65,1.52,2.75,3,5.26c.16.28.33.55.49.82l.11.19.23.38C74.36,48.57,74.66,49,74.94,49.52Z"/></g><path class="cls-1" d="M75.94,49.52q-2.3,1.65-4.62,3.28H63.54a4.24,4.24,0,0,1-.29-.31,8.69,8.69,0,0,1-.78-1,13.38,13.38,0,0,1-1.08-1.77,19.67,19.67,0,0,1-2-7,3.87,3.87,0,0,1,1.46-3.42l2-1.56h3.71l.08-.29V35.33l.22-.17L67.1,35l.37-.28c0-.1,0-.2,0-.3l.07.16.41.79c0,.07.07.13.1.2l.2.38.34.65a2.37,2.37,0,0,0,.12.22c.19.39.39.77.6,1.16.3.57.62,1.15.93,1.73l.05.09q.45.84.9,1.65c1.18,2.13,2.35,4.15,3.51,6.08l.11.19.23.38C75.36,48.57,75.66,49,75.94,49.52Z"/><g class="cls-3"><path d="M80.66,47.26V52.8H69.33c-.5-.19-1-.39-1.44-.59a11.09,11.09,0,0,1-2.79-3.5,10.44,10.44,0,0,1-.65-1.61h0a10.78,10.78,0,0,1-.51-3.32c.32-1.13.63-2.29.94-3.42,0,0,0,0,0,0s.07-.25.1-.38l.19-.69.24-.88.15-.55v0h1l.08-.29V35.62c.15.08.3.16.46.23l.17.09.06,0h0l.53.26.72.35.16.08c1,.49,2,1,3.1,1.47l1.57.72h0q2.28,1.06,4.45,2l.14.06.6.25Z"/></g><path class="cls-4" d="M81.66,47.26V52.8H70.32c-.5-.19-1-.39-1.43-.59a11.09,11.09,0,0,1-2.79-3.5,10.44,10.44,0,0,1-.65-1.61h0a10.78,10.78,0,0,1-.51-3.32c.32-1.13.63-2.29.94-3.42,0,0,0,0,0,0s.07-.25.1-.38l.19-.69.24-.88.15-.55v0l.08-.29L67,36.36l.14-.51,0-.15.08-.29,1,.53.06,0h0l.52.26h0l.72.35c1.07.52,2.16,1,3.26,1.55l1.57.72h0q2.28,1.06,4.45,2l.74.31Z"/><g class="cls-5"><path class="cls-1" d="M81.66,37.74V49.56a9.33,9.33,0,0,1-2.93.17l-.06,0a10.31,10.31,0,0,1-2.28-.46l-.46-.16a11.7,11.7,0,0,1-1.51-.63,20.83,20.83,0,0,1-6.81-5.51l-.49-.62.15-.54,1.47-5.23.34-1.19.59-2,.27-1,.17.08.65.32.35.17c1.5.73,3.06,1.46,4.64,2.17C77.76,36.08,79.73,36.94,81.66,37.74Z"/></g><path class="cls-6" d="M81.66,36.74V48.56a8.81,8.81,0,0,1-2.85.17l-.06,0a9.77,9.77,0,0,1-2.22-.46l-.45-.16a11.2,11.2,0,0,1-1.47-.63A20.38,20.38,0,0,1,68,41.95l-.48-.62.15-.54,1.43-5.23.33-1.19.57-2,.26-1,.17.08.63.32.34.17c1.46.73,3,1.46,4.51,2.17C77.87,35.08,79.79,35.94,81.66,36.74Z"/><path class="cls-1" d="M81.66,23.6V40.38a18.92,18.92,0,0,1-2.74.47c-.28,0-.56,0-.86.06a19.06,19.06,0,0,1-7.78-1.21q-.69-.25-1.29-.54c-.28-.12-.54-.25-.78-.38a15.74,15.74,0,0,1-1.64-1l0,0h.14V24.94c-.06-.24-.12-.47-.2-.7s-.14-.44-.22-.65a10,10,0,0,0-1-1.85,1.88,1.88,0,0,0-.12-.18,8.64,8.64,0,0,0-.72-.88,1.94,1.94,0,0,0-.24-.26,10.28,10.28,0,0,0-.77-.71l-.26-.2a5.72,5.72,0,0,0-.78-.54,4,4,0,0,0-.44-.27,4.66,4.66,0,0,0-.63-.32l-.45-.2-.23-.09L60.29,18a4.44,4.44,0,0,0-.62-.19l-.12,0-.2,0-.3-.07-.59-.1H57.32a19.51,19.51,0,0,1-4.79-15h7.15l.9.11.59.09h.06c.39.07.79.15,1.17.24l.74.17a1.57,1.57,0,0,1,.29.08l.83.23.91.29.89.33.88.36.84.38c.56.26,1.11.55,1.64.86.26.15.52.3.77.46l.85.55.76.54.57.44a.25.25,0,0,1,.1.08c.28.21.54.43.8.66a.53.53,0,0,1,.12.1l.55.49c.41.37.8.76,1.18,1.16.22.23.43.45.63.69s.44.51.65.77A24.27,24.27,0,0,1,79,15.55c.12.23.25.46.37.7l0,.07c.17.33.33.67.47,1a0,0,0,0,1,0,0l.28.69a.77.77,0,0,1,.07.16l.3.8c.1.29.2.58.29.88s.18.6.26.9.16.61.23.91.14.61.19.92.12.62.16.94C81.65,23.57,81.66,23.58,81.66,23.6Z"/></g></g></svg>