<svg xmlns="http://www.w3.org/2000/svg" viewBox="0 0 575.35 575.14"><defs><style>.cls-1{fill:#fff;}.cls-2{opacity:0.15;}.cls-3{fill:#95b23a;}.cls-4{fill:#fcce44;}.cls-5{fill:#548dbf;}</style></defs><title>LogoBola</title><g id="Camada_2" data-name="Camada 2"><g id="Camada_1-2" data-name="Camada 1"><polyline class="cls-1" points="473.36 507.05 478.43 502.55 483.92 497.65 473.36 507.05"/><path class="cls-1" d="M7.94,218.29l-.35,1.85c-2.12,10.37-4.78,24.24-6.22,34.73,1.69-11,4.16-25.69,6.56-36.58Z"/><path class="cls-1" d="M443.72,45.61c-1-.62-2-1.25-3-1.8-1.53-1-3.09-1.94-4.65-2.81-.1-.07-.17-.14-.28-.14-2.15-1.28-4.3-2.46-6.48-3.61-.38-.21-.76-.42-1.14-.59q-2.5-1.35-5-2.5-1.51-.78-3-1.46c-2-1-4-1.87-6-2.7-.94-.42-1.87-.83-2.84-1.18-3.12-1.35-6.28-2.57-9.5-3.71-.45-.17-.9-.31-1.35-.49-3.68-1.87-8.56-4.4-12.31-6.1,7.14,2.53,16.61,6,23.54,9.08C430.13,37.25,434.29,39.4,443.72,45.61Z"/><g class="cls-2"><path class="cls-3" d="M245.64,3.09c3.88-.52,9.05-1.25,13-1.63,11.34-1,11.34-1,17.06-1.21C280,.1,285.86,0,290.23,0l4.82.28a281.47,281.47,0,0,0-46.81,5.2A11.29,11.29,0,0,0,245.64,3.09Z"/><path class="cls-3" d="M174.9,27.08c7.91-6.94,8.39-7.35,15.15-10,4.72-1.6,11-3.78,15.78-5.2C218.28,8.43,218.28,8.43,224.52,7c3.74-.8,8.74-1.84,12.52-2.57a6.36,6.36,0,0,0,0,3.33A414.53,414.53,0,0,0,174.9,27.08Z"/><path class="cls-3" d="M106.31,65l10.23-8.46c5.72-4,13.32-9.47,19.28-13.14,15.88-9.36,16.51-9.71,26.63-14.7,5.1-2.32,11.89-5.41,17.06-7.56-11.3,5.83-11.75,6-17.13,11.27C149.38,38.52,127.67,48.79,106.31,65Z"/><path class="cls-4" d="M280.28,63.14c-7.94-16.12-16.89-34.43-29-53.33,40-7.63,54.54-7.14,54.65-7.11,23.09,9.26,35.89,19.18,59.64,46.15A617.81,617.81,0,0,0,280.28,63.14Z"/><path class="cls-4" d="M169.13,35.14C184.22,29.21,207,20.2,238.55,12.67c2.15,5.69,2.25,5.93,20.6,49.59.73,1.8,1.53,3.68,2.36,5.65C240.7,73.8,205.85,83.69,164.28,102c-1.49-11.48-2.39-20.6-2.64-28.36C161.23,58,163.52,47.94,169.13,35.14Z"/><path class="cls-4" d="M314.71,2.53c6.38.14,14.32.31,21.64,1.56l.9.14c16.57,3.29,17.93,3.57,28.5,6.48l1.49.42c25.21,8.63,41,14.7,72,39.25C429.07,48.75,412,46,380.42,47.78,354.52,20.87,340.41,11.13,314.71,2.53Z"/><path class="cls-4" d="M447.55,52.36c-21-15.6-29.34-21.78-56.45-33.11l11.13,4.47c24.45,11.55,25.38,12,47.82,26.35l12.76,9.22C456.74,55.58,455.67,54.93,447.55,52.36Z"/><path class="cls-4" d="M8.36,232.22c2.36-16.4,4.79-33.32,13.9-55.41l4-9c11.62-23,18-35.68,38.21-61.38,10.19-11.55,11-12.48,19.8-20.42-21.91,29.65-28.64,47.51-32.77,86.93C39.43,185,19.28,205.28,8.36,232.22Z"/><path class="cls-4" d="M64.17,161.7c3.43-38.87,9.61-56.17,30.1-84a323.25,323.25,0,0,1,61-36.48c-5.65,10.68-8.91,19.7-10.37,30.72-1.39,10.23-1.18,22.19.14,38.87-19,9.67-50.66,25.9-80.38,50.49Z"/><path class="cls-5" d="M167.71,120.3c18.69-7.87,45.6-19.24,82.63-30.38q8.69-2.6,18.14-5.17C275,101,280.23,114.48,284.67,126.3c10.44,27.84,16.44,46.29,23.82,69.25-22.82,6.83-61,18.27-105.59,38.32C182.59,178.18,175.62,153.83,167.71,120.3Z"/><path class="cls-5" d="M0,293.42c.8-16.12.83-16.75,3.33-26.32,3.09,46.64,10.09,70,34.05,113.46-2.32,12.21-6.21,32.63,4.92,56.31-4.89-8.08-11.2-19-15.47-27.39-4.3-10.26-10.16-23.93-13.45-34.57C5.51,346,5,344.26,2.46,325.64,1.56,316,.35,303.1,0,293.42Z"/><path class="cls-5" d="M7.48,254.67c6-12.83,16-34.36,43.9-60.86,2.25,24.9,5.44,43.66,11.69,63.8,4.75,15.33,11.23,31.49,20.46,51.8C73.08,320.1,56.58,337,45.62,358.8a107.71,107.71,0,0,0-4.44,10C17.43,324.23,10.49,300.79,7.48,254.67Z"/><path class="cls-5" d="M64.41,182.23c14.95-11.79,40-31.52,83.46-52.74C155,164,161.71,188.61,182.52,243.43c-20.53,10.58-54.93,28.23-86,54.37-8.63-19.7-14.88-35.47-19.52-50.24-5.58-17.75-8.88-34.05-11.3-53.92C65.21,190,64.8,186.19,64.41,182.23Z"/><path class="cls-5" d="M288,79.77c19.38-4.4,51.84-11.79,89.53-15.29,26.32,39.53,36.27,62.35,51.11,106.8-11.3,1.46-28.61,3.64-50.87,7.84-14.15,2.67-30.31,6.14-48.23,10.75-7.59-23.68-14-43.76-25.66-72.58C299.48,106.29,294.28,94,288,79.77Z"/><path class="cls-5" d="M446.44,169.56C431.19,124.83,420.85,102,393.18,63.28c49.38-2,62.69,2.43,62.76,2.46,32.56,35.68,45.74,57.35,64,105.38C507.89,169.53,485.42,166.55,446.44,169.56Z"/><path class="cls-5" d="M530.81,173.41c-17.51-44.94-30.1-67.65-65.88-105.59,5.93,2,14,4.68,18.79,9.08l5.58,5.31c18.83,19.8,20.77,21.88,32.28,37.45,15.64,23.58,16.92,25.52,25.21,42.2,3.74,8.5,8.77,19.8,12,28.47C554.53,183.09,550.61,179.27,530.81,173.41Z"/><path class="cls-5" d="M538.47,199.35c9.15,2.77,26.18,7.94,28.5,17.75,11.06,53.09,11.13,81.83.42,133.74-2.12-4.2-5.69-11.2-26.32-16.85C550.12,280.66,549.6,253,538.47,199.35Z"/><path class="cls-5" d="M453.66,195.78c16.68-1,47.71-2.88,73.86,1.35C538.58,251,539.27,278.72,531,331.67c-11.79-1.8-31.49-4.79-66.75-2.46C467.35,276.64,465.17,249.21,453.66,195.78Z"/><path class="cls-5" d="M337.2,215.62c9.4-2.25,21.64-5.2,36-8.15,18-3.71,39.25-7.46,62.59-10,11.86,53.85,14.46,81.21,12.69,133.08a624.66,624.66,0,0,0-84.57,15c-4.37-33.18-8-56.69-17.65-95.25C343.72,240,340.74,228.59,337.2,215.62Z"/><path class="cls-5" d="M184.3,553.56c-3.61-1.11-7.21-2.29-10.75-3.54-3.22-1.14-6.38-2.36-9.5-3.71-.94-.38-1.91-.76-2.84-1.18-2-.83-4-1.73-6-2.7q-1.51-.68-3-1.46-2.5-1.14-5-2.5c-.38-.17-.76-.38-1.14-.59-2.18-1.18-4.37-2.36-6.48-3.61-.1,0-.17-.07-.28-.14-1.56-.87-3.12-1.8-4.65-2.81-1-.55-2-1.18-3-1.8l-.14-.1,0,0c-1.07-.66-2.15-1.35-3.19-2.08-.87-.55-1.7-1.11-2.57-1.7-21.78-16-22.64-16.61-33.67-26.8-6.83-6.8-15.92-16-22.37-23.13-2.46-3.22-5.93-7.42-8.18-10.82,30.24,32.46,49.48,46,93.66,65.85C162,538.23,168,544.71,184.3,553.56Z"/><path class="cls-5" d="M54.53,389.66c1.8-4,4-8.95,7.18-14.67,6.24-11.41,16.16-25.94,33.77-42.72,10.71,18.07,19.73,32.66,30.9,48.2,11.65,16.26,25.69,33.57,46.5,56.94-8.25,8.77-22,23.48-27.77,42.23C102.42,447.43,83.8,428.95,54.53,389.66Z"/><path class="cls-5" d="M108.14,321c15.6-12.31,39.15-30.9,84.33-53,13,30.44,21.6,50.56,54.75,119.7-15.08,7.8-37,19.14-57.25,34.81-2.64,2-5.24,4.13-7.77,6.31-18.52-22.71-31.42-39.67-42.55-56C128.67,356.61,119.37,341,108.14,321Z"/><path class="cls-5" d="M50.9,401c27.95,35.85,46.08,54.34,92.31,86.65-.76,8.08-2,21.6,7.35,36.65-44.87-21.81-64.32-36.06-94.66-69.39C50.83,442.18,44.52,426.33,50.9,401Z"/><path class="cls-5" d="M212.44,258.66c22-9.47,55.34-23.72,103.92-37.45,4.65,16.05,8.43,29.68,11.62,41.89,8.56,32.42,13.11,55,18.62,87.07-5.86,1.73-13,3.85-21.15,6.45a568.77,568.77,0,0,0-62.69,23.72C226.42,293.82,226.42,293.82,212.44,258.66Z"/><path class="cls-3" d="M351.22,568.68c-11.53,2.42-11.53,2.42-17.29,3.35-4.72.69-11,1.54-15.75,2.11h0c8.15-1,21.8-2.78,34.09-7a84.2,84.2,0,0,0,10.82-1.37c-3.55.9-8.28,2.16-11.86,2.95Z"/><path class="cls-3" d="M322.79,552.1c11.1-12.31,20.67-23,30.69-50.83a275.14,275.14,0,0,1,41.92-10.19C380.11,510,361.11,533.69,322.79,552.1Z"/><path class="cls-3" d="M357.78,549.71c49.9-9.26,73.58-19.21,115-48.41.35,3,.8,6.66-6.69,12.55l-11.37,8.56c-20.49,13.25-43.69,28.3-86.79,32.49C367.07,553.56,365.51,551.06,357.78,549.71Z"/><path class="cls-3" d="M368.11,556.4c20.81-2.57,37.31-4.58,65.85-20.6-6.52,3.74-14.39,8.11-20.67,11.17-14.46,6.62-14.74,6.76-22.92,9.88-5.1,1.84-11.93,4.23-17.09,5.93a123.17,123.17,0,0,1-16.23,2.5C361,563.4,367.66,560.25,368.11,556.4Z"/><path class="cls-3" d="M333.33,549.95c48.34-13,73.37-24,117.58-59.75,5.72,1.18,16.4,3.4,20.53,8.67-42.37,30-66.44,40.4-117.13,50.38A89.66,89.66,0,0,0,333.33,549.95Z"/><path class="cls-3" d="M322.79,552.1C315.55,548,306,542.29,299,537.81c1-3.16,2.57-7.94,11.89-15.33C316.62,536.11,318.18,539.76,322.79,552.1Z"/><path class="cls-3" d="M329,550.68c-1.87.42-4.33,1-6.17,1.42,11.65-5.58,24.06-11.55,37.55-20.91s27.95-22.12,43.76-41.33c9.54-.94,24-2.39,40.26-.59C403.72,523.49,380,536.11,329,550.68Z"/><path class="cls-3" d="M345.92,504c-7.8,25.28-10.4,30.65-23.13,48.13a274.58,274.58,0,0,0-7.52-32.84A151.33,151.33,0,0,1,345.92,504Z"/><path class="cls-3" d="M298.8,540.45c7.11,3.64,16.68,8.39,24,11.65l-15.22-2.22C304.24,548.32,299.25,546,298.8,540.45Z"/><path class="cls-4" d="M207,559a20.71,20.71,0,0,0,2.12.42c-.66-.1-1.35-.21-2-.35C207,559.07,207,559.07,207,559Z"/><path class="cls-4" d="M310.84,550.91l12,1.19c-4.92-.07-7.64-.11-12-1.19Z"/><path class="cls-4" d="M317.83,553.52q-12.22,3.38-24.27,5.55C301.29,557.47,309.27,555.6,317.83,553.52Z"/><path class="cls-4" d="M207,559a20.71,20.71,0,0,0,2.12.42c-.66-.1-1.35-.21-2-.35C207,559.07,207,559.07,207,559Z"/><path class="cls-4" d="M165.4,501.34C212.07,526.54,236.87,535.91,286,547c2.74,1.8,7.84,5.17,17.86,6.21-54.09.07-80.83-4-130-19.63C170,527.34,163.6,516.9,165.4,501.34Z"/><path class="cls-4" d="M283.64,544.85c-47.78-13.45-71.81-23.86-116.89-50.7,2.64-7.91,7.07-21.15,23.86-38.28,35.82,34.78,55.31,50.73,90.75,74.24C280.38,533.55,278.72,539.34,283.64,544.85Z"/><path class="cls-4" d="M359.06,482.68c7.73-36.37,10-58.77,7.25-112.07,15.88-3.78,45.46-10.82,79.79-14.32-8.15,51.28-16,75-38,115.57A333.44,333.44,0,0,0,359.06,482.68Z"/><path class="cls-4" d="M348.49,556.33c1.07,1.53,2.7,3.85-2.81,7.56-12.14-4.26-13.38-4.72-22.89-11.79C330.46,553.59,340.72,555.5,348.49,556.33Z"/><path class="cls-4" d="M318.35,572.63c1-5.17,1.49-7.52,4.44-20.53,5.1,4.65,7.73,7.07,10.26,8.81s5,2.77,9.78,4.65C338.4,567.57,332.33,570.34,318.35,572.63Z"/><path class="cls-4" d="M491.83,485.14c35.58-36.13,49.66-57.77,68.48-105.31l-.73,3.16c-2.95,7.49-6.76,17.55-10.06,24.9-13,25.62-18.31,36.2-40,63.53-6.73,7.56-15.85,17.48-23,24.65C490.2,492,492.22,489.82,491.83,485.14Z"/><path class="cls-4" d="M469.68,472.1c34.29-39.43,47.64-62.55,64.84-112.45,23.86,7.63,25.49,14.32,25.42,16.19-19.21,48.23-33.43,70.15-69.18,106.52C488.64,479.84,484.66,475.16,469.68,472.1Z"/><path class="cls-4" d="M418,470.68C442.42,429.77,451.26,406,461,355c15.29-.76,40.88-2,63.8,2.39C508.41,408,495.61,431.36,462.6,470.89A195.06,195.06,0,0,0,418,470.68Z"/><path class="cls-4" d="M198.92,448.05c2.64-2.15,5.62-4.61,9.12-7.35,10.37-8,25.42-18.34,50-30.62,17.65,36.48,26.46,54.86,33.57,70.11,4.26,9.05,7.91,17,12.45,26.94-5.62,3.92-16.05,11.17-20.94,19.38C250.24,500.79,232.14,483.91,198.92,448.05Z"/><path class="cls-4" d="M272.26,403.25c11.17-4.85,27.77-12.1,50.31-19.76,8.36-2.81,17.51-5.69,27.46-8.5,5.06,49.76,5,72.51-.21,110.68-9.19,3.33-24.55,8.88-39.53,17.62-3.47-10.3-6.48-19.07-10.19-29.34C294.24,457.87,286.54,438.14,272.26,403.25Z"/><path class="cls-4" d="M322.79,552.1c-13,7.49-22.23,12.38-31.24,15.71s-17.72,5-29.61,6.17c-10.26-1.18-27.46-3.19-46.43-9.54C254.83,568.4,277.89,565.76,322.79,552.1Z"/><path class="cls-4" d="M308.12,553.49a62.47,62.47,0,0,0,14.67-1.39c-25.52,6.24-30.27,7.42-53.09,10.09,7.87-.66,15.85-1.7,23.86-3.12-26.46,5.37-50.49,7.25-86.93,2.12-2.81-1.21-6.59-2.81-9.36-4.16,3.19.76,6.45,1.46,9.71,2,0,0,.07,0,.1.07.66.14,1.35.24,2,.35A20.71,20.71,0,0,1,207,559c-11.51-5.79-19.24-10.09-28.71-19.94C227.64,552.9,254.34,555.88,308.12,553.49Z"/><path class="cls-4" d="M271,574.71c17.16-2.7,26.63-5.48,51.77-22.61-5.86,13.28-7.46,16.61-11.17,21.5A231.94,231.94,0,0,1,271,574.71Z"/><path class="cls-4" d="M347,555.16c-7.27-.78-17-1.75-24.17-3.06h0l9-.14c4.37.29,11,.74,15.14,3.19Z"/><path class="cls-4" d="M327.75,551.91l-5,.19h0c1.49-.06,3.46-.17,5-.19"/></g><path class="cls-3" d="M329.71,572c-3.88.52-9.05,1.25-13,1.63-11.34,1-11.34,1-17.06,1.21-4.37.14-10.19.24-14.56.24l-4.82-.28a281.47,281.47,0,0,0,46.81-5.2A11.29,11.29,0,0,0,329.71,572Z"/><path class="cls-3" d="M400.45,548.05c-7.91,6.94-8.39,7.35-15.15,10-4.72,1.6-11,3.78-15.78,5.2-12.45,3.47-12.45,3.47-18.69,4.85-3.74.8-8.74,1.84-12.52,2.57a6.36,6.36,0,0,0,0-3.33A414.53,414.53,0,0,0,400.45,548.05Z"/><path class="cls-3" d="M469,510.12l-10.23,8.46c-5.72,4-13.32,9.47-19.28,13.14-15.88,9.36-16.51,9.71-26.63,14.7-5.1,2.32-11.89,5.41-17.06,7.56,11.3-5.83,11.75-6,17.13-11.27C426,536.61,447.68,526.35,469,510.12Z"/><path class="cls-4" d="M295.07,512c7.94,16.12,16.89,34.43,29,53.33-40,7.63-54.54,7.14-54.65,7.11-23.09-9.26-35.89-19.18-59.64-46.15A617.81,617.81,0,0,0,295.07,512Z"/><path class="cls-4" d="M406.21,540a484.67,484.67,0,0,1-69.4,22.53c-2.12-5.69-2.28-5.92-20.63-49.6,12.44,6.6,26.77,6.07,41.34.38a31.63,31.63,0,0,0,4.1-1.74,38.9,38.9,0,0,0,5-2.58c1.14-.61,2.2-1.37,3.26-2,4.17-2.81,7-6.52,11.23-10.32a6.26,6.26,0,0,1,3.41-.53,27.83,27.83,0,0,1,5,.38,88.43,88.43,0,0,0,12.29,3.11c2.81,1,5.46,2,8,3a13.14,13.14,0,0,0-1.37-1.82c1.59.3,3.41.53,5.23.76C414.1,517.13,411.82,527.22,406.21,540Z"/><path class="cls-4" d="M260.64,572.6c-6.38-.14-14.32-.31-21.64-1.56l-.9-.14c-16.57-3.29-17.93-3.57-28.5-6.48L208.1,564c-25.21-8.63-41-14.7-72-39.25,10.16,1.63,27.19,4.33,58.81,2.6C220.83,554.26,234.94,564,260.64,572.6Z"/><path class="cls-4" d="M127.8,522.78c21,15.6,29.34,21.78,56.45,33.11l-11.13-4.47c-24.45-11.55-25.38-12-47.82-26.35l-12.76-9.22C118.61,519.55,119.68,520.21,127.8,522.78Z"/><path class="cls-4" d="M567,342.92c-2.36,16.4-4.79,33.32-13.9,55.41l-4,9c-11.62,23-18,35.68-38.21,61.38-10.19,11.55-11,12.48-19.8,20.42,21.91-29.65,28.64-47.51,32.77-86.93C535.92,390.11,556.07,369.86,567,342.92Z"/><path class="cls-4" d="M511.18,413.45c-3.41,38.83-9.63,56.13-30.11,84a316.14,316.14,0,0,1-61,36.48c5.61-10.62,8.88-19.64,10.32-30.72,3,.3,5,.38,5.08.38,5.69-9.1,11.3-18.13,17.22-25.94.3-1.06.68-2.2,1.82-5.46,2.66-7.89,5.84-16.31,10.24-22.91a7.8,7.8,0,0,1,3.11-3.19c4.48-1.44,8.57-1.67,13-3.94,1.14-.53,2.28-1.14,3.34-1.74a52,52,0,0,0,4.78-3.19c1.29-.91,2.58-1.82,3.72-2.81a72.48,72.48,0,0,0,18-20.55C510.8,413.68,511,413.6,511.18,413.45Z"/><path class="cls-5" d="M343.56,456.23c-4,10.92-10.77,20.63-18.58,29-5.77,1.74-11.76,3.49-18.13,5.16-6.52-16.23-11.76-29.73-16.15-41.49.07-.08.23-.15.3-.23,1.36-.83,2.81-1.74,4.4-5.76a25.46,25.46,0,0,1-4.55-5,27.05,27.05,0,0,1-2.81-5.54,24.38,24.38,0,0,1-1.36-6,27.73,27.73,0,0,1-.15-6.14,39.49,39.49,0,0,1,.83-6c.53-2,1.06-3.79,1.75-5.69a44.66,44.66,0,0,1,2.27-5.08,29.65,29.65,0,0,1,11.53-11.76,30.66,30.66,0,0,1,10.92-3.94C341.43,383.26,352.13,432.26,343.56,456.23Z"/><path class="cls-5" d="M575.35,281.71c-.8,16.12-.83,16.75-3.33,26.32-3.09-46.64-10.09-70-34.05-113.46,2.32-12.21,6.21-32.63-4.92-56.31,4.89,8.08,11.2,19,15.47,27.39,4.3,10.26,10.16,23.93,13.45,34.57,7.87,28.92,8.36,30.65,10.92,49.27C573.79,259.14,575,272,575.35,281.71Z"/><path class="cls-5" d="M567.91,320.46c-6.07,12.82-16,34.36-43.92,60.83-2.27-24.88-5.46-43.61-11.68-63.79,12-10.16,22.07-23.28,26.93-39.67a73.9,73.9,0,0,0,1.9-34.66,71.62,71.62,0,0,0-11.38-26.85,99.67,99.67,0,0,0,4.4-10C557.9,250.91,564.88,274.35,567.91,320.46Z"/><path class="cls-5" d="M509.66,381.52c-14.18,5.08-30,7.81-43.46,3.19-20.48-7.05-44.07-48.54-23.74-72.05a37.49,37.49,0,0,1,9.41-7.89c4.7-2.73,9.86-4.25,14.64-3.56,1.52.3,3,.61,4.63,1.06a27.75,27.75,0,0,1,4.63,2,27.29,27.29,0,0,1,4.32,3,21,21,0,0,1,3.72,4,23.78,23.78,0,0,1,2.81,5.16,28.3,28.3,0,0,1,1.82,7.58,19.56,19.56,0,0,0,2.2,8c1.44-.76,2.88-1.52,4.25-2.35,1.21-.61,2.35-1.37,3.49-2C504,345.34,507.23,361.65,509.66,381.52Z"/><path class="cls-5" d="M287.35,495.36c-19.42,4.4-51.88,11.76-89.5,15.32-26.32-39.59-36.33-62.35-51.12-106.79,11.3-1.52,28.59-3.64,50.82-7.89a76.54,76.54,0,0,0,.23,8.34,74.6,74.6,0,0,0,10,33.37A50.51,50.51,0,0,0,230.47,458c13,5.61,27.31,4.55,41-.23C275.9,468.82,281.06,481.11,287.35,495.36Z"/><path class="cls-5" d="M128.91,405.57c15.26,44.73,25.59,67.51,53.26,106.28-49.38,2-62.69-2.43-62.76-2.46C86.85,473.71,73.67,452,55.39,404,67.46,405.61,89.93,408.59,128.91,405.57Z"/><path class="cls-5" d="M44.54,401.72c17.51,44.94,30.1,67.65,65.88,105.59-5.93-2-14-4.68-18.79-9.08L86,492.92C67.22,473.12,65.28,471,53.77,455.47,38.13,431.89,36.84,430,28.56,413.27c-3.74-8.5-8.77-19.8-12-28.47C20.82,392.05,24.74,395.86,44.54,401.72Z"/><path class="cls-5" d="M36.88,375.79C27.72,373,10.7,367.85,8.37,358-2.69,304.95-2.76,276.2,8,224.29c2.12,4.2,5.69,11.2,26.32,16.85C25.23,294.47,25.75,322.15,36.88,375.79Z"/><path class="cls-5" d="M121.69,379.36C105,380.37,74,382.24,47.84,378c-11.06-53.92-11.75-81.59-3.47-134.54,11.79,1.8,31.49,4.79,66.75,2.46C108,298.5,110.18,325.92,121.69,379.36Z"/><path class="cls-5" d="M229,324.79a95,95,0,0,0-22.15,30.34,125.24,125.24,0,0,0-4.78,12.51c-18,3.72-39.21,7.51-62.57,10-11.83-53.85-14.49-81.16-12.67-133a632.12,632.12,0,0,0,84.57-15.09C215.76,262.74,219.47,286.26,229,324.79Z"/><path class="cls-5" d="M391.05,21.58c3.61,1.11,7.21,2.29,10.75,3.54,3.22,1.14,6.38,2.36,9.5,3.71.94.38,1.91.76,2.84,1.18,2,.83,4,1.73,6,2.7q1.51.68,3,1.46,2.5,1.14,5,2.5c.38.17.76.38,1.14.59,2.18,1.18,4.37,2.36,6.48,3.61.1,0,.17.07.28.14,1.56.87,3.12,1.8,4.65,2.81,1,.55,2,1.18,3,1.8l.14.1,0,0c1.07.66,2.15,1.35,3.19,2.08.87.55,1.7,1.11,2.57,1.7,21.78,16,22.64,16.61,33.67,26.8,6.83,6.8,15.92,16,22.37,23.13,2.46,3.22,5.93,7.42,8.18,10.82-30.24-32.46-49.48-46-93.66-65.85C413.31,36.91,407.35,30.42,391.05,21.58Z"/><path class="cls-5" d="M520.81,185.46c-1.82,4-4,8.95-7.21,14.71a62.5,62.5,0,0,0-23.29-10.39c-13-2.88-26.7-1.21-39.67,4.17-.53.23-1.14.46-1.67.68-11.68-16.23-25.71-33.52-46.49-56.88,8.27-8.8,22-23.51,27.76-42.25C473,127.74,491.53,146.17,520.81,185.46Z"/><path class="cls-5" d="M435.71,202.37A98.87,98.87,0,0,0,411.9,227.7c-2.35,3.56-4.7,7.36-6.83,11.38.46-2.35.84-4.48,1.06-6.45a82.16,82.16,0,0,0,.61-9.33,140.78,140.78,0,0,0-1-16.91,145.46,145.46,0,0,0-3-16.16,105.12,105.12,0,0,0-4.17-13.65,100.35,100.35,0,0,0-6.37-13.2,93.1,93.1,0,0,0-6.9-10.77c2.65-2,5.23-4.1,7.81-6.29C411.67,169.07,424.56,186,435.71,202.37Z"/><path class="cls-5" d="M524.45,174.12c-27.95-35.85-46.08-54.34-92.31-86.65.76-8.08,2-21.6-7.35-36.65,44.87,21.81,64.32,36.06,94.66,69.39C524.52,133,530.83,148.8,524.45,174.12Z"/><path class="cls-5" d="M291.91,305.07a97.64,97.64,0,0,0-11.45-.68A72.87,72.87,0,0,0,247.38,312c-8.57-32.39-13.12-55-18.66-87.07,5.92-1.74,13-3.87,21.16-6.45.08,3.57.23,7.05.61,10.62a150.6,150.6,0,0,0,2.43,15.55,133.1,133.1,0,0,0,4.25,14.41,97,97,0,0,0,5.76,12.74A134.37,134.37,0,0,0,271.12,285a93.46,93.46,0,0,0,9.94,11.68A56.42,56.42,0,0,0,287.2,302,50.65,50.65,0,0,0,291.91,305.07Z"/><path class="cls-3" d="M224.14,6.46C235.67,4,235.67,4,241.42,3.1c4.72-.69,11-1.54,15.75-2.11h0C249,2,235.38,3.79,223.1,8a84.2,84.2,0,0,0-10.82,1.37c3.55-.9,8.28-2.16,11.86-2.95Z"/><path class="cls-3" d="M252.56,23c-11.1,12.31-20.67,23-30.69,50.83a275.14,275.14,0,0,1-41.92,10.19C195.24,65.1,214.24,41.45,252.56,23Z"/><path class="cls-3" d="M217.57,25.43c-49.9,9.26-73.58,19.21-115,48.41-.35-3-.8-6.66,6.69-12.55l11.37-8.56c20.49-13.25,43.69-28.3,86.79-32.49C208.28,21.58,209.84,24.08,217.57,25.43Z"/><path class="cls-3" d="M207.24,18.74c-20.81,2.57-37.31,4.58-65.85,20.6,6.52-3.74,14.39-8.11,20.67-11.17,14.46-6.62,14.74-6.76,22.92-9.88,5.1-1.84,11.93-4.23,17.09-5.93a123.17,123.17,0,0,1,16.23-2.5C214.35,11.73,207.69,14.89,207.24,18.74Z"/><path class="cls-3" d="M242,25.19c-48.34,13-73.37,24-117.58,59.75-5.72-1.18-16.4-3.4-20.53-8.67,42.37-30,66.44-40.4,117.13-50.38A89.66,89.66,0,0,0,242,25.19Z"/><path class="cls-3" d="M252.56,23c7.25,4.09,16.82,9.81,23.82,14.29-1,3.16-2.57,7.94-11.89,15.33C258.73,39,257.17,35.38,252.56,23Z"/><path class="cls-3" d="M246.39,24.46c1.87-.42,4.33-1,6.17-1.42C240.91,28.62,228.49,34.58,215,43.95s-27.95,22.12-43.76,41.33c-9.54.94-24,2.39-40.26.59C171.63,51.64,195.38,39,246.39,24.46Z"/><path class="cls-3" d="M229.43,71.17c7.8-25.28,10.4-30.65,23.13-48.13a274.58,274.58,0,0,0,7.52,32.84A151.33,151.33,0,0,1,229.43,71.17Z"/><path class="cls-3" d="M276.55,34.69c-7.11-3.64-16.68-8.39-24-11.65l15.22,2.22C271.11,26.82,276.1,29.14,276.55,34.69Z"/><path class="cls-4" d="M368.37,16.1a20.71,20.71,0,0,0-2.12-.42c.66.1,1.35.21,2,.35C368.3,16.07,368.34,16.07,368.37,16.1Z"/><path class="cls-4" d="M264.51,24.23l-12-1.19c4.92.07,7.64.11,12,1.19Z"/><path class="cls-4" d="M257.52,21.61q12.22-3.38,24.27-5.55C274.06,17.66,266.08,19.53,257.52,21.61Z"/><path class="cls-4" d="M368.37,16.1a20.71,20.71,0,0,0-2.12-.42c.66.1,1.35.21,2,.35C368.3,16.07,368.34,16.07,368.37,16.1Z"/><path class="cls-4" d="M409.95,73.8c-46.67-25.21-71.47-34.57-120.57-45.67-2.74-1.8-7.84-5.17-17.86-6.21,54.09-.07,80.83,4,130,19.63C405.37,47.79,411.75,58.23,409.95,73.8Z"/><path class="cls-4" d="M291.71,30.28C339.49,43.74,363.52,54.14,408.6,81c-2.64,7.91-7.07,21.15-23.86,38.28C348.92,84.48,329.43,68.53,294,45,295,41.59,296.63,35.8,291.71,30.28Z"/><path class="cls-4" d="M216.29,92.46c-7.73,36.37-10,58.77-7.25,112.07-15.88,3.78-45.46,10.82-79.79,14.32,8.15-51.28,16-75,38-115.57A333.44,333.44,0,0,0,216.29,92.46Z"/><path class="cls-4" d="M226.86,18.81c-1.07-1.53-2.7-3.85,2.81-7.56C241.81,15.51,243.06,16,252.56,23,244.9,21.55,234.63,19.64,226.86,18.81Z"/><path class="cls-4" d="M257,2.51C256,7.68,255.51,10,252.56,23c-5.1-4.65-7.73-7.07-10.26-8.81s-5-2.77-9.78-4.65C237,7.57,243,4.8,257,2.51Z"/><path class="cls-4" d="M83.52,90C47.94,126.13,33.86,147.76,15,195.3l.73-3.16c2.95-7.49,6.76-17.55,10.06-24.9,13-25.62,18.31-36.2,40-63.53,6.73-7.56,15.85-17.48,23-24.65C85.15,83.09,83.14,85.31,83.52,90Z"/><path class="cls-4" d="M105.67,103C71.38,142.46,58,165.59,40.83,215.48,17,207.86,15.34,201.16,15.41,199.29c19.21-48.23,33.43-70.15,69.18-106.52C86.71,95.3,90.69,100,105.67,103Z"/><path class="cls-4" d="M157.37,104.45c-24.45,40.92-33.29,64.7-43.07,115.64-15.29.76-40.88,2-63.8-2.39,16.44-50.59,29.23-73.93,62.24-113.46A195.06,195.06,0,0,0,157.37,104.45Z"/><path class="cls-4" d="M376.4,127.05c-2.58,2.2-5.61,4.63-9.1,7.36a40.71,40.71,0,0,0-3.79-2.5c-5.38-3.34-11.23-6.9-17.22-10.54s-12.44-7.43-19-11c-2.27-1.29-4.63-2.5-7-3.72.23-.68.46-1.37.61-2-.68-.3-1.37-.53-2-.83-4.17-1.59-8.34-3.19-12.52-4.47-2-.68-3.87-1.29-5.76-1.9A32.66,32.66,0,0,0,283.71,95c-4.25-9.1-7.89-17-12.44-27,5.61-3.87,16.08-11.15,20.93-19.34C325.13,74.34,343.18,91.25,376.4,127.05Z"/><path class="cls-4" d="M275.22,101.19c-1.67,4.63-3.34,9.25-4.78,14-.91,2.12-1.74,4.4-2.58,6.67-1.82,4.85-3.49,9.78-5.16,14.79-.23.83-.53,1.67-.76,2.5a14.5,14.5,0,0,1,1.59.68c-.68,3-1.37,5.92-2.12,8.95-2,8.57-3.64,17.07-5.23,25.18C255,180,253.83,186,252.77,191.67c-8.34,2.81-17.52,5.69-27.46,8.49-5.08-49.76-5-72.51.23-110.74,9.18-3.34,24.5-8.87,39.52-17.6C268.54,82.15,271.5,91,275.22,101.19Z"/><path class="cls-4" d="M252.56,23c13-7.49,22.23-12.38,31.24-15.71s17.72-5,29.61-6.17c10.26,1.18,27.46,3.19,46.43,9.54C320.52,6.74,297.46,9.37,252.56,23Z"/><path class="cls-4" d="M267.23,21.65A62.47,62.47,0,0,0,252.56,23c25.52-6.24,30.27-7.42,53.09-10.09-7.87.66-15.85,1.7-23.86,3.12,26.46-5.37,50.49-7.25,86.93-2.12,2.81,1.21,6.59,2.81,9.36,4.16-3.19-.76-6.45-1.46-9.71-2,0,0-.07,0-.1-.07-.66-.14-1.35-.24-2-.35a20.71,20.71,0,0,1,2.12.42c11.51,5.79,19.24,10.09,28.71,19.94C347.71,22.24,321,19.26,267.23,21.65Z"/><path class="cls-4" d="M304.33.43C287.16,3.13,277.7,5.91,252.56,23,258.42,9.76,260,6.43,263.72,1.54A231.94,231.94,0,0,1,304.33.43Z"/><path class="cls-4" d="M228.38,20c7.27.78,17,1.75,24.17,3.06h0l-9,.14c-4.37-.29-11-.74-15.14-3.19Z"/><path class="cls-4" d="M247.6,23.23l5-.19h0c-1.49.06-3.46.17-5,.19"/><polyline class="cls-1" points="269.79 574.62 273.07 574.77 275.02 574.89 269.79 574.62"/><path class="cls-1" d="M573.69,317.78c-3.57,26.63-3.88,28.29-8.53,45.67,2.18-9.74,4.68-22.82,6-32.7C572,326.9,573,322,573.69,317.78Z"/><polyline class="cls-1" points="529.99 132.02 527.25 127.85 525.91 125.83 529.99 132.02"/><path class="cls-1" d="M382.75,15.48c8.38,2.61,19.5,6.32,27.73,9.36-4.44-1.49-10.29-3.71-14.8-5a247.67,247.67,0,0,0-33.07-9.29c6.06,1.39,14.16,3.16,20.13,4.89Z"/></g></g></svg>