<?xml version="1.0" encoding="utf-8"?>
<!-- Generator: Adobe Illustrator 21.0.0, SVG Export Plug-In . SVG Version: 6.00 Build 0)  -->
<svg version="1.1" id="Camada_1" xmlns="http://www.w3.org/2000/svg" xmlns:xlink="http://www.w3.org/1999/xlink" x="0px" y="0px"
	 viewBox="0 0 512 512" style="enable-background:new 0 0 512 512;" xml:space="preserve">
<style type="text/css">
	.st0{fill:#FFFFFF;}
</style>
<title>modoNoturno</title>
<path class="st0" d="M508.5,340c-3.4-2.9-8.2-3.3-12-1c-39.1,24.3-84.2,37.2-130.2,37.4c-60.4,0-119.3-22.8-163.6-67.1
	c-76.8-76.8-89-197.6-29.7-293.8c2.9-4.8,1.4-11.1-3.4-14c-2.8-1.7-6.3-1.9-9.4-0.6c-135,58.8-196.8,216-137.9,351
	c58.8,135,216,196.8,351,137.9c61.8-26.9,111-76.2,137.9-137.9C513,347.7,511.9,342.9,508.5,340z M83.7,362.4
	c-4.8,2.9-11.1,1.3-14-3.5c-3.1-5.3-5.9-10.8-8.5-16.4c-2.4-5.1-0.2-11.2,4.9-13.6c5.1-2.4,11.2-0.2,13.6,4.9c2.4,5,5,10.1,7.8,14.9
	C90,353.5,88.4,359.6,83.7,362.4z M265.5,472.2C198,472.3,134.1,442.2,91.3,390c-3.6-4.3-3-10.8,1.4-14.4c4.3-3.6,10.8-3,14.4,1.4
	c38.9,47.4,97.1,74.9,158.5,74.8l0,0h0c5.6,0,10.2,4.6,10.2,10.2C275.7,467.7,271.1,472.2,265.5,472.2z"/>
</svg>
