<svg xmlns="http://www.w3.org/2000/svg" viewBox="0 0 512 512"><defs><style>.cls-1{fill:#fff;}</style></defs><title>modoNoturno</title><g id="Camada_2" data-name="Camada 2"><g id="Layer_1" data-name="Layer 1"><path class="cls-1" d="M508.48,340a10.2,10.2,0,0,0-12-1,248.08,248.08,0,0,1-130.18,37.37c-60.41,0-119.34-22.81-163.62-67.08-76.77-76.77-89-197.59-29.72-293.8A10.2,10.2,0,0,0,160.17.85a266.67,266.67,0,1,0,351,351A10.2,10.2,0,0,0,508.48,340ZM266.64,491.6C130.86,491.6,20.4,381.14,20.4,245.36A246.32,246.32,0,0,1,139.9,34.2a268.24,268.24,0,0,0-23.39,136.22,252.39,252.39,0,0,0,21.9,81.87A247.69,247.69,0,0,0,259.71,373.58a252.35,252.35,0,0,0,81.87,21.9A268.21,268.21,0,0,0,477.8,372.1,246.32,246.32,0,0,1,266.64,491.6Z"/><path class="cls-1" d="M265.45,451.82A204.73,204.73,0,0,1,107,377a10.2,10.2,0,1,0-15.74,13,225.06,225.06,0,0,0,174.24,82.24,10.2,10.2,0,1,0,0-20.4Z"/><path class="cls-1" d="M87.38,348.73c-2.78-4.84-5.4-9.85-7.77-14.9a10.2,10.2,0,0,0-18.46,8.69c2.61,5.55,5.49,11.06,8.55,16.38a10.2,10.2,0,0,0,17.68-10.17Z"/></g></g></svg>