<?xml version="1.0" encoding="utf-8"?>
<!-- Generator: Adobe Illustrator 21.0.0, SVG Export Plug-In . SVG Version: 6.00 Build 0)  -->
<svg version="1.1" id="Camada_1" xmlns="http://www.w3.org/2000/svg" xmlns:xlink="http://www.w3.org/1999/xlink" x="0px" y="0px"
	 viewBox="0 0 1361.5 792" style="enable-background:new 0 0 1361.5 792;" xml:space="preserve">
<style type="text/css">
	.st0{fill:#FFFFFF;}
	.st1{opacity:0.15;}
	.st2{fill:#95B23A;}
	.st3{fill:#FCCE44;}
	.st4{fill:#548DBF;}
	.st5{fill:#124673;}
</style>
<title>movimentoOnlinePage_1</title>
<g id="Camada_2">
	<polyline class="st0" points="832.9,422.6 836.9,419 841.2,415.2 832.9,422.6 	"/>
	<path class="st0" d="M464.8,194.2l-0.3,1.5c-1.7,8.2-3.8,19.2-4.9,27.5C460.9,214.4,462.9,202.8,464.8,194.2z"/>
	<path class="st0" d="M809.4,57.6c-0.8-0.5-1.6-1-2.4-1.4c-1.2-0.8-2.4-1.5-3.7-2.2c-0.1,0-0.1-0.1-0.2-0.1c-1.7-1-3.4-2-5.1-2.8
		c-0.3-0.2-0.6-0.3-0.9-0.5c-1.3-0.7-2.7-1.4-4-2c-0.8-0.4-1.6-0.8-2.4-1.1c-1.6-0.8-3.2-1.5-4.7-2.1c-0.7-0.3-1.5-0.7-2.3-0.9
		c-2.5-1.1-5-2-7.5-2.9l-1.1-0.4c-2.9-1.5-6.8-3.5-9.7-4.8c5.7,2,13.1,4.7,18.6,7.2C798.7,51,802,52.7,809.4,57.6z"/>
	<g class="st1">
		<path class="st2" d="M652.8,24c3.1-0.4,7.2-1,10.3-1.3c9-0.8,9-0.8,13.5-1c3.5-0.1,8.1-0.2,11.5-0.2l3.8,0.2
			c-12.4,0.3-24.8,1.7-37,4.1C654.3,25.1,653.6,24.5,652.8,24z"/>
		<path class="st2" d="M596.8,43c6.3-5.5,6.6-5.8,12-7.9c3.7-1.3,8.7-3,12.5-4.1c9.8-2.7,9.8-2.7,14.8-3.8c3-0.6,6.9-1.5,9.9-2
			c-0.2,0.9-0.2,1.8,0,2.6C629.2,31.6,612.8,36.6,596.8,43z"/>
		<path class="st2" d="M542.6,73l8.1-6.7c4.5-3.2,10.5-7.5,15.3-10.4c12.5-7.4,13.1-7.7,21.1-11.6c4-1.8,9.4-4.3,13.5-6
			c-8.9,4.6-9.3,4.8-13.5,8.9C576.7,52,559.5,60.2,542.6,73z"/>
		<path class="st3" d="M680.2,71.5c-6.3-12.8-13.4-27.2-22.9-42.2c31.6-6,43.1-5.6,43.2-5.6c18.3,7.3,28.4,15.2,47.2,36.5
			C724.9,62.4,702.4,66.2,680.2,71.5z"/>
		<path class="st3" d="M592.3,49.4c17.8-7.3,36.2-13.2,54.9-17.8c1.7,4.5,1.8,4.7,16.3,39.2c0.6,1.4,1.2,2.9,1.9,4.5
			c-16.5,4.7-44,12.5-76.9,26.9c-1.2-9.1-1.9-16.3-2.1-22.4C586,67.5,587.8,59.5,592.3,49.4z"/>
		<path class="st3" d="M707.4,23.6c5.7,0,11.4,0.4,17.1,1.2l0.7,0.1c13.1,2.6,14.2,2.8,22.5,5.1l1.2,0.3c19.9,6.8,32.4,11.6,56.9,31
			c-8-1.3-21.5-3.4-46.5-2.1C738.9,38.1,727.7,30.4,707.4,23.6z"/>
		<path class="st3" d="M812.5,63c-16.7-12.3-23.2-17.2-44.7-26.2l8.8,3.5c19.3,9.1,20.1,9.5,37.8,20.8l10.1,7.3
			C819.7,65.5,818.9,65,812.5,63z"/>
		<path class="st3" d="M465.1,205.2c1.9-13,3.8-26.4,11-43.8l3.1-7.1c9.2-18.2,14.3-28.2,30.2-48.5c8.1-9.1,8.7-9.9,15.7-16.2
			c-17.3,23.4-22.6,37.6-25.9,68.8C489.7,167.9,473.8,183.9,465.1,205.2z"/>
		<path class="st3" d="M509.3,149.5c2.7-30.8,7.6-44.5,23.8-66.5c15-11.4,31.2-21,48.3-28.8c-4.5,8.5-7,15.6-8.2,24.3
			c-1.1,8.1-0.9,17.6,0.1,30.7c-15,7.7-40.1,20.5-63.6,39.9L509.3,149.5z"/>
		<path class="st4" d="M591.1,116.7c21.3-9.2,43.1-17.3,65.3-24c4.6-1.4,9.4-2.7,14.3-4.1c5.2,12.8,9.3,23.5,12.8,32.8
			c8.3,22,13,36.6,18.8,54.8c-18,5.4-48.3,14.4-83.5,30.3C602.9,162.5,597.4,143.2,591.1,116.7z"/>
		<path class="st4" d="M458.5,253.6c0.6-12.8,0.7-13.3,2.6-20.8c2.4,36.9,8,55.3,26.9,89.7c-1.8,9.6-4.9,25.8,3.9,44.5
			c-3.9-6.4-8.9-15-12.2-21.7c-3.4-8.1-8-18.9-10.6-27.3c-6.2-22.9-6.6-24.2-8.6-39C459.7,271.5,458.8,261.3,458.5,253.6z"/>
		<path class="st4" d="M464.4,223c4.7-10.1,12.6-27.2,34.7-48.1c1.8,19.7,4.3,34.5,9.2,50.5c3.8,12.1,8.9,24.9,16.2,41
			c-8.3,8.5-21.3,21.8-30,39c-1.3,2.6-2.5,5.2-3.5,7.9C472.3,278,466.8,259.5,464.4,223z"/>
		<path class="st4" d="M509.5,165.7c20.3-16.4,42.5-30.4,66-41.7c5.7,27.3,10.9,46.8,27.4,90.1c-16.2,8.4-43.4,22.3-68,43
			c-6.9-15.6-11.9-28.1-15.5-39.7c-4.3-13.9-7.3-28.2-8.9-42.6C510.1,171.8,509.8,168.8,509.5,165.7z"/>
		<path class="st4" d="M686.3,84.7c15.3-3.5,41-9.3,70.8-12.1c20.8,31.3,28.7,49.3,40.4,84.5c-8.9,1.1-22.6,2.9-40.2,6.2
			c-11.2,2.1-24,4.9-38.2,8.5c-6-18.7-11.1-34.6-20.3-57.4C695.3,105.6,691.2,95.9,686.3,84.7z"/>
		<path class="st4" d="M811.6,155.7c-12.1-35.4-20.2-53.4-42.1-84.1c39-1.6,49.5,1.9,49.6,1.9c25.8,28.2,36.2,45.4,50.6,83.3
			C860.2,155.6,842.4,153.3,811.6,155.7z"/>
		<path class="st4" d="M878.3,158.7c-13.8-35.5-23.8-53.5-52.1-83.5c4.7,1.6,11.1,3.7,14.9,7.2l4.4,4.2
			c14.9,15.7,16.4,17.3,25.5,29.6c12.4,18.7,13.4,20.2,19.9,33.4c3,6.7,6.9,15.7,9.5,22.5C897.1,166.4,894,163.4,878.3,158.7z"/>
		<path class="st4" d="M884.4,179.2c7.2,2.2,20.7,6.3,22.5,14c8.8,42,8.8,64.7,0.3,105.8c-1.7-3.3-4.5-8.9-20.8-13.3
			C893.6,243.5,893.2,221.7,884.4,179.2z"/>
		<path class="st4" d="M817.3,176.4c13.2-0.8,37.7-2.3,58.4,1.1c8.8,42.6,9.3,64.5,2.7,106.4c-9.3-1.4-24.9-3.8-52.8-2
			C828.1,240.4,826.4,218.7,817.3,176.4z"/>
		<path class="st4" d="M725.2,192.1c7.4-1.8,17.1-4.1,28.5-6.4c14.2-2.9,31-5.9,49.5-7.9c9.4,42.6,11.4,64.2,10,105.3
			c-22.5,2.4-44.9,6.4-66.9,11.9c-3.5-26.2-6.4-44.8-14-75.3C730.3,211.4,728,202.4,725.2,192.1z"/>
		<path class="st4" d="M604.3,459.4c-2.8-0.9-5.7-1.8-8.5-2.8c-2.5-0.9-5-1.9-7.5-2.9c-0.7-0.3-1.5-0.6-2.3-0.9
			c-1.6-0.7-3.2-1.4-4.7-2.1c-0.8-0.4-1.6-0.7-2.4-1.1c-1.3-0.6-2.7-1.3-4-2c-0.3-0.1-0.6-0.3-0.9-0.5c-1.7-0.9-3.5-1.9-5.1-2.9
			c-0.1,0-0.1,0-0.2-0.1c-1.2-0.7-2.5-1.4-3.7-2.2c-0.8-0.4-1.6-0.9-2.4-1.4l-0.1-0.1l0,0c-0.8-0.5-1.7-1.1-2.5-1.6s-1.3-0.9-2-1.3
			c-17.2-12.6-17.9-13.1-26.6-21.2c-5.4-5.4-12.6-12.6-17.7-18.3c-2-2.5-4.7-5.9-6.5-8.6c23.9,25.7,39.1,36.4,74.1,52.1
			C586.7,447.3,591.4,452.4,604.3,459.4z"/>
		<path class="st4" d="M501.6,329.8c1.4-3.2,3.2-7.1,5.7-11.6c4.9-9,12.8-20.5,26.7-33.8c8.5,14.3,15.6,25.8,24.4,38.1
			c9.2,12.9,20.3,26.5,36.8,45c-6.5,6.9-17.4,18.6-22,33.4C539.5,375.4,524.8,360.8,501.6,329.8z"/>
		<path class="st4" d="M544,275.4c12.3-9.7,31-24.4,66.7-41.9c10.3,24.1,17.1,40,43.3,94.7c-11.9,6.2-29.3,15.1-45.3,27.5
			c-2.1,1.6-4.1,3.3-6.1,5c-14.6-18-24.8-31.4-33.7-44.3C560.3,303.6,552.9,291.3,544,275.4z"/>
		<path class="st4" d="M498.8,338.7c22.1,28.4,36.5,43,73,68.5c-0.6,6.4-1.6,17.1,5.8,29c-35.5-17.3-50.9-28.5-74.9-54.9
			C498.7,371.3,493.7,358.8,498.8,338.7z"/>
		<path class="st4" d="M626.5,226.1c26.7-11.8,54.1-21.7,82.2-29.6c3.7,12.7,6.7,23.5,9.2,33.1c6.8,25.6,10.4,43.5,14.7,68.9
			c-4.6,1.4-10.3,3-16.7,5.1c-16.9,5.3-33.4,11.5-49.6,18.8C637.6,254,637.6,254,626.5,226.1z"/>
		<path class="st2" d="M736.3,471.3c-9.1,1.9-9.1,1.9-13.7,2.6c-3.7,0.5-8.7,1.2-12.5,1.7l0,0c6.5-0.8,17.2-2.2,27-5.6
			c2.9-0.2,5.7-0.5,8.6-1.1C742.9,469.7,739.2,470.7,736.3,471.3L736.3,471.3z"/>
		<path class="st2" d="M713.8,458.2c8.8-9.7,16.3-18.1,24.3-40.2c10.8-3.5,21.9-6.2,33.2-8C759.1,425,744.1,443.7,713.8,458.2z"/>
		<path class="st2" d="M741.5,456.3c39.5-7.3,58.2-15.2,91-38.3c0.3,2.4,0.6,5.3-5.3,9.9l-9,6.8c-16.2,10.5-34.5,22.4-68.6,25.7
			C748.8,459.4,747.6,457.4,741.5,456.3z"/>
		<path class="st2" d="M749.6,461.6c16.5-2,29.5-3.6,52.1-16.3c-5.2,3-11.4,6.4-16.3,8.8c-11.4,5.2-11.7,5.4-18.1,7.8
			c-4,1.5-9.4,3.4-13.5,4.7c-4.2,1-8.5,1.6-12.8,2C744,467.2,749.3,464.7,749.6,461.6z"/>
		<path class="st2" d="M722.1,456.5c38.2-10.3,58-19,93-47.3c4.5,0.9,13,2.7,16.2,6.9c-33.5,23.8-52.5,32-92.6,39.9
			C733.2,455.5,727.6,455.7,722.1,456.5z"/>
		<path class="st2" d="M713.8,458.2c-5.7-3.2-13.3-7.8-18.8-11.3c0.8-2.5,2-6.3,9.4-12.1C708.9,445.6,710.1,448.5,713.8,458.2z"/>
		<path class="st2" d="M718.7,457.1c-1.5,0.3-3.4,0.8-4.9,1.1c9.2-4.4,19-9.1,29.7-16.5s22.1-17.5,34.6-32.7
			c7.5-0.7,19-1.9,31.8-0.5C777.8,435.6,759,445.6,718.7,457.1z"/>
		<path class="st2" d="M732.1,420.1c-6.2,20-8.2,24.2-18.3,38.1c-1.5-8.8-3.5-17.5-6-26C715.4,427.3,723.6,423.2,732.1,420.1z"/>
		<path class="st2" d="M694.8,449c5.6,2.9,13.2,6.6,19,9.2l-12-1.8C699.1,455.2,695.2,453.4,694.8,449z"/>
		<path class="st3" d="M622.2,463.7c0.6,0.1,1.1,0.2,1.7,0.3C623.3,464,622.8,463.9,622.2,463.7L622.2,463.7z"/>
		<path class="st3" d="M704.3,457.3l9.5,0.9C710.6,458.3,707.4,458,704.3,457.3z"/>
		<path class="st3" d="M709.9,459.3c-6.4,1.8-12.8,3.2-19.2,4.4C696.8,462.5,703.1,461,709.9,459.3z"/>
		<path class="st3" d="M622.2,463.7c0.6,0.1,1.1,0.2,1.7,0.3C623.3,464,622.8,463.9,622.2,463.7L622.2,463.7z"/>
		<path class="st3" d="M589.3,418.1c36.9,19.9,56.5,27.3,95.3,36.1c2.2,1.4,6.2,4.1,14.1,4.9c-42.8,0-63.9-3.1-102.8-15.5
			C592.9,438.6,587.9,430.4,589.3,418.1z"/>
		<path class="st3" d="M682.8,452.5c-37.8-10.6-56.8-18.9-92.5-40.1c2.1-6.3,5.6-16.7,18.9-30.3c28.3,27.5,43.8,40.1,71.8,58.7
			C680.3,443.5,678.9,448.1,682.8,452.5z"/>
		<path class="st3" d="M742.5,403.3c6.1-28.8,7.9-46.5,5.7-88.6c12.6-3,36-8.6,63.1-11.3c-6.4,40.6-12.6,59.3-30.1,91.4
			C768.1,396.6,755.2,399.5,742.5,403.3z"/>
		<path class="st3" d="M734.1,461.6c0.8,1.2,2.1,3-2.2,6c-9.6-3.4-10.6-3.7-18.1-9.3C719.8,459.4,728,460.9,734.1,461.6z"/>
		<path class="st3" d="M710.3,474.5c0.8-4.1,1.2-6,3.5-16.2c2.6,2.5,5.3,4.8,8.1,7c2.4,1.5,5,2.7,7.7,3.7
			C726.1,470.5,721.3,472.6,710.3,474.5z"/>
		<path class="st3" d="M847.5,405.3c28.1-28.6,39.3-45.7,54.2-83.3l-0.6,2.5c-2.3,5.9-5.3,13.9-8,19.7
			c-10.3,20.3-14.5,28.6-31.6,50.2c-5.3,6-12.5,13.8-18.2,19.5C846.2,410.7,847.8,409,847.5,405.3z"/>
		<path class="st3" d="M830,395c27.1-31.2,37.7-49.5,51.3-88.9c18.9,6,20.2,11.3,20.1,12.8c-15.2,38.1-26.5,55.4-54.8,84.2
			C845,401.1,841.8,397.4,830,395z"/>
		<path class="st3" d="M789.1,393.8c19.3-32.4,26.3-51.2,34.1-91.5c12.1-0.6,32.3-1.6,50.5,1.9c-13,40-23.1,58.5-49.2,89.7
			C812.6,392.6,800.8,392.5,789.1,393.8z"/>
		<path class="st3" d="M615.8,375.9c2.1-1.7,4.4-3.6,7.2-5.8c8.2-6.3,20.1-14.5,39.5-24.2c14,28.9,20.9,43.4,26.5,55.5
			c3.4,7.2,6.3,13.4,9.8,21.3c-4.4,3.1-12.7,8.8-16.6,15.3C656.4,417.6,642.1,404.3,615.8,375.9z"/>
		<path class="st3" d="M673.8,340.5c8.8-3.8,22-9.6,39.8-15.6c6.6-2.2,13.8-4.5,21.7-6.7c4,39.4,4,57.3-0.2,87.5
			c-7.3,2.6-19.4,7-31.3,13.9c-2.7-8.1-5.1-15.1-8.1-23.2C691.2,383.7,685.1,368.1,673.8,340.5z"/>
		<path class="st3" d="M713.8,458.2c-10.3,5.9-17.6,9.8-24.7,12.4s-14,4-23.4,4.9c-8.1-0.9-21.7-2.5-36.7-7.5
			C660,471.1,678.3,469,713.8,458.2z"/>
		<path class="st3" d="M702.2,459.3c3.9,0.1,7.8-0.3,11.6-1.1c-20.2,4.9-23.9,5.9-42,8c6.2-0.5,12.5-1.3,18.9-2.5
			c-20.9,4.3-39.9,5.7-68.8,1.7c-2.2-1-5.2-2.2-7.4-3.3c2.5,0.6,5.1,1.1,7.7,1.6l0.1,0c0.5,0.1,1.1,0.2,1.6,0.3
			c-0.6-0.1-1.1-0.2-1.7-0.3c-9.1-4.6-15.2-8-22.7-15.8C638.5,458.9,659.7,461.2,702.2,459.3z"/>
		<path class="st3" d="M672.8,476.1c13.6-2.1,21.1-4.3,40.9-17.9c-4.6,10.5-5.9,13.1-8.8,17C694.3,476.5,683.6,476.7,672.8,476.1z"
			/>
		<path class="st3" d="M732.9,460.6c-5.8-0.6-13.4-1.4-19.1-2.4l0,0l7.1-0.1C724.4,458.3,729.6,458.7,732.9,460.6L732.9,460.6z"/>
		<path class="st3" d="M717.7,458.1l-3.9,0.1l0,0C715,458.2,716.5,458.1,717.7,458.1"/>
	</g>
	<path class="st2" d="M719.3,474c-3.1,0.4-7.2,1-10.3,1.3c-9,0.8-9,0.8-13.5,1c-3.5,0.1-8.1,0.2-11.5,0.2l-3.8-0.2
		c12.4-0.3,24.8-1.7,37-4.1C717.8,472.9,718.5,473.5,719.3,474z"/>
	<path class="st2" d="M775.2,455c-6.3,5.5-6.6,5.8-12,7.9c-3.7,1.3-8.7,3-12.5,4.1c-9.8,2.7-9.8,2.7-14.8,3.8c-3,0.6-6.9,1.5-9.9,2
		c0.2-0.9,0.2-1.8,0-2.6C742.8,466.4,759.2,461.4,775.2,455z"/>
	<path class="st2" d="M829.5,425l-8.1,6.7c-4.5,3.2-10.5,7.5-15.3,10.4c-12.6,7.4-13,7.7-21.1,11.6c-4,1.8-9.4,4.3-13.5,6
		c8.9-4.6,9.3-4.8,13.5-8.9C795.4,446,812.6,437.9,829.5,425z"/>
	<path class="st3" d="M691.9,426.5c6.3,12.8,13.4,27.2,22.9,42.2c-31.6,6-43.1,5.6-43.2,5.6c-18.3-7.3-28.4-15.2-47.2-36.5
		C647.1,435.6,669.7,431.8,691.9,426.5z"/>
	<path class="st3" d="M779.8,448.6c-17.8,7.3-36.2,13.3-54.9,17.8c-1.7-4.5-1.8-4.7-16.3-39.2c9.8,5.2,21.2,4.8,32.7,0.3
		c1.1-0.4,2.2-0.8,3.2-1.4c1.4-0.6,2.7-1.2,4-2c0.9-0.5,1.7-1.1,2.6-1.6c3.3-2.2,5.5-5.2,8.9-8.2c0.8-0.4,1.8-0.5,2.7-0.4
		c1.3,0,2.7,0.1,4,0.3c3.2,1.1,6.4,1.9,9.7,2.5c2.2,0.8,4.3,1.6,6.4,2.4c-0.3-0.5-0.7-1-1.1-1.4c1.3,0.2,2.7,0.4,4.1,0.6
		C786,430.6,784.2,438.5,779.8,448.6z"/>
	<path class="st3" d="M664.6,474.4c-5.7,0-11.4-0.4-17.1-1.2l-0.7-0.1c-13.1-2.6-14.2-2.8-22.5-5.1l-1.2-0.3
		c-19.9-6.8-32.4-11.6-56.9-31c8,1.3,21.5,3.4,46.5,2.1C633.2,459.9,644.3,467.6,664.6,474.4z"/>
	<path class="st3" d="M559.6,435c16.7,12.3,23.2,17.2,44.7,26.2l-8.8-3.5c-19.3-9.1-20.1-9.5-37.8-20.8l-10.1-7.3
		C552.3,432.5,553.2,433,559.6,435z"/>
	<path class="st3" d="M906.9,292.8c-1.9,13-3.8,26.4-11,43.8l-3.1,7.1c-9.2,18.2-14.3,28.2-30.2,48.5c-8.1,9.1-8.7,9.9-15.7,16.1
		c17.3-23.5,22.7-37.6,25.9-68.8C882.3,330.1,898.3,314.1,906.9,292.8z"/>
	<path class="st3" d="M862.8,348.6c-2.7,30.7-7.6,44.4-23.8,66.4c-14.9,11.4-31.1,21.1-48.2,28.9c4.4-8.4,7-15.5,8.2-24.3
		c2.4,0.2,4,0.3,4,0.3c4.5-7.2,8.9-14.3,13.6-20.5c0.2-0.8,0.5-1.7,1.4-4.3c2.1-6.2,4.6-12.9,8.1-18.1c0.6-1.1,1.4-1.9,2.5-2.5
		c3.5-1.1,6.8-1.3,10.3-3.1c0.9-0.4,1.8-0.9,2.6-1.4c1.3-0.8,2.6-1.6,3.8-2.5c1-0.7,2-1.4,2.9-2.2c5.7-4.5,10.6-10,14.2-16.3
		C862.5,348.7,862.7,348.7,862.8,348.6z"/>
	<path class="st4" d="M730.2,382.4c-3.3,8.5-8.3,16.3-14.7,22.9c-4.6,1.4-9.3,2.8-14.3,4.1c-5.2-12.8-9.3-23.5-12.8-32.8
		c0.1-0.1,0.2-0.1,0.2-0.2c1.1-0.7,2.2-1.4,3.5-4.6c-1.4-1.2-2.6-2.5-3.6-4c-0.9-1.4-1.7-2.8-2.2-4.4c-0.6-1.5-0.9-3.1-1.1-4.7
		c-0.2-1.6-0.3-3.2-0.1-4.9c0.1-1.6,0.3-3.2,0.7-4.7c0.4-1.6,0.8-3,1.4-4.5c0.5-1.4,1.1-2.7,1.8-4c2.1-3.9,5.3-7.1,9.1-9.3
		c2.7-1.6,5.6-2.6,8.6-3.1C728.5,324.7,737,363.4,730.2,382.4z"/>
	<path class="st4" d="M913.5,244.4c-0.6,12.8-0.7,13.3-2.6,20.8c-2.4-36.9-8-55.3-26.9-89.7c1.8-9.6,4.9-25.8-3.9-44.5
		c3.9,6.4,8.9,15,12.2,21.7c3.4,8.1,8,18.9,10.6,27.3c6.2,22.9,6.6,24.2,8.6,39C912.3,226.5,913.3,236.7,913.5,244.4z"/>
	<path class="st4" d="M907.7,275c-4.8,10.1-12.7,27.2-34.7,48.1c-1.8-19.7-4.3-34.5-9.2-50.5c9.5-8,17.5-18.4,21.3-31.4
		c2.7-8.9,3.2-18.3,1.5-27.4c-1.5-7.6-4.6-14.8-9-21.2c1.3-2.6,2.5-5.2,3.5-7.9C899.7,220,905.3,238.5,907.7,275z"/>
	<path class="st4" d="M861.6,323.3c-11.2,4-23.7,6.2-34.4,2.5c-16.2-5.6-34.8-38.4-18.8-57c2.1-2.5,4.6-4.6,7.4-6.2
		c3.7-2.2,7.8-3.4,11.6-2.8c1.2,0.2,2.4,0.5,3.7,0.8c1.3,0.4,2.5,1,3.7,1.6c1.2,0.7,2.4,1.5,3.4,2.3c1.1,0.9,2.1,2,2.9,3.2
		c0.9,1.3,1.7,2.6,2.2,4.1c0.8,1.9,1.2,3.9,1.4,6c0.1,2.2,0.7,4.3,1.7,6.3c1.1-0.6,2.3-1.2,3.4-1.9c1-0.5,1.9-1.1,2.8-1.6
		C857,294.5,860,308.8,861.6,323.3z"/>
	<path class="st4" d="M685.8,413.4c-15.3,3.5-41,9.3-70.8,12.1c-20.8-31.3-28.7-49.3-40.4-84.5c8.9-1.2,22.6-2.9,40.2-6.2
		c-0.1,2.2,0,4.4,0.2,6.6c0.5,9.3,3.2,18.3,7.9,26.4c4.2,7.1,10.4,12.7,17.9,16.1c10.3,4.4,21.6,3.6,32.5-0.2
		C676.7,392.4,680.8,402.1,685.8,413.4z"/>
	<path class="st4" d="M560.5,342.3c12.1,35.4,20.2,53.4,42.1,84.1c-39,1.6-49.6-1.9-49.6-2c-25.8-28.2-36.2-45.4-50.6-83.3
		C511.9,342.4,529.6,344.7,560.5,342.3z"/>
	<path class="st4" d="M493.7,339.3c13.9,35.5,23.8,53.5,52.1,83.5c-4.7-1.6-11.1-3.7-14.9-7.2l-4.4-4.2
		c-14.9-15.7-16.4-17.3-25.5-29.6c-12.4-18.6-13.4-20.2-19.9-33.4c-3-6.7-6.9-15.7-9.5-22.5C475,331.6,478.1,334.7,493.7,339.3z"/>
	<path class="st4" d="M487.7,318.8c-7.2-2.2-20.7-6.3-22.5-14c-8.8-42-8.8-64.7-0.3-105.8c1.7,3.3,4.5,8.9,20.8,13.3
		C478.5,254.5,478.9,276.4,487.7,318.8z"/>
	<path class="st4" d="M554.8,321.6c-13.2,0.8-37.7,2.3-58.4-1.1c-8.8-42.6-9.3-64.5-2.7-106.4c9.3,1.4,24.9,3.8,52.8,1.9
		C543.9,257.6,545.6,279.3,554.8,321.6z"/>
	<path class="st4" d="M639.6,278.4c-7.4,6.8-13.3,14.9-17.5,24c-1.4,3.2-2.7,6.5-3.8,9.9c-14.2,2.9-31,5.9-49.5,7.9
		c-9.4-42.6-11.5-64.2-10-105.2c22.5-2.5,44.9-6.4,66.9-11.9C629.1,229.4,632.1,248,639.6,278.4z"/>
	<path class="st4" d="M767.8,38.6c2.8,0.9,5.7,1.8,8.5,2.8c2.5,0.9,5,1.9,7.5,2.9c0.7,0.3,1.5,0.6,2.3,0.9c1.6,0.7,3.2,1.4,4.7,2.1
		c0.8,0.4,1.6,0.7,2.4,1.2c1.3,0.6,2.7,1.3,4,2c0.3,0.1,0.6,0.3,0.9,0.5c1.7,0.9,3.5,1.9,5.1,2.8c0.1,0,0.1,0,0.2,0.1
		c1.2,0.7,2.5,1.4,3.7,2.2c0.8,0.4,1.6,0.9,2.4,1.4l0.1,0.1l0,0c0.8,0.5,1.7,1.1,2.5,1.7s1.3,0.9,2,1.3
		c17.2,12.6,17.9,13.1,26.6,21.2c5.4,5.4,12.6,12.6,17.7,18.3c2,2.6,4.7,5.9,6.5,8.6c-23.9-25.7-39.1-36.4-74-52.1
		C785.4,50.8,780.7,45.6,767.8,38.6z"/>
	<path class="st4" d="M870.4,168.2c-1.4,3.2-3.2,7.1-5.7,11.6c-5.5-4-11.8-6.8-18.4-8.2c-10.3-2.3-21.1-1-31.4,3.3l-1.3,0.5
		c-9.2-12.8-20.3-26.5-36.8-45c6.5-7,17.4-18.6,22-33.4C832.5,122.6,847.2,137.2,870.4,168.2z"/>
	<path class="st4" d="M803.1,181.6c-7.4,5.5-13.8,12.3-18.8,20c-1.9,2.8-3.7,5.8-5.4,9c0.4-1.9,0.7-3.5,0.8-5.1
		c0.3-2.4,0.5-4.9,0.5-7.4c0-4.5-0.3-8.9-0.8-13.4c-0.5-4.3-1.3-8.6-2.3-12.8c-0.9-3.7-2-7.3-3.3-10.8c-1.4-3.6-3.1-7.1-5-10.4
		c-1.6-3-3.4-5.8-5.5-8.5c2.1-1.6,4.1-3.2,6.2-5C784.1,155.3,794.3,168.7,803.1,181.6z"/>
	<path class="st4" d="M873.3,159.3c-22.1-28.4-36.5-43-73-68.5c0.6-6.4,1.6-17.1-5.8-29c35.5,17.3,50.9,28.5,74.9,54.9
		C873.3,126.7,878.3,139.3,873.3,159.3z"/>
	<path class="st4" d="M689.4,262.9c-3-0.4-6-0.5-9.1-0.5c-9.1-0.1-18,2-26.2,6.1c-6.8-25.6-10.4-43.5-14.8-68.9
		c4.7-1.4,10.3-3.1,16.7-5.1c0.1,2.8,0.2,5.6,0.5,8.4c0.4,4.1,1.1,8.2,1.9,12.3c0.9,3.9,2,7.7,3.4,11.4c1.3,3.5,2.8,6.8,4.6,10.1
		c2,3.6,4.1,7,6.5,10.4c2.4,3.3,5,6.4,7.9,9.2c1.5,1.5,3.1,3,4.9,4.3C686.8,261.3,688.1,262.1,689.4,262.9z"/>
	<path class="st2" d="M635.8,26.7c9.1-1.9,9.1-1.9,13.7-2.6c3.7-0.5,8.7-1.2,12.5-1.7l0,0c-6.5,0.8-17.2,2.2-27,5.6
		c-2.9,0.2-5.7,0.5-8.5,1.1C629.2,28.3,632.9,27.3,635.8,26.7L635.8,26.7z"/>
	<path class="st2" d="M658.3,39.8C649.5,49.5,641.9,58,634,80c-10.8,3.6-21.9,6.2-33.2,8.1C612.9,73.1,627.9,54.4,658.3,39.8z"/>
	<path class="st2" d="M630.6,41.7c-39.5,7.3-58.2,15.2-91,38.3c-0.3-2.4-0.6-5.3,5.3-9.9l9-6.8c16.2-10.5,34.5-22.4,68.6-25.7
		C623.2,38.6,624.5,40.6,630.6,41.7z"/>
	<path class="st2" d="M622.4,36.4c-16.5,2-29.5,3.6-52.1,16.3c5.2-3,11.4-6.4,16.3-8.8c11.4-5.2,11.7-5.3,18.1-7.8
		c4-1.5,9.4-3.3,13.5-4.7c4.2-1,8.5-1.6,12.8-2C628,30.9,622.8,33.3,622.4,36.4z"/>
	<path class="st2" d="M649.9,41.5c-38.2,10.3-58,19-93,47.3c-4.5-0.9-13-2.7-16.2-6.9c33.5-23.8,52.5-32,92.6-39.9
		C638.9,42.5,644.4,42.3,649.9,41.5z"/>
	<path class="st2" d="M658.3,39.8c5.7,3.2,13.3,7.8,18.8,11.3c-0.8,2.5-2,6.3-9.4,12.1C663.1,52.4,661.9,49.6,658.3,39.8z"/>
	<path class="st2" d="M653.4,40.9c1.5-0.3,3.4-0.8,4.9-1.1c-9.2,4.4-19,9.1-29.7,16.5S606.4,73.8,593.9,89c-7.5,0.7-19,1.9-31.8,0.5
		C594.2,62.4,613,52.4,653.4,40.9z"/>
	<path class="st2" d="M640,77.9c6.2-20,8.2-24.2,18.3-38.1c1.5,8.8,3.5,17.5,6,26C656.7,70.7,648.5,74.8,640,77.9z"/>
	<path class="st2" d="M677.2,49c-5.6-2.9-13.2-6.6-19-9.2l12,1.8C672.9,42.8,676.9,44.6,677.2,49z"/>
	<path class="st3" d="M749.8,34.3c-0.6-0.1-1.1-0.2-1.7-0.3C748.7,34.1,749.2,34.1,749.8,34.3L749.8,34.3z"/>
	<path class="st3" d="M667.7,40.7l-9.5-0.9C661.4,39.7,664.6,40,667.7,40.7z"/>
	<path class="st3" d="M662.2,38.7c6.4-1.8,12.8-3.2,19.2-4.4C675.3,35.5,668.9,37,662.2,38.7z"/>
	<path class="st3" d="M749.8,34.3c-0.6-0.1-1.1-0.2-1.7-0.3C748.7,34.1,749.2,34.1,749.8,34.3L749.8,34.3z"/>
	<path class="st3" d="M782.7,79.9c-36.9-19.9-56.5-27.3-95.3-36.1c-2.2-1.4-6.2-4.1-14.1-4.9c42.8-0.1,63.9,3.1,102.8,15.5
		C779.1,59.4,784.2,67.6,782.7,79.9z"/>
	<path class="st3" d="M689.2,45.5C727,56.2,746,64.4,781.7,85.6c-2.1,6.3-5.6,16.7-18.9,30.3C734.5,88.4,719,75.8,691,57.2
		C691.8,54.5,693.1,49.9,689.2,45.5z"/>
	<path class="st3" d="M629.6,94.7c-6.1,28.8-7.9,46.5-5.7,88.6c-12.6,3-36,8.6-63.1,11.3c6.4-40.6,12.6-59.3,30.1-91.4
		C603.9,101.4,616.9,98.5,629.6,94.7z"/>
	<path class="st3" d="M637.9,36.4c-0.8-1.2-2.1-3,2.2-6c9.6,3.4,10.6,3.7,18.1,9.3C652.2,38.6,644.1,37.1,637.9,36.4z"/>
	<path class="st3" d="M661.8,23.6c-0.8,4.1-1.2,6-3.5,16.2c-2.6-2.5-5.3-4.8-8.1-7c-2.4-1.5-5-2.7-7.7-3.7
		C645.9,27.6,650.7,25.4,661.8,23.6z"/>
	<path class="st3" d="M524.5,92.7c-28.1,28.6-39.3,45.7-54.2,83.3l0.6-2.5c2.3-5.9,5.4-13.9,8-19.7c10.3-20.3,14.5-28.6,31.6-50.2
		c5.3-6,12.5-13.8,18.2-19.5C525.8,87.3,524.3,89,524.5,92.7z"/>
	<path class="st3" d="M542.1,103.1c-27.1,31.2-37.7,49.5-51.3,88.9c-18.9-6-20.2-11.3-20.1-12.8c15.2-38.1,26.4-55.5,54.7-84.3
		C527.1,96.9,530.2,100.6,542.1,103.1z"/>
	<path class="st3" d="M583,104.2c-19.3,32.4-26.3,51.2-34.1,91.5c-12.1,0.6-32.3,1.6-50.5-1.9c13-40,23.1-58.5,49.2-89.7
		C559.4,105.4,571.3,105.5,583,104.2z"/>
	<path class="st3" d="M756.2,122.1c-2,1.7-4.4,3.7-7.2,5.8c-1-0.7-2-1.4-3-2c-4.3-2.6-8.9-5.5-13.6-8.3s-9.8-5.9-15.1-8.7
		c-1.8-1-3.7-2-5.5-2.9c0.2-0.5,0.4-1.1,0.5-1.6c-0.5-0.2-1.1-0.4-1.6-0.7c-3.3-1.3-6.6-2.5-9.9-3.5c-1.6-0.5-3.1-1-4.6-1.5
		c-4.2-1.8-8.8-2.5-13.4-2c-3.4-7.2-6.2-13.4-9.8-21.3c4.4-3.1,12.7-8.8,16.6-15.3C715.6,80.4,729.9,93.7,756.2,122.1z"/>
	<path class="st3" d="M676.2,101.6c-1.3,3.7-2.6,7.3-3.8,11c-0.7,1.7-1.4,3.5-2,5.3c-1.4,3.8-2.8,7.7-4.1,11.7
		c-0.2,0.7-0.4,1.3-0.6,2c0.4,0.2,0.9,0.3,1.3,0.5c-0.5,2.3-1.1,4.7-1.7,7.1c-1.6,6.8-2.9,13.5-4.1,19.9c-1,4.8-1.9,9.5-2.7,14
		c-6.6,2.2-13.9,4.5-21.7,6.7c-4-39.3-4-57.3,0.2-87.6c7.3-2.6,19.4-7,31.3-13.9C670.9,86.5,673.2,93.5,676.2,101.6z"/>
	<path class="st3" d="M658.3,39.8c10.3-5.9,17.6-9.8,24.8-12.4s14-4,23.4-4.9c8.1,0.9,21.7,2.5,36.7,7.5
		C712,26.9,693.8,29,658.3,39.8z"/>
	<path class="st3" d="M669.8,38.7c-3.9-0.1-7.8,0.3-11.6,1.1c20.2-4.9,23.9-5.9,42-8c-6.2,0.5-12.5,1.3-18.9,2.5
		c20.9-4.3,39.9-5.7,68.8-1.7c2.2,1,5.2,2.2,7.4,3.3c-2.5-0.6-5.1-1.2-7.7-1.6l-0.1,0c-0.5-0.1-1.1-0.2-1.6-0.3
		c0.6,0.1,1.1,0.2,1.7,0.3c9.1,4.6,15.2,8,22.7,15.8C733.5,39.2,712.4,36.8,669.8,38.7z"/>
	<path class="st3" d="M699.2,21.9c-13.6,2.1-21.1,4.3-40.9,17.9c4.6-10.5,5.9-13.1,8.8-17C677.7,21.6,688.5,21.3,699.2,21.9z"/>
	<path class="st3" d="M639.1,37.4c5.8,0.6,13.4,1.4,19.1,2.4l0,0l-7.1,0.1C647.6,39.7,642.4,39.3,639.1,37.4L639.1,37.4z"/>
	<path class="st3" d="M654.3,39.9l3.9-0.2l0,0C657.1,39.8,655.5,39.9,654.3,39.9"/>
	<polyline class="st0" points="671.9,476 674.5,476.1 676,476.2 671.9,476 	"/>
	<path class="st0" d="M912.2,272.9c-2.8,21.1-3.1,22.4-6.8,36.1c1.7-7.7,3.7-18,4.7-25.9C910.8,280.1,911.7,276.3,912.2,272.9z"/>
	<polyline class="st0" points="877.7,126 875.5,122.7 874.4,121.1 877.7,126 	"/>
	<path class="st0" d="M761.2,33.8c6.6,2.1,15.4,5,21.9,7.4c-3.5-1.2-8.1-2.9-11.7-3.9c-8.5-3-17.3-5.5-26.2-7.3
		C750.1,31.1,756.5,32.5,761.2,33.8L761.2,33.8z"/>
	<path class="st5" d="M217.3,609.1c-0.5-11.3-1.4-26.7-1.1-39.4h-0.5c-2.1,12.7-5.3,27.4-7.6,36.6l-10.3,42.6h-16.4l-9.9-41.9
		c-2.3-9.5-5.5-24.4-7.2-37.3h-0.5c-0.4,12.9-1.1,27.9-1.8,39.8l-1.9,41.3h-20l8.7-119.1h24.4l9.5,43.1c3.4,15,6.4,28.3,8.5,41.7
		h0.4c1.8-13.3,4.4-26.7,7.6-41.7l9.4-43.1h24.4l7.2,119.1h-20.6L217.3,609.1z"/>
	<path class="st5" d="M318,607.3c0,36-20,44.9-33,44.9c-20.7,0-33-16.3-33-44.3c0-31.1,16.3-44.9,33.4-44.9
		C305.6,563,318,580.1,318,607.3z M274.9,607.3c0,14.8,2.3,27.2,10.6,27.2c7.4,0,9.4-14.5,9.4-27.2c0-11.8-1.9-26.9-9.7-26.9
		C276.7,580.4,274.9,595.5,274.9,607.3z"/>
	<path class="st5" d="M346.8,564.4l6.5,38.5c1.2,7.8,2.5,15.5,3.7,24.2h0.4c1.1-8.8,2.1-16.1,3.4-24.2l6.7-38.5h22.8l-23.1,86.4
		h-21.4l-23.5-86.4H346.8z"/>
	<path class="st5" d="M422.4,541.4c0.2,7.4-5.1,12.5-12.2,12.5c-6.4,0-11.7-5.1-11.5-12.5c-0.2-7.8,5.5-12.5,11.8-12.5
		C417.3,528.8,422.4,533.6,422.4,541.4z M399.3,650.8v-86.4h23.1v86.4H399.3z"/>
	<path class="st5" d="M438.7,590.3c0-9.5-0.5-17.8-0.7-26h20.1l1.1,10.1h0.4c4.4-6.5,11.7-11.5,20.7-11.5c9.7,0,15.9,4.4,18.9,11.7
		h0.4c2.2-3.5,5.2-6.4,8.7-8.7c3.7-2,7.9-3,12.2-3c15.4,0,22.3,12.2,22.3,33v54.8h-23v-50.8c0-9.9-1.1-17.8-8.1-17.8
		c-4.1,0-7.1,2.8-8.7,8c-0.5,2-0.7,4-0.7,6v54.8h-23v-54.3c0-6.2-0.7-14.5-8-14.5c-3.5,0-7.1,2.7-8.7,7.8c-0.6,2.1-0.9,4.3-0.9,6.5
		v54.4h-23L438.7,590.3z"/>
	<path class="st5" d="M578.1,615.8c0.3,13.4,8.1,18.4,18.4,18.4c5.6,0,11.1-1,16.4-2.8l3.2,16.6c-6,2.3-15,3.9-23.8,3.9
		c-23.5,0-36.4-15.5-36.4-42.6c0-29,15-46.3,34.6-46.3c18.5,0,29.3,14.7,29.3,40.8c0,6.2-0.2,9.5-0.7,12L578.1,615.8z M598.7,599.5
		c0-11.1-2.8-19.8-9.7-19.8c-7.6,0-10.6,11.1-10.8,19.8H598.7z"/>
	<path class="st5" d="M632.8,590.3c0-9.5-0.5-17.8-0.7-26h20l1.1,9.9h0.3c4.6-7.1,12.5-11.4,21-11.3c16.4,0,23,13.1,23,32.3v55.5
		h-23.2v-54c0-7.4-1.8-14.3-8.5-14.3c-3.9,0-7.1,2.7-8.7,7.8c-0.9,2.6-1.3,5.3-1.2,8v52.7h-23.1V590.3z"/>
	<path class="st5" d="M741,541v23.3h17v16.4h-17v39.4c0,10.1,4.2,12.5,8.8,12.5c2,0,4-0.2,6-0.5l0.2,18c-4.6,1.1-9.4,1.7-14.1,1.6
		c-6.7,0-12.5-1.6-16.6-5.5c-4.8-4.6-7.4-11.1-7.4-24.7v-40.7h-10.3v-16.4h10.3v-17.8L741,541z"/>
	<path class="st5" d="M830.7,607.3c0,36-20,44.9-33,44.9c-20.7,0-33-16.3-33-44.3c0-31.1,16.3-44.9,33.4-44.9
		C818.3,563,830.7,580.1,830.7,607.3z M787.6,607.3c0,14.8,2.3,27.2,10.6,27.2c7.4,0,9.4-14.5,9.4-27.2c0-11.8-1.9-26.9-9.7-26.9
		C789.4,580.4,787.6,595.5,787.6,607.3z"/>
	<path class="st4" d="M916.2,589.1c0,44.9-15.9,63.1-38.5,63.1c-27,0-37.6-28.6-37.6-61.3c0-32.5,12.9-60.6,39.2-60.6
		C908.1,530.3,916.2,561.9,916.2,589.1z M864.1,591.2c0,27,5.1,40.8,14.5,40.8c9.7,0,13.4-17.7,13.4-41.9c0-20.8-3.2-39.8-13.6-39.8
		C869.2,550.4,864.1,565.6,864.1,591.2z"/>
	<path class="st4" d="M930,590.3c0-9.5-0.5-17.8-0.7-26h20l1.1,9.9h0.3c4.6-7.1,12.5-11.4,21-11.3c16.4,0,23,13.1,23,32.3v55.5
		h-23.2v-54c0-7.4-1.8-14.3-8.5-14.3c-3.9,0-7.1,2.7-8.7,7.8c-0.9,2.6-1.3,5.3-1.2,8v52.7H930V590.3z"/>
	<path class="st4" d="M1010.9,528.5h23.1v122.3h-23.2L1010.9,528.5z"/>
	<path class="st4" d="M1073.8,541.4c0.2,7.4-5.1,12.5-12.2,12.5c-6.4,0-11.7-5.1-11.5-12.5c-0.2-7.8,5.5-12.5,11.8-12.5
		C1068.7,528.8,1073.8,533.6,1073.8,541.4z M1050.7,650.8v-86.4h23.2v86.4H1050.7z"/>
	<path class="st4" d="M1090.1,590.3c0-9.5-0.5-17.8-0.7-26h20l1.1,9.9h0.3c4.6-7.1,12.5-11.4,21-11.3c16.4,0,23,13.1,23,32.3v55.5
		h-23.2v-54c0-7.4-1.8-14.3-8.5-14.3c-3.9,0-7.1,2.7-8.7,7.8c-0.9,2.6-1.3,5.3-1.2,8v52.7h-23.2L1090.1,590.3z"/>
	<path class="st4" d="M1190.3,615.8c0.3,13.4,8.1,18.4,18.4,18.4c5.6,0,11.1-1,16.4-2.8l3.2,16.6c-6,2.3-15,3.9-23.8,3.9
		c-23.5,0-36.4-15.5-36.4-42.6c0-29,15-46.3,34.6-46.3c18.6,0,29.3,14.7,29.3,40.8c0,6.2-0.2,9.5-0.7,12L1190.3,615.8z
		 M1210.9,599.5c0-11.1-2.8-19.8-9.7-19.8c-7.6,0-10.6,11.1-10.8,19.8H1210.9z"/>
</g>
</svg>
