<svg xmlns="http://www.w3.org/2000/svg" viewBox="0 0 1361.5 792"><defs><style>.cls-1{fill:#fff;}.cls-2{opacity:0.15;}.cls-3{fill:#95b23a;}.cls-4{fill:#fcce44;}.cls-5{fill:#548dbf;}.cls-6{fill:#124673;}</style></defs><title>movimentoOnlinePageDark</title><g id="Camada_2" data-name="Camada 2"><polyline class="cls-1" points="832.87 422.59 836.88 419.03 841.22 415.16 832.87 422.59"/><path class="cls-1" d="M464.78,194.22l-.27,1.46c-1.68,8.2-3.78,19.17-4.92,27.47,1.33-8.72,3.29-20.32,5.19-28.93Z"/><path class="cls-1" d="M809.43,57.65c-.8-.49-1.56-1-2.39-1.43-1.21-.8-2.44-1.54-3.67-2.22-.08-.05-.14-.11-.22-.11-1.7-1-3.4-1.95-5.13-2.85-.3-.16-.6-.33-.9-.47q-2-1.07-3.95-2Q792,48,790.78,47.45c-1.56-.77-3.15-1.48-4.74-2.14-.74-.33-1.48-.66-2.25-.93-2.47-1.07-5-2-7.51-2.93l-1.07-.38c-2.91-1.48-6.77-3.48-9.74-4.83,5.65,2,13.14,4.74,18.62,7.18C798.68,51,802,52.74,809.43,57.65Z"/><g class="cls-2"><path class="cls-3" d="M652.77,24c3.07-.41,7.16-1,10.26-1.29,9-.77,9-.77,13.49-1,3.46-.11,8.06-.19,11.52-.19l3.81.22a222.61,222.61,0,0,0-37,4.11A8.93,8.93,0,0,0,652.77,24Z"/><path class="cls-3" d="M596.83,43c6.25-5.48,6.64-5.81,12-7.9,3.73-1.26,8.69-3,12.48-4.11,9.84-2.74,9.84-2.74,14.78-3.84,3-.63,6.91-1.45,9.9-2a5,5,0,0,0,0,2.63A327.84,327.84,0,0,0,596.83,43Z"/><path class="cls-3" d="M542.59,73l8.09-6.69c4.52-3.18,10.53-7.49,15.25-10.39C578.48,48.51,579,48.23,587,44.29c4-1.84,9.41-4.28,13.49-6-8.94,4.61-9.3,4.77-13.55,8.91C576.65,52,559.48,60.16,542.59,73Z"/><path class="cls-4" d="M680.17,71.52c-6.28-12.75-13.36-27.23-22.9-42.18,31.62-6,43.14-5.65,43.22-5.62,18.26,7.32,28.38,15.17,47.17,36.5A488.61,488.61,0,0,0,680.17,71.52Z"/><path class="cls-4" d="M592.27,49.37a384.5,384.5,0,0,1,54.9-17.77c1.7,4.5,1.78,4.69,16.29,39.22.58,1.43,1.21,2.91,1.86,4.47-16.45,4.66-44,12.48-76.9,26.93-1.18-9.08-1.89-16.29-2.08-22.43C586,67.47,587.82,59.49,592.27,49.37Z"/><path class="cls-4" d="M707.4,23.58a119.37,119.37,0,0,1,17.11,1.23l.71.11c13.11,2.61,14.18,2.82,22.54,5.13l1.18.33c19.94,6.83,32.41,11.63,56.93,31-8-1.29-21.5-3.43-46.51-2.06C738.88,38.09,727.72,30.38,707.4,23.58Z"/><path class="cls-4" d="M812.46,63c-16.65-12.34-23.2-17.22-44.65-26.19l8.8,3.54c19.33,9.13,20.07,9.49,37.82,20.84l10.09,7.29C819.73,65.54,818.88,65,812.46,63Z"/><path class="cls-4" d="M465.11,205.23c1.86-13,3.78-26.35,11-43.82l3.13-7.13c9.19-18.21,14.26-28.22,30.22-48.54,8.06-9.13,8.72-9.87,15.66-16.15-17.33,23.45-22.65,37.57-25.92,68.75C489.68,167.91,473.75,183.93,465.11,205.23Z"/><path class="cls-4" d="M509.26,149.47C512,118.72,516.85,105,533.06,83a255.65,255.65,0,0,1,48.27-28.85c-4.47,8.45-7,15.58-8.2,24.3-1.1,8.09-.93,17.55.11,30.74-15,7.65-40.07,20.49-63.57,39.93Z"/><path class="cls-5" d="M591.14,116.72a610.15,610.15,0,0,1,65.35-24q6.87-2.06,14.34-4.09c5.16,12.83,9.3,23.5,12.81,32.85,8.25,22,13,36.61,18.84,54.77-18,5.4-48.27,14.45-83.51,30.3C602.91,162.49,597.39,143.24,591.14,116.72Z"/><path class="cls-5" d="M458.5,253.64c.63-12.75.66-13.25,2.63-20.81,2.44,36.88,8,55.34,26.93,89.73-1.84,9.65-4.91,25.81,3.89,44.54-3.87-6.39-8.86-15-12.23-21.66-3.4-8.12-8-18.92-10.64-27.34-6.23-22.87-6.61-24.24-8.64-39C459.74,271.49,458.78,261.29,458.5,253.64Z"/><path class="cls-5" d="M464.42,223c4.74-10.15,12.64-27.18,34.72-48.13,1.78,19.69,4.31,34.53,9.24,50.46,3.76,12.12,8.89,24.9,16.18,41-8.25,8.45-21.31,21.77-30,39.05a85.18,85.18,0,0,0-3.51,7.9C472.29,278,466.8,259.46,464.42,223Z"/><path class="cls-5" d="M509.45,165.7a337.25,337.25,0,0,1,66-41.71c5.65,27.26,10.94,46.76,27.4,90.11-16.23,8.36-43.44,22.32-68,43C528,241.53,523,229,519.37,217.37a227.61,227.61,0,0,1-8.94-42.64C510.08,171.82,509.75,168.83,509.45,165.7Z"/><path class="cls-5" d="M686.28,84.66c15.33-3.48,41-9.32,70.81-12.09,20.81,31.26,28.69,49.31,40.42,84.46-8.94,1.15-22.62,2.88-40.23,6.2-11.19,2.11-24,4.85-38.15,8.5-6-18.73-11.11-34.61-20.29-57.4C695.35,105.64,691.24,95.94,686.28,84.66Z"/><path class="cls-5" d="M811.58,155.68c-12.07-35.38-20.24-53.39-42.12-84.05C808.51,70,819,73.55,819.1,73.57c25.75,28.22,36.17,45.36,50.62,83.34C860.18,155.65,842.41,153.29,811.58,155.68Z"/><path class="cls-5" d="M878.31,158.72c-13.85-35.54-23.8-53.5-52.1-83.51,4.69,1.56,11.11,3.7,14.86,7.18l4.42,4.2c14.89,15.66,16.43,17.3,25.53,29.62,12.37,18.65,13.38,20.18,19.94,33.37,3,6.72,6.94,15.66,9.49,22.51C897.06,166.38,894,163.36,878.31,158.72Z"/><path class="cls-5" d="M884.37,179.24c7.24,2.19,20.7,6.28,22.54,14,8.75,42,8.8,64.72.33,105.77-1.67-3.32-4.5-8.86-20.81-13.33C893.58,243.55,893.17,221.66,884.37,179.24Z"/><path class="cls-5" d="M817.29,176.41c13.19-.8,37.73-2.28,58.41,1.07,8.75,42.64,9.3,64.53,2.74,106.4-9.32-1.43-24.9-3.78-52.79-1.95C828.12,240.36,826.39,218.67,817.29,176.41Z"/><path class="cls-5" d="M725.19,192.11c7.43-1.78,17.11-4.11,28.49-6.44,14.21-2.93,31-5.9,49.5-7.93,9.38,42.59,11.44,64.23,10,105.25a494,494,0,0,0-66.89,11.9c-3.46-26.24-6.36-44.84-14-75.33C730.34,211.39,728,202.37,725.19,192.11Z"/><path class="cls-5" d="M604.26,459.37c-2.85-.88-5.7-1.81-8.5-2.8-2.55-.91-5-1.86-7.51-2.93-.74-.3-1.51-.6-2.25-.93-1.59-.66-3.18-1.37-4.74-2.14q-1.19-.53-2.39-1.15-2-.91-3.95-2c-.3-.14-.6-.3-.9-.47-1.73-.93-3.46-1.86-5.13-2.85-.08,0-.14-.05-.22-.11-1.23-.69-2.47-1.43-3.67-2.22-.82-.44-1.59-.93-2.39-1.43l-.11-.08,0,0c-.85-.52-1.7-1.07-2.52-1.65s-1.34-.88-2-1.34c-17.22-12.64-17.91-13.14-26.63-21.2-5.4-5.37-12.59-12.61-17.69-18.29-1.95-2.55-4.69-5.87-6.47-8.56,23.91,25.67,39.13,36.36,74.07,52.08C586.65,447.25,591.37,452.38,604.26,459.37Z"/><path class="cls-5" d="M501.63,329.75c1.43-3.18,3.18-7.08,5.68-11.6,4.94-9,12.78-20.51,26.71-33.79,8.47,14.29,15.6,25.83,24.43,38.12,9.21,12.86,20.32,26.55,36.78,45-6.53,6.94-17.41,18.57-22,33.4C539.5,375.44,524.78,360.82,501.63,329.75Z"/><path class="cls-5" d="M544,275.42c12.34-9.74,31-24.43,66.69-41.9,10.28,24.08,17.09,40,43.3,94.67-11.93,6.17-29.29,15.14-45.28,27.53-2.08,1.59-4.14,3.26-6.14,5-14.64-18-24.85-31.37-33.65-44.32C560.26,303.61,552.91,291.3,544,275.42Z"/><path class="cls-5" d="M498.76,338.73c22.1,28.36,36.45,43,73,68.53-.6,6.39-1.62,17.08,5.81,29-35.49-17.25-50.87-28.52-74.87-54.87C498.71,371.29,493.72,358.75,498.76,338.73Z"/><path class="cls-5" d="M626.52,226.14a624.38,624.38,0,0,1,82.19-29.62c3.67,12.7,6.66,23.47,9.19,33.13,6.77,25.64,10.37,43.49,14.73,68.86-4.63,1.37-10.28,3-16.73,5.1a449.82,449.82,0,0,0-49.58,18.76C637.57,254,637.57,254,626.52,226.14Z"/><path class="cls-3" d="M736.27,471.33c-9.12,1.91-9.12,1.91-13.67,2.65-3.73.55-8.71,1.22-12.45,1.67h0c6.45-.82,17.24-2.2,27-5.56a66.59,66.59,0,0,0,8.56-1.09c-2.81.71-6.55,1.71-9.38,2.33Z"/><path class="cls-3" d="M713.79,458.22c8.78-9.74,16.34-18.15,24.27-40.2A217.6,217.6,0,0,1,771.22,410C759.12,425,744.09,443.66,713.79,458.22Z"/><path class="cls-3" d="M741.46,456.33c39.46-7.32,58.19-15.19,91-38.28.27,2.36.63,5.27-5.29,9.93l-9,6.77c-16.21,10.48-34.55,22.38-68.64,25.7C748.81,459.37,747.58,457.4,741.46,456.33Z"/><path class="cls-3" d="M749.63,461.62c16.45-2,29.51-3.62,52.08-16.29-5.16,3-11.38,6.42-16.34,8.83-11.44,5.24-11.66,5.35-18.13,7.82-4,1.45-9.43,3.35-13.52,4.69a97.41,97.41,0,0,1-12.83,2C744,467.16,749.28,464.66,749.63,461.62Z"/><path class="cls-3" d="M722.13,456.52c38.23-10.31,58-19,93-47.25,4.52.93,13,2.69,16.23,6.86-33.51,23.75-52.54,31.95-92.64,39.85A70.91,70.91,0,0,0,722.13,456.52Z"/><path class="cls-3" d="M713.79,458.22c-5.73-3.24-13.3-7.76-18.84-11.3.8-2.5,2-6.28,9.41-12.12C708.91,445.58,710.14,448.46,713.79,458.22Z"/><path class="cls-3" d="M718.67,457.09c-1.48.33-3.43.77-4.88,1.12,9.21-4.42,19-9.13,29.7-16.54s22.1-17.5,34.61-32.69c7.54-.74,18.95-1.89,31.84-.47C777.8,435.59,759,445.58,718.67,457.09Z"/><path class="cls-3" d="M732.08,420.15c-6.17,20-8.23,24.24-18.29,38.06a217.16,217.16,0,0,0-6-26A119.68,119.68,0,0,1,732.08,420.15Z"/><path class="cls-3" d="M694.81,449c5.62,2.88,13.19,6.64,19,9.21l-12-1.76C699.12,455.23,695.17,453.39,694.81,449Z"/><path class="cls-4" d="M622.2,463.7a16.38,16.38,0,0,0,1.67.33c-.52-.08-1.07-.16-1.59-.27Z"/><path class="cls-4" d="M704.34,457.28l9.46.94a36,36,0,0,1-9.46-.94Z"/><path class="cls-4" d="M709.87,459.34q-9.67,2.67-19.2,4.39C696.79,462.47,703.1,461,709.87,459.34Z"/><path class="cls-4" d="M622.2,463.7a16.38,16.38,0,0,0,1.67.33c-.52-.08-1.07-.16-1.59-.27Z"/><path class="cls-4" d="M589.31,418.07c36.91,19.94,56.52,27.34,95.35,36.12,2.17,1.43,6.2,4.09,14.12,4.91C656,459.15,634.87,456,596,443.57,592.93,438.64,587.89,430.38,589.31,418.07Z"/><path class="cls-4" d="M682.83,452.49C645,441.85,626,433.62,590.38,412.39c2.08-6.25,5.59-16.73,18.87-30.28C637.58,409.62,653,422.24,681,440.83,680.25,443.55,678.94,448.13,682.83,452.49Z"/><path class="cls-4" d="M742.48,403.32c6.12-28.77,7.9-46.48,5.73-88.63,12.56-3,36-8.56,63.1-11.33-6.44,40.56-12.61,59.34-30.06,91.4A263.71,263.71,0,0,0,742.48,403.32Z"/><path class="cls-4" d="M734.11,461.56c.85,1.21,2.14,3-2.22,6-9.6-3.37-10.59-3.73-18.1-9.32C719.85,459.4,728,460.91,734.11,461.56Z"/><path class="cls-4" d="M710.28,474.45c.8-4.09,1.18-6,3.51-16.23a85.43,85.43,0,0,0,8.12,7,37.41,37.41,0,0,0,7.73,3.67C726.13,470.45,721.33,472.64,710.28,474.45Z"/><path class="cls-4" d="M847.48,405.26c28.14-28.58,39.27-45.69,54.16-83.29l-.58,2.5c-2.33,5.92-5.35,13.88-8,19.69-10.26,20.27-14.48,28.63-31.62,50.24-5.32,6-12.53,13.82-18.15,19.5C846.19,410.72,847.78,409,847.48,405.26Z"/><path class="cls-4" d="M830,395c27.12-31.18,37.68-49.47,51.28-88.93,18.87,6,20.16,11.33,20.1,12.81C886.15,357,874.9,374.3,846.63,403.07,845,401.07,841.8,397.37,830,395Z"/><path class="cls-4" d="M789.07,393.83c19.33-32.36,26.33-51.17,34.06-91.46,12.09-.6,32.33-1.59,50.46,1.89-13,40-23.12,58.47-49.23,89.73A154.27,154.27,0,0,0,789.07,393.83Z"/><path class="cls-4" d="M615.82,375.93c2.08-1.7,4.44-3.65,7.21-5.81,8.2-6.31,20.1-14.51,39.54-24.22,14,28.85,20.92,43.38,26.55,55.45,3.37,7.16,6.25,13.44,9.84,21.31-4.44,3.1-12.7,8.83-16.56,15.33C656.41,417.64,642.1,404.29,615.82,375.93Z"/><path class="cls-4" d="M673.82,340.5c8.83-3.84,22-9.57,39.79-15.63,6.61-2.22,13.85-4.5,21.72-6.72,4,39.35,4,57.34-.16,87.54-7.27,2.63-19.42,7-31.26,13.93-2.74-8.14-5.13-15.08-8.06-23.2C691.21,383.69,685.12,368.09,673.82,340.5Z"/><path class="cls-4" d="M713.79,458.22c-10.26,5.92-17.58,9.79-24.71,12.42s-14,4-23.42,4.88c-8.12-.93-21.72-2.52-36.72-7.54C660,471.11,678.28,469,713.79,458.22Z"/><path class="cls-4" d="M702.19,459.32a49.4,49.4,0,0,0,11.6-1.1c-20.18,4.94-23.94,5.87-42,8,6.23-.52,12.53-1.34,18.87-2.47-20.92,4.25-39.93,5.73-68.75,1.67-2.22-1-5.21-2.22-7.4-3.29,2.52.6,5.1,1.15,7.68,1.59l.08.05c.52.11,1.07.19,1.59.27a16.38,16.38,0,0,1-1.67-.33c-9.1-4.58-15.22-8-22.71-15.77C638.54,458.85,659.66,461.21,702.19,459.32Z"/><path class="cls-4" d="M672.85,476.1c13.57-2.14,21.06-4.33,40.94-17.88-4.63,10.5-5.9,13.14-8.83,17A183.44,183.44,0,0,1,672.85,476.1Z"/><path class="cls-4" d="M732.91,460.63c-5.75-.61-13.43-1.39-19.12-2.42h0l7.14-.11c3.46.23,8.68.58,12,2.53Z"/><path class="cls-4" d="M717.71,458.07l-3.92.15h0c1.17,0,2.74-.13,3.92-.15"/></g><path class="cls-3" d="M719.26,474c-3.07.41-7.16,1-10.26,1.29-9,.77-9,.77-13.49,1-3.46.11-8.06.19-11.52.19l-3.81-.22a222.61,222.61,0,0,0,37-4.11A8.93,8.93,0,0,0,719.26,474Z"/><path class="cls-3" d="M775.21,455c-6.25,5.48-6.64,5.81-12,7.9-3.73,1.26-8.69,3-12.48,4.11-9.84,2.74-9.84,2.74-14.78,3.84-3,.63-6.91,1.45-9.9,2a5,5,0,0,0,0-2.63A327.84,327.84,0,0,0,775.21,455Z"/><path class="cls-3" d="M829.45,425l-8.09,6.69c-4.52,3.18-10.53,7.49-15.25,10.39-12.56,7.4-13.05,7.68-21.06,11.63-4,1.84-9.41,4.28-13.49,6,8.94-4.61,9.3-4.77,13.55-8.91C795.39,446,812.56,437.85,829.45,425Z"/><path class="cls-4" d="M691.87,426.5c6.28,12.75,13.36,27.23,22.9,42.18-31.62,6-43.14,5.65-43.22,5.62-18.26-7.32-28.38-15.17-47.17-36.5A488.61,488.61,0,0,0,691.87,426.5Z"/><path class="cls-4" d="M779.76,448.62a383.31,383.31,0,0,1-54.89,17.82c-1.68-4.5-1.8-4.68-16.32-39.23,9.84,5.22,21.17,4.8,32.69.3a25,25,0,0,0,3.24-1.38,30.76,30.76,0,0,0,4-2c.9-.48,1.74-1.08,2.58-1.62,3.3-2.22,5.52-5.16,8.88-8.16a5,5,0,0,1,2.7-.42,22,22,0,0,1,4,.3,69.94,69.94,0,0,0,9.72,2.46c2.22.78,4.32,1.62,6.36,2.4a10.39,10.39,0,0,0-1.08-1.44c1.26.24,2.7.42,4.14.6C786,430.56,784.2,438.54,779.76,448.62Z"/><path class="cls-4" d="M664.63,474.43a119.37,119.37,0,0,1-17.11-1.23l-.71-.11c-13.11-2.61-14.18-2.82-22.54-5.13l-1.18-.33c-19.94-6.83-32.41-11.63-56.93-31,8,1.29,21.5,3.43,46.51,2.06C633.15,459.93,644.31,467.63,664.63,474.43Z"/><path class="cls-4" d="M559.57,435c16.65,12.34,23.2,17.22,44.65,26.19l-8.8-3.54c-19.33-9.13-20.07-9.49-37.82-20.84l-10.09-7.29C552.31,432.48,553.16,433,559.57,435Z"/><path class="cls-4" d="M906.92,292.78c-1.86,13-3.78,26.35-11,43.82l-3.13,7.13c-9.19,18.21-14.26,28.22-30.22,48.54-8.06,9.13-8.72,9.87-15.66,16.15,17.33-23.45,22.65-37.57,25.92-68.75C882.35,330.1,898.28,314.09,906.92,292.78Z"/><path class="cls-4" d="M862.78,348.56C860.08,379.28,855.16,393,839,415a250,250,0,0,1-48.23,28.85c4.44-8.4,7-15.54,8.16-24.29,2.4.24,4,.3,4,.3,4.5-7.2,8.94-14.34,13.62-20.51.24-.84.54-1.74,1.44-4.32,2.1-6.24,4.62-12.9,8.1-18.12a6.17,6.17,0,0,1,2.46-2.52c3.54-1.14,6.78-1.32,10.26-3.12.9-.42,1.8-.9,2.64-1.38a41.13,41.13,0,0,0,3.78-2.52c1-.72,2-1.44,2.94-2.22a57.32,57.32,0,0,0,14.22-16.26C862.48,348.74,862.66,348.68,862.78,348.56Z"/><path class="cls-5" d="M730.21,382.4a68.83,68.83,0,0,1-14.7,22.91c-4.56,1.38-9.3,2.76-14.34,4.08-5.16-12.84-9.3-23.51-12.78-32.81.06-.06.18-.12.24-.18,1.08-.66,2.22-1.38,3.48-4.56a20.14,20.14,0,0,1-3.6-4,21.4,21.4,0,0,1-2.22-4.38,19.29,19.29,0,0,1-1.08-4.74,21.93,21.93,0,0,1-.12-4.86,31.23,31.23,0,0,1,.66-4.74c.42-1.56.84-3,1.38-4.5a35.32,35.32,0,0,1,1.8-4,23.45,23.45,0,0,1,9.12-9.3,24.25,24.25,0,0,1,8.64-3.12C728.53,324.69,737,363.44,730.21,382.4Z"/><path class="cls-5" d="M913.53,244.38c-.63,12.75-.66,13.25-2.63,20.81-2.44-36.88-8-55.34-26.93-89.73,1.84-9.65,4.91-25.81-3.89-44.54,3.87,6.39,8.86,15,12.23,21.66,3.4,8.12,8,18.92,10.64,27.34,6.23,22.87,6.61,24.24,8.64,39C912.3,226.53,913.26,236.73,913.53,244.38Z"/><path class="cls-5" d="M907.65,275c-4.8,10.14-12.66,27.17-34.73,48.11-1.8-19.68-4.32-34.49-9.24-50.45,9.48-8,17.46-18.42,21.29-31.37a58.44,58.44,0,0,0,1.5-27.41,56.64,56.64,0,0,0-9-21.23,78.82,78.82,0,0,0,3.48-7.92C899.73,220,905.25,238.55,907.65,275Z"/><path class="cls-5" d="M861.58,323.31c-11.22,4-23.69,6.18-34.37,2.52-16.2-5.58-34.85-38.39-18.78-57a29.65,29.65,0,0,1,7.44-6.24c3.72-2.16,7.8-3.36,11.58-2.82,1.2.24,2.4.48,3.66.84a22,22,0,0,1,3.66,1.62,21.58,21.58,0,0,1,3.42,2.34,16.57,16.57,0,0,1,2.94,3.18,18.81,18.81,0,0,1,2.22,4.08,22.38,22.38,0,0,1,1.44,6,15.47,15.47,0,0,0,1.74,6.3c1.14-.6,2.28-1.2,3.36-1.86,1-.48,1.86-1.08,2.76-1.62A225.71,225.71,0,0,1,861.58,323.31Z"/><path class="cls-5" d="M685.76,413.35c-15.35,3.48-41,9.3-70.78,12.12-20.81-31.31-28.73-49.31-40.43-84.46,8.94-1.2,22.61-2.88,40.19-6.24a60.54,60.54,0,0,0,.18,6.6,59,59,0,0,0,7.92,26.39,40,40,0,0,0,17.94,16.08c10.32,4.44,21.6,3.6,32.45-.18C676.71,392.35,680.79,402.07,685.76,413.35Z"/><path class="cls-5" d="M560.45,342.34c12.07,35.38,20.24,53.39,42.12,84.05-39.05,1.62-49.58-1.92-49.64-1.95-25.75-28.22-36.17-45.36-50.62-83.34C511.86,342.36,529.63,344.72,560.45,342.34Z"/><path class="cls-5" d="M493.73,339.29c13.85,35.54,23.8,53.5,52.1,83.51-4.69-1.56-11.11-3.7-14.86-7.18l-4.42-4.2c-14.89-15.66-16.43-17.3-25.53-29.62-12.37-18.65-13.38-20.18-19.94-33.37-3-6.72-6.94-15.66-9.49-22.51C475,331.64,478.07,334.66,493.73,339.29Z"/><path class="cls-5" d="M487.67,318.78c-7.24-2.19-20.7-6.28-22.54-14-8.75-42-8.8-64.72-.33-105.77,1.67,3.32,4.5,8.86,20.81,13.33C478.46,254.47,478.87,276.35,487.67,318.78Z"/><path class="cls-5" d="M554.75,321.6c-13.19.8-37.73,2.28-58.41-1.07-8.75-42.64-9.3-64.53-2.74-106.4,9.32,1.43,24.9,3.78,52.79,1.95C543.92,257.65,545.64,279.34,554.75,321.6Z"/><path class="cls-5" d="M639.64,278.44a75.16,75.16,0,0,0-17.52,24,99,99,0,0,0-3.78,9.9c-14.22,2.94-31,5.94-49.49,7.92-9.36-42.59-11.46-64.18-10-105.21a499.93,499.93,0,0,0,66.88-11.94C629.14,229.37,632.08,248,639.64,278.44Z"/><path class="cls-5" d="M767.78,38.65c2.85.88,5.7,1.81,8.5,2.8,2.55.91,5,1.86,7.51,2.93.74.3,1.51.6,2.25.93,1.59.66,3.18,1.37,4.74,2.14q1.19.53,2.39,1.15,2,.91,3.95,2c.3.14.6.3.9.47,1.73.93,3.46,1.86,5.13,2.85.08,0,.14.05.22.11,1.23.69,2.47,1.43,3.67,2.22.82.44,1.59.93,2.39,1.43l.11.08,0,0c.85.52,1.7,1.07,2.52,1.65s1.34.88,2,1.34c17.22,12.64,17.91,13.14,26.63,21.2,5.4,5.37,12.59,12.61,17.69,18.29,1.95,2.55,4.69,5.87,6.47,8.56C841,83.13,825.78,72.43,790.84,56.72,785.38,50.77,780.66,45.64,767.78,38.65Z"/><path class="cls-5" d="M870.4,168.25c-1.44,3.18-3.18,7.08-5.7,11.64a49.43,49.43,0,0,0-18.42-8.22c-10.26-2.28-21.11-1-31.37,3.3l-1.32.54c-9.24-12.84-20.33-26.51-36.77-45,6.54-7,17.4-18.6,22-33.41C832.55,122.6,847.24,137.18,870.4,168.25Z"/><path class="cls-5" d="M803.09,181.63a78.19,78.19,0,0,0-18.83,20c-1.86,2.82-3.72,5.82-5.4,9,.36-1.86.66-3.54.84-5.1a65,65,0,0,0,.48-7.38,111.34,111.34,0,0,0-.78-13.38A115,115,0,0,0,777.06,172a83.13,83.13,0,0,0-3.3-10.8,79.36,79.36,0,0,0-5-10.44,73.63,73.63,0,0,0-5.46-8.52c2.1-1.56,4.14-3.24,6.18-5C784.08,155.29,794.28,168.67,803.09,181.63Z"/><path class="cls-5" d="M873.27,159.28c-22.1-28.36-36.45-43-73-68.53.6-6.39,1.62-17.08-5.81-29,35.49,17.25,50.87,28.52,74.87,54.87C873.33,126.73,878.32,139.26,873.27,159.28Z"/><path class="cls-5" d="M689.36,262.85a77.22,77.22,0,0,0-9.06-.54,57.63,57.63,0,0,0-26.15,6.06c-6.78-25.61-10.38-43.49-14.76-68.86,4.68-1.38,10.32-3.06,16.74-5.1.06,2.82.18,5.58.48,8.4a119.1,119.1,0,0,0,1.92,12.3,105.27,105.27,0,0,0,3.36,11.4,76.73,76.73,0,0,0,4.56,10.08,106.27,106.27,0,0,0,6.48,10.38,73.91,73.91,0,0,0,7.86,9.24,44.62,44.62,0,0,0,4.86,4.26A40.06,40.06,0,0,0,689.36,262.85Z"/><path class="cls-3" d="M635.77,26.69c9.12-1.91,9.12-1.91,13.67-2.65,3.73-.55,8.71-1.22,12.45-1.67h0c-6.45.82-17.24,2.2-27,5.56A66.59,66.59,0,0,0,626.39,29c2.81-.71,6.55-1.71,9.38-2.33Z"/><path class="cls-3" d="M658.25,39.8C649.47,49.53,641.9,58,634,80a217.6,217.6,0,0,1-33.16,8.06C612.91,73.06,627.94,54.36,658.25,39.8Z"/><path class="cls-3" d="M630.57,41.69C591.11,49,572.38,56.88,539.61,80c-.27-2.36-.63-5.27,5.29-9.93l9-6.77c16.21-10.48,34.55-22.38,68.64-25.7C623.23,38.65,624.46,40.62,630.57,41.69Z"/><path class="cls-3" d="M622.4,36.4c-16.45,2-29.51,3.62-52.08,16.29,5.16-3,11.38-6.42,16.34-8.83,11.44-5.24,11.66-5.35,18.13-7.82,4-1.45,9.43-3.35,13.52-4.69a97.41,97.41,0,0,1,12.83-2C628,30.86,622.76,33.35,622.4,36.4Z"/><path class="cls-3" d="M649.91,41.5c-38.23,10.31-58,19-93,47.25-4.52-.93-13-2.69-16.23-6.86C574.19,58.14,593.22,49.94,633.32,42A70.91,70.91,0,0,0,649.91,41.5Z"/><path class="cls-3" d="M658.25,39.8c5.73,3.24,13.3,7.76,18.84,11.3-.8,2.5-2,6.28-9.41,12.12C663.13,52.44,661.89,49.56,658.25,39.8Z"/><path class="cls-3" d="M653.36,40.92c1.48-.33,3.43-.77,4.88-1.12-9.21,4.42-19,9.13-29.7,16.54S606.44,73.83,593.94,89c-7.54.74-18.95,1.89-31.84.47C594.24,62.42,613,52.44,653.36,40.92Z"/><path class="cls-3" d="M640,77.86c6.17-20,8.23-24.24,18.29-38.06a217.16,217.16,0,0,0,6,26A119.68,119.68,0,0,1,640,77.86Z"/><path class="cls-3" d="M677.22,49c-5.62-2.88-13.19-6.64-19-9.21l12,1.76C672.92,42.79,676.87,44.62,677.22,49Z"/><path class="cls-4" d="M749.84,34.31a16.38,16.38,0,0,0-1.67-.33c.52.08,1.07.16,1.59.27Z"/><path class="cls-4" d="M667.7,40.74l-9.46-.94a36,36,0,0,1,9.46.94Z"/><path class="cls-4" d="M662.17,38.67q9.67-2.67,19.2-4.39C675.25,35.55,668.94,37,662.17,38.67Z"/><path class="cls-4" d="M749.84,34.31a16.38,16.38,0,0,0-1.67-.33c.52.08,1.07.16,1.59.27Z"/><path class="cls-4" d="M782.72,79.95C745.81,60,726.2,52.6,687.37,43.83c-2.17-1.43-6.2-4.09-14.12-4.91C716,38.86,737.17,42,776.06,54.44,779.1,59.38,784.15,67.63,782.72,79.95Z"/><path class="cls-4" d="M689.21,45.53C727,56.17,746,64.4,781.65,85.62c-2.08,6.25-5.59,16.73-18.87,30.28C734.46,88.39,719,75.78,691,57.18,691.78,54.47,693.1,49.89,689.21,45.53Z"/><path class="cls-4" d="M629.56,94.7c-6.12,28.77-7.9,46.48-5.73,88.63-12.56,3-36,8.56-63.1,11.33,6.44-40.56,12.61-59.34,30.06-91.4A263.71,263.71,0,0,0,629.56,94.7Z"/><path class="cls-4" d="M637.92,36.45c-.85-1.21-2.14-3,2.22-6,9.6,3.37,10.59,3.73,18.1,9.32C652.18,38.62,644.07,37.11,637.92,36.45Z"/><path class="cls-4" d="M661.76,23.56c-.8,4.09-1.18,6-3.51,16.23a85.43,85.43,0,0,0-8.12-7,37.41,37.41,0,0,0-7.73-3.67C645.9,27.57,650.7,25.37,661.76,23.56Z"/><path class="cls-4" d="M524.55,92.75c-28.14,28.58-39.27,45.69-54.16,83.29l.58-2.5c2.33-5.92,5.35-13.88,8-19.69,10.26-20.27,14.48-28.63,31.62-50.24,5.32-6,12.53-13.82,18.15-19.5C525.84,87.3,524.25,89.05,524.55,92.75Z"/><path class="cls-4" d="M542.08,103.06C515,134.24,504.4,152.54,490.8,192c-18.87-6-20.16-11.33-20.1-12.81,15.19-38.15,26.44-55.48,54.71-84.25C527.08,96.95,530.23,100.65,542.08,103.06Z"/><path class="cls-4" d="M583,104.19c-19.33,32.36-26.33,51.17-34.06,91.46-12.09.6-32.33,1.59-50.46-1.89,13-40,23.12-58.47,49.23-89.73A154.27,154.27,0,0,0,583,104.19Z"/><path class="cls-4" d="M756.19,122.06c-2,1.74-4.44,3.66-7.2,5.82a32.2,32.2,0,0,0-3-2c-4.26-2.64-8.88-5.46-13.62-8.34s-9.84-5.88-15.06-8.7c-1.8-1-3.66-2-5.52-2.94.18-.54.36-1.08.48-1.56-.54-.24-1.08-.42-1.56-.66-3.3-1.26-6.6-2.52-9.9-3.54-1.56-.54-3.06-1-4.56-1.5a25.83,25.83,0,0,0-13.38-2c-3.36-7.2-6.24-13.44-9.84-21.35,4.44-3.06,12.72-8.82,16.56-15.3C715.64,80.37,729.91,93.75,756.19,122.06Z"/><path class="cls-4" d="M676.17,101.61c-1.32,3.66-2.64,7.32-3.78,11-.72,1.68-1.38,3.48-2,5.28-1.44,3.84-2.76,7.74-4.08,11.7-.18.66-.42,1.32-.6,2a11.47,11.47,0,0,1,1.26.54c-.54,2.34-1.08,4.68-1.68,7.08-1.56,6.78-2.88,13.5-4.14,19.92-1,4.8-1.86,9.54-2.7,14-6.6,2.22-13.86,4.5-21.72,6.72-4-39.35-4-57.35.18-87.58,7.26-2.64,19.37-7,31.25-13.92C670.89,86.55,673.23,93.51,676.17,101.61Z"/><path class="cls-4" d="M658.25,39.8C668.5,33.87,675.82,30,683,27.37s14-4,23.42-4.88c8.12.93,21.72,2.52,36.72,7.54C712,26.91,693.76,29,658.25,39.8Z"/><path class="cls-4" d="M669.85,38.7a49.4,49.4,0,0,0-11.6,1.1c20.18-4.94,23.94-5.87,42-8-6.23.52-12.53,1.34-18.87,2.47,20.92-4.25,39.93-5.73,68.75-1.67,2.22,1,5.21,2.22,7.4,3.29-2.52-.6-5.1-1.15-7.68-1.59l-.08-.05c-.52-.11-1.07-.19-1.59-.27a16.38,16.38,0,0,1,1.67.33c9.1,4.58,15.22,8,22.71,15.77C733.5,39.17,712.38,36.81,669.85,38.7Z"/><path class="cls-4" d="M699.19,21.92c-13.57,2.14-21.06,4.33-40.94,17.88,4.63-10.5,5.9-13.14,8.83-17A183.44,183.44,0,0,1,699.19,21.92Z"/><path class="cls-4" d="M639.12,37.38c5.75.61,13.43,1.39,19.12,2.42h0l-7.14.11c-3.46-.23-8.68-.58-12-2.53Z"/><path class="cls-4" d="M654.33,39.95l3.92-.15h0c-1.17,0-2.74.13-3.92.15"/><polyline class="cls-1" points="671.87 476.02 674.47 476.15 676.01 476.24 671.87 476.02"/><path class="cls-1" d="M912.22,272.9c-2.82,21.06-3.07,22.38-6.75,36.12,1.73-7.71,3.7-18,4.74-25.86C910.84,280.11,911.67,276.27,912.22,272.9Z"/><polyline class="cls-1" points="877.66 125.99 875.49 122.69 874.43 121.09 877.66 125.99"/><path class="cls-1" d="M761.21,33.82c6.63,2.07,15.42,5,21.93,7.4-3.51-1.18-8.14-2.93-11.7-3.92A195.87,195.87,0,0,0,745.28,30c4.79,1.1,11.2,2.5,15.92,3.87Z"/><path class="cls-6" d="M217.3,609.06c-.53-11.31-1.41-26.68-1.06-39.4h-.53c-2.12,12.72-5.3,27.39-7.6,36.57l-10.25,42.58H181.43l-9.89-41.87c-2.3-9.54-5.48-24.38-7.24-37.28h-.53c-.35,12.9-1.06,27.92-1.77,39.75l-1.94,41.34h-20l8.66-119.08h24.38l9.54,43.11c3.36,15,6.36,28.27,8.48,41.7h.35c1.77-13.25,4.42-26.68,7.6-41.7l9.36-43.11h24.38l7.24,119.08H219.42Z"/><path class="cls-6" d="M318,607.29c0,36-20,44.88-33,44.88-20.67,0-33-16.25-33-44.35,0-31.1,16.25-44.88,33.39-44.88C305.63,562.95,318,580.08,318,607.29Zm-43.11,0c0,14.84,2.3,27.21,10.6,27.21,7.42,0,9.36-14.49,9.36-27.21,0-11.84-1.94-26.86-9.72-26.86C276.66,580.44,274.89,595.46,274.89,607.29Z"/><path class="cls-6" d="M346.8,564.36l6.54,38.52c1.24,7.77,2.47,15.55,3.71,24.21h.35c1.06-8.83,2.12-16.08,3.36-24.21l6.71-38.52h22.79l-23.15,86.4H345.74l-23.5-86.4Z"/><path class="cls-6" d="M422.42,541.39c.18,7.42-5.12,12.54-12.19,12.54-6.36,0-11.66-5.12-11.48-12.54-.18-7.77,5.48-12.54,11.84-12.54C417.3,528.85,422.42,533.62,422.42,541.39ZM399.27,650.76v-86.4h23.15v86.4Z"/><path class="cls-6" d="M438.67,590.33c0-9.54-.53-17.84-.71-26h20.14l1.06,10.07h.35c4.42-6.54,11.66-11.48,20.67-11.48,9.72,0,15.9,4.42,18.91,11.66h.35a28.89,28.89,0,0,1,8.66-8.66,25.42,25.42,0,0,1,12.19-3c15.37,0,22.26,12.19,22.26,33v54.77h-23V599.87c0-9.89-1.06-17.84-8.13-17.84-4.06,0-7.07,2.83-8.66,8a25.36,25.36,0,0,0-.71,6v54.77h-23V596.52c0-6.18-.71-14.49-8-14.49-3.53,0-7.07,2.65-8.66,7.77a22.46,22.46,0,0,0-.88,6.54v54.42h-23Z"/><path class="cls-6" d="M578.07,615.77c.35,13.43,8.13,18.38,18.38,18.38a51,51,0,0,0,16.43-2.83l3.18,16.61c-6,2.3-15,3.89-23.85,3.89-23.5,0-36.4-15.55-36.4-42.58,0-29,15-46.29,34.63-46.29,18.55,0,29.33,14.66,29.33,40.81,0,6.18-.18,9.54-.71,12Zm20.67-16.25c0-11.13-2.83-19.79-9.72-19.79-7.6,0-10.6,11.13-10.78,19.79Z"/><path class="cls-6" d="M632.84,590.33c0-9.54-.53-17.84-.71-26h20l1.06,9.89h.35a24.8,24.8,0,0,1,21-11.31c16.43,0,23,13.07,23,32.33v55.48H674.36V596.69c0-7.42-1.77-14.31-8.48-14.31-3.89,0-7.07,2.65-8.66,7.77a22.64,22.64,0,0,0-1.24,8v52.65H632.84Z"/><path class="cls-6" d="M741,541v23.32h17v16.43H741v39.4c0,10.07,4.24,12.54,8.83,12.54a31.66,31.66,0,0,0,6-.53l.18,18a54.5,54.5,0,0,1-14.13,1.59c-6.71,0-12.54-1.59-16.61-5.48-4.77-4.59-7.42-11.13-7.42-24.74V580.79H707.58V564.36h10.25V546.51Z"/><path class="cls-6" d="M830.72,607.29c0,36-20,44.88-33,44.88-20.67,0-33-16.25-33-44.35,0-31.1,16.25-44.88,33.39-44.88C818.35,562.95,830.72,580.08,830.72,607.29Zm-43.11,0c0,14.84,2.3,27.21,10.6,27.21,7.42,0,9.36-14.49,9.36-27.21,0-11.84-1.94-26.86-9.72-26.86C789.38,580.44,787.61,595.46,787.61,607.29Z"/><path class="cls-5" d="M916.23,589.1c0,44.88-15.9,63.08-38.52,63.08-27,0-37.63-28.62-37.63-61.31,0-32.51,12.9-60.6,39.22-60.6C908.11,530.26,916.23,561.89,916.23,589.1Zm-52.12,2.12c0,27,5.12,40.81,14.49,40.81,9.72,0,13.43-17.67,13.43-41.87,0-20.85-3.18-39.75-13.6-39.75C869.24,550.4,864.11,565.6,864.11,591.22Z"/><path class="cls-5" d="M930,590.33c0-9.54-.53-17.84-.71-26h20l1.06,9.89h.35a24.8,24.8,0,0,1,21-11.31c16.43,0,23,13.07,23,32.33v55.48H971.53V596.69c0-7.42-1.77-14.31-8.48-14.31-3.89,0-7.07,2.65-8.66,7.77a22.64,22.64,0,0,0-1.24,8v52.65H930Z"/><path class="cls-5" d="M1010.93,528.49h23.15V650.76h-23.15Z"/><path class="cls-5" d="M1073.82,541.39c.18,7.42-5.12,12.54-12.19,12.54-6.36,0-11.66-5.12-11.48-12.54-.18-7.77,5.48-12.54,11.84-12.54C1068.7,528.85,1073.82,533.62,1073.82,541.39Zm-23.15,109.37v-86.4h23.15v86.4Z"/><path class="cls-5" d="M1090.08,590.33c0-9.54-.53-17.84-.71-26h20l1.06,9.89h.35a24.8,24.8,0,0,1,21-11.31c16.43,0,23,13.07,23,32.33v55.48H1131.6V596.69c0-7.42-1.77-14.31-8.48-14.31-3.89,0-7.07,2.65-8.66,7.77a22.64,22.64,0,0,0-1.24,8v52.65h-23.15Z"/><path class="cls-5" d="M1190.25,615.77c.35,13.43,8.13,18.38,18.38,18.38a51,51,0,0,0,16.43-2.83l3.18,16.61c-6,2.3-15,3.89-23.85,3.89-23.5,0-36.4-15.55-36.4-42.58,0-29,15-46.29,34.63-46.29,18.55,0,29.33,14.66,29.33,40.81,0,6.18-.18,9.54-.71,12Zm20.67-16.25c0-11.13-2.83-19.79-9.72-19.79-7.6,0-10.6,11.13-10.78,19.79Z"/><path class="cls-1" d="M283.59,698.71,308.69,764H298.5L293.31,750H263.76L258.66,764h-10.2l24.83-65.32Zm-16.71,42.67H290.1l-11.71-31.62Z"/><path class="cls-1" d="M315.87,714.1l14.44,39.55,14.35-39.55h9.16L334.75,764h-8.87L306.81,714.1Z"/><path class="cls-1" d="M366.18,742.13a22.25,22.25,0,0,0,1.6,6.7,14.86,14.86,0,0,0,3.07,4.67,11.91,11.91,0,0,0,4.15,2.74,13,13,0,0,0,4.77.9,12.17,12.17,0,0,0,6.47-1.7,14.6,14.6,0,0,0,4.48-4.15l5.95,5.19a26.26,26.26,0,0,1-2.6,3,19,19,0,0,1-3.68,2.83,22.23,22.23,0,0,1-4.86,2.12,20.66,20.66,0,0,1-6.14.85,21.63,21.63,0,0,1-8.4-1.65,18.71,18.71,0,0,1-6.89-5,24,24,0,0,1-4.62-8.26,35.66,35.66,0,0,1-1.7-11.56,36.31,36.31,0,0,1,1.56-11.09,23.76,23.76,0,0,1,4.34-8.17,18.14,18.14,0,0,1,6.66-5,22.09,22.09,0,0,1,17,0,18.6,18.6,0,0,1,6.7,5,23.32,23.32,0,0,1,4.39,8.17A36.34,36.34,0,0,1,400,738.83q0,.94,0,1.75t-.14,1.56ZM378.93,721a11.12,11.12,0,0,0-8.59,3.73q-3.4,3.73-4.15,10.71h25.39q-.76-7.17-4.15-10.81A11.15,11.15,0,0,0,378.93,721Z"/><path class="cls-1" d="M421,714.1v6.14q5.66-7.36,15.76-7.36a21.29,21.29,0,0,1,6.94,1.09,13.49,13.49,0,0,1,5.43,3.45,15.76,15.76,0,0,1,3.49,6.09,28.74,28.74,0,0,1,1.23,8.92V764h-9V733.36q0-6.51-3-9.25a11.32,11.32,0,0,0-8-2.74,13.89,13.89,0,0,0-7.17,1.89q-3.21,1.89-5.29,6.89V764h-9V714.1Z"/><path class="cls-1" d="M468.42,714.1V700.6l9-2.93V714.1h12.74v7.36H477.38v28.32q0,6,5.85,6a9.84,9.84,0,0,0,3.73-.71,11.22,11.22,0,0,0,3.45-2.31L488.9,761a8.84,8.84,0,0,1-3.92,2.55,15.52,15.52,0,0,1-5.33.94,11.05,11.05,0,0,1-7.93-3.16q-3.31-3.16-3.3-9.58v-30.3h-5.66V714.1Z"/><path class="cls-1" d="M507.87,714.1v31.43q0,5.95,3.07,8.59a11.65,11.65,0,0,0,7.88,2.64,13.63,13.63,0,0,0,7.13-1.89q3.16-1.89,5.33-7V714.1h9V764h-8.5V757.8Q526,765.26,516,765.26a21.27,21.27,0,0,1-6.94-1.09,14.24,14.24,0,0,1-5.43-3.3,14.64,14.64,0,0,1-3.49-5.66,24.36,24.36,0,0,1-1.23-8.17V714.1Z"/><path class="cls-1" d="M582.92,723.82a7.59,7.59,0,0,0-3.12-1.89,13.47,13.47,0,0,0-4.06-.57,13.22,13.22,0,0,0-6.94,1.84q-3.07,1.84-5.24,7.13V764h-9V714.1h8.5v6a17,17,0,0,1,14.35-7.27,13.72,13.72,0,0,1,5.38.9,11.9,11.9,0,0,1,3.4,2.12Z"/><path class="cls-1" d="M594.63,718.16a27.18,27.18,0,0,1,7.17-3.68,31.47,31.47,0,0,1,10.67-1.6,28.83,28.83,0,0,1,7.79,1,15.59,15.59,0,0,1,6.14,3.26,14.7,14.7,0,0,1,4,6,26.08,26.08,0,0,1,1.42,9.2V764h-8.31v-3.59a26.08,26.08,0,0,1-14.73,4.25,25.19,25.19,0,0,1-7-.94,15.63,15.63,0,0,1-5.66-2.93,14.15,14.15,0,0,1-3.82-5,16.76,16.76,0,0,1-1.42-7.17,17.5,17.5,0,0,1,1.42-7.22,14.05,14.05,0,0,1,4-5.24,17.84,17.84,0,0,1,6-3.16,25.68,25.68,0,0,1,7.65-1.09,35.14,35.14,0,0,1,6.7.66,30.54,30.54,0,0,1,6.42,2v-1.7a16.41,16.41,0,0,0-.8-5.52,8.4,8.4,0,0,0-2.31-3.54,8.93,8.93,0,0,0-3.68-1.89,19.09,19.09,0,0,0-4.81-.57,23.7,23.7,0,0,0-7.22,1,22.59,22.59,0,0,0-6,2.93Zm16.14,39.08a27.72,27.72,0,0,0,6.28-.75,25.53,25.53,0,0,0,6-2.17V740.44a29.38,29.38,0,0,0-5.43-1.42,34.24,34.24,0,0,0-5.52-.47,16.72,16.72,0,0,0-9.06,2.31q-3.68,2.31-3.68,7.32a8.8,8.8,0,0,0,.9,4.15,7.75,7.75,0,0,0,2.45,2.79,10.9,10.9,0,0,0,3.63,1.6A18.21,18.21,0,0,0,610.77,757.24Z"/><path class="cls-1" d="M679,714.1v6.32A19.79,19.79,0,0,1,685.2,715a17.54,17.54,0,0,1,8.83-2.12,16.37,16.37,0,0,1,8.83,2.27,18.07,18.07,0,0,1,5.9,5.95,27,27,0,0,1,3.3,8.4,44.3,44.3,0,0,1,0,19.07,27.53,27.53,0,0,1-3.3,8.45,17.91,17.91,0,0,1-5.9,6,16.36,16.36,0,0,1-8.83,2.27,17.29,17.29,0,0,1-8.5-2,20.36,20.36,0,0,1-6-5v22.37l-9,3V714.1Zm12.84,7a11.86,11.86,0,0,0-7.5,2.31,17.94,17.94,0,0,0-4.86,5.9v19.64a17.45,17.45,0,0,0,4.91,5.76,12.23,12.23,0,0,0,7.55,2.27,11.16,11.16,0,0,0,5.9-1.46,11.52,11.52,0,0,0,3.92-4,17.23,17.23,0,0,0,2.12-5.71,37.71,37.71,0,0,0,0-13.55,17.26,17.26,0,0,0-2.12-5.76,11.54,11.54,0,0,0-3.92-4A11.36,11.36,0,0,0,691.85,721.08Z"/><path class="cls-1" d="M726.78,718.16a27.18,27.18,0,0,1,7.17-3.68,31.47,31.47,0,0,1,10.67-1.6,28.83,28.83,0,0,1,7.79,1,15.59,15.59,0,0,1,6.14,3.26,14.7,14.7,0,0,1,4,6,26.08,26.08,0,0,1,1.42,9.2V764h-8.31v-3.59a26.08,26.08,0,0,1-14.73,4.25,25.19,25.19,0,0,1-7-.94,15.63,15.63,0,0,1-5.66-2.93,14.15,14.15,0,0,1-3.82-5,16.76,16.76,0,0,1-1.42-7.17,17.5,17.5,0,0,1,1.42-7.22,14.05,14.05,0,0,1,4-5.24,17.84,17.84,0,0,1,6-3.16,25.68,25.68,0,0,1,7.65-1.09,35.14,35.14,0,0,1,6.7.66,30.54,30.54,0,0,1,6.42,2v-1.7a16.41,16.41,0,0,0-.8-5.52,8.4,8.4,0,0,0-2.31-3.54,8.93,8.93,0,0,0-3.68-1.89,19.09,19.09,0,0,0-4.81-.57,23.7,23.7,0,0,0-7.22,1,22.59,22.59,0,0,0-6,2.93Zm16.14,39.08a27.72,27.72,0,0,0,6.28-.75,25.53,25.53,0,0,0,6-2.17V740.44a29.38,29.38,0,0,0-5.43-1.42,34.24,34.24,0,0,0-5.52-.47,16.72,16.72,0,0,0-9.06,2.31q-3.68,2.31-3.68,7.32a8.8,8.8,0,0,0,.9,4.15,7.75,7.75,0,0,0,2.45,2.79,10.9,10.9,0,0,0,3.63,1.6A18.21,18.21,0,0,0,742.92,757.24Z"/><path class="cls-1" d="M806.27,723.82a7.59,7.59,0,0,0-3.12-1.89,13.47,13.47,0,0,0-4.06-.57,13.22,13.22,0,0,0-6.94,1.84q-3.07,1.84-5.24,7.13V764h-9V714.1h8.5v6a17,17,0,0,1,14.35-7.27,13.72,13.72,0,0,1,5.38.9,11.9,11.9,0,0,1,3.4,2.12Z"/><path class="cls-1" d="M818,718.16a27.18,27.18,0,0,1,7.17-3.68,31.47,31.47,0,0,1,10.67-1.6,28.83,28.83,0,0,1,7.79,1,15.59,15.59,0,0,1,6.14,3.26,14.7,14.7,0,0,1,4,6,26.08,26.08,0,0,1,1.42,9.2V764h-8.31v-3.59a26.08,26.08,0,0,1-14.73,4.25,25.19,25.19,0,0,1-7-.94,15.63,15.63,0,0,1-5.66-2.93,14.15,14.15,0,0,1-3.82-5,16.76,16.76,0,0,1-1.42-7.17,17.5,17.5,0,0,1,1.42-7.22,14.05,14.05,0,0,1,4-5.24,17.84,17.84,0,0,1,6-3.16,25.68,25.68,0,0,1,7.65-1.09,35.14,35.14,0,0,1,6.7.66,30.54,30.54,0,0,1,6.42,2v-1.7a16.41,16.41,0,0,0-.8-5.52,8.4,8.4,0,0,0-2.31-3.54,8.93,8.93,0,0,0-3.68-1.89,19.09,19.09,0,0,0-4.81-.57,23.7,23.7,0,0,0-7.22,1,22.59,22.59,0,0,0-6,2.93Zm16.14,39.08a27.72,27.72,0,0,0,6.28-.75,25.53,25.53,0,0,0,6-2.17V740.44A29.38,29.38,0,0,0,841,739a34.24,34.24,0,0,0-5.52-.47,16.72,16.72,0,0,0-9.06,2.31q-3.68,2.31-3.68,7.32a8.8,8.8,0,0,0,.9,4.15,7.75,7.75,0,0,0,2.45,2.79,10.9,10.9,0,0,0,3.63,1.6A18.21,18.21,0,0,0,834.11,757.24Z"/><path class="cls-1" d="M894.43,714.1V700.6l9-2.93V714.1h12.74v7.36H903.4v28.32q0,6,5.85,6a9.84,9.84,0,0,0,3.73-.71,11.22,11.22,0,0,0,3.45-2.31L914.91,761a8.84,8.84,0,0,1-3.92,2.55,15.52,15.52,0,0,1-5.33.94,11.05,11.05,0,0,1-7.93-3.16q-3.31-3.16-3.3-9.58v-30.3h-5.66V714.1Z"/><path class="cls-1" d="M944.65,712.87a20.67,20.67,0,0,1,8.4,1.7,18.6,18.6,0,0,1,6.7,5,23.32,23.32,0,0,1,4.39,8.17A37,37,0,0,1,965.7,739a37.49,37.49,0,0,1-1.56,11.33,23.72,23.72,0,0,1-4.34,8.21,18.14,18.14,0,0,1-6.66,5,20.91,20.91,0,0,1-8.5,1.7,21.14,21.14,0,0,1-8.59-1.7,18.13,18.13,0,0,1-6.66-5,23.68,23.68,0,0,1-4.34-8.21A37.46,37.46,0,0,1,923.5,739a37,37,0,0,1,1.56-11.28,23.29,23.29,0,0,1,4.39-8.17,18.57,18.57,0,0,1,6.7-5A20.9,20.9,0,0,1,944.65,712.87Zm0,8.31a10.89,10.89,0,0,0-9.11,4.53q-3.45,4.53-3.45,13.4t3.45,13.36a11.45,11.45,0,0,0,18.17,0q3.49-4.48,3.49-13.36t-3.49-13.4A10.93,10.93,0,0,0,944.65,721.18Z"/><path class="cls-1" d="M1019,694.27V764h-8.4v-6.42a20.17,20.17,0,0,1-6.23,5.48,17.7,17.7,0,0,1-9,2.17,16.11,16.11,0,0,1-8.78-2.27A18.23,18.23,0,0,1,980.8,757a26.15,26.15,0,0,1-3.26-8.4,46.35,46.35,0,0,1,0-19.07,26.73,26.73,0,0,1,3.26-8.45,18.08,18.08,0,0,1,5.85-6,16.12,16.12,0,0,1,8.78-2.27,17.58,17.58,0,0,1,8.54,2,20.23,20.23,0,0,1,6.09,5V697.29ZM997.7,757a12,12,0,0,0,7.41-2.22,17.91,17.91,0,0,0,5-5.81V729.2a19.37,19.37,0,0,0-5-5.81,11.86,11.86,0,0,0-7.5-2.31,10.84,10.84,0,0,0-5.95,1.51,12.12,12.12,0,0,0-3.87,4,17.18,17.18,0,0,0-2.12,5.76,36.3,36.3,0,0,0-.61,6.75,35.53,35.53,0,0,0,.61,6.7,17.16,17.16,0,0,0,2.12,5.71,11.52,11.52,0,0,0,3.92,4A11.34,11.34,0,0,0,997.7,757Z"/><path class="cls-1" d="M1052.73,712.87a20.67,20.67,0,0,1,8.4,1.7,18.6,18.6,0,0,1,6.7,5,23.32,23.32,0,0,1,4.39,8.17,37,37,0,0,1,1.56,11.28,37.49,37.49,0,0,1-1.56,11.33,23.72,23.72,0,0,1-4.34,8.21,18.14,18.14,0,0,1-6.66,5,20.91,20.91,0,0,1-8.5,1.7,21.14,21.14,0,0,1-8.59-1.7,18.13,18.13,0,0,1-6.66-5,23.68,23.68,0,0,1-4.34-8.21,37.46,37.46,0,0,1-1.56-11.33,37,37,0,0,1,1.56-11.28,23.29,23.29,0,0,1,4.39-8.17,18.57,18.57,0,0,1,6.7-5A20.9,20.9,0,0,1,1052.73,712.87Zm0,8.31a10.89,10.89,0,0,0-9.11,4.53q-3.45,4.53-3.45,13.4t3.45,13.36a11.45,11.45,0,0,0,18.17,0q3.49-4.48,3.49-13.36t-3.49-13.4A10.93,10.93,0,0,0,1052.73,721.18Z"/><path class="cls-1" d="M1117.3,727.22a20.18,20.18,0,0,0-6.47-4.48,20.92,20.92,0,0,0-8.83-1.84q-4.81,0-7.08,1.79a5.37,5.37,0,0,0-2.27,4.34,4.41,4.41,0,0,0,1.13,3.11,9,9,0,0,0,3.12,2.08,25.66,25.66,0,0,0,3.82,1.32q2.12.57,4.39,1.23t4.63,1.42a31.31,31.31,0,0,1,4.44,1.79,14.3,14.3,0,0,1,5.71,4.58,12.22,12.22,0,0,1,1.84,7A14.75,14.75,0,0,1,1120,757a13.85,13.85,0,0,1-4.53,4.81,19.45,19.45,0,0,1-6.42,2.64,33.27,33.27,0,0,1-7.27.8,35.53,35.53,0,0,1-6.47-.57,31,31,0,0,1-5.62-1.56,27,27,0,0,1-4.58-2.27,19.55,19.55,0,0,1-3.45-2.69l3.49-7.55a24.79,24.79,0,0,0,7.08,4.44,23.4,23.4,0,0,0,9.44,1.89,15.34,15.34,0,0,0,8-1.89,6,6,0,0,0,3.16-5.48,4.7,4.7,0,0,0-1.27-3.4,11.84,11.84,0,0,0-4.11-2.45,37.4,37.4,0,0,0-4.25-1.51q-2.26-.66-4.48-1.27t-4.25-1.27a30.89,30.89,0,0,1-3.63-1.42,14,14,0,0,1-5.14-4.25,11.21,11.21,0,0,1-1.93-6.8,12.88,12.88,0,0,1,1.42-6.09,13.39,13.39,0,0,1,3.87-4.53,17.37,17.37,0,0,1,5.9-2.78,28,28,0,0,1,7.41-.94,26.83,26.83,0,0,1,11,2.08,25.2,25.2,0,0,1,7.17,4.53Z"/></g></svg>