<svg xmlns="http://www.w3.org/2000/svg" viewBox="0 0 118.8 118.8"><defs><style>.cls-1{fill:#ff9c01;}.cls-2{fill:#e6e6e6;}</style></defs><title>phoneIconDark</title><g id="Camada_2" data-name="Camada 2"><g id="Camada_1-2" data-name="Camada 1"><path class="cls-1" d="M48.64,32.72A14.55,14.55,0,0,1,44.9,41.5c-5,5.49-4.83,11.62.38,16.85q9.66,9.72,19.38,19.38c4.94,4.91,11.23,5,16.35.4A12.86,12.86,0,0,1,96.32,76l14.81,7.39c8.6,4.28,10.28,14.61,3.44,21.39-6.35,6.29-13.62,11.05-22.46,13.05-9.13,2.06-17.92.63-26.43-2.9-9.79-4.06-18.21-10.25-26-17.28C29.05,88.14,19.32,77.85,12,65.49,7.38,57.63,4.21,49.24,4,40,3.76,28.45,8.38,18.79,15.94,10.33c2.47-2.76,5-5.3,8.89-6.07a12.76,12.76,0,0,1,14,6.46c2.91,5.55,5.68,11.18,8.36,16.85A29.76,29.76,0,0,1,48.64,32.72ZM72.93,90.8a20,20,0,0,1-14.28-5.88c-7-7-14.08-13.88-20.9-21a21.18,21.18,0,0,1-4.44-7.18c-2.83-7.77-1.23-14.87,4.25-21,1.15-1.29,1.95-2.66,1.19-4.24q-4-8.24-8.21-16.34a3.39,3.39,0,0,0-5.39-.78,27.69,27.69,0,0,0-2.44,2.49c-6.15,7-9.95,14.86-9.3,24.4.48,7,3.06,13.31,6.55,19.29,6.25,10.71,14.55,19.71,23.57,28.09,7.4,6.87,15.29,13.09,24.61,17.21,7,3.09,14.24,4.68,21.9,3,7.06-1.55,12.75-5.47,17.78-10.47,2.53-2.5,2.08-5.05-1.13-6.66L92.51,84.58c-2.65-1.32-3.34-1.21-5.58.83A20.33,20.33,0,0,1,72.93,90.8Z"/><path class="cls-2" d="M44.64,28.72A14.55,14.55,0,0,1,40.9,37.5c-5,5.49-4.83,11.62.38,16.85q9.66,9.72,19.38,19.38c4.94,4.91,11.23,5,16.35.4A12.86,12.86,0,0,1,92.32,72l14.81,7.39c8.6,4.28,10.28,14.61,3.44,21.39-6.35,6.29-13.62,11.05-22.46,13.05-9.13,2.06-17.92.63-26.43-2.9-9.79-4.06-18.21-10.25-26-17.28C25.05,84.14,15.32,73.85,8,61.49,3.38,53.63.21,45.24,0,36-.24,24.45,4.38,14.79,11.94,6.33,14.41,3.57,17,1,20.84.27a12.76,12.76,0,0,1,14,6.46c2.91,5.55,5.68,11.18,8.36,16.85A29.76,29.76,0,0,1,44.64,28.72ZM68.93,86.8a20,20,0,0,1-14.28-5.88c-7-7-14.08-13.88-20.9-21a21.18,21.18,0,0,1-4.44-7.18c-2.83-7.77-1.23-14.87,4.25-21,1.15-1.29,1.95-2.66,1.19-4.24q-4-8.24-8.21-16.34a3.39,3.39,0,0,0-5.39-.78,27.69,27.69,0,0,0-2.44,2.49c-6.15,7-9.95,14.86-9.3,24.4.48,7,3.06,13.31,6.55,19.29,6.25,10.71,14.55,19.71,23.57,28.09,7.4,6.87,15.29,13.09,24.61,17.21,7,3.09,14.24,4.68,21.9,3,7.06-1.55,12.75-5.47,17.78-10.47,2.53-2.5,2.08-5.05-1.13-6.66L88.51,80.58c-2.65-1.32-3.34-1.21-5.58.83A20.33,20.33,0,0,1,68.93,86.8Z"/></g></g></svg>