<svg xmlns="http://www.w3.org/2000/svg" viewBox="0 0 64 64"><defs><style>.cls-1{fill:#1e0540;}</style></defs><title>previous</title><g id="Camada_2" data-name="Camada 2"><g id="Camada_2-2" data-name="Camada 2"><path class="cls-1" d="M32,0A32,32,0,1,0,64,32,32,32,0,0,0,32,0ZM51.9,32.23a3.08,3.08,0,0,1-3.08,3.07H25.42l4.27,3.5c2.85,2.34,4.67,3.87,4.8,4a3.08,3.08,0,0,1,.66,2,3.05,3.05,0,0,1-.95,2.32,3.23,3.23,0,0,1-3.86.55c-.55-.31-17.27-14-17.55-14.37A3.24,3.24,0,0,1,13,29.06c.26-.26,1.94-1.51,5.1-3.77l8.54-6.13c2.11-1.52,4-2.84,4.19-2.94a3.18,3.18,0,0,1,.73-.26,3.8,3.8,0,0,1,1.68.06,3.32,3.32,0,0,1,1.8,1.39,3.26,3.26,0,0,1-.41,4c-.18.18-2.38,1.8-5,3.68l-4.48,3.22H48.82a3.08,3.08,0,0,1,3.08,3.07Z"/></g></g></svg>